<svg xmlns="http://www.w3.org/2000/svg" width="1080" height="720" viewBox="0 0 1080 720">
  <rect width="1080" height="720" fill="#FFF3E8"/>
  <rect width="1080" height="180" fill="#E8722C"/>
  <rect x="60" y="56" rx="26" ry="26" width="172" height="60" fill="#FFD23F"/>
  <text x="146" y="98" font-family="Malgun Gothic" font-weight="bold" font-size="32" fill="#2A2118" text-anchor="middle">생활꿀팁</text>
  <text x="252" y="120" font-family="Malgun Gothic" font-weight="bold" font-size="56" fill="#FFFFFF">세탁 후 문 · 세제통 열기</text>

  <!-- 세탁기 -->
  <rect x="370" y="250" width="340" height="360" rx="24" fill="#FFFFFF" stroke="#E8722C" stroke-width="8"/>
  <rect x="370" y="250" width="340" height="70" rx="24" fill="#E8722C"/>
  <!-- 세제통(열린) -->
  <rect x="390" y="270" width="80" height="34" rx="6" fill="#FFD23F"/>
  <line x1="470" y1="287" x2="510" y2="270" stroke="#FFFFFF" stroke-width="6"/>
  <!-- 문(열린) -->
  <circle cx="560" cy="465" r="120" fill="#FFF3E8" stroke="#E8722C" stroke-width="8"/>
  <path d="M560 465 m-120 0 a120 120 0 0 1 240 0" fill="none"/>
  <line x1="680" y1="465" x2="800" y2="400" stroke="#E8722C" stroke-width="8"/>
  <circle cx="560" cy="465" r="78" fill="#D9ECF7" stroke="#E8722C" stroke-width="4"/>

  <!-- 습기 증발 표시 -->
  <text x="560" y="350" font-family="Malgun Gothic" font-weight="bold" font-size="40" fill="#C85D1C" text-anchor="middle">~ 습기 마름 ~</text>

  <rect x="60" y="630" width="960" height="60" rx="14" fill="#E8722C"/>
  <text x="540" y="672" font-family="Malgun Gothic" font-weight="bold" font-size="36" fill="#FFFFFF" text-anchor="middle">탈수 끝나면 즉시 꺼내고, 곧바로 건조 시작</text>
</svg>