<svg xmlns="http://www.w3.org/2000/svg" width="1080" height="1350" viewBox="0 0 1080 1350"><rect width="1080" height="1350" fill="#FFF6EE"/><rect width="1080" height="190" fill="#E8722C"/><rect x="64" y="60" rx="30" ry="30" width="200" height="60" fill="#FFD23F"/><text x="164" y="102" font-family="Malgun Gothic, 'Malgun Gothic', sans-serif" font-weight="bold" font-size="34" fill="#1a1a1a" text-anchor="middle">생활꿀팁</text><text x="64" y="160" font-family="Malgun Gothic, 'Malgun Gothic', sans-serif" font-weight="bold" font-size="60" fill="#ffffff">이럴 땐 전문 분해청소</text>
  <text x="64" y="290" font-family="Malgun Gothic, 'Malgun Gothic', sans-serif" font-weight="bold" font-size="44" fill="#C85A18">이런 신호면 셀프로는 한계</text>
  <g font-family="Malgun Gothic, 'Malgun Gothic', sans-serif" font-size="40" fill="#2A2A2A">
    <text x="64" y="365">• 청소해도 냄새가 며칠 이상 계속·반복</text>
    <text x="64" y="430" font-weight="bold" fill="#E23B3B">• 송풍구 안쪽에 검은 곰팡이가 보임</text>
    <text x="64" y="495">• 냉각핀·송풍팬·드레인팬 내부 오염 심함</text>
  </g>
  <text x="64" y="600" font-family="Malgun Gothic, 'Malgun Gothic', sans-serif" font-weight="bold" font-size="44" fill="#C85A18">2026년 분해청소 비용 (정찰제 기준)</text>
  <g font-family="Malgun Gothic, 'Malgun Gothic', sans-serif" font-size="42">
    <rect x="64" y="640" width="952" height="86" rx="14" fill="#ffffff" stroke="#F0D8C4" stroke-width="2"/>
    <text x="100" y="697" font-weight="bold" fill="#2A2A2A">벽걸이</text>
    <text x="980" y="697" font-weight="bold" fill="#E8722C" text-anchor="end">92,400원~</text>
    <rect x="64" y="736" width="952" height="86" rx="14" fill="#ffffff" stroke="#F0D8C4" stroke-width="2"/>
    <text x="100" y="793" font-weight="bold" fill="#2A2A2A">스탠드</text>
    <text x="980" y="793" font-weight="bold" fill="#E8722C" text-anchor="end">165,000원~</text>
    <rect x="64" y="832" width="952" height="86" rx="14" fill="#ffffff" stroke="#F0D8C4" stroke-width="2"/>
    <text x="100" y="889" font-weight="bold" fill="#2A2A2A">시스템 1way(천장형)</text>
    <text x="980" y="889" font-weight="bold" fill="#E8722C" text-anchor="end">118,800원~</text>
    <rect x="64" y="928" width="952" height="86" rx="14" fill="#ffffff" stroke="#F0D8C4" stroke-width="2"/>
    <text x="100" y="985" font-weight="bold" fill="#2A2A2A">시스템 4way</text>
    <text x="980" y="985" font-weight="bold" fill="#E8722C" text-anchor="end">158,400원~</text>
    <rect x="64" y="1024" width="952" height="86" rx="14" fill="#ffffff" stroke="#F0D8C4" stroke-width="2"/>
    <text x="100" y="1081" font-weight="bold" fill="#2A2A2A">2in1형</text>
    <text x="980" y="1081" font-weight="bold" fill="#E8722C" text-anchor="end">224,400원~</text>
  </g>
  <rect x="64" y="1140" width="952" height="100" rx="20" fill="#FFF0DC"/>
  <text x="540" y="1202" font-family="Malgun Gothic, 'Malgun Gothic', sans-serif" font-size="36" fill="#2A2A2A" text-anchor="middle">권장 주기: 연 1회 이상 · 여름 전 4~5월이 적기</text>
<rect x="0" y="1270" width="1080" height="80" fill="#F3E3D5"/><text x="64" y="1322" font-family="Malgun Gothic, 'Malgun Gothic', sans-serif" font-size="30" fill="#5B6B7C">출처: 청연 정찰제 기준(2026)</text><text x="1016" y="1322" font-family="Malgun Gothic, 'Malgun Gothic', sans-serif" font-size="30" fill="#5B6B7C" text-anchor="end">blog.naver.com/trip_chocho</text></svg>