<svg xmlns="http://www.w3.org/2000/svg" width="1080" height="1350" viewBox="0 0 1080 1350"><rect width="1080" height="1350" fill="#FFF6EE"/><rect width="1080" height="190" fill="#E8722C"/><rect x="64" y="60" rx="30" ry="30" width="200" height="60" fill="#FFD23F"/><text x="164" y="102" font-family="Malgun Gothic, 'Malgun Gothic', sans-serif" font-weight="bold" font-size="34" fill="#1a1a1a" text-anchor="middle">생활꿀팁</text><text x="64" y="160" font-family="Malgun Gothic, 'Malgun Gothic', sans-serif" font-weight="bold" font-size="60" fill="#ffffff">곰팡이 예방 루틴 체크리스트</text>
  <g font-family="Malgun Gothic, 'Malgun Gothic', sans-serif">
    <rect x="64" y="270" width="952" height="150" rx="20" fill="#ffffff" stroke="#F0D8C4" stroke-width="3"/>
    <text x="110" y="345" font-weight="bold" font-size="44" fill="#1F8A53">✓ 냉방 종료 후</text>
    <text x="110" y="400" font-size="40" fill="#2A2A2A">바로 끄지 말고 송풍·자동건조 30분~1시간 (핵심)</text>
    <rect x="64" y="440" width="952" height="150" rx="20" fill="#ffffff" stroke="#F0D8C4" stroke-width="3"/>
    <text x="110" y="515" font-weight="bold" font-size="44" fill="#1F8A53">✓ 평소</text>
    <text x="110" y="570" font-size="40" fill="#2A2A2A">자동 건조(애프터 블로우) 기능 켜두기</text>
    <rect x="64" y="610" width="952" height="150" rx="20" fill="#ffffff" stroke="#F0D8C4" stroke-width="3"/>
    <text x="110" y="685" font-weight="bold" font-size="44" fill="#1F8A53">✓ 2주마다</text>
    <text x="110" y="740" font-size="40" fill="#2A2A2A">필터 청소로 먼지·습기 축적 막기</text>
    <rect x="64" y="780" width="952" height="150" rx="20" fill="#ffffff" stroke="#F0D8C4" stroke-width="3"/>
    <text x="110" y="855" font-weight="bold" font-size="44" fill="#1F8A53">✓ 여름 전</text>
    <text x="110" y="910" font-size="40" fill="#2A2A2A">필터·냉각핀 청소 + 창문 열고 송풍 20~30분</text>
    <rect x="64" y="950" width="952" height="150" rx="20" fill="#ffffff" stroke="#F0D8C4" stroke-width="3"/>
    <text x="110" y="1025" font-weight="bold" font-size="44" fill="#1F8A53">✓ 시즌 종료 후</text>
    <text x="110" y="1080" font-size="40" fill="#2A2A2A">보관 전 송풍 건조로 내부 말리기</text>
  </g>
  <rect x="64" y="1130" width="952" height="110" rx="20" fill="#FFE2E2"/>
  <text x="540" y="1198" font-family="Malgun Gothic, 'Malgun Gothic', sans-serif" font-weight="bold" font-size="40" fill="#E23B3B" text-anchor="middle">청소 전 반드시 전원 OFF + 플러그 분리 (감전 주의)</text>
<rect x="0" y="1270" width="1080" height="80" fill="#F3E3D5"/><text x="1016" y="1322" font-family="Malgun Gothic, 'Malgun Gothic', sans-serif" font-size="30" fill="#5B6B7C" text-anchor="end">blog.naver.com/trip_chocho</text></svg>