<svg xmlns="http://www.w3.org/2000/svg" width="1080" height="1350" viewBox="0 0 1080 1350">
  <rect width="1080" height="1350" fill="#F4F7FB"/>
  <rect width="1080" height="210" fill="#1B5FA6"/>
  <rect x="60" y="60" rx="26" width="150" height="52" fill="#FFD23F"/>
  <text x="135" y="97" font-family="Noto Sans KR, Malgun Gothic, sans-serif" font-weight="bold" font-size="30" fill="#1a1a1a" text-anchor="middle">2026년</text>
  <text x="60" y="175" font-family="Noto Sans KR, Malgun Gothic, sans-serif" font-weight="bold" font-size="60" fill="#ffffff">서비스 종류별 시간당 요금</text>

  <!-- 헤더 -->
  <g font-family="Noto Sans KR, Malgun Gothic, sans-serif">
    <rect x="60" y="270" width="600" height="88" rx="14" fill="#1B5FA6"/>
    <rect x="672" y="270" width="348" height="88" rx="14" fill="#1B5FA6"/>
    <text x="90" y="325" font-size="40" font-weight="bold" fill="#ffffff">서비스 종류</text>
    <text x="846" y="325" font-size="40" font-weight="bold" fill="#ffffff" text-anchor="middle">시간당 요금</text>
  </g>

  <!-- 행 -->
  <g font-family="Noto Sans KR, Malgun Gothic, sans-serif">
    <rect x="60" y="376" width="600" height="150" rx="14" fill="#ffffff" stroke="#D6E0EC"/>
    <rect x="672" y="376" width="348" height="150" rx="14" fill="#EAF2FA" stroke="#D6E0EC"/>
    <text x="90" y="445" font-size="42" font-weight="bold" fill="#1a1a1a">시간제 기본형</text>
    <text x="90" y="493" font-size="28" fill="#5B6B7C">등·하원, 놀이, 간식 챙김</text>
    <text x="846" y="470" font-size="48" font-weight="bold" fill="#1B5FA6" text-anchor="middle">12,790원</text>

    <rect x="60" y="544" width="600" height="150" rx="14" fill="#ffffff" stroke="#D6E0EC"/>
    <rect x="672" y="544" width="348" height="150" rx="14" fill="#EAF2FA" stroke="#D6E0EC"/>
    <text x="90" y="613" font-size="42" font-weight="bold" fill="#1a1a1a">시간제 종합형</text>
    <text x="90" y="661" font-size="28" fill="#5B6B7C">기본형 + 가사 일부 포함</text>
    <text x="846" y="638" font-size="48" font-weight="bold" fill="#1B5FA6" text-anchor="middle">16,620원</text>

    <rect x="60" y="712" width="600" height="150" rx="14" fill="#ffffff" stroke="#D6E0EC"/>
    <rect x="672" y="712" width="348" height="150" rx="14" fill="#EAF2FA" stroke="#D6E0EC"/>
    <text x="90" y="781" font-size="42" font-weight="bold" fill="#1a1a1a">영아종일제</text>
    <text x="90" y="829" font-size="28" fill="#5B6B7C">생후 3개월~만 36개월</text>
    <text x="846" y="806" font-size="48" font-weight="bold" fill="#1B5FA6" text-anchor="middle">12,790원</text>

    <rect x="60" y="880" width="600" height="150" rx="14" fill="#ffffff" stroke="#D6E0EC"/>
    <rect x="672" y="880" width="348" height="150" rx="14" fill="#EAF2FA" stroke="#D6E0EC"/>
    <text x="90" y="949" font-size="42" font-weight="bold" fill="#1a1a1a">질병감염아동 돌봄</text>
    <text x="90" y="997" font-size="28" fill="#5B6B7C">법정 전염성 질병 감염</text>
    <text x="846" y="974" font-size="48" font-weight="bold" fill="#1B5FA6" text-anchor="middle">15,340원</text>
  </g>

  <!-- 주의 박스 -->
  <rect x="60" y="1070" width="960" height="120" rx="16" fill="#FFF6DA" stroke="#F0D98A"/>
  <text x="90" y="1128" font-family="Noto Sans KR, Malgun Gothic, sans-serif" font-size="34" font-weight="bold" fill="#8A6D1A">야간(22~06시)·일요일·공휴일은 기본요금 50% 증액</text>
  <text x="90" y="1170" font-family="Noto Sans KR, Malgun Gothic, sans-serif" font-size="30" fill="#8A6D1A">(야간·휴일 할증 중복 적용 안 됨)</text>

  <rect x="0" y="1270" width="1080" height="80" fill="#E8EEF5"/>
  <text x="60" y="1322" font-family="Noto Sans KR, Malgun Gothic, sans-serif" font-size="32" fill="#5B6B7C">출처: 아이돌봄서비스 누리집(idolbom.go.kr) 2026 요금표</text>
</svg>
