<svg xmlns="http://www.w3.org/2000/svg" width="1080" height="1080" viewBox="0 0 1080 1080">
<rect width="1080" height="1080" fill="#F4F7FB"/>
<rect width="1080" height="170" fill="#1B5FA6"/>
<text x="60" y="108" font-family="Malgun Gothic" font-weight="bold" font-size="58" fill="#FFFFFF">지원 금액·기간 한눈에</text>
<text x="540" y="290" font-family="Malgun Gothic" font-weight="bold" font-size="60" fill="#1a1a1a" text-anchor="middle">월 20만 원 × 최대 24개월</text>
<text x="540" y="400" font-family="Malgun Gothic" font-weight="bold" font-size="96" fill="#1B5FA6" text-anchor="middle">= 총 480만 원</text>
<rect x="90" y="470" width="132" height="100" rx="14" fill="#ffffff" stroke="#D6E0EC"/><text x="156" y="515" font-family="Malgun Gothic" font-size="28" fill="#5B6B7C" text-anchor="middle">1회차</text><text x="156" y="552" font-family="Malgun Gothic" font-weight="bold" font-size="32" fill="#1B5FA6" text-anchor="middle">20만</text><rect x="242" y="470" width="132" height="100" rx="14" fill="#ffffff" stroke="#D6E0EC"/><text x="308" y="515" font-family="Malgun Gothic" font-size="28" fill="#5B6B7C" text-anchor="middle">2회차</text><text x="308" y="552" font-family="Malgun Gothic" font-weight="bold" font-size="32" fill="#1B5FA6" text-anchor="middle">20만</text><rect x="394" y="470" width="132" height="100" rx="14" fill="#ffffff" stroke="#D6E0EC"/><text x="460" y="515" font-family="Malgun Gothic" font-size="28" fill="#5B6B7C" text-anchor="middle">3회차</text><text x="460" y="552" font-family="Malgun Gothic" font-weight="bold" font-size="32" fill="#1B5FA6" text-anchor="middle">20만</text><rect x="546" y="470" width="132" height="100" rx="14" fill="#ffffff" stroke="#D6E0EC"/><text x="612" y="515" font-family="Malgun Gothic" font-size="28" fill="#5B6B7C" text-anchor="middle">4회차</text><text x="612" y="552" font-family="Malgun Gothic" font-weight="bold" font-size="32" fill="#1B5FA6" text-anchor="middle">20만</text><rect x="698" y="470" width="132" height="100" rx="14" fill="#ffffff" stroke="#D6E0EC"/><text x="764" y="515" font-family="Malgun Gothic" font-size="28" fill="#5B6B7C" text-anchor="middle">5회차</text><text x="764" y="552" font-family="Malgun Gothic" font-weight="bold" font-size="32" fill="#1B5FA6" text-anchor="middle">20만</text><rect x="850" y="470" width="132" height="100" rx="14" fill="#ffffff" stroke="#D6E0EC"/><text x="916" y="515" font-family="Malgun Gothic" font-size="28" fill="#5B6B7C" text-anchor="middle">6회차</text><text x="916" y="552" font-family="Malgun Gothic" font-weight="bold" font-size="32" fill="#1B5FA6" text-anchor="middle">20만</text><rect x="90" y="590" width="132" height="100" rx="14" fill="#ffffff" stroke="#D6E0EC"/><text x="156" y="635" font-family="Malgun Gothic" font-size="28" fill="#5B6B7C" text-anchor="middle">7회차</text><text x="156" y="672" font-family="Malgun Gothic" font-weight="bold" font-size="32" fill="#1B5FA6" text-anchor="middle">20만</text><rect x="242" y="590" width="132" height="100" rx="14" fill="#ffffff" stroke="#D6E0EC"/><text x="308" y="635" font-family="Malgun Gothic" font-size="28" fill="#5B6B7C" text-anchor="middle">8회차</text><text x="308" y="672" font-family="Malgun Gothic" font-weight="bold" font-size="32" fill="#1B5FA6" text-anchor="middle">20만</text><rect x="394" y="590" width="132" height="100" rx="14" fill="#ffffff" stroke="#D6E0EC"/><text x="460" y="635" font-family="Malgun Gothic" font-size="28" fill="#5B6B7C" text-anchor="middle">9회차</text><text x="460" y="672" font-family="Malgun Gothic" font-weight="bold" font-size="32" fill="#1B5FA6" text-anchor="middle">20만</text><rect x="546" y="590" width="132" height="100" rx="14" fill="#ffffff" stroke="#D6E0EC"/><text x="612" y="635" font-family="Malgun Gothic" font-size="28" fill="#5B6B7C" text-anchor="middle">10회차</text><text x="612" y="672" font-family="Malgun Gothic" font-weight="bold" font-size="32" fill="#1B5FA6" text-anchor="middle">20만</text><rect x="698" y="590" width="132" height="100" rx="14" fill="#ffffff" stroke="#D6E0EC"/><text x="764" y="635" font-family="Malgun Gothic" font-size="28" fill="#5B6B7C" text-anchor="middle">11회차</text><text x="764" y="672" font-family="Malgun Gothic" font-weight="bold" font-size="32" fill="#1B5FA6" text-anchor="middle">20만</text><rect x="850" y="590" width="132" height="100" rx="14" fill="#ffffff" stroke="#D6E0EC"/><text x="916" y="635" font-family="Malgun Gothic" font-size="28" fill="#5B6B7C" text-anchor="middle">12회차</text><text x="916" y="672" font-family="Malgun Gothic" font-weight="bold" font-size="32" fill="#1B5FA6" text-anchor="middle">20만</text><rect x="90" y="710" width="132" height="100" rx="14" fill="#ffffff" stroke="#D6E0EC"/><text x="156" y="755" font-family="Malgun Gothic" font-size="28" fill="#5B6B7C" text-anchor="middle">13회차</text><text x="156" y="792" font-family="Malgun Gothic" font-weight="bold" font-size="32" fill="#1B5FA6" text-anchor="middle">20만</text><rect x="242" y="710" width="132" height="100" rx="14" fill="#ffffff" stroke="#D6E0EC"/><text x="308" y="755" font-family="Malgun Gothic" font-size="28" fill="#5B6B7C" text-anchor="middle">14회차</text><text x="308" y="792" font-family="Malgun Gothic" font-weight="bold" font-size="32" fill="#1B5FA6" text-anchor="middle">20만</text><rect x="394" y="710" width="132" height="100" rx="14" fill="#ffffff" stroke="#D6E0EC"/><text x="460" y="755" font-family="Malgun Gothic" font-size="28" fill="#5B6B7C" text-anchor="middle">15회차</text><text x="460" y="792" font-family="Malgun Gothic" font-weight="bold" font-size="32" fill="#1B5FA6" text-anchor="middle">20만</text><rect x="546" y="710" width="132" height="100" rx="14" fill="#ffffff" stroke="#D6E0EC"/><text x="612" y="755" font-family="Malgun Gothic" font-size="28" fill="#5B6B7C" text-anchor="middle">16회차</text><text x="612" y="792" font-family="Malgun Gothic" font-weight="bold" font-size="32" fill="#1B5FA6" text-anchor="middle">20만</text><rect x="698" y="710" width="132" height="100" rx="14" fill="#ffffff" stroke="#D6E0EC"/><text x="764" y="755" font-family="Malgun Gothic" font-size="28" fill="#5B6B7C" text-anchor="middle">17회차</text><text x="764" y="792" font-family="Malgun Gothic" font-weight="bold" font-size="32" fill="#1B5FA6" text-anchor="middle">20만</text><rect x="850" y="710" width="132" height="100" rx="14" fill="#ffffff" stroke="#D6E0EC"/><text x="916" y="755" font-family="Malgun Gothic" font-size="28" fill="#5B6B7C" text-anchor="middle">18회차</text><text x="916" y="792" font-family="Malgun Gothic" font-weight="bold" font-size="32" fill="#1B5FA6" text-anchor="middle">20만</text><rect x="90" y="830" width="132" height="100" rx="14" fill="#ffffff" stroke="#D6E0EC"/><text x="156" y="875" font-family="Malgun Gothic" font-size="28" fill="#5B6B7C" text-anchor="middle">19회차</text><text x="156" y="912" font-family="Malgun Gothic" font-weight="bold" font-size="32" fill="#1B5FA6" text-anchor="middle">20만</text><rect x="242" y="830" width="132" height="100" rx="14" fill="#ffffff" stroke="#D6E0EC"/><text x="308" y="875" font-family="Malgun Gothic" font-size="28" fill="#5B6B7C" text-anchor="middle">20회차</text><text x="308" y="912" font-family="Malgun Gothic" font-weight="bold" font-size="32" fill="#1B5FA6" text-anchor="middle">20만</text><rect x="394" y="830" width="132" height="100" rx="14" fill="#ffffff" stroke="#D6E0EC"/><text x="460" y="875" font-family="Malgun Gothic" font-size="28" fill="#5B6B7C" text-anchor="middle">21회차</text><text x="460" y="912" font-family="Malgun Gothic" font-weight="bold" font-size="32" fill="#1B5FA6" text-anchor="middle">20만</text><rect x="546" y="830" width="132" height="100" rx="14" fill="#ffffff" stroke="#D6E0EC"/><text x="612" y="875" font-family="Malgun Gothic" font-size="28" fill="#5B6B7C" text-anchor="middle">22회차</text><text x="612" y="912" font-family="Malgun Gothic" font-weight="bold" font-size="32" fill="#1B5FA6" text-anchor="middle">20만</text><rect x="698" y="830" width="132" height="100" rx="14" fill="#ffffff" stroke="#D6E0EC"/><text x="764" y="875" font-family="Malgun Gothic" font-size="28" fill="#5B6B7C" text-anchor="middle">23회차</text><text x="764" y="912" font-family="Malgun Gothic" font-weight="bold" font-size="32" fill="#1B5FA6" text-anchor="middle">20만</text><rect x="850" y="830" width="132" height="100" rx="14" fill="#ffffff" stroke="#D6E0EC"/><text x="916" y="875" font-family="Malgun Gothic" font-size="28" fill="#5B6B7C" text-anchor="middle">24회차</text><text x="916" y="912" font-family="Malgun Gothic" font-weight="bold" font-size="32" fill="#1B5FA6" text-anchor="middle">20만</text>
<rect x="90" y="950" width="900" height="80" rx="16" fill="#E8EEF5"/>
<text x="540" y="1002" font-family="Malgun Gothic" font-size="32" fill="#16487E" text-anchor="middle">실 납부 월세 범위 내 지급 · 보증금·관리비 제외</text>
</svg>