<svg xmlns="http://www.w3.org/2000/svg" width="1080" height="1350" viewBox="0 0 1080 1350">
<rect width="1080" height="1350" fill="#F4F7FB"/>
<rect width="1080" height="200" fill="#1B5FA6"/>
<text x="60" y="105" font-family="Malgun Gothic" font-weight="bold" font-size="60" fill="#FFFFFF">복지로 온라인 신청 절차</text>
<text x="60" y="165" font-family="Malgun Gothic" font-size="38" fill="#E8EEF5">주민센터 방문 신청도 가능</text>
<rect x="60" y="280" width="960" height="180" rx="18" fill="#ffffff" stroke="#D6E0EC"/><circle cx="150" cy="370" r="50" fill="#1B5FA6"/><text x="150" y="388" font-family="Malgun Gothic" font-weight="bold" font-size="56" fill="#FFFFFF" text-anchor="middle">1</text><text x="240" y="358" font-family="Malgun Gothic" font-weight="bold" font-size="44" fill="#1a1a1a">복지로 접속·로그인</text><text x="240" y="418" font-family="Malgun Gothic" font-size="36" fill="#5B6B7C">www.bokjiro.go.kr</text><rect x="60" y="480" width="960" height="180" rx="18" fill="#ffffff" stroke="#D6E0EC"/><circle cx="150" cy="570" r="50" fill="#1B5FA6"/><text x="150" y="588" font-family="Malgun Gothic" font-weight="bold" font-size="56" fill="#FFFFFF" text-anchor="middle">2</text><text x="240" y="558" font-family="Malgun Gothic" font-weight="bold" font-size="44" fill="#1a1a1a">서비스 신청 → 복지급여 신청</text><text x="240" y="618" font-family="Malgun Gothic" font-size="36" fill="#5B6B7C">온라인 신청 메뉴</text><rect x="60" y="680" width="960" height="180" rx="18" fill="#ffffff" stroke="#D6E0EC"/><circle cx="150" cy="770" r="50" fill="#1B5FA6"/><text x="150" y="788" font-family="Malgun Gothic" font-weight="bold" font-size="56" fill="#FFFFFF" text-anchor="middle">3</text><text x="240" y="758" font-family="Malgun Gothic" font-weight="bold" font-size="44" fill="#1a1a1a">'청년월세 한시 특별지원' 검색</text><text x="240" y="818" font-family="Malgun Gothic" font-size="36" fill="#5B6B7C">해당 사업 선택</text><rect x="60" y="880" width="960" height="180" rx="18" fill="#ffffff" stroke="#D6E0EC"/><circle cx="150" cy="970" r="50" fill="#1B5FA6"/><text x="150" y="988" font-family="Malgun Gothic" font-weight="bold" font-size="56" fill="#FFFFFF" text-anchor="middle">4</text><text x="240" y="958" font-family="Malgun Gothic" font-weight="bold" font-size="44" fill="#1a1a1a">가구·소득·임대차 정보 입력</text><text x="240" y="1018" font-family="Malgun Gothic" font-size="36" fill="#5B6B7C">계약서 등 서류 업로드</text><rect x="60" y="1080" width="960" height="180" rx="18" fill="#ffffff" stroke="#D6E0EC"/><circle cx="150" cy="1170" r="50" fill="#1B5FA6"/><text x="150" y="1188" font-family="Malgun Gothic" font-weight="bold" font-size="56" fill="#FFFFFF" text-anchor="middle">5</text><text x="240" y="1158" font-family="Malgun Gothic" font-weight="bold" font-size="44" fill="#1a1a1a">접수 후 시·군·구청 심사</text><text x="240" y="1218" font-family="Malgun Gothic" font-size="36" fill="#5B6B7C">통상 약 30일 소요</text>
<rect x="0" y="1270" width="1080" height="80" fill="#E8EEF5"/>
<text x="60" y="1322" font-family="Malgun Gothic" font-size="32" fill="#5B6B7C">정확한 신청기간·운영은 복지로 공식 공지 확인</text>
</svg>