<svg xmlns="http://www.w3.org/2000/svg" width="1080" height="1080" viewBox="0 0 1080 1080">
  <rect width="1080" height="1080" fill="#F4F7FB"/>
  <rect width="1080" height="160" fill="#1B5FA6"/>
  <text x="60" y="105" font-family="Noto Sans CJK KR" font-weight="bold" font-size="60" fill="#ffffff">어디서·무엇에 쓰나</text>
  <text x="60" y="245" font-family="Noto Sans CJK KR" font-weight="bold" font-size="44" fill="#1a1a1a">협력 예매처 7곳 (신청 시 1곳 선택)</text>
  <g font-family="Noto Sans CJK KR" font-size="36" font-weight="bold" fill="#1B5FA6">
    <rect x="60" y="280" width="300" height="80" rx="14" fill="#ffffff" stroke="#D6E0EC"/><text x="210" y="332" text-anchor="middle">NOL티켓</text>
    <rect x="390" y="280" width="300" height="80" rx="14" fill="#ffffff" stroke="#D6E0EC"/><text x="540" y="332" text-anchor="middle">티켓링크</text>
    <rect x="720" y="280" width="300" height="80" rx="14" fill="#ffffff" stroke="#D6E0EC"/><text x="870" y="332" text-anchor="middle">YES24</text>
    <rect x="60" y="375" width="300" height="80" rx="14" fill="#ffffff" stroke="#D6E0EC"/><text x="210" y="427" text-anchor="middle">멜론티켓</text>
    <rect x="390" y="375" width="300" height="80" rx="14" fill="#ffffff" stroke="#D6E0EC"/><text x="540" y="427" text-anchor="middle">메가박스</text>
    <rect x="720" y="375" width="300" height="80" rx="14" fill="#ffffff" stroke="#D6E0EC"/><text x="870" y="427" text-anchor="middle">롯데시네마</text>
    <rect x="60" y="470" width="300" height="80" rx="14" fill="#ffffff" stroke="#D6E0EC"/><text x="210" y="522" text-anchor="middle">CGV</text>
  </g>
  <text x="60" y="640" font-family="Noto Sans CJK KR" font-weight="bold" font-size="44" fill="#1a1a1a">사용 분야</text>
  <g font-family="Noto Sans CJK KR" font-size="40" fill="#1a1a1a">
    <rect x="60" y="675" width="960" height="90" rx="16" fill="#ffffff" stroke="#D6E0EC"/>
    <text x="95" y="730" font-weight="bold">공연</text><text x="1000" y="730" text-anchor="end" fill="#5B6B7C">연극·뮤지컬·클래식·오페라·발레·국악</text>
    <rect x="60" y="780" width="960" height="90" rx="16" fill="#ffffff" stroke="#D6E0EC"/>
    <text x="95" y="835" font-weight="bold">전시</text><text x="1000" y="835" text-anchor="end" fill="#5B6B7C">미술·공예</text>
    <rect x="60" y="885" width="960" height="90" rx="16" fill="#FFF6D6" stroke="#FFD23F"/>
    <text x="95" y="940" font-weight="bold">영화</text><text x="1000" y="940" text-anchor="end" fill="#E8722C">수도권 2회 · 비수도권 4회</text>
  </g>
  <rect x="0" y="1000" width="1080" height="80" fill="#E8EEF5"/>
  <text x="60" y="1052" font-family="Noto Sans CJK KR" font-size="32" fill="#5B6B7C">출처: 정책브리핑(korea.kr) · 청년문화예술패스 누리집</text>
</svg>
