<svg xmlns="http://www.w3.org/2000/svg" width="1080" height="1350" viewBox="0 0 1080 1350">
<rect width="1080" height="1350" fill="#F4F7FB"/>
<rect width="1080" height="200" fill="#1B5FA6"/>
<text x="60" y="110" font-family="Noto Sans CJK KR" font-weight="bold" font-size="56" fill="#ffffff" text-anchor="start">세대별 연간 지원 총액</text><text x="60" y="168" font-family="Noto Sans CJK KR" font-weight="bold" font-size="30" fill="#E8EEF5" text-anchor="start">여름·겨울 자유 배분 (2026.7.1~2027.5.31)</text>
<text x="60" y="395" font-family="Noto Sans CJK KR" font-weight="bold" font-size="42" fill="#1a1a1a" text-anchor="start">1인 세대</text><rect x="320" y="300" rx="16" width="620" height="150" fill="#E8EEF5"/><rect x="320" y="300" rx="16" width="261" height="150" fill="#1B5FA6"/><text x="560.9781833737345" y="395" font-family="Noto Sans CJK KR" font-weight="bold" font-size="40" fill="#ffffff" text-anchor="end">295,200원</text><text x="60" y="615" font-family="Noto Sans CJK KR" font-weight="bold" font-size="42" fill="#1a1a1a" text-anchor="start">2인 세대</text><rect x="320" y="520" rx="16" width="620" height="150" fill="#E8EEF5"/><rect x="320" y="520" rx="16" width="360" height="150" fill="#1B5FA6"/><text x="660.2595180379296" y="615" font-family="Noto Sans CJK KR" font-weight="bold" font-size="40" fill="#ffffff" text-anchor="end">407,500원</text><text x="60" y="835" font-family="Noto Sans CJK KR" font-weight="bold" font-size="42" fill="#1a1a1a" text-anchor="start">3인 세대</text><rect x="320" y="740" rx="16" width="620" height="150" fill="#E8EEF5"/><rect x="320" y="740" rx="16" width="471" height="150" fill="#1B5FA6"/><text x="770.945387138172" y="835" font-family="Noto Sans CJK KR" font-weight="bold" font-size="40" fill="#ffffff" text-anchor="end">532,700원</text><text x="60" y="1055" font-family="Noto Sans CJK KR" font-weight="bold" font-size="42" fill="#1a1a1a" text-anchor="start">4인 이상 세대</text><rect x="320" y="960" rx="16" width="620" height="150" fill="#E8EEF5"/><rect x="320" y="960" rx="16" width="620" height="150" fill="#FFD23F"/><text x="920.0" y="1055" font-family="Noto Sans CJK KR" font-weight="bold" font-size="40" fill="#1a1a1a" text-anchor="end">701,300원</text>
<rect x="60" y="1170" rx="16" width="960" height="108" fill="#E6F0FA"/><text x="540" y="1234" font-family="Noto Sans CJK KR" font-weight="bold" font-size="34" fill="#0D345F" text-anchor="middle">여름 냉방비 전용 금액은 따로 없음 · 총액 내 배분</text>
<rect y="1278" width="1080" height="72" fill="#E8EEF5"/><text x="60" y="1322" font-family="Noto Sans CJK KR" font-weight="bold" font-size="30" fill="#5B6B7C" text-anchor="start">출처: 한국에너지공단·파이낸셜뉴스(2026.6.21)</text>
</svg>