<svg xmlns="http://www.w3.org/2000/svg" width="1080" height="1350" viewBox="0 0 1080 1350">
<rect width="1080" height="1350" fill="#F4F7FB"/>
<rect width="1080" height="200" fill="#1B5FA6"/>
<text x="60" y="110" font-family="Noto Sans CJK KR" font-weight="bold" font-size="56" fill="#ffffff" text-anchor="start">신청방법 · 세 가지 채널</text><text x="60" y="168" font-family="Noto Sans CJK KR" font-weight="bold" font-size="30" fill="#E8EEF5" text-anchor="start">본인 상황에 맞게 선택</text>
<rect x="60" y="270" rx="20" width="960" height="200" fill="#ffffff" stroke="#D6E0EC" stroke-width="2"/><rect x="60" y="270" width="16" height="200" fill="#1B5FA6"/><rect x="110" y="310" rx="16" width="180" height="120" fill="#E6F0FA"/><text x="200" y="388" font-family="Noto Sans CJK KR" font-weight="bold" font-size="70" fill="#1B5FA6" text-anchor="middle">1</text><text x="330" y="358" font-family="Noto Sans CJK KR" font-weight="bold" font-size="46" fill="#1a1a1a" text-anchor="start">방문신청</text><text x="330" y="417" font-family="Noto Sans CJK KR" font-weight="bold" font-size="34" fill="#5B6B7C" text-anchor="start">읍·면·동 행정복지센터(주민센터) 방문</text><rect x="60" y="510" rx="20" width="960" height="200" fill="#ffffff" stroke="#D6E0EC" stroke-width="2"/><rect x="60" y="510" width="16" height="200" fill="#1B5FA6"/><rect x="110" y="550" rx="16" width="180" height="120" fill="#E6F0FA"/><text x="200" y="628" font-family="Noto Sans CJK KR" font-weight="bold" font-size="70" fill="#1B5FA6" text-anchor="middle">2</text><text x="330" y="598" font-family="Noto Sans CJK KR" font-weight="bold" font-size="46" fill="#1a1a1a" text-anchor="start">온라인신청</text><text x="330" y="657" font-family="Noto Sans CJK KR" font-weight="bold" font-size="34" fill="#5B6B7C" text-anchor="start">복지로 www.bokjiro.go.kr 비대면 신청</text><rect x="60" y="750" rx="20" width="960" height="200" fill="#ffffff" stroke="#D6E0EC" stroke-width="2"/><rect x="60" y="750" width="16" height="200" fill="#1B5FA6"/><rect x="110" y="790" rx="16" width="180" height="120" fill="#E6F0FA"/><text x="200" y="868" font-family="Noto Sans CJK KR" font-weight="bold" font-size="70" fill="#1B5FA6" text-anchor="middle">3</text><text x="330" y="838" font-family="Noto Sans CJK KR" font-weight="bold" font-size="46" fill="#1a1a1a" text-anchor="start">직권신청</text><text x="330" y="897" font-family="Noto Sans CJK KR" font-weight="bold" font-size="34" fill="#5B6B7C" text-anchor="start">담당 공무원이 동의받아 대신 신청</text>
<rect x="60" y="1010" rx="20" width="960" height="170" fill="#1B5FA6"/><text x="540" y="1086" font-family="Noto Sans CJK KR" font-weight="bold" font-size="48" fill="#ffffff" text-anchor="middle">통합 상담센터  1600-3190</text><text x="540" y="1151" font-family="Noto Sans CJK KR" font-weight="bold" font-size="34" fill="#FFD23F" text-anchor="middle">평일 09:00~18:00 · 모의진단 energyv.or.kr</text>
<rect y="1278" width="1080" height="72" fill="#E8EEF5"/><text x="60" y="1322" font-family="Noto Sans CJK KR" font-weight="bold" font-size="30" fill="#5B6B7C" text-anchor="start">출처: 복지로·에너지바우처 통합상담센터</text>
</svg>