<svg xmlns="http://www.w3.org/2000/svg" width="1080" height="1080" viewBox="0 0 1080 1080">
<rect width="1080" height="1080" fill="#F4F7FB"/>
<rect width="1080" height="200" fill="#1B5FA6"/>
<text x="60" y="110" font-family="Noto Sans CJK KR" font-weight="bold" font-size="52" fill="#ffffff" text-anchor="start">여름 사용방법 · 전기요금 자동차감</text><text x="60" y="168" font-family="Noto Sans CJK KR" font-weight="bold" font-size="30" fill="#E8EEF5" text-anchor="start">하절기 2026.7.1 ~ 9.30</text>
<rect x="120" y="280" rx="24" width="840" height="480" fill="#ffffff" stroke="#D6E0EC" stroke-width="3"/>
<path d="M120 304 a24 24 0 0 1 24 -24 h792 a24 24 0 0 1 24 24 v56 h-840 z" fill="#1B5FA6"/><text x="150" y="335" font-family="Noto Sans CJK KR" font-weight="bold" font-size="40" fill="#ffffff" text-anchor="start">전기요금 고지서</text>
<text x="150" y="455" font-family="Noto Sans CJK KR" font-weight="bold" font-size="38" fill="#1a1a1a" text-anchor="start">이번 달 전기요금</text><text x="930" y="455" font-family="Noto Sans CJK KR" font-weight="bold" font-size="40" fill="#5B6B7C" text-anchor="end">청구액</text>
<rect x="150" y="490" width="780" height="4" fill="#D6E0EC"/>
<text x="150" y="575" font-family="Noto Sans CJK KR" font-weight="bold" font-size="40" fill="#1B5FA6" text-anchor="start">에너지바우처 차감</text><text x="930" y="575" font-family="Noto Sans CJK KR" font-weight="bold" font-size="44" fill="#D63B3B" text-anchor="end">자동 차감</text>
<rect x="150" y="610" width="780" height="4" fill="#D6E0EC"/>
<text x="150" y="705" font-family="Noto Sans CJK KR" font-weight="bold" font-size="44" fill="#1a1a1a" text-anchor="start">실제 납부액</text><text x="930" y="705" font-family="Noto Sans CJK KR" font-weight="bold" font-size="48" fill="#1B5FA6" text-anchor="end">줄어듭니다 ↓</text>
<text x="540" y="843" font-family="Noto Sans CJK KR" font-weight="bold" font-size="34" fill="#1a1a1a" text-anchor="middle">고지서 지참해 읍·면·동 신청 → 다음 달부터 자동 차감</text>
<rect x="60" y="890" rx="16" width="960" height="100" fill="#FFF7DC"/><text x="540" y="953" font-family="Noto Sans CJK KR" font-weight="bold" font-size="36" fill="#967000" text-anchor="middle">여름은 '요금차감'만 · 사용 에너지원은 전기뿐</text>
<rect y="1008" width="1080" height="72" fill="#E8EEF5"/><text x="60" y="1052" font-family="Noto Sans CJK KR" font-weight="bold" font-size="30" fill="#5B6B7C" text-anchor="start">출처: 에너지바우처 공식사이트 energyv.or.kr</text>
</svg>