<svg xmlns="http://www.w3.org/2000/svg" width="1080" height="1350" viewBox="0 0 1080 1350">
<rect width="1080" height="1350" fill="#FFF5F7"/>
<rect width="1080" height="200" fill="#E0556E"/><text x="60" y="125" font-family="Malgun Gothic" font-weight="bold" font-size="56" fill="#FFFFFF">7월 제철 3단계로 보기</text>
<rect x="60" y="280" width="960" height="260" rx="20" fill="#ffffff" stroke="#F3CAD3"/><rect x="60" y="280" width="18" height="260" rx="9" fill="#E0556E"/><rect x="100" y="314" width="230" height="66" rx="33" fill="#E0556E"/><text x="215" y="358" font-family="Malgun Gothic" font-weight="bold" font-size="36" fill="#FFFFFF" text-anchor="middle">지금이 절정</text><text x="100" y="445" font-family="Malgun Gothic" font-weight="bold" font-size="46" fill="#2a2a2a">수박·참외·복숭아·자두·블루베리</text><text x="100" y="505" font-family="Malgun Gothic" font-size="36" fill="#7A5560">6~8월, 7월 정점</text>
<rect x="60" y="560" width="960" height="260" rx="20" fill="#ffffff" stroke="#F3CAD3"/><rect x="60" y="560" width="18" height="260" rx="9" fill="#3B9E6E"/><rect x="100" y="594" width="230" height="66" rx="33" fill="#3B9E6E"/><text x="215" y="638" font-family="Malgun Gothic" font-weight="bold" font-size="36" fill="#FFFFFF" text-anchor="middle">이제 막 시작</text><text x="100" y="725" font-family="Malgun Gothic" font-weight="bold" font-size="46" fill="#2a2a2a">멜론·포도</text><text x="100" y="785" font-family="Malgun Gothic" font-size="36" fill="#7A5560">7월 초입, 8월부터 본격</text>
<rect x="60" y="840" width="960" height="260" rx="20" fill="#ffffff" stroke="#F3CAD3"/><rect x="60" y="840" width="18" height="260" rx="9" fill="#C77A2E"/><rect x="100" y="874" width="230" height="66" rx="33" fill="#C77A2E"/><text x="215" y="918" font-family="Malgun Gothic" font-weight="bold" font-size="36" fill="#FFFFFF" text-anchor="middle">곧 안녕</text><text x="100" y="1005" font-family="Malgun Gothic" font-weight="bold" font-size="46" fill="#2a2a2a">국산 체리</text><text x="100" y="1065" font-family="Malgun Gothic" font-size="36" fill="#7A5560">5~7월, 7월 막바지</text>
<rect x="0" y="1270" width="1080" height="80" fill="#FDE8EC"/><text x="60" y="1322" font-family="Malgun Gothic" font-size="32" fill="#9A5563">※ 자료마다 시기 차이 있음 · 본문 참고</text>
</svg>