<svg xmlns="http://www.w3.org/2000/svg" width="1080" height="1350" viewBox="0 0 1080 1350">
  <rect width="1080" height="1350" fill="#FFF6EE"/>
  <rect width="1080" height="200" fill="#E8722C"/>
  <rect x="60" y="60" rx="26" ry="26" width="150" height="56" fill="#FFD23F"/>
  <text x="135" y="99" font-family="Noto Sans CJK KR" font-weight="bold" font-size="30" fill="#1a1a1a" text-anchor="middle">생활꿀팁</text>
  <text x="60" y="170" font-family="Noto Sans CJK KR" font-weight="bold" font-size="58" fill="#ffffff">식중독 의심 시 대처</text>

  <g font-family="Noto Sans CJK KR" font-size="42" fill="#1a1a1a">
    <rect x="60" y="270" width="960" height="120" rx="16" fill="#ffffff" stroke="#F0C9A8"/>
    <text x="100" y="344" font-weight="bold">1순위</text>
    <text x="1000" y="344" font-weight="bold" fill="#E8722C" text-anchor="end">수분 보충(이온음료)</text>

    <rect x="60" y="410" width="960" height="120" rx="16" fill="#ffffff" stroke="#F0C9A8"/>
    <text x="100" y="484" font-weight="bold">주의</text>
    <text x="1000" y="484" font-weight="bold" fill="#E8722C" text-anchor="end">지사제 임의복용 금지</text>

    <rect x="60" y="550" width="960" height="120" rx="16" fill="#ffffff" stroke="#F0C9A8"/>
    <text x="100" y="624" font-weight="bold">병원 방문</text>
    <text x="1000" y="624" font-weight="bold" fill="#E8722C" text-anchor="end">고열·혈변·심한 탈수</text>

    <rect x="60" y="690" width="960" height="120" rx="16" fill="#ffffff" stroke="#F0C9A8"/>
    <text x="100" y="764" font-weight="bold">취약계층</text>
    <text x="1000" y="764" font-weight="bold" fill="#E8722C" text-anchor="end">영유아·고령자 조기진료</text>

    <rect x="60" y="830" width="960" height="120" rx="16" fill="#FFE9D4" stroke="#F0C9A8"/>
    <text x="100" y="904" font-weight="bold">신고</text>
    <text x="1000" y="904" font-weight="bold" fill="#C8551A" text-anchor="end">보건소 · 1399</text>
  </g>

  <rect x="0" y="1270" width="1080" height="80" fill="#F0DECF"/>
  <text x="60" y="1322" font-family="Noto Sans CJK KR" font-size="32" fill="#7A5A44">출처: 식품의약품안전처·찾기쉬운 생활법령정보</text>
</svg>
