<svg xmlns="http://www.w3.org/2000/svg" width="1080" height="1350" viewBox="0 0 1080 1350">
<rect width="1080" height="1350" fill="#F4F7FB"/>
<rect width="1080" height="200" fill="#1B5FA6"/>
<rect x="60" y="60" rx="24" ry="24" width="200" height="48" fill="#FFD23F"/>
<text x="160" y="94" font-family="Noto Sans CJK KR" font-weight="bold" font-size="28" fill="#1a1a1a" text-anchor="middle">정부지원금</text>
<text x="60" y="168" font-family="Noto Sans CJK KR" font-weight="bold" font-size="60" fill="#ffffff">에너지캐시백 기본 구조</text>
<rect x="60" y="280" width="960" height="120" rx="16" fill="#ffffff" stroke="#D6E0EC" stroke-width="2"/>
<text x="100" y="356" font-family="Noto Sans CJK KR" font-weight="bold" font-size="44" fill="#1a1a1a">비교 기준</text>
<text x="980" y="356" font-family="Noto Sans CJK KR" font-weight="bold" font-size="44" fill="#1B5FA6" text-anchor="end">직전 2개년 동월 평균</text>
<rect x="60" y="420" width="960" height="120" rx="16" fill="#ffffff" stroke="#D6E0EC" stroke-width="2"/>
<text x="100" y="496" font-family="Noto Sans CJK KR" font-weight="bold" font-size="44" fill="#1a1a1a">지급 방식</text>
<text x="980" y="496" font-family="Noto Sans CJK KR" font-weight="bold" font-size="44" fill="#1B5FA6" text-anchor="end">다음 달 요금 자동 차감</text>
<rect x="60" y="560" width="960" height="120" rx="16" fill="#ffffff" stroke="#D6E0EC" stroke-width="2"/>
<text x="100" y="636" font-family="Noto Sans CJK KR" font-weight="bold" font-size="44" fill="#1a1a1a">신청 기간</text>
<text x="980" y="636" font-family="Noto Sans CJK KR" font-weight="bold" font-size="44" fill="#1B5FA6" text-anchor="end">연중 상시</text>
<rect x="60" y="700" width="960" height="120" rx="16" fill="#ffffff" stroke="#D6E0EC" stroke-width="2"/>
<text x="100" y="776" font-family="Noto Sans CJK KR" font-weight="bold" font-size="44" fill="#1a1a1a">유지</text>
<text x="980" y="776" font-family="Noto Sans CJK KR" font-weight="bold" font-size="44" fill="#1B5FA6" text-anchor="end">한 번 신청, 자동 유지</text>
<rect x="60" y="840" width="960" height="120" rx="16" fill="#ffffff" stroke="#D6E0EC" stroke-width="2"/>
<text x="100" y="916" font-family="Noto Sans CJK KR" font-weight="bold" font-size="44" fill="#1a1a1a">비용</text>
<text x="980" y="916" font-family="Noto Sans CJK KR" font-weight="bold" font-size="44" fill="#1B5FA6" text-anchor="end">무료</text>
<rect x="0" y="1270" width="1080" height="80" fill="#E8EEF5"/>
<text x="60" y="1322" font-family="Noto Sans CJK KR" font-size="32" fill="#5B6B7C">출처: 한국전력 발표(2026.6.29) · 전기신문/서울신문</text>
</svg>