<svg xmlns="http://www.w3.org/2000/svg" width="1080" height="1350" viewBox="0 0 1080 1350" font-family="Noto Sans CJK KR">
  <rect width="1080" height="1350" fill="#F4F7FB"/>
  <rect width="1080" height="200" fill="#2B2F36"/>
  <text x="60" y="118" font-weight="bold" font-size="54" fill="#fff">2024년 식중독 월별 발생 추이</text>
  <text x="60" y="168" font-size="30" fill="#E8EEF5">여름철(7~9월) 환자수의 50% 집중 · 7월 최고점</text>
  <rect x="110" y="930" width="55" height="190" rx="10" fill="#9AA7B4"/><text x="138" y="1164" font-size="28" fill="#5B6B7C" text-anchor="middle">1</text><rect x="183" y="930" width="55" height="190" rx="10" fill="#9AA7B4"/><text x="211" y="1164" font-size="28" fill="#5B6B7C" text-anchor="middle">2</text><rect x="256" y="867" width="55" height="253" rx="10" fill="#9AA7B4"/><text x="284" y="1164" font-size="28" fill="#5B6B7C" text-anchor="middle">3</text><rect x="330" y="803" width="55" height="317" rx="10" fill="#9AA7B4"/><text x="357" y="1164" font-size="28" fill="#5B6B7C" text-anchor="middle">4</text><rect x="403" y="677" width="55" height="443" rx="10" fill="#9AA7B4"/><text x="430" y="1164" font-size="28" fill="#5B6B7C" text-anchor="middle">5</text><rect x="476" y="550" width="55" height="570" rx="10" fill="#9AA7B4"/><text x="503" y="1164" font-size="28" fill="#5B6B7C" text-anchor="middle">6</text><rect x="549" y="360" width="55" height="760" rx="10" fill="#E23B3B"/><text x="577" y="1164" font-size="28" fill="#5B6B7C" text-anchor="middle">7</text><rect x="622" y="423" width="55" height="697" rx="10" fill="#7D5BA6"/><text x="650" y="1164" font-size="28" fill="#5B6B7C" text-anchor="middle">8</text><rect x="695" y="550" width="55" height="570" rx="10" fill="#7D5BA6"/><text x="723" y="1164" font-size="28" fill="#5B6B7C" text-anchor="middle">9</text><rect x="768" y="740" width="55" height="380" rx="10" fill="#9AA7B4"/><text x="796" y="1164" font-size="28" fill="#5B6B7C" text-anchor="middle">10</text><rect x="842" y="867" width="55" height="253" rx="10" fill="#9AA7B4"/><text x="869" y="1164" font-size="28" fill="#5B6B7C" text-anchor="middle">11</text><rect x="915" y="930" width="55" height="190" rx="10" fill="#9AA7B4"/><text x="942" y="1164" font-size="28" fill="#5B6B7C" text-anchor="middle">12</text>
  <rect x="60" y="1180" width="960" height="82" rx="16" fill="#fff" stroke="#D6E0EC"/>
  <text x="90" y="1232" font-size="30" fill="#1a1a1a">2024년 전체 265건 · 7,624명  |  여름철 건수 39% · 환자 50%</text>
  <rect x="0" y="1270" width="1080" height="80" fill="#E8EEF5"/>
  <text x="60" y="1320" font-size="28" fill="#5B6B7C">출처: 식품의약품안전처 2024년 확정 통계 (그래프는 추이 표현)</text>
</svg>