<svg xmlns="http://www.w3.org/2000/svg" width="1080" height="1350" viewBox="0 0 1080 1350">
  <rect width="1080" height="1350" fill="#F4F7FB"/>
  <rect width="1080" height="240" fill="#243B6B"/>
  <rect x="60" y="44" rx="26" width="280" height="56" fill="#FFD23F"/>
  <text x="200" y="84" font-family="Malgun Gothic, 'Malgun Gothic', sans-serif" font-weight="bold" font-size="32" fill="#1a1a1a" text-anchor="middle">시중은행 월급통장</text>
  <text x="60" y="160" font-family="Malgun Gothic, 'Malgun Gothic', sans-serif" font-weight="bold" font-size="56" fill="#FFFFFF">금리는 높지만 한도가 작다</text>
  <text x="60" y="212" font-family="Malgun Gothic, 'Malgun Gothic', sans-serif" font-size="34" fill="#E8EEF5">최고금리는 한도 200~300만원 안에서만 적용</text>
  <text x="60" y="364" font-family="Malgun Gothic, 'Malgun Gothic', sans-serif" font-weight="bold" font-size="38" fill="#1A2330">우리 우월한 월급 통장</text><text x="60" y="416" font-family="Malgun Gothic, 'Malgun Gothic', sans-serif" font-size="32" fill="#E23B3B">한도 200만원</text><rect x="470" y="328" width="470" height="64" rx="12" fill="#E3EAF4"/><rect x="470" y="328" width="442" height="64" rx="12" fill="#243B6B"/><text x="892" y="372" font-family="Malgun Gothic, 'Malgun Gothic', sans-serif" font-weight="bold" font-size="40" fill="#FFFFFF" text-anchor="end">3.10%</text><text x="60" y="514" font-family="Malgun Gothic, 'Malgun Gothic', sans-serif" font-weight="bold" font-size="38" fill="#1A2330">하나 달달하나 통장</text><text x="60" y="566" font-family="Malgun Gothic, 'Malgun Gothic', sans-serif" font-size="32" fill="#E23B3B">한도 200만원</text><rect x="470" y="478" width="470" height="64" rx="12" fill="#E3EAF4"/><rect x="470" y="478" width="427" height="64" rx="12" fill="#243B6B"/><text x="877" y="522" font-family="Malgun Gothic, 'Malgun Gothic', sans-serif" font-weight="bold" font-size="40" fill="#FFFFFF" text-anchor="end">3.00%</text><text x="60" y="664" font-family="Malgun Gothic, 'Malgun Gothic', sans-serif" font-weight="bold" font-size="38" fill="#1A2330">SC제일 Hi통장</text><text x="60" y="716" font-family="Malgun Gothic, 'Malgun Gothic', sans-serif" font-size="32" fill="#E23B3B">한도 3억+원</text><rect x="470" y="628" width="470" height="64" rx="12" fill="#E3EAF4"/><rect x="470" y="628" width="427" height="64" rx="12" fill="#243B6B"/><text x="877" y="672" font-family="Malgun Gothic, 'Malgun Gothic', sans-serif" font-weight="bold" font-size="40" fill="#FFFFFF" text-anchor="end">3.00%</text><text x="60" y="814" font-family="Malgun Gothic, 'Malgun Gothic', sans-serif" font-weight="bold" font-size="38" fill="#1A2330">신한 슈퍼쏠 통장</text><text x="60" y="866" font-family="Malgun Gothic, 'Malgun Gothic', sans-serif" font-size="32" fill="#E23B3B">한도 300만원</text><rect x="470" y="778" width="470" height="64" rx="12" fill="#E3EAF4"/><rect x="470" y="778" width="356" height="64" rx="12" fill="#243B6B"/><text x="806" y="822" font-family="Malgun Gothic, 'Malgun Gothic', sans-serif" font-weight="bold" font-size="40" fill="#FFFFFF" text-anchor="end">2.50%</text><text x="60" y="964" font-family="Malgun Gothic, 'Malgun Gothic', sans-serif" font-weight="bold" font-size="38" fill="#1A2330">신한 헤이영 머니박스</text><text x="60" y="1016" font-family="Malgun Gothic, 'Malgun Gothic', sans-serif" font-size="32" fill="#E23B3B">한도 200만원</text><rect x="470" y="928" width="470" height="64" rx="12" fill="#E3EAF4"/><rect x="470" y="928" width="313" height="64" rx="12" fill="#243B6B"/><text x="763" y="972" font-family="Malgun Gothic, 'Malgun Gothic', sans-serif" font-weight="bold" font-size="40" fill="#FFFFFF" text-anchor="end">2.20%</text>
  <rect x="60" y="1100" width="960" height="120" rx="16" fill="#FDECEC"/>
  <text x="90" y="1152" font-family="Malgun Gothic, 'Malgun Gothic', sans-serif" font-weight="bold" font-size="38" fill="#E23B3B">핵심: 한도 초과분은 일반금리로 떨어짐</text>
  <text x="90" y="1198" font-family="Malgun Gothic, 'Malgun Gothic', sans-serif" font-size="32" fill="#5B6B7C">목돈 주차용으로는 한도가 너무 작습니다</text>
  <rect x="0" y="1270" width="1080" height="80" fill="#E8EEF5"/>
  <text x="60" y="1322" font-family="Malgun Gothic, 'Malgun Gothic', sans-serif" font-size="32" fill="#5B6B7C">출처: 2025년 7월 기사 기준 · 가입 전 각 은행 공시 재확인</text>
</svg>