<svg xmlns="http://www.w3.org/2000/svg" width="1080" height="1080" viewBox="0 0 1080 1080">
<rect width="1080" height="1080" fill="#F4F7FB"/>
<rect width="1080" height="170" fill="#243B6B"/>
<rect x="60" y="52" rx="32" width="240" height="64" fill="#FFD23F"/>
<text x="180" y="96" font-family="Noto Sans CJK KR" font-weight="bold" font-size="28" fill="#1a1a1a" text-anchor="middle">인터넷은행</text>
<text x="320" y="106" font-family="Noto Sans CJK KR" font-weight="bold" font-size="50" fill="#fff">파킹통장 금리 비교</text>
<text x="60" y="222" font-family="Noto Sans CJK KR" font-size="34" fill="#5B6B7C">우대조건 없는 단순 구조 (연 1.6~2.3%)</text>
<text x="60" y="322" font-family="Noto Sans CJK KR" font-weight="bold" font-size="30" fill="#1a1a1a">카카오뱅크 세이프박스</text><rect x="60" y="338" rx="14" width="760" height="52" fill="#fff" stroke="#D6E0EC" stroke-width="2"/><rect x="60" y="338" rx="14" width="486" height="52" fill="#243B6B"/><text x="850" y="376" font-family="Noto Sans CJK KR" font-weight="bold" font-size="40" fill="#243B6B">연 1.60%</text><text x="60" y="502" font-family="Noto Sans CJK KR" font-weight="bold" font-size="30" fill="#1a1a1a">토스뱅크 나눠 모으기</text><rect x="60" y="518" rx="14" width="760" height="52" fill="#fff" stroke="#D6E0EC" stroke-width="2"/><rect x="60" y="518" rx="14" width="486" height="52" fill="#243B6B"/><text x="850" y="556" font-family="Noto Sans CJK KR" font-weight="bold" font-size="40" fill="#243B6B">연 1.6%</text><text x="60" y="682" font-family="Noto Sans CJK KR" font-weight="bold" font-size="30" fill="#1a1a1a">케이뱅크 플러스박스</text><rect x="60" y="698" rx="14" width="760" height="52" fill="#fff" stroke="#D6E0EC" stroke-width="2"/><rect x="60" y="698" rx="14" width="516" height="52" fill="#243B6B"/><text x="850" y="736" font-family="Noto Sans CJK KR" font-weight="bold" font-size="40" fill="#243B6B">연 1.7%*</text><text x="60" y="862" font-family="Noto Sans CJK KR" font-weight="bold" font-size="30" fill="#1a1a1a">케이뱅크(5천만원 초과분)</text><rect x="60" y="878" rx="14" width="760" height="52" fill="#fff" stroke="#D6E0EC" stroke-width="2"/><rect x="60" y="878" rx="14" width="699" height="52" fill="#243B6B"/><text x="850" y="916" font-family="Noto Sans CJK KR" font-weight="bold" font-size="40" fill="#243B6B">연 2.3%</text>
<text x="60" y="990" font-family="Noto Sans CJK KR" font-size="26" fill="#5B6B7C">* 케이뱅크: 5,000만원 이하 1.7% / 초과분 2.3%</text>
<rect x="0" y="1010" width="1080" height="70" fill="#E8EEF5"/><text x="60" y="1050" font-family="Noto Sans CJK KR" font-size="26" fill="#5B6B7C">출처: 은행연합회 소비자포털·각 은행 공시 (2026.6 조사 시점) / 정리: 본 블로그</text></svg>