<svg xmlns="http://www.w3.org/2000/svg" width="1080" height="1350" viewBox="0 0 1080 1350">
<rect width="1080" height="1350" fill="#F4F7FB"/>
<rect width="1080" height="180" fill="#243B6B"/>
<rect x="60" y="50" rx="30" width="220" height="60" fill="#FFD23F"/>
<text x="170" y="90" font-family="Noto Sans CJK KR" font-weight="bold" font-size="28" fill="#1a1a1a" text-anchor="middle">저축은행</text>
<text x="300" y="100" font-family="Noto Sans CJK KR" font-weight="bold" font-size="52" fill="#fff">금리 · 한도 비교</text>
<text x="60" y="227" font-family="Noto Sans CJK KR" font-size="34" fill="#5B6B7C">한도 큰 안정형 vs 소액 특판형</text>
<rect x="60" y="280" rx="16" width="960" height="122" fill="#fff" stroke="#D6E0EC" stroke-width="2"/><text x="95" y="330" font-family="Noto Sans CJK KR" font-weight="bold" font-size="34" fill="#1a1a1a">웰컴 웰컴주거래통장</text><text x="95" y="376" font-family="Noto Sans CJK KR" font-size="28" fill="#5B6B7C">한도 1억원</text><text x="985" y="357" font-family="Noto Sans CJK KR" font-weight="bold" font-size="48" fill="#243B6B" text-anchor="end">연 3%</text><rect x="60" y="422" rx="16" width="960" height="122" fill="#fff" stroke="#D6E0EC" stroke-width="2"/><text x="95" y="472" font-family="Noto Sans CJK KR" font-weight="bold" font-size="34" fill="#1a1a1a">NH FIC-One 보통예금</text><text x="95" y="518" font-family="Noto Sans CJK KR" font-size="28" fill="#5B6B7C">한도 1억원</text><text x="985" y="499" font-family="Noto Sans CJK KR" font-weight="bold" font-size="48" fill="#243B6B" text-anchor="end">연 3%</text><rect x="60" y="564" rx="16" width="960" height="122" fill="#fff" stroke="#D6E0EC" stroke-width="2"/><text x="95" y="614" font-family="Noto Sans CJK KR" font-weight="bold" font-size="34" fill="#1a1a1a">키움 더 키움 파킹통장</text><text x="95" y="660" font-family="Noto Sans CJK KR" font-size="28" fill="#5B6B7C">한도 없음</text><text x="985" y="641" font-family="Noto Sans CJK KR" font-weight="bold" font-size="48" fill="#243B6B" text-anchor="end">연 2.85%</text><rect x="60" y="706" rx="16" width="960" height="122" fill="#fff" stroke="#D6E0EC" stroke-width="2"/><text x="95" y="756" font-family="Noto Sans CJK KR" font-weight="bold" font-size="34" fill="#1a1a1a">푸른 E-푸른 보통예금</text><text x="95" y="802" font-family="Noto Sans CJK KR" font-size="28" fill="#5B6B7C">한도 없음</text><text x="985" y="783" font-family="Noto Sans CJK KR" font-weight="bold" font-size="48" fill="#243B6B" text-anchor="end">연 2.8%</text><rect x="60" y="848" rx="16" width="960" height="122" fill="#fff" stroke="#D6E0EC" stroke-width="2"/><text x="95" y="898" font-family="Noto Sans CJK KR" font-weight="bold" font-size="34" fill="#1a1a1a">OK파킹플렉스통장</text><text x="95" y="944" font-family="Noto Sans CJK KR" font-size="28" fill="#5B6B7C">500만원까지 3%</text><text x="985" y="925" font-family="Noto Sans CJK KR" font-weight="bold" font-size="48" fill="#243B6B" text-anchor="end">연 2.8~3%</text><rect x="60" y="990" rx="16" width="960" height="122" fill="#fff" stroke="#D6E0EC" stroke-width="2"/><text x="95" y="1040" font-family="Noto Sans CJK KR" font-weight="bold" font-size="34" fill="#1a1a1a">OK짠테크통장 II</text><text x="95" y="1086" font-family="Noto Sans CJK KR" font-size="28" fill="#5B6B7C">50만원 이하 특판</text><text x="985" y="1067" font-family="Noto Sans CJK KR" font-weight="bold" font-size="48" fill="#243B6B" text-anchor="end">연 6.5%</text>
<rect x="60" y="1136" rx="16" width="960" height="116" fill="#FFD23F"/>
<text x="90" y="1184" font-family="Noto Sans CJK KR" font-weight="bold" font-size="30" fill="#1a1a1a">소액 특판(연 6~7%대)은 이벤트성!</text>
<text x="90" y="1226" font-family="Noto Sans CJK KR" font-size="28" fill="#1a1a1a">'약 50만원 한정' 조건을 꼭 함께 확인</text>
<rect x="0" y="1280" width="1080" height="70" fill="#E8EEF5"/><text x="60" y="1320" font-family="Noto Sans CJK KR" font-size="26" fill="#5B6B7C">출처: 은행연합회 소비자포털·각 은행 공시 (2026.6 조사 시점) / 정리: 본 블로그</text></svg>