<svg xmlns="http://www.w3.org/2000/svg" width="1080" height="1350" viewBox="0 0 1080 1350">
<rect width="1080" height="1350" fill="#F4F7FB"/>
<rect width="1080" height="180" fill="#243B6B"/>
<rect x="60" y="50" rx="30" width="260" height="60" fill="#FFD23F"/>
<text x="190" y="90" font-family="Noto Sans CJK KR" font-weight="bold" font-size="28" fill="#1a1a1a" text-anchor="middle">상황별 추천</text>
<text x="340" y="100" font-family="Noto Sans CJK KR" font-weight="bold" font-size="52" fill="#fff">한눈에 보기</text>
<text x="60" y="227" font-family="Noto Sans CJK KR" font-size="34" fill="#5B6B7C">'내 조건·내 금액'에서 받는 금리로 비교!</text>
<rect x="60" y="290" rx="18" width="960" height="156" fill="#fff" stroke="#D6E0EC" stroke-width="2"/><text x="95" y="334" font-family="Noto Sans CJK KR" font-size="32" fill="#5B6B7C">조건 없이 간단하게</text><text x="95" y="388" font-family="Noto Sans CJK KR" font-weight="bold" font-size="36" fill="#243B6B">인터넷은행 (카뱅·토스·케이뱅크 플러스박스)</text><rect x="60" y="468" rx="18" width="960" height="156" fill="#fff" stroke="#D6E0EC" stroke-width="2"/><text x="95" y="512" font-family="Noto Sans CJK KR" font-size="32" fill="#5B6B7C">급여이체 + 소액 200~300만원</text><text x="95" y="566" font-family="Noto Sans CJK KR" font-weight="bold" font-size="36" fill="#243B6B">시중은행 (하나·우리·신한)</text><rect x="60" y="646" rx="18" width="960" height="156" fill="#fff" stroke="#D6E0EC" stroke-width="2"/><text x="95" y="690" font-family="Noto Sans CJK KR" font-size="32" fill="#5B6B7C">1억원까지 한도 크게 3%대</text><text x="95" y="744" font-family="Noto Sans CJK KR" font-weight="bold" font-size="36" fill="#243B6B">저축은행 한도형 (웰컴·NH)</text><rect x="60" y="824" rx="18" width="960" height="156" fill="#fff" stroke="#D6E0EC" stroke-width="2"/><text x="95" y="868" font-family="Noto Sans CJK KR" font-size="32" fill="#5B6B7C">조건 없이 무조건 2.8%대</text><text x="95" y="922" font-family="Noto Sans CJK KR" font-weight="bold" font-size="36" fill="#243B6B">키움 · 푸른저축은행</text><rect x="60" y="1002" rx="18" width="960" height="156" fill="#fff" stroke="#D6E0EC" stroke-width="2"/><text x="95" y="1046" font-family="Noto Sans CJK KR" font-size="32" fill="#5B6B7C">소액 비상금(약 50만원) 고금리</text><text x="95" y="1100" font-family="Noto Sans CJK KR" font-weight="bold" font-size="36" fill="#243B6B">OK 같은 소액 특판 (짧게 쓰고 빠질 용도)</text>
<rect x="60" y="1182" rx="16" width="960" height="94" fill="#FFD23F"/>
<text x="540" y="1242" font-family="Noto Sans CJK KR" font-weight="bold" font-size="30" fill="#1a1a1a" text-anchor="middle">파킹통장 예금자보호 1억원 / CMA는 대부분 보호 X</text>
<rect x="0" y="1280" width="1080" height="70" fill="#E8EEF5"/><text x="60" y="1320" font-family="Noto Sans CJK KR" font-size="26" fill="#5B6B7C">출처: 은행연합회 소비자포털·각 은행 공시 (2026.6 조사 시점) / 정리: 본 블로그</text></svg>