<svg xmlns="http://www.w3.org/2000/svg" width="1080" height="1080" viewBox="0 0 1080 1080">
<rect x="0" y="0" width="1080" height="1080" rx="0" ry="0" fill="#E0556E" stroke="none" stroke-width="0"/><circle cx="950" cy="180" r="260" fill="#E8788E"/><circle cx="120" cy="980" r="200" fill="#B03850"/><rect x="80" y="90" width="200" height="64" rx="32" ry="32" fill="#FFD23F" stroke="none" stroke-width="0"/><text x="180" y="134" font-family="Noto Sans CJK KR" font-weight="800" font-size="34" fill="#1a1a1a" text-anchor="middle">가정의달 · 시즌</text><text x="80" y="288" font-family="Noto Sans CJK KR" font-weight="800" font-size="58" fill="#FFE0E6" text-anchor="start">여름 휴가철 빈집 도난</text><text x="80" y="470" font-family="Noto Sans CJK KR" font-weight="900" font-size="150" fill="#ffffff" text-anchor="start">출발 전</text><text x="80" y="620" font-family="Noto Sans CJK KR" font-weight="900" font-size="150" fill="#FFD23F" text-anchor="start">체크리스트</text><rect x="80" y="690" width="920" height="140" rx="24" ry="24" fill="#ffffff" stroke="none" stroke-width="0"/><text x="110" y="786" font-family="Noto Sans CJK KR" font-weight="800" font-size="50" fill="#B03850" text-anchor="start">가장 위험한 7월 넷째 주</text><text x="110" y="846" font-family="Noto Sans CJK KR" font-weight="700" font-size="38" fill="#784652" text-anchor="start">· 심야(자정~오전 6시) 집중</text><rect x="80" y="870" width="242" height="70" rx="35" ry="35" fill="#B03850" stroke="#FFD23F" stroke-width="4"/><text x="201.0" y="915" font-family="Noto Sans CJK KR" font-weight="800" font-size="34" fill="#ffffff" text-anchor="middle">창문 잠금</text><rect x="342" y="870" width="280" height="70" rx="35" ry="35" fill="#B03850" stroke="#FFD23F" stroke-width="4"/><text x="482.0" y="915" font-family="Noto Sans CJK KR" font-weight="800" font-size="34" fill="#ffffff" text-anchor="middle">인기척 연출</text><rect x="642" y="870" width="280" height="70" rx="35" ry="35" fill="#B03850" stroke="#FFD23F" stroke-width="4"/><text x="782.0" y="915" font-family="Noto Sans CJK KR" font-weight="800" font-size="34" fill="#ffffff" text-anchor="middle">귀중품 보관</text><text x="80" y="1010" font-family="Noto Sans CJK KR" font-weight="600" font-size="32" fill="#FFE0E6" text-anchor="start">blog.naver.com/trip_chocho</text>
</svg>
