<svg xmlns="http://www.w3.org/2000/svg" width="1080" height="1350" viewBox="0 0 1080 1350">
<rect x="0" y="0" width="1080" height="200" rx="0" ry="0" fill="#E0556E" stroke="none" stroke-width="0"/><rect x="60" y="46" width="180" height="64" rx="32" ry="32" fill="#FFD23F" stroke="none" stroke-width="0"/><text x="150" y="90" font-family="Noto Sans CJK KR" font-weight="800" font-size="28" fill="#1a1a1a" text-anchor="middle">가정의달 · 시즌</text><text x="60" y="170" font-family="Noto Sans CJK KR" font-weight="800" font-size="56" fill="#ffffff" text-anchor="start">휴가철 침입범죄, 언제 위험할까</text><rect x="0" y="200" width="1080" height="1150" rx="0" ry="0" fill="#F4F7FB" stroke="none" stroke-width="0"/><text x="60" y="280" font-family="Noto Sans CJK KR" font-weight="800" font-size="42" fill="#1a1a1a" text-anchor="start">7~8월 주차별 위험도</text><rect x="130" y="340.0" width="200" height="420.0" rx="14" ry="14" fill="#E0556E" stroke="none" stroke-width="0"/><text x="230" y="304.0" font-family="Noto Sans CJK KR" font-weight="800" font-size="38" fill="#B03850" text-anchor="middle">약 4분의 1</text><text x="230" y="808" font-family="Noto Sans CJK KR" font-weight="700" font-size="38" fill="#1a1a1a" text-anchor="middle">7월 4주차</text><rect x="460" y="499.6" width="200" height="260.4" rx="14" ry="14" fill="#E8788E" stroke="none" stroke-width="0"/><text x="560" y="463.6" font-family="Noto Sans CJK KR" font-weight="800" font-size="38" fill="#B03850" text-anchor="middle">그다음</text><text x="560" y="808" font-family="Noto Sans CJK KR" font-weight="700" font-size="38" fill="#1a1a1a" text-anchor="middle">8월 1주차</text><line x1="100" y1="760" x2="640" y2="760" stroke="#C8D2DE" stroke-width="3"/><text x="60" y="832" font-family="Noto Sans CJK KR" font-weight="600" font-size="30" fill="#5B6B7C" text-anchor="start">* 7월 4주차(7/20~26경)가 가장 위험</text><text x="60" y="874" font-family="Noto Sans CJK KR" font-weight="600" font-size="30" fill="#5B6B7C" text-anchor="start">  매체별 26~28% 차이 → '약 4분의 1 안팎'</text><rect x="60" y="930" width="960" height="230" rx="24" ry="24" fill="#ffffff" stroke="#EBD3DA" stroke-width="2"/><text x="100" y="1000" font-family="Noto Sans CJK KR" font-weight="800" font-size="40" fill="#1a1a1a" text-anchor="start">가장 위험한 시간대</text><text x="100" y="1078" font-family="Noto Sans CJK KR" font-weight="800" font-size="52" fill="#B03850" text-anchor="start">심야 자정~오전 6시</text><rect x="690" y="985" width="290" height="130" rx="20" ry="20" fill="#E0556E" stroke="none" stroke-width="0"/><text x="835" y="1048" font-family="Noto Sans CJK KR" font-weight="900" font-size="56" fill="#ffffff" text-anchor="middle">약 6할</text><text x="835" y="1098" font-family="Noto Sans CJK KR" font-weight="700" font-size="30" fill="#FFE0E6" text-anchor="middle">(3분의 2 수준)</text><text x="60" y="1226" font-family="Noto Sans CJK KR" font-weight="700" font-size="34" fill="#1a1a1a" text-anchor="start">금·토요일 심야에 집을 비울 때 특히 주의</text><rect x="0" y="1270" width="1080" height="80" rx="0" ry="0" fill="#E8EEF5" stroke="none" stroke-width="0"/><text x="60" y="1318" font-family="Noto Sans CJK KR" font-weight="600" font-size="30" fill="#5B6B7C" text-anchor="start">출처: 에스원 범죄예방연구소(2016~2020 분석, 언론 인용)</text><text x="1020" y="1318" font-family="Noto Sans CJK KR" font-weight="600" font-size="28" fill="#5B6B7C" text-anchor="end">blog.naver.com/trip_chocho</text>
</svg>
