<svg xmlns="http://www.w3.org/2000/svg" width="1080" height="1350" viewBox="0 0 1080 1350">
<rect x="0" y="0" width="1080" height="200" rx="0" ry="0" fill="#E0556E" stroke="none" stroke-width="0"/><rect x="60" y="46" width="180" height="64" rx="32" ry="32" fill="#FFD23F" stroke="none" stroke-width="0"/><text x="150" y="90" font-family="Noto Sans CJK KR" font-weight="800" font-size="28" fill="#1a1a1a" text-anchor="middle">가정의달 · 시즌</text><text x="60" y="170" font-family="Noto Sans CJK KR" font-weight="800" font-size="56" fill="#ffffff" text-anchor="start">도둑이 노리는 집 · 물품</text><rect x="0" y="200" width="1080" height="1150" rx="0" ry="0" fill="#F4F7FB" stroke="none" stroke-width="0"/><rect x="60" y="270" width="960" height="150" rx="20" ry="20" fill="#ffffff" stroke="#EBD3DA" stroke-width="2"/><text x="100" y="328" font-family="Noto Sans CJK KR" font-weight="700" font-size="32" fill="#5B6B7C" text-anchor="start">표적 주택 유형</text><text x="100" y="390" font-family="Noto Sans CJK KR" font-weight="800" font-size="46" fill="#1a1a1a" text-anchor="start">단독주택</text><rect x="660" y="308" width="320" height="74" rx="18" ry="18" fill="#E0556E" stroke="none" stroke-width="0"/><text x="820" y="355" font-family="Noto Sans CJK KR" font-weight="800" font-size="38" fill="#ffffff" text-anchor="middle">약 6~7할</text><rect x="60" y="450" width="960" height="150" rx="20" ry="20" fill="#ffffff" stroke="#EBD3DA" stroke-width="2"/><text x="100" y="508" font-family="Noto Sans CJK KR" font-weight="700" font-size="32" fill="#5B6B7C" text-anchor="start">침입 경로 1위</text><text x="100" y="570" font-family="Noto Sans CJK KR" font-weight="800" font-size="46" fill="#1a1a1a" text-anchor="start">창문</text><rect x="660" y="488" width="320" height="74" rx="18" ry="18" fill="#E0556E" stroke="none" stroke-width="0"/><text x="820" y="535" font-family="Noto Sans CJK KR" font-weight="800" font-size="38" fill="#ffffff" text-anchor="middle">약 6할 (43~63%)</text><text x="60" y="680" font-family="Noto Sans CJK KR" font-weight="800" font-size="42" fill="#1a1a1a" text-anchor="start">도둑이 노리는 물품</text><rect x="60" y="710" width="460" height="260" rx="24" ry="24" fill="#E0556E" stroke="none" stroke-width="0"/><text x="290" y="825" font-family="Noto Sans CJK KR" font-weight="900" font-size="96" fill="#ffffff" text-anchor="middle">60%</text><text x="290" y="915" font-family="Noto Sans CJK KR" font-weight="800" font-size="46" fill="#ffffff" text-anchor="middle">귀금속</text><rect x="560" y="710" width="460" height="260" rx="24" ry="24" fill="#E8788E" stroke="none" stroke-width="0"/><text x="790" y="825" font-family="Noto Sans CJK KR" font-weight="900" font-size="96" fill="#ffffff" text-anchor="middle">40%</text><text x="790" y="915" font-family="Noto Sans CJK KR" font-weight="800" font-size="46" fill="#ffffff" text-anchor="middle">현금</text><text x="60" y="1070" font-family="Noto Sans CJK KR" font-weight="700" font-size="36" fill="#B03850" text-anchor="start">→ 귀금속 · 현금은 집에 두지 않는 것이 가장 확실</text><text x="60" y="1130" font-family="Noto Sans CJK KR" font-weight="700" font-size="36" fill="#1a1a1a" text-anchor="start">→ 방범의 핵심은 결국 '창문 잠금'</text><rect x="0" y="1270" width="1080" height="80" rx="0" ry="0" fill="#E8EEF5" stroke="none" stroke-width="0"/><text x="60" y="1318" font-family="Noto Sans CJK KR" font-weight="600" font-size="30" fill="#5B6B7C" text-anchor="start">출처: 에스원 범죄예방연구소(언론 인용)</text><text x="1020" y="1318" font-family="Noto Sans CJK KR" font-weight="600" font-size="28" fill="#5B6B7C" text-anchor="end">blog.naver.com/trip_chocho</text>
</svg>
