<svg xmlns="http://www.w3.org/2000/svg" width="1080" height="1350" viewBox="0 0 1080 1350">
<rect x="0" y="0" width="1080" height="200" rx="0" ry="0" fill="#E0556E" stroke="none" stroke-width="0"/><rect x="60" y="46" width="180" height="64" rx="32" ry="32" fill="#FFD23F" stroke="none" stroke-width="0"/><text x="150" y="90" font-family="Noto Sans CJK KR" font-weight="800" font-size="28" fill="#1a1a1a" text-anchor="middle">가정의달 · 시즌</text><text x="60" y="170" font-family="Noto Sans CJK KR" font-weight="800" font-size="56" fill="#ffffff" text-anchor="start">지능화되는 빈집털이 수법</text><rect x="0" y="200" width="1080" height="1150" rx="0" ry="0" fill="#F4F7FB" stroke="none" stroke-width="0"/><rect x="60" y="260" width="960" height="170" rx="20" ry="20" fill="#ffffff" stroke="#EBD3DA" stroke-width="2"/><circle cx="130" cy="345" r="40" fill="#E0556E"/><text x="130" y="360" font-family="Noto Sans CJK KR" font-weight="900" font-size="44" fill="#ffffff" text-anchor="middle">1</text><text x="210" y="338" font-family="Noto Sans CJK KR" font-weight="800" font-size="44" fill="#1a1a1a" text-anchor="start">SNS 모니터링</text><text x="210" y="398" font-family="Noto Sans CJK KR" font-weight="600" font-size="30" fill="#5B6B7C" text-anchor="start">휴가 게시글로 '집이 비었다'는 정보를 수집</text><rect x="60" y="450" width="960" height="170" rx="20" ry="20" fill="#ffffff" stroke="#EBD3DA" stroke-width="2"/><circle cx="130" cy="535" r="40" fill="#E0556E"/><text x="130" y="550" font-family="Noto Sans CJK KR" font-weight="900" font-size="44" fill="#ffffff" text-anchor="middle">2</text><text x="210" y="528" font-family="Noto Sans CJK KR" font-weight="800" font-size="44" fill="#1a1a1a" text-anchor="start">도어록 지문 흔적</text><text x="210" y="588" font-family="Noto Sans CJK KR" font-weight="600" font-size="30" fill="#5B6B7C" text-anchor="start">남은 지문 흔적으로 비밀번호를 추정</text><rect x="60" y="640" width="960" height="170" rx="20" ry="20" fill="#ffffff" stroke="#EBD3DA" stroke-width="2"/><circle cx="130" cy="725" r="40" fill="#E0556E"/><text x="130" y="740" font-family="Noto Sans CJK KR" font-weight="900" font-size="44" fill="#ffffff" text-anchor="middle">3</text><text x="210" y="718" font-family="Noto Sans CJK KR" font-weight="800" font-size="44" fill="#1a1a1a" text-anchor="start">몰래카메라</text><text x="210" y="778" font-family="Noto Sans CJK KR" font-weight="600" font-size="30" fill="#5B6B7C" text-anchor="start">현관 앞에 설치해 비밀번호를 훔쳐봄</text><rect x="60" y="830" width="960" height="170" rx="20" ry="20" fill="#ffffff" stroke="#EBD3DA" stroke-width="2"/><circle cx="130" cy="915" r="40" fill="#E0556E"/><text x="130" y="930" font-family="Noto Sans CJK KR" font-weight="900" font-size="44" fill="#ffffff" text-anchor="middle">4</text><text x="210" y="908" font-family="Noto Sans CJK KR" font-weight="800" font-size="44" fill="#1a1a1a" text-anchor="start">가스배관 침입</text><text x="210" y="968" font-family="Noto Sans CJK KR" font-weight="600" font-size="30" fill="#5B6B7C" text-anchor="start">배관 타고 오르는 '스파이더맨' 수법, 열린 창문이 표적</text><rect x="60" y="1020" width="960" height="170" rx="20" ry="20" fill="#ffffff" stroke="#EBD3DA" stroke-width="2"/><circle cx="130" cy="1105" r="40" fill="#E0556E"/><text x="130" y="1120" font-family="Noto Sans CJK KR" font-weight="900" font-size="44" fill="#ffffff" text-anchor="middle">5</text><text x="210" y="1098" font-family="Noto Sans CJK KR" font-weight="800" font-size="44" fill="#1a1a1a" text-anchor="start">쌓인 우편·택배</text><text x="210" y="1158" font-family="Noto Sans CJK KR" font-weight="600" font-size="30" fill="#5B6B7C" text-anchor="start">우편·신문·우유·택배가 쌓이면 '빈집' 신호</text><rect x="0" y="1270" width="1080" height="80" rx="0" ry="0" fill="#E8EEF5" stroke="none" stroke-width="0"/><text x="60" y="1318" font-family="Noto Sans CJK KR" font-weight="600" font-size="30" fill="#5B6B7C" text-anchor="start">출처: 대한민국 정책브리핑 · 에스원 분석(언론 인용)</text><text x="1020" y="1318" font-family="Noto Sans CJK KR" font-weight="600" font-size="28" fill="#5B6B7C" text-anchor="end">blog.naver.com/trip_chocho</text>
</svg>
