<svg xmlns="http://www.w3.org/2000/svg" width="1080" height="1350" viewBox="0 0 1080 1350">
<rect x="0" y="0" width="1080" height="200" rx="0" ry="0" fill="#E0556E" stroke="none" stroke-width="0"/><rect x="60" y="46" width="180" height="64" rx="32" ry="32" fill="#FFD23F" stroke="none" stroke-width="0"/><text x="150" y="90" font-family="Noto Sans CJK KR" font-weight="800" font-size="28" fill="#1a1a1a" text-anchor="middle">가정의달 · 시즌</text><text x="60" y="170" font-family="Noto Sans CJK KR" font-weight="800" font-size="56" fill="#ffffff" text-anchor="start">출발 전 점검 체크리스트</text><rect x="0" y="200" width="1080" height="1150" rx="0" ry="0" fill="#F4F7FB" stroke="none" stroke-width="0"/><rect x="60" y="250" width="960" height="80" rx="16" ry="16" fill="#ffffff" stroke="#EBD3DA" stroke-width="2"/><rect x="92" y="266" width="48" height="48" rx="12" ry="12" fill="#E0556E" stroke="none" stroke-width="0"/><path d="M106,290 L112,300 L127,280" stroke="#ffffff" stroke-width="6" fill="none" stroke-linecap="round" stroke-linejoin="round"/><text x="168" y="302" font-family="Noto Sans CJK KR" font-weight="700" font-size="33" fill="#1a1a1a" text-anchor="start">모든 창문을 잠근다 (방범창살 있어도 반드시)</text><rect x="60" y="346" width="960" height="80" rx="16" ry="16" fill="#ffffff" stroke="#EBD3DA" stroke-width="2"/><rect x="92" y="362" width="48" height="48" rx="12" ry="12" fill="#E0556E" stroke="none" stroke-width="0"/><path d="M106,386 L112,396 L127,376" stroke="#ffffff" stroke-width="6" fill="none" stroke-linecap="round" stroke-linejoin="round"/><text x="168" y="398" font-family="Noto Sans CJK KR" font-weight="700" font-size="33" fill="#1a1a1a" text-anchor="start">가스배관 지나는 외벽 쪽 창문 잠금</text><rect x="60" y="442" width="960" height="80" rx="16" ry="16" fill="#ffffff" stroke="#EBD3DA" stroke-width="2"/><rect x="92" y="458" width="48" height="48" rx="12" ry="12" fill="#E0556E" stroke="none" stroke-width="0"/><path d="M106,482 L112,492 L127,472" stroke="#ffffff" stroke-width="6" fill="none" stroke-linecap="round" stroke-linejoin="round"/><text x="168" y="494" font-family="Noto Sans CJK KR" font-weight="700" font-size="33" fill="#1a1a1a" text-anchor="start">현관·베란다 문단속, 환기구 잠금 확인</text><rect x="60" y="538" width="960" height="80" rx="16" ry="16" fill="#ffffff" stroke="#EBD3DA" stroke-width="2"/><rect x="92" y="554" width="48" height="48" rx="12" ry="12" fill="#E0556E" stroke="none" stroke-width="0"/><path d="M106,578 L112,588 L127,568" stroke="#ffffff" stroke-width="6" fill="none" stroke-linecap="round" stroke-linejoin="round"/><text x="168" y="590" font-family="Noto Sans CJK KR" font-weight="700" font-size="33" fill="#1a1a1a" text-anchor="start">신문·우유 등 정기배달 일시 중단</text><rect x="60" y="634" width="960" height="80" rx="16" ry="16" fill="#ffffff" stroke="#EBD3DA" stroke-width="2"/><rect x="92" y="650" width="48" height="48" rx="12" ry="12" fill="#E0556E" stroke="none" stroke-width="0"/><path d="M106,674 L112,684 L127,664" stroke="#ffffff" stroke-width="6" fill="none" stroke-linecap="round" stroke-linejoin="round"/><text x="168" y="686" font-family="Noto Sans CJK KR" font-weight="700" font-size="33" fill="#1a1a1a" text-anchor="start">우편물·택배 정지·보관 신청</text><rect x="60" y="730" width="960" height="80" rx="16" ry="16" fill="#ffffff" stroke="#EBD3DA" stroke-width="2"/><rect x="92" y="746" width="48" height="48" rx="12" ry="12" fill="#E0556E" stroke="none" stroke-width="0"/><path d="M106,770 L112,780 L127,760" stroke="#ffffff" stroke-width="6" fill="none" stroke-linecap="round" stroke-linejoin="round"/><text x="168" y="782" font-family="Noto Sans CJK KR" font-weight="700" font-size="33" fill="#1a1a1a" text-anchor="start">조명·TV 가전 타이머로 인기척 연출</text><rect x="60" y="826" width="960" height="80" rx="16" ry="16" fill="#ffffff" stroke="#EBD3DA" stroke-width="2"/><rect x="92" y="842" width="48" height="48" rx="12" ry="12" fill="#E0556E" stroke="none" stroke-width="0"/><path d="M106,866 L112,876 L127,856" stroke="#ffffff" stroke-width="6" fill="none" stroke-linecap="round" stroke-linejoin="round"/><text x="168" y="878" font-family="Noto Sans CJK KR" font-weight="700" font-size="33" fill="#1a1a1a" text-anchor="start">초인종 작동 불능 + 집전화 착신 전환</text><rect x="60" y="922" width="960" height="80" rx="16" ry="16" fill="#ffffff" stroke="#EBD3DA" stroke-width="2"/><rect x="92" y="938" width="48" height="48" rx="12" ry="12" fill="#E0556E" stroke="none" stroke-width="0"/><path d="M106,962 L112,972 L127,952" stroke="#ffffff" stroke-width="6" fill="none" stroke-linecap="round" stroke-linejoin="round"/><text x="168" y="974" font-family="Noto Sans CJK KR" font-weight="700" font-size="33" fill="#1a1a1a" text-anchor="start">아파트는 출입문 하단 투입구 막기</text><rect x="60" y="1018" width="960" height="80" rx="16" ry="16" fill="#ffffff" stroke="#EBD3DA" stroke-width="2"/><rect x="92" y="1034" width="48" height="48" rx="12" ry="12" fill="#E0556E" stroke="none" stroke-width="0"/><path d="M106,1058 L112,1068 L127,1048" stroke="#ffffff" stroke-width="6" fill="none" stroke-linecap="round" stroke-linejoin="round"/><text x="168" y="1070" font-family="Noto Sans CJK KR" font-weight="700" font-size="33" fill="#1a1a1a" text-anchor="start">현금·귀금속은 은행 또는 가까운 지구대 보관</text><rect x="60" y="1114" width="960" height="80" rx="16" ry="16" fill="#ffffff" stroke="#EBD3DA" stroke-width="2"/><rect x="92" y="1130" width="48" height="48" rx="12" ry="12" fill="#E0556E" stroke="none" stroke-width="0"/><path d="M106,1154 L112,1164 L127,1144" stroke="#ffffff" stroke-width="6" fill="none" stroke-linecap="round" stroke-linejoin="round"/><text x="168" y="1166" font-family="Noto Sans CJK KR" font-weight="700" font-size="33" fill="#1a1a1a" text-anchor="start">SNS 여행·부재 일정 게시 자제</text><rect x="0" y="1270" width="1080" height="80" rx="0" ry="0" fill="#E8EEF5" stroke="none" stroke-width="0"/><text x="60" y="1318" font-family="Noto Sans CJK KR" font-weight="600" font-size="30" fill="#5B6B7C" text-anchor="start">출처: 대한민국 정책브리핑 예방 노하우 · 에스원 분석</text><text x="1020" y="1318" font-family="Noto Sans CJK KR" font-weight="600" font-size="28" fill="#5B6B7C" text-anchor="end">blog.naver.com/trip_chocho</text>
</svg>
