<svg xmlns="http://www.w3.org/2000/svg" width="1080" height="720" viewBox="0 0 1080 720">
<rect x="0" y="0" width="1080" height="200" rx="0" ry="0" fill="#E0556E" stroke="none" stroke-width="0"/><rect x="60" y="46" width="180" height="64" rx="32" ry="32" fill="#FFD23F" stroke="none" stroke-width="0"/><text x="150" y="90" font-family="Noto Sans CJK KR" font-weight="800" font-size="28" fill="#1a1a1a" text-anchor="middle">가정의달 · 시즌</text><text x="60" y="170" font-family="Noto Sans CJK KR" font-weight="800" font-size="56" fill="#ffffff" text-anchor="start">SNS 실시간 위치 공유, 주의!</text><rect x="0" y="200" width="1080" height="520" rx="0" ry="0" fill="#F4F7FB" stroke="none" stroke-width="0"/><rect x="60" y="280" width="270" height="130" rx="20" ry="20" fill="#ffffff" stroke="#EBD3DA" stroke-width="2"/><text x="195" y="353" font-family="Noto Sans CJK KR" font-weight="800" font-size="34" fill="#1a1a1a" text-anchor="middle">실시간 위치 공유</text><text x="364" y="360" font-family="Noto Sans CJK KR" font-weight="900" font-size="56" fill="#E0556E" text-anchor="middle">→</text><rect x="386" y="280" width="270" height="130" rx="20" ry="20" fill="#ffffff" stroke="#EBD3DA" stroke-width="2"/><text x="521" y="353" font-family="Noto Sans CJK KR" font-weight="800" font-size="34" fill="#1a1a1a" text-anchor="middle">'집이 비었다' 노출</text><text x="690" y="360" font-family="Noto Sans CJK KR" font-weight="900" font-size="56" fill="#E0556E" text-anchor="middle">→</text><rect x="712" y="280" width="270" height="130" rx="20" ry="20" fill="#E0556E" stroke="none" stroke-width="2"/><text x="847" y="353" font-family="Noto Sans CJK KR" font-weight="800" font-size="34" fill="#ffffff" text-anchor="middle">침입 위험</text><text x="60" y="488" font-family="Noto Sans CJK KR" font-weight="800" font-size="38" fill="#1a1a1a" text-anchor="start">권고 사항</text><circle cx="71" cy="535" r="11" fill="#E0556E"/><text x="100" y="546" font-family="Noto Sans CJK KR" font-weight="700" font-size="30" fill="#1a1a1a" text-anchor="start">실시간 위치 공유는 하지 않기</text><circle cx="71" cy="581" r="11" fill="#E0556E"/><text x="100" y="592" font-family="Noto Sans CJK KR" font-weight="700" font-size="30" fill="#1a1a1a" text-anchor="start">사진·영상은 귀가 후(그 지역 떠난 뒤) 업로드</text><circle cx="71" cy="627" r="11" fill="#E0556E"/><text x="100" y="638" font-family="Noto Sans CJK KR" font-weight="700" font-size="30" fill="#1a1a1a" text-anchor="start">위치태그·자녀 사진·주소 노출 자제</text><rect x="0" y="640" width="1080" height="80" rx="0" ry="0" fill="#E8EEF5" stroke="none" stroke-width="0"/><text x="60" y="688" font-family="Noto Sans CJK KR" font-weight="600" font-size="30" fill="#5B6B7C" text-anchor="start">출처: 경찰 수사 사례 등 (언론 인용)</text><text x="1020" y="688" font-family="Noto Sans CJK KR" font-weight="600" font-size="28" fill="#5B6B7C" text-anchor="end">blog.naver.com/trip_chocho</text>
</svg>
