<svg xmlns="http://www.w3.org/2000/svg" width="1080" height="1500" viewBox="0 0 1080 1500">
<rect x="0" y="0" width="1080" height="200" rx="0" ry="0" fill="#E0556E" stroke="none" stroke-width="0"/><rect x="60" y="46" width="180" height="64" rx="32" ry="32" fill="#FFD23F" stroke="none" stroke-width="0"/><text x="150" y="90" font-family="Noto Sans CJK KR" font-weight="800" font-size="28" fill="#1a1a1a" text-anchor="middle">가정의달 · 시즌</text><text x="60" y="170" font-family="Noto Sans CJK KR" font-weight="800" font-size="56" fill="#ffffff" text-anchor="start">피해 발생 시 대처 순서</text><rect x="0" y="200" width="1080" height="1300" rx="0" ry="0" fill="#F4F7FB" stroke="none" stroke-width="0"/><line x1="130" y1="350" x2="130" y2="430" stroke="#E8AAB9" stroke-width="4"/><circle cx="130" cy="305" r="45" fill="#E0556E"/><text x="130" y="320" font-family="Noto Sans CJK KR" font-weight="900" font-size="46" fill="#ffffff" text-anchor="middle">1</text><rect x="220" y="260" width="800" height="130" rx="18" ry="18" fill="#ffffff" stroke="#EBD3DA" stroke-width="2"/><text x="260" y="318" font-family="Noto Sans CJK KR" font-weight="800" font-size="42" fill="#1a1a1a" text-anchor="start">112 신고</text><text x="260" y="368" font-family="Noto Sans CJK KR" font-weight="600" font-size="30" fill="#5B6B7C" text-anchor="start">현장 훼손 말고 즉시 신고</text><line x1="130" y1="528" x2="130" y2="608" stroke="#E8AAB9" stroke-width="4"/><circle cx="130" cy="483" r="45" fill="#E0556E"/><text x="130" y="498" font-family="Noto Sans CJK KR" font-weight="900" font-size="46" fill="#ffffff" text-anchor="middle">2</text><rect x="220" y="438" width="800" height="130" rx="18" ry="18" fill="#ffffff" stroke="#EBD3DA" stroke-width="2"/><text x="260" y="496" font-family="Noto Sans CJK KR" font-weight="800" font-size="42" fill="#1a1a1a" text-anchor="start">증거 기록</text><text x="260" y="546" font-family="Noto Sans CJK KR" font-weight="600" font-size="30" fill="#5B6B7C" text-anchor="start">침입 흔적·도난 품목을 사진으로 기록</text><line x1="130" y1="706" x2="130" y2="786" stroke="#E8AAB9" stroke-width="4"/><circle cx="130" cy="661" r="45" fill="#E0556E"/><text x="130" y="676" font-family="Noto Sans CJK KR" font-weight="900" font-size="46" fill="#ffffff" text-anchor="middle">3</text><rect x="220" y="616" width="800" height="130" rx="18" ry="18" fill="#ffffff" stroke="#EBD3DA" stroke-width="2"/><text x="260" y="674" font-family="Noto Sans CJK KR" font-weight="800" font-size="42" fill="#1a1a1a" text-anchor="start">잠금장치 점검·교체</text><text x="260" y="724" font-family="Noto Sans CJK KR" font-weight="600" font-size="30" fill="#5B6B7C" text-anchor="start">도어록·창문 등 침입 경로 보강</text><line x1="130" y1="884" x2="130" y2="964" stroke="#E8AAB9" stroke-width="4"/><circle cx="130" cy="839" r="45" fill="#E0556E"/><text x="130" y="854" font-family="Noto Sans CJK KR" font-weight="900" font-size="46" fill="#ffffff" text-anchor="middle">4</text><rect x="220" y="794" width="800" height="130" rx="18" ry="18" fill="#ffffff" stroke="#EBD3DA" stroke-width="2"/><text x="260" y="852" font-family="Noto Sans CJK KR" font-weight="800" font-size="42" fill="#1a1a1a" text-anchor="start">보험 확인</text><text x="260" y="902" font-family="Noto Sans CJK KR" font-weight="600" font-size="30" fill="#5B6B7C" text-anchor="start">주택종합보험 강도·절도 특약 보상 여부 확인</text><line x1="130" y1="1062" x2="130" y2="1142" stroke="#E8AAB9" stroke-width="4"/><circle cx="130" cy="1017" r="45" fill="#E0556E"/><text x="130" y="1032" font-family="Noto Sans CJK KR" font-weight="900" font-size="46" fill="#ffffff" text-anchor="middle">5</text><rect x="220" y="972" width="800" height="130" rx="18" ry="18" fill="#ffffff" stroke="#EBD3DA" stroke-width="2"/><text x="260" y="1030" font-family="Noto Sans CJK KR" font-weight="800" font-size="42" fill="#1a1a1a" text-anchor="start">청구 서류 준비</text><text x="260" y="1080" font-family="Noto Sans CJK KR" font-weight="600" font-size="30" fill="#5B6B7C" text-anchor="start">구매 영수증·감정서 + 경찰 신고확인서</text><circle cx="130" cy="1195" r="45" fill="#E0556E"/><text x="130" y="1210" font-family="Noto Sans CJK KR" font-weight="900" font-size="46" fill="#ffffff" text-anchor="middle">6</text><rect x="220" y="1150" width="800" height="130" rx="18" ry="18" fill="#ffffff" stroke="#EBD3DA" stroke-width="2"/><text x="260" y="1208" font-family="Noto Sans CJK KR" font-weight="800" font-size="42" fill="#1a1a1a" text-anchor="start">보험금 청구</text><text x="260" y="1258" font-family="Noto Sans CJK KR" font-weight="600" font-size="30" fill="#5B6B7C" text-anchor="start">보험사 약관·고객센터로 개별 확인</text><rect x="0" y="1420" width="1080" height="80" rx="0" ry="0" fill="#E8EEF5" stroke="none" stroke-width="0"/><text x="60" y="1468" font-family="Noto Sans CJK KR" font-weight="600" font-size="30" fill="#5B6B7C" text-anchor="start">출처: 주택종합보험 약관(상품별 상이) · 가입 보험사 확인</text><text x="1020" y="1468" font-family="Noto Sans CJK KR" font-weight="600" font-size="28" fill="#5B6B7C" text-anchor="end">blog.naver.com/trip_chocho</text>
</svg>
