<svg xmlns="http://www.w3.org/2000/svg" width="1080" height="1080" viewBox="0 0 1080 1080">
  <rect width="1080" height="1080" fill="#FFF3E9"/>
  <rect width="1080" height="190" fill="#E8722C"/>
  <rect x="60" y="68" width="10" height="60" rx="5" fill="#FFD23F"/>
  <text x="92" y="120" font-family="Malgun Gothic" font-weight="bold" font-size="58" fill="#FFFFFF">배수구 근원 관리 — 근본 해결</text>

  <rect x="60" y="270" width="960" height="150" rx="20" fill="#FFFFFF" stroke="#F0CBA8"/>
  <rect x="60" y="270" width="14" height="150" rx="7" fill="#E8722C"/>
  <text x="104" y="332" font-family="Malgun Gothic" font-weight="bold" font-size="42" fill="#B8551A">끓는 물</text>
  <text x="104" y="386" font-family="Malgun Gothic" font-size="31" fill="#5B6B7C">팔팔 끓여 천천히, 최소 2번 나눠 붓기 → 기름때·유충 제거</text>
  <rect x="60" y="444" width="960" height="150" rx="20" fill="#FFFFFF" stroke="#F0CBA8"/>
  <rect x="60" y="444" width="14" height="150" rx="7" fill="#E8722C"/>
  <text x="104" y="506" font-family="Malgun Gothic" font-weight="bold" font-size="42" fill="#B8551A">베이킹소다 + 식초</text>
  <text x="104" y="560" font-family="Malgun Gothic" font-size="31" fill="#5B6B7C">베이킹소다 3큰술 뿌리고 식초 → 거품, 30분 뒤 뜨거운 물 헹굼</text>
  <rect x="60" y="618" width="960" height="150" rx="20" fill="#FFFFFF" stroke="#F0CBA8"/>
  <rect x="60" y="618" width="14" height="150" rx="7" fill="#E8722C"/>
  <text x="104" y="680" font-family="Malgun Gothic" font-weight="bold" font-size="42" fill="#B8551A">루틴화</text>
  <text x="104" y="734" font-family="Malgun Gothic" font-size="31" fill="#5B6B7C">하루 1회 물 헹굼 + 주 1회 베이킹소다+식초 세정</text>
  <rect x="60" y="792" width="960" height="96" rx="18" fill="#E8722C"/>
  <text x="540" y="852" font-family="Malgun Gothic" font-weight="bold" font-size="36" fill="#FFFFFF" text-anchor="middle">성충만 잡고 배수구 방치하면 반드시 재발</text>
  <rect x="0" y="1002" width="1080" height="78" fill="#FFF3E9"/>
  <text x="60" y="1050" font-family="Malgun Gothic" font-size="32" fill="#5B6B7C">출처: 생활정보 종합 · blog.naver.com/trip_chocho</text>
</svg>