<svg xmlns="http://www.w3.org/2000/svg" width="1080" height="1080" viewBox="0 0 1080 1080">
  <rect width="1080" height="1080" fill="#FFF3E9"/>
  <rect width="1080" height="190" fill="#E8722C"/>
  <rect x="60" y="68" width="10" height="60" rx="5" fill="#FFD23F"/>
  <text x="92" y="120" font-family="Malgun Gothic" font-weight="bold" font-size="58" fill="#FFFFFF">쓰레기통 세척·관리 루틴</text>

  <rect x="60" y="250" width="960" height="132" rx="20" fill="#FFFFFF" stroke="#F0CBA8"/>
  <circle cx="120" cy="316" r="12" fill="#E8722C"/>
  <text x="158" y="308" font-family="Malgun Gothic" font-weight="bold" font-size="40" fill="#2A2A2A">베이킹소다+세제</text>
  <text x="158" y="354" font-family="Malgun Gothic" font-size="29" fill="#5B6B7C">미지근한 물에 풀어 절반 채워 1시간 → 솔로 문질러 헹굼</text>
  <rect x="60" y="402" width="960" height="132" rx="20" fill="#FFFFFF" stroke="#F0CBA8"/>
  <circle cx="120" cy="468" r="12" fill="#E8722C"/>
  <text x="158" y="460" font-family="Malgun Gothic" font-weight="bold" font-size="40" fill="#2A2A2A">식초+베이킹소다</text>
  <text x="158" y="506" font-family="Malgun Gothic" font-size="29" fill="#5B6B7C">살균+중화로 곰팡이 제거·탈취 동시</text>
  <rect x="60" y="554" width="960" height="132" rx="20" fill="#FFFFFF" stroke="#F0CBA8"/>
  <circle cx="120" cy="620" r="12" fill="#E8722C"/>
  <text x="158" y="612" font-family="Malgun Gothic" font-weight="bold" font-size="40" fill="#2A2A2A">락스</text>
  <text x="158" y="658" font-family="Malgun Gothic" font-size="29" fill="#5B6B7C">따뜻한 물에 풀어 2~3시간 → 헹굼 (식초·산성과 혼합 금지)</text>
  <rect x="60" y="706" width="465" height="170" rx="20" fill="#E8722C"/>
  <text x="292" y="768" font-family="Malgun Gothic" font-weight="bold" font-size="34" fill="#FFF3E9" text-anchor="middle">세척 주기</text>
  <text x="292" y="834" font-family="Malgun Gothic" font-weight="bold" font-size="62" fill="#FFFFFF" text-anchor="middle">3~4일에 한 번</text>
  <rect x="555" y="706" width="465" height="170" rx="20" fill="#B8551A"/>
  <text x="787" y="768" font-family="Malgun Gothic" font-weight="bold" font-size="34" fill="#FFF3E9" text-anchor="middle">핵심</text>
  <text x="787" y="834" font-family="Malgun Gothic" font-weight="bold" font-size="62" fill="#FFD23F" text-anchor="middle">완전 건조</text>
  <rect x="0" y="1002" width="1080" height="78" fill="#FFF3E9"/>
  <text x="60" y="1050" font-family="Malgun Gothic" font-size="32" fill="#5B6B7C">출처: 생활정보 종합 · blog.naver.com/trip_chocho</text>
</svg>