<svg xmlns="http://www.w3.org/2000/svg" width="1080" height="1080" viewBox="0 0 1080 1080">
  <rect width="1080" height="1080" fill="#FFF3E9"/>
  <rect width="1080" height="190" fill="#E8722C"/>
  <rect x="60" y="68" width="10" height="60" rx="5" fill="#FFD23F"/>
  <text x="92" y="120" font-family="Malgun Gothic" font-weight="bold" font-size="58" fill="#FFFFFF">냉동 보관, 해도 될까?</text>

  <text x="60" y="258" font-family="Malgun Gothic" font-weight="bold" font-size="40" fill="#B8551A">권장 여부는 출처마다 엇갈립니다</text>

  <rect x="60" y="290" width="960" height="270" rx="20" fill="#FFFFFF" stroke="#E0A0A0"/>
  <rect x="60" y="290" width="14" height="270" rx="7" fill="#C0392B"/>
  <text x="104" y="350" font-family="Malgun Gothic" font-weight="bold" font-size="38" fill="#C0392B">권장하지 않음 (정책브리핑·전문매체)</text>
  <text x="104" y="406" font-family="Malgun Gothic" font-size="30" fill="#2A2A2A">· 얼기 전까지 세균 증식 가능</text>
  <text x="104" y="452" font-family="Malgun Gothic" font-size="30" fill="#2A2A2A">· 세균이 다른 식자재로 옮겨가 식중독 위험</text>
  <text x="104" y="498" font-family="Malgun Gothic" font-size="30" fill="#2A2A2A">· 영하 20도에서도 번식하는 균이 있다는 지적</text>

  <rect x="60" y="588" width="960" height="180" rx="20" fill="#FFFFFF" stroke="#F0CBA8"/>
  <rect x="60" y="588" width="14" height="180" rx="7" fill="#E8722C"/>
  <text x="104" y="648" font-family="Malgun Gothic" font-weight="bold" font-size="38" fill="#B8551A">조건부 활용 (일부 생활팁)</text>
  <text x="104" y="704" font-family="Malgun Gothic" font-size="30" fill="#2A2A2A">· 단기 냄새·초파리 차단용으로 소개</text>
  <text x="104" y="750" font-family="Malgun Gothic" font-size="30" fill="#2A2A2A">· 밀폐 + 식품과 분리가 전제</text>

  <rect x="60" y="800" width="960" height="110" rx="18" fill="#E8722C"/>
  <text x="540" y="848" font-family="Malgun Gothic" font-weight="bold" font-size="36" fill="#FFFFFF" text-anchor="middle">한다면 반드시</text>
  <text x="540" y="894" font-family="Malgun Gothic" font-weight="bold" font-size="40" fill="#FFD23F" text-anchor="middle">밀폐 · 식품 분리 · 단기간만</text>
  <rect x="0" y="1002" width="1080" height="78" fill="#FFF3E9"/>
  <text x="60" y="1050" font-family="Malgun Gothic" font-size="32" fill="#5B6B7C">출처: 정책브리핑 등 · blog.naver.com/trip_chocho</text>
</svg>