<svg xmlns="http://www.w3.org/2000/svg" width="1080" height="1350" viewBox="0 0 1080 1350">
  <rect width="1080" height="1350" fill="#FFF3E9"/>
  <rect width="1080" height="190" fill="#E8722C"/>
  <rect x="60" y="68" width="10" height="60" rx="5" fill="#FFD23F"/>
  <text x="92" y="120" font-family="Malgun Gothic" font-weight="bold" font-size="58" fill="#FFFFFF">오늘의 한 줄 정리</text>

  <rect x="60" y="250" width="960" height="150" rx="20" fill="#FFFFFF" stroke="#F0CBA8"/>
  <text x="92" y="308" font-family="Malgun Gothic" font-weight="bold" font-size="40" fill="#E8722C">냄새가 고민이라면?</text>
  <text x="92" y="364" font-family="Malgun Gothic" font-size="31" fill="#2A2A2A">물기 제거 + 베이킹소다·식초·커피찌꺼기 탈취</text>
  <rect x="60" y="424" width="960" height="150" rx="20" fill="#FFFFFF" stroke="#F0CBA8"/>
  <text x="92" y="482" font-family="Malgun Gothic" font-weight="bold" font-size="40" fill="#E8722C">초파리가 보인다면?</text>
  <text x="92" y="538" font-family="Malgun Gothic" font-size="31" fill="#2A2A2A">식초:설탕:주방세제 1:1:1 트랩 + 배수구 세정</text>
  <rect x="60" y="598" width="960" height="150" rx="20" fill="#FFFFFF" stroke="#F0CBA8"/>
  <text x="92" y="656" font-family="Malgun Gothic" font-weight="bold" font-size="40" fill="#E8722C">통에 곰팡이·냄새?</text>
  <text x="92" y="712" font-family="Malgun Gothic" font-size="31" fill="#2A2A2A">3~4일마다 세척 후 완전 건조</text>
  <rect x="60" y="772" width="960" height="150" rx="20" fill="#FFFFFF" stroke="#F0CBA8"/>
  <text x="92" y="830" font-family="Malgun Gothic" font-weight="bold" font-size="40" fill="#E8722C">여름 보관 걱정?</text>
  <text x="92" y="886" font-family="Malgun Gothic" font-size="31" fill="#2A2A2A">매일 배출 + 밀폐, 냉동은 밀폐·분리·단기간만</text>
  <rect x="60" y="946" width="960" height="240" rx="22" fill="#E8722C"/>
  <text x="540" y="1012" font-family="Malgun Gothic" font-weight="bold" font-size="38" fill="#FFF3E9" text-anchor="middle">핵심은 결국 이 네 가지</text>
  <text x="540" y="1096" font-family="Malgun Gothic" font-weight="bold" font-size="52" fill="#FFFFFF" text-anchor="middle">물기 제거 → 밀폐 →</text>
  <text x="540" y="1158" font-family="Malgun Gothic" font-weight="bold" font-size="52" fill="#FFD23F" text-anchor="middle">천연 탈취 → 배수구 관리</text>
  <rect x="0" y="1272" width="1080" height="78" fill="#FFF3E9"/>
  <text x="60" y="1320" font-family="Malgun Gothic" font-size="32" fill="#5B6B7C">출처: 정책브리핑·서대문구청 등 · blog.naver.com/trip_chocho</text>
</svg>