<svg xmlns="http://www.w3.org/2000/svg" width="1080" height="1350" viewBox="0 0 1080 1350"><rect x="0" y="0" width="1080" height="1350" rx="0" ry="0" fill="#F4F7FB"/><rect x="0" y="0" width="1080" height="210" rx="0" ry="0" fill="#2B2F36"/><rect x="0" y="210" width="1080" height="8" rx="0" ry="0" fill="#E23B3B"/><rect x="60" y="46" width="168" height="58" rx="29" ry="29" fill="#E23B3B"/><text x="144" y="84" font-family="Noto Sans CJK KR" font-weight="bold" font-size="30" fill="#ffffff" text-anchor="middle">오늘의 이슈</text><text x="60" y="158" font-family="Noto Sans CJK KR" font-weight="bold" font-size="58" fill="#ffffff" text-anchor="start">2026 일본뇌염 발령 흐름</text><line x1="150" y1="340" x2="150" y2="1060" stroke="#D6E0EC" stroke-width="8"/><circle cx="150" cy="340" r="34" fill="#FFD23F"/><text x="150" y="354" font-family="Noto Sans CJK KR" font-weight="bold" font-size="38" fill="#1a1a1a" text-anchor="middle">1</text><rect x="230" y="290" width="790" height="320" rx="22" ry="22" fill="#ffffff" stroke="#D6E0EC" stroke-width="2"/><rect x="230" y="290" width="14" height="320" rx="7" ry="7" fill="#FFD23F"/><rect x="270" y="324" width="168" height="64" rx="32" ry="32" fill="#FFD23F"/><text x="354.0" y="366" font-family="Noto Sans CJK KR" font-weight="bold" font-size="34" fill="#1a1a1a" text-anchor="middle">주의보</text><text x="312" y="436" font-family="Noto Sans CJK KR" font-weight="bold" font-size="52" fill="#2B2F36" text-anchor="start">2026년 3월 27일</text><text x="312" y="504" font-family="Noto Sans CJK KR" font-weight="normal" font-size="38" fill="#3c444e" text-anchor="start">제주·전남에서 작은빨간집모기</text><text x="312" y="560" font-family="Noto Sans CJK KR" font-weight="normal" font-size="38" fill="#3c444e" text-anchor="start">당해 첫 확인 (전년比 3일 빠름)</text><circle cx="150" cy="740" r="34" fill="#E23B3B"/><text x="150" y="754" font-family="Noto Sans CJK KR" font-weight="bold" font-size="38" fill="#ffffff" text-anchor="middle">2</text><rect x="230" y="690" width="790" height="320" rx="22" ry="22" fill="#ffffff" stroke="#D6E0EC" stroke-width="2"/><rect x="230" y="690" width="14" height="320" rx="7" ry="7" fill="#E23B3B"/><rect x="270" y="724" width="132" height="64" rx="32" ry="32" fill="#E23B3B"/><text x="336.0" y="766" font-family="Noto Sans CJK KR" font-weight="bold" font-size="34" fill="#ffffff" text-anchor="middle">경보</text><text x="312" y="836" font-family="Noto Sans CJK KR" font-weight="bold" font-size="52" fill="#2B2F36" text-anchor="start">2026년 6월 17일</text><text x="312" y="904" font-family="Noto Sans CJK KR" font-weight="normal" font-size="38" fill="#3c444e" text-anchor="start">대구 채집 모기에서</text><text x="312" y="960" font-family="Noto Sans CJK KR" font-weight="normal" font-size="38" fill="#3c444e" text-anchor="start">일본뇌염 바이러스 유전자 검출</text><rect x="60" y="1110" width="960" height="130" rx="18" ry="18" fill="#E23B3B" opacity="0.1"/><text x="92" y="1174" font-family="Noto Sans CJK KR" font-weight="600" font-size="36" fill="#2B2F36" text-anchor="start">검출 모기는 통상 매개체가 아닌</text><text x="92" y="1222" font-family="Noto Sans CJK KR" font-weight="bold" font-size="38" fill="#E23B3B" text-anchor="start">도시형 ‘빨간집모기’ — 도시도 안심 금물</text><rect x="0" y="1270" width="1080" height="80" rx="0" ry="0" fill="#E8EEF5"/><text x="60" y="1318" font-family="Noto Sans CJK KR" font-weight="normal" font-size="32" fill="#5B6B7C" text-anchor="start">출처: 질병관리청 · 정책브리핑(korea.kr)</text></svg>