<svg xmlns="http://www.w3.org/2000/svg" width="1080" height="1350" viewBox="0 0 1080 1350"><rect x="0" y="0" width="1080" height="1350" rx="0" ry="0" fill="#F4F7FB"/><rect x="0" y="0" width="1080" height="210" rx="0" ry="0" fill="#2B2F36"/><rect x="0" y="210" width="1080" height="8" rx="0" ry="0" fill="#E23B3B"/><rect x="60" y="46" width="168" height="58" rx="29" ry="29" fill="#E23B3B"/><text x="144" y="84" font-family="Noto Sans CJK KR" font-weight="bold" font-size="30" fill="#ffffff" text-anchor="middle">오늘의 이슈</text><text x="60" y="158" font-family="Noto Sans CJK KR" font-weight="bold" font-size="58" fill="#ffffff" text-anchor="start">매개모기 ‘작은빨간집모기’</text><rect x="60" y="250" width="960" height="360" rx="24" ry="24" fill="#2B2F36"/><text x="540" y="420" font-family="Noto Sans CJK KR" font-weight="bold" font-size="40" fill="#ffffff" text-anchor="middle">[ 작은빨간집모기 식별 ]</text><text x="540" y="500" font-family="Noto Sans CJK KR" font-weight="bold" font-size="36" fill="#FFD23F" text-anchor="middle">주둥이 중앙 백색 띠</text><rect x="60" y="660" width="960" height="110" rx="16" ry="16" fill="#ffffff" stroke="#D6E0EC" stroke-width="2"/><text x="92" y="730" font-family="Noto Sans CJK KR" font-weight="bold" font-size="40" fill="#E23B3B" text-anchor="start">크기·색</text><text x="360" y="730" font-family="Noto Sans CJK KR" font-weight="600" font-size="38" fill="#2B2F36" text-anchor="start">약 4.5mm 소형 · 암갈색, 무늬 없음</text><rect x="60" y="782" width="960" height="110" rx="16" ry="16" fill="#ffffff" stroke="#D6E0EC" stroke-width="2"/><text x="92" y="852" font-family="Noto Sans CJK KR" font-weight="bold" font-size="40" fill="#E23B3B" text-anchor="start">식별 특징</text><text x="360" y="852" font-family="Noto Sans CJK KR" font-weight="600" font-size="38" fill="#2B2F36" text-anchor="start">주둥이 중앙에 넓은 백색 띠</text><rect x="60" y="904" width="960" height="110" rx="16" ry="16" fill="#ffffff" stroke="#D6E0EC" stroke-width="2"/><text x="92" y="974" font-family="Noto Sans CJK KR" font-weight="bold" font-size="40" fill="#E23B3B" text-anchor="start">활동 시간</text><text x="360" y="974" font-family="Noto Sans CJK KR" font-weight="600" font-size="38" fill="#2B2F36" text-anchor="start">주로 야간에 흡혈</text><rect x="60" y="1026" width="960" height="110" rx="16" ry="16" fill="#ffffff" stroke="#D6E0EC" stroke-width="2"/><text x="92" y="1096" font-family="Noto Sans CJK KR" font-weight="bold" font-size="40" fill="#E23B3B" text-anchor="start">서식지</text><text x="360" y="1096" font-family="Noto Sans CJK KR" font-weight="600" font-size="38" fill="#2B2F36" text-anchor="start">논 · 축사 · 웅덩이 · 고인 물</text><rect x="60" y="1148" width="960" height="110" rx="16" ry="16" fill="#ffffff" stroke="#D6E0EC" stroke-width="2"/><text x="92" y="1218" font-family="Noto Sans CJK KR" font-weight="bold" font-size="40" fill="#E23B3B" text-anchor="start">발생 시기</text><text x="360" y="1218" font-family="Noto Sans CJK KR" font-weight="600" font-size="38" fill="#2B2F36" text-anchor="start">6월 남부 → 7~9월 정점 → 10월 말</text><rect x="0" y="1270" width="1080" height="80" rx="0" ry="0" fill="#E8EEF5"/><text x="60" y="1318" font-family="Noto Sans CJK KR" font-weight="normal" font-size="32" fill="#5B6B7C" text-anchor="start">출처: 질병관리청 · 정책브리핑(korea.kr)</text></svg>