<svg xmlns="http://www.w3.org/2000/svg" width="1080" height="1350" viewBox="0 0 1080 1350"><rect x="0" y="0" width="1080" height="1350" rx="0" ry="0" fill="#F4F7FB"/><rect x="0" y="0" width="1080" height="210" rx="0" ry="0" fill="#2B2F36"/><rect x="0" y="210" width="1080" height="8" rx="0" ry="0" fill="#E23B3B"/><rect x="60" y="46" width="168" height="58" rx="29" ry="29" fill="#E23B3B"/><text x="144" y="84" font-family="Noto Sans CJK KR" font-weight="bold" font-size="30" fill="#ffffff" text-anchor="middle">오늘의 이슈</text><text x="60" y="158" font-family="Noto Sans CJK KR" font-weight="bold" font-size="58" fill="#ffffff" text-anchor="start">일본뇌염 증상·치명률</text><text x="60" y="300" font-family="Noto Sans CJK KR" font-weight="bold" font-size="42" fill="#2B2F36" text-anchor="start">감염 후 진행 단계</text><rect x="60" y="320" width="960" height="110" rx="16" ry="16" fill="#ffffff" stroke="#D6E0EC" stroke-width="2"/><rect x="60" y="320" width="12" height="110" rx="6" ry="6" fill="#5f6b7c"/><text x="110" y="390" font-family="Noto Sans CJK KR" font-weight="bold" font-size="40" fill="#5f6b7c" text-anchor="start">대부분</text><text x="300" y="390" font-family="Noto Sans CJK KR" font-weight="600" font-size="36" fill="#2B2F36" text-anchor="start">무증상 · 발열·두통 등 경미</text><rect x="60" y="442" width="960" height="110" rx="16" ry="16" fill="#ffffff" stroke="#D6E0EC" stroke-width="2"/><rect x="60" y="442" width="12" height="110" rx="6" ry="6" fill="#E23B3B"/><text x="110" y="512" font-family="Noto Sans CJK KR" font-weight="bold" font-size="40" fill="#E23B3B" text-anchor="start">드물게</text><text x="300" y="512" font-family="Noto Sans CJK KR" font-weight="600" font-size="36" fill="#2B2F36" text-anchor="start">급성 뇌염으로 진행</text><rect x="60" y="564" width="960" height="110" rx="16" ry="16" fill="#ffffff" stroke="#D6E0EC" stroke-width="2"/><rect x="60" y="564" width="12" height="110" rx="6" ry="6" fill="#aa2828"/><text x="110" y="634" font-family="Noto Sans CJK KR" font-weight="bold" font-size="40" fill="#aa2828" text-anchor="start">중증</text><text x="300" y="634" font-family="Noto Sans CJK KR" font-weight="600" font-size="36" fill="#2B2F36" text-anchor="start">고열·발작·경련·마비 등 중추신경계</text><text x="60" y="762" font-family="Noto Sans CJK KR" font-weight="bold" font-size="42" fill="#2B2F36" text-anchor="start">중증 진행 시 위험도</text><rect x="60" y="790" width="460" height="360" rx="24" ry="24" fill="#E23B3B"/><text x="290" y="890" font-family="Noto Sans CJK KR" font-weight="bold" font-size="42" fill="#ffffff" text-anchor="middle">치명률</text><text x="290" y="985" font-family="Noto Sans CJK KR" font-weight="bold" font-size="110" fill="#ffffff" text-anchor="middle">20~30%</text><text x="290" y="1075" font-family="Noto Sans CJK KR" font-weight="600" font-size="34" fill="#ffffff" text-anchor="middle">중증 환자 사망 가능</text><rect x="560" y="790" width="460" height="360" rx="24" ry="24" fill="#e07828"/><text x="790" y="890" font-family="Noto Sans CJK KR" font-weight="bold" font-size="42" fill="#ffffff" text-anchor="middle">후유증</text><text x="790" y="985" font-family="Noto Sans CJK KR" font-weight="bold" font-size="110" fill="#ffffff" text-anchor="middle">30~50%</text><text x="790" y="1075" font-family="Noto Sans CJK KR" font-weight="600" font-size="34" fill="#ffffff" text-anchor="middle">회복해도 신경계 합병증</text><rect x="60" y="1180" width="960" height="80" rx="16" ry="16" fill="#FFD23F" opacity="0.4"/><text x="540" y="1230" font-family="Noto Sans CJK KR" font-weight="bold" font-size="36" fill="#2B2F36" text-anchor="middle">발생은 드물지만 중증 시 위험 → 예방접종 중요</text><rect x="0" y="1270" width="1080" height="80" rx="0" ry="0" fill="#E8EEF5"/><text x="60" y="1318" font-family="Noto Sans CJK KR" font-weight="normal" font-size="32" fill="#5B6B7C" text-anchor="start">출처: 질병관리청 · 정책브리핑(korea.kr)</text></svg>