<svg xmlns="http://www.w3.org/2000/svg" width="1080" height="1350" viewBox="0 0 1080 1350"><rect x="0" y="0" width="1080" height="1350" rx="0" ry="0" fill="#F4F7FB"/><rect x="0" y="0" width="1080" height="210" rx="0" ry="0" fill="#2B2F36"/><rect x="0" y="210" width="1080" height="8" rx="0" ry="0" fill="#E23B3B"/><rect x="60" y="46" width="168" height="58" rx="29" ry="29" fill="#E23B3B"/><text x="144" y="84" font-family="Noto Sans CJK KR" font-weight="bold" font-size="30" fill="#ffffff" text-anchor="middle">오늘의 이슈</text><text x="60" y="158" font-family="Noto Sans CJK KR" font-weight="bold" font-size="58" fill="#ffffff" text-anchor="start">무료 예방접종 대상 확인법</text><rect x="60" y="270" width="960" height="540" rx="24" ry="24" fill="#ffffff" stroke="#D6E0EC" stroke-width="3"/><rect x="60" y="270" width="960" height="90" rx="24" ry="24" fill="#2B2F36"/><circle cx="110" cy="315" r="14" fill="#FF5F56"/><circle cx="154" cy="315" r="14" fill="#FFBD2E"/><circle cx="198" cy="315" r="14" fill="#27C93F"/><rect x="280" y="296" width="700" height="40" rx="20" ry="20" fill="#ffffff"/><text x="300" y="323" font-family="Noto Sans CJK KR" font-weight="600" font-size="30" fill="#2B2F36" text-anchor="start">nip.kdca.go.kr</text><text x="100" y="450" font-family="Noto Sans CJK KR" font-weight="bold" font-size="50" fill="#2B2F36" text-anchor="start">예방접종도우미</text><text x="100" y="512" font-family="Noto Sans CJK KR" font-weight="600" font-size="40" fill="#3c444e" text-anchor="start">일본뇌염 접종 일정 확인</text><rect x="100" y="540" width="880" height="100" rx="16" ry="16" fill="#2B2F36" opacity="0.05"/><text x="130" y="602" font-family="Noto Sans CJK KR" font-weight="bold" font-size="36" fill="#2B2F36" text-anchor="start">생후 12개월 이상 어린이 = 국가예방접종(무료) 대상</text><rect x="100" y="660" width="880" height="110" rx="16" ry="16" fill="#E23B3B" opacity="0.08"/><text x="130" y="712" font-family="Noto Sans CJK KR" font-weight="600" font-size="34" fill="#2B2F36" text-anchor="start">정확한 대상 출생연도는 기준에 따라 갱신</text><text x="130" y="752" font-family="Noto Sans CJK KR" font-weight="bold" font-size="34" fill="#E23B3B" text-anchor="start">→ 예방접종도우미에서 직접 확인이 가장 안전</text><rect x="60" y="860" width="560" height="80" rx="40" ry="40" fill="#FFD23F"/><text x="340" y="910" font-family="Noto Sans CJK KR" font-weight="bold" font-size="38" fill="#1a1a1a" text-anchor="middle">어린이 국가예방접종 무료 지원</text><text x="60" y="1020" font-family="Noto Sans CJK KR" font-weight="bold" font-size="40" fill="#2B2F36" text-anchor="start">백신 종류 (둘 다 무료 지원)</text><rect x="60" y="1050" width="450" height="110" rx="16" ry="16" fill="#ffffff" stroke="#D6E0EC" stroke-width="2"/><text x="285" y="1120" font-family="Noto Sans CJK KR" font-weight="bold" font-size="38" fill="#2B2F36" text-anchor="middle">불활성화 백신(사백신)</text><rect x="550" y="1050" width="450" height="110" rx="16" ry="16" fill="#ffffff" stroke="#D6E0EC" stroke-width="2"/><text x="775" y="1120" font-family="Noto Sans CJK KR" font-weight="bold" font-size="38" fill="#2B2F36" text-anchor="middle">약독화 생백신</text><text x="60" y="1222" font-family="Noto Sans CJK KR" font-weight="normal" font-size="32" fill="#5B6B7C" text-anchor="start">※ 접종 용량: 3세 미만 0.25mL · 3세 이상 0.5mL</text><rect x="0" y="1270" width="1080" height="80" rx="0" ry="0" fill="#E8EEF5"/><text x="60" y="1318" font-family="Noto Sans CJK KR" font-weight="normal" font-size="32" fill="#5B6B7C" text-anchor="start">출처: 질병관리청 예방접종도우미(nip.kdca.go.kr)</text></svg>