<svg xmlns="http://www.w3.org/2000/svg" width="1080" height="1350" viewBox="0 0 1080 1350"><rect x="0" y="0" width="1080" height="1350" rx="0" ry="0" fill="#F4F7FB"/><rect x="0" y="0" width="1080" height="210" rx="0" ry="0" fill="#2B2F36"/><rect x="0" y="210" width="1080" height="8" rx="0" ry="0" fill="#E23B3B"/><rect x="60" y="46" width="168" height="58" rx="29" ry="29" fill="#E23B3B"/><text x="144" y="84" font-family="Noto Sans CJK KR" font-weight="bold" font-size="30" fill="#ffffff" text-anchor="middle">오늘의 이슈</text><text x="60" y="158" font-family="Noto Sans CJK KR" font-weight="bold" font-size="58" fill="#ffffff" text-anchor="start">일본뇌염 vs 말라리아</text><rect x="60" y="250" width="460" height="96" rx="16" ry="16" fill="#2B2F36"/><text x="290" y="312" font-family="Noto Sans CJK KR" font-weight="bold" font-size="46" fill="#ffffff" text-anchor="middle">일본뇌염</text><rect x="560" y="250" width="460" height="96" rx="16" ry="16" fill="#3D5A8C"/><text x="790" y="312" font-family="Noto Sans CJK KR" font-weight="bold" font-size="46" fill="#ffffff" text-anchor="middle">말라리아</text><text x="540" y="358" font-family="Noto Sans CJK KR" font-weight="bold" font-size="32" fill="#5B6B7C" text-anchor="middle">매개모기</text><rect x="60" y="388" width="460" height="120" rx="14" ry="14" fill="#ffffff" stroke="#D6E0EC" stroke-width="2"/><rect x="560" y="388" width="460" height="120" rx="14" ry="14" fill="#ffffff" stroke="#D6E0EC" stroke-width="2"/><text x="290" y="460.0" font-family="Noto Sans CJK KR" font-weight="bold" font-size="36" fill="#2B2F36" text-anchor="middle">작은빨간집모기</text><text x="790" y="460.0" font-family="Noto Sans CJK KR" font-weight="bold" font-size="34" fill="#3D5A8C" text-anchor="middle">중국얼룩날개모기</text><text x="540" y="534" font-family="Noto Sans CJK KR" font-weight="bold" font-size="32" fill="#5B6B7C" text-anchor="middle">활동시간</text><rect x="60" y="564" width="460" height="120" rx="14" ry="14" fill="#ffffff" stroke="#D6E0EC" stroke-width="2"/><rect x="560" y="564" width="460" height="120" rx="14" ry="14" fill="#ffffff" stroke="#D6E0EC" stroke-width="2"/><text x="290" y="636.0" font-family="Noto Sans CJK KR" font-weight="bold" font-size="36" fill="#2B2F36" text-anchor="middle">야간 흡혈</text><text x="790" y="636.0" font-family="Noto Sans CJK KR" font-weight="bold" font-size="34" fill="#3D5A8C" text-anchor="middle">야간 활동</text><text x="540" y="710" font-family="Noto Sans CJK KR" font-weight="bold" font-size="32" fill="#5B6B7C" text-anchor="middle">국내현황</text><rect x="60" y="740" width="460" height="120" rx="14" ry="14" fill="#ffffff" stroke="#D6E0EC" stroke-width="2"/><rect x="560" y="740" width="460" height="120" rx="14" ry="14" fill="#ffffff" stroke="#D6E0EC" stroke-width="2"/><text x="290" y="812.0" font-family="Noto Sans CJK KR" font-weight="bold" font-size="36" fill="#2B2F36" text-anchor="middle">6/17 전국 경보</text><text x="790" y="812.0" font-family="Noto Sans CJK KR" font-weight="bold" font-size="34" fill="#3D5A8C" text-anchor="middle">6월 주의보 기준 충족</text><text x="540" y="886" font-family="Noto Sans CJK KR" font-weight="bold" font-size="32" fill="#5B6B7C" text-anchor="middle">예방 핵심</text><rect x="60" y="916" width="460" height="150" rx="14" ry="14" fill="#ffffff" stroke="#D6E0EC" stroke-width="2"/><rect x="560" y="916" width="460" height="150" rx="14" ry="14" fill="#ffffff" stroke="#D6E0EC" stroke-width="2"/><text x="290" y="1003.0" font-family="Noto Sans CJK KR" font-weight="bold" font-size="36" fill="#2B2F36" text-anchor="middle">백신으로 예방 가능</text><text x="790" y="979.0" font-family="Noto Sans CJK KR" font-weight="bold" font-size="34" fill="#3D5A8C" text-anchor="middle">백신 일반화 안됨</text><text x="790" y="1027.0" font-family="Noto Sans CJK KR" font-weight="bold" font-size="34" fill="#3D5A8C" text-anchor="middle">→ 모기 회피·예방약(여행)</text><rect x="60" y="1102" width="960" height="150" rx="18" ry="18" fill="#3D5A8C" opacity="0.1"/><text x="92" y="1146" font-family="Noto Sans CJK KR" font-weight="bold" font-size="34" fill="#2B2F36" text-anchor="start">말라리아 누적환자 96명(6/6 기준, 국내60·해외36)</text><text x="92" y="1194" font-family="Noto Sans CJK KR" font-weight="600" font-size="34" fill="#3c444e" text-anchor="start">전년 동기 129명比 25.6%↓ · 위험지역 49개 시군구</text><rect x="0" y="1270" width="1080" height="80" rx="0" ry="0" fill="#E8EEF5"/><text x="60" y="1318" font-family="Noto Sans CJK KR" font-weight="normal" font-size="32" fill="#5B6B7C" text-anchor="start">출처: 질병관리청 · 정책브리핑(korea.kr)</text></svg>