<svg xmlns="http://www.w3.org/2000/svg" width="1080" height="1350" viewBox="0 0 1080 1350"><rect x="0" y="0" width="1080" height="1350" rx="0" ry="0" fill="#F4F7FB"/><rect x="0" y="0" width="1080" height="210" rx="0" ry="0" fill="#2B2F36"/><rect x="0" y="210" width="1080" height="8" rx="0" ry="0" fill="#E23B3B"/><rect x="60" y="46" width="168" height="58" rx="29" ry="29" fill="#E23B3B"/><text x="144" y="84" font-family="Noto Sans CJK KR" font-weight="bold" font-size="30" fill="#ffffff" text-anchor="middle">오늘의 이슈</text><text x="60" y="158" font-family="Noto Sans CJK KR" font-weight="bold" font-size="58" fill="#ffffff" text-anchor="start">모기 예방수칙 4가지</text><rect x="60" y="280" width="460" height="460" rx="24" ry="24" fill="#ffffff" stroke="#D6E0EC" stroke-width="2"/><circle cx="123" cy="343" r="33" fill="#E23B3B"/><text x="123" y="357" font-family="Noto Sans CJK KR" font-weight="bold" font-size="40" fill="#ffffff" text-anchor="middle">1</text><text x="290.0" y="602" font-family="Noto Sans CJK KR" font-weight="bold" font-size="44" fill="#2B2F36" text-anchor="middle">긴 옷</text><text x="290.0" y="670" font-family="Noto Sans CJK KR" font-weight="normal" font-size="32" fill="#464e58" text-anchor="middle">긴팔·긴바지로 노출 최소화</text><text x="290.0" y="716" font-family="Noto Sans CJK KR" font-weight="normal" font-size="32" fill="#464e58" text-anchor="middle">(밝은 색 옷 권장)</text><rect x="560" y="280" width="460" height="460" rx="24" ry="24" fill="#ffffff" stroke="#D6E0EC" stroke-width="2"/><circle cx="623" cy="343" r="33" fill="#E23B3B"/><text x="623" y="357" font-family="Noto Sans CJK KR" font-weight="bold" font-size="40" fill="#ffffff" text-anchor="middle">2</text><text x="790.0" y="602" font-family="Noto Sans CJK KR" font-weight="bold" font-size="44" fill="#2B2F36" text-anchor="middle">기피제</text><text x="790.0" y="670" font-family="Noto Sans CJK KR" font-weight="normal" font-size="32" fill="#464e58" text-anchor="middle">모기 기피제를</text><text x="790.0" y="716" font-family="Noto Sans CJK KR" font-weight="normal" font-size="32" fill="#464e58" text-anchor="middle">노출 피부·옷에 도포</text><rect x="60" y="780" width="460" height="460" rx="24" ry="24" fill="#ffffff" stroke="#D6E0EC" stroke-width="2"/><circle cx="123" cy="843" r="33" fill="#E23B3B"/><text x="123" y="857" font-family="Noto Sans CJK KR" font-weight="bold" font-size="40" fill="#ffffff" text-anchor="middle">3</text><text x="290.0" y="1102" font-family="Noto Sans CJK KR" font-weight="bold" font-size="44" fill="#2B2F36" text-anchor="middle">방충망</text><text x="290.0" y="1170" font-family="Noto Sans CJK KR" font-weight="normal" font-size="32" fill="#464e58" text-anchor="middle">방충망 점검·정비,</text><text x="290.0" y="1216" font-family="Noto Sans CJK KR" font-weight="normal" font-size="32" fill="#464e58" text-anchor="middle">손상된 곳 보수</text><rect x="560" y="780" width="460" height="460" rx="24" ry="24" fill="#ffffff" stroke="#D6E0EC" stroke-width="2"/><circle cx="623" cy="843" r="33" fill="#E23B3B"/><text x="623" y="857" font-family="Noto Sans CJK KR" font-weight="bold" font-size="40" fill="#ffffff" text-anchor="middle">4</text><text x="790.0" y="1102" font-family="Noto Sans CJK KR" font-weight="bold" font-size="44" fill="#2B2F36" text-anchor="middle">고인 물 제거</text><text x="790.0" y="1170" font-family="Noto Sans CJK KR" font-weight="normal" font-size="32" fill="#464e58" text-anchor="middle">화분받침·폐타이어 등</text><text x="790.0" y="1216" font-family="Noto Sans CJK KR" font-weight="normal" font-size="32" fill="#464e58" text-anchor="middle">소규모 고인 물 제거</text><rect x="0" y="1270" width="1080" height="80" rx="0" ry="0" fill="#E8EEF5"/><text x="60" y="1318" font-family="Noto Sans CJK KR" font-weight="normal" font-size="32" fill="#5B6B7C" text-anchor="start">출처: 질병관리청 · 정책브리핑(korea.kr)</text></svg>