<svg xmlns="http://www.w3.org/2000/svg" width="1080" height="1350" viewBox="0 0 1080 1350">
  <rect width="1080" height="1350" fill="#F4F7FB"/>
  <rect width="1080" height="200" fill="#1B5FA6"/>
  <text x="60" y="125" font-family="Noto Sans CJK KR" font-weight="bold" font-size="60" fill="#ffffff">신청 방법 3가지</text>

  <!-- 방문 -->
  <rect x="60" y="270" width="960" height="240" rx="20" fill="#ffffff" stroke="#D6E0EC"/>
  <circle cx="170" cy="390" r="64" fill="#1B5FA6"/>
  <text x="170" y="408" font-family="Noto Sans CJK KR" font-weight="bold" font-size="54" fill="#ffffff" text-anchor="middle">1</text>
  <text x="270" y="370" font-family="Noto Sans CJK KR" font-weight="bold" font-size="48" fill="#1a1a1a">방문 신청</text>
  <text x="270" y="435" font-family="Noto Sans CJK KR" font-size="38" fill="#444444">읍·면·동 행정복지센터(주민센터)</text>
  <text x="270" y="485" font-family="Noto Sans CJK KR" font-size="34" fill="#666666">발급 신청서 제출 (본인·대리인)</text>

  <!-- 온라인 -->
  <rect x="60" y="550" width="960" height="240" rx="20" fill="#ffffff" stroke="#D6E0EC"/>
  <circle cx="170" cy="670" r="64" fill="#1B5FA6"/>
  <text x="170" y="688" font-family="Noto Sans CJK KR" font-weight="bold" font-size="54" fill="#ffffff" text-anchor="middle">2</text>
  <text x="270" y="650" font-family="Noto Sans CJK KR" font-weight="bold" font-size="48" fill="#1a1a1a">온라인 신청</text>
  <text x="270" y="715" font-family="Noto Sans CJK KR" font-size="38" fill="#444444">복지로 누리집</text>
  <text x="270" y="765" font-family="Noto Sans CJK KR" font-weight="bold" font-size="36" fill="#1B5FA6">www.bokjiro.go.kr</text>

  <!-- 직권 -->
  <rect x="60" y="830" width="960" height="240" rx="20" fill="#ffffff" stroke="#D6E0EC"/>
  <circle cx="170" cy="950" r="64" fill="#1B5FA6"/>
  <text x="170" y="968" font-family="Noto Sans CJK KR" font-weight="bold" font-size="54" fill="#ffffff" text-anchor="middle">3</text>
  <text x="270" y="930" font-family="Noto Sans CJK KR" font-weight="bold" font-size="48" fill="#1a1a1a">직권 신청</text>
  <text x="270" y="995" font-family="Noto Sans CJK KR" font-size="38" fill="#444444">담당 공무원이 동의 받아 대신 신청</text>
  <text x="270" y="1045" font-family="Noto Sans CJK KR" font-size="34" fill="#666666">전년도 수급 시 자동신청 대상 가능</text>

  <rect x="60" y="1110" width="960" height="100" rx="16" fill="#FFF6DA" stroke="#FFD23F"/>
  <text x="90" y="1175" font-family="Noto Sans CJK KR" font-weight="bold" font-size="38" fill="#9A6B00">통합상담센터 1600-3190 · 에너지공단 1588-8744</text>

  <rect x="0" y="1270" width="1080" height="80" fill="#E8EEF5"/>
  <text x="60" y="1322" font-family="Noto Sans CJK KR" font-size="32" fill="#5B6B7C">출처: 복지로 · 에너지바우처 공식사이트</text>
</svg>
