<svg xmlns="http://www.w3.org/2000/svg" width="1080" height="1350" viewBox="0 0 1080 1350">
  <rect width="1080" height="1350" fill="#F4F7FB"/>
  <rect width="1080" height="200" fill="#1B5FA6"/>
  <text x="60" y="125" font-family="Noto Sans CJK KR" font-weight="bold" font-size="60" fill="#ffffff">소득·재산 기준 (2026)</text>
  <text x="60" y="285" font-family="Noto Sans CJK KR" font-weight="bold" font-size="48" fill="#1B5FA6">소득: 중위소득 75% 이하</text>
  <g font-family="Noto Sans CJK KR" font-size="44" fill="#1a1a1a">
    <rect x="60" y="320" width="960" height="100" rx="14" fill="#ffffff" stroke="#D6E0EC"/>
    <text x="100" y="383" font-weight="bold">1인</text>
    <text x="1000" y="383" font-weight="bold" fill="#1B5FA6" text-anchor="end">약 192만원 이하</text>
    <rect x="60" y="430" width="960" height="100" rx="14" fill="#ffffff" stroke="#D6E0EC"/>
    <text x="100" y="493" font-weight="bold">2인</text>
    <text x="1000" y="493" font-weight="bold" fill="#1B5FA6" text-anchor="end">약 315만원 이하</text>
    <rect x="60" y="540" width="960" height="100" rx="14" fill="#ffffff" stroke="#D6E0EC"/>
    <text x="100" y="603" font-weight="bold">3인</text>
    <text x="1000" y="603" font-weight="bold" fill="#1B5FA6" text-anchor="end">약 402만원 이하</text>
    <rect x="60" y="650" width="960" height="100" rx="14" fill="#ffffff" stroke="#D6E0EC"/>
    <text x="100" y="713" font-weight="bold">4인</text>
    <text x="1000" y="713" font-weight="bold" fill="#1B5FA6" text-anchor="end">약 487만원 이하</text>
  </g>
  <text x="60" y="845" font-family="Noto Sans CJK KR" font-weight="bold" font-size="48" fill="#1B5FA6">재산: 거주 지역별 차등</text>
  <g font-family="Noto Sans CJK KR" font-size="44" fill="#1a1a1a">
    <rect x="60" y="880" width="960" height="100" rx="14" fill="#ffffff" stroke="#D6E0EC"/>
    <text x="100" y="943" font-weight="bold">대도시</text>
    <text x="1000" y="943" font-weight="bold" fill="#1B5FA6" text-anchor="end">2억 4,100만원 이하</text>
    <rect x="60" y="990" width="960" height="100" rx="14" fill="#ffffff" stroke="#D6E0EC"/>
    <text x="100" y="1053" font-weight="bold">중소도시</text>
    <text x="1000" y="1053" font-weight="bold" fill="#1B5FA6" text-anchor="end">1억 5,200만원 이하</text>
    <rect x="60" y="1100" width="960" height="100" rx="14" fill="#ffffff" stroke="#D6E0EC"/>
    <text x="100" y="1163" font-weight="bold">농어촌</text>
    <text x="1000" y="1163" font-weight="bold" fill="#1B5FA6" text-anchor="end">1억 3,000만원 이하</text>
  </g>
  <rect x="0" y="1270" width="1080" height="80" fill="#E8EEF5"/>
  <text x="60" y="1322" font-family="Noto Sans CJK KR" font-size="32" fill="#5B6B7C">출처: 보건복지부 · 법제처 생활법령정보</text>
</svg>
