<svg xmlns="http://www.w3.org/2000/svg" width="1080" height="1080" viewBox="0 0 1080 1080">
<rect width="1080" height="1350" fill="#F6F1EB"/><rect width="1080" height="190" fill="#E8722C"/><rect y="190" width="1080" height="10" fill="#C75C1E"/><rect x="60" y="46" rx="26" ry="26" width="148" height="52" fill="#FFD23F"/><text x="134" y="82" font-family="Noto Sans CJK KR" font-weight="800" font-size="30" fill="#1a1a1a" text-anchor="middle">추천템</text><text x="60" y="162" font-family="Noto Sans CJK KR" font-weight="900" font-size="60" fill="#ffffff" text-anchor="start">에어컨+서큘레이터 배치</text><rect x="60" y="250" width="960" height="650" fill="#ffffff" stroke="#E7D7C8" stroke-width="4"/><rect x="110" y="300" rx="12" width="250" height="80" fill="#E8722C"/><text x="235" y="353" font-family="Noto Sans CJK KR" font-weight="800" font-size="36" fill="#ffffff" text-anchor="middle">에어컨</text><circle cx="820" cy="800" r="70" fill="#C75C1E"/><circle cx="820" cy="800" r="46" fill="#ffffff"/><circle cx="820" cy="800" r="18" fill="#C75C1E"/><text x="820" y="910" font-family="Noto Sans CJK KR" font-weight="800" font-size="34" fill="#2A2A2A" text-anchor="middle">서큘레이터</text><line x1="820" y1="740" x2="560" y2="480" stroke="#E8722C" stroke-width="8"/><line x1="820" y1="740" x2="340" y2="640" stroke="#E8722C" stroke-width="8"/><line x1="820" y1="740" x2="560" y2="760" stroke="#E8722C" stroke-width="8"/><text x="560" y="412" font-family="Noto Sans CJK KR" font-weight="900" font-size="44" fill="#C75C1E" text-anchor="middle">냉기 확산</text><rect x="110" y="430" rx="16" width="410" height="130" fill="#FFF3E9"/><text x="135" y="482" font-family="Noto Sans CJK KR" font-weight="700" font-size="34" fill="#2A2A2A" text-anchor="start">구석방 29~30°C →</text><text x="135" y="524" font-family="Noto Sans CJK KR" font-weight="900" font-size="36" fill="#C75C1E" text-anchor="start">27~28°C (약 1~3°C↓)</text><rect x="0" y="1000" width="1080" height="80" fill="#FFF3E9"/><text x="60" y="1040" font-family="Noto Sans CJK KR" font-weight="600" font-size="30" fill="#6B5A4E" text-anchor="start">출처/주: 에어컨 병행 시 약 20~30% 절감(표준 실험값)</text>
</svg>
