<svg xmlns="http://www.w3.org/2000/svg" width="1080" height="1350" viewBox="0 0 1080 1350">
<rect width="1080" height="1350" fill="#F6F1EB"/><rect width="1080" height="190" fill="#E8722C"/><rect y="190" width="1080" height="10" fill="#C75C1E"/><rect x="60" y="46" rx="26" ry="26" width="148" height="52" fill="#FFD23F"/><text x="134" y="82" font-family="Noto Sans CJK KR" font-weight="800" font-size="30" fill="#1a1a1a" text-anchor="middle">추천템</text><text x="60" y="162" font-family="Noto Sans CJK KR" font-weight="900" font-size="60" fill="#ffffff" text-anchor="start">BLDC vs AC 모터 비교</text><text x="300" y="275" font-family="Noto Sans CJK KR" font-weight="900" font-size="52" fill="#E8722C" text-anchor="middle">BLDC</text><text x="780" y="275" font-family="Noto Sans CJK KR" font-weight="900" font-size="52" fill="#6b6b6b" text-anchor="middle">AC</text><text x="60" y="370" font-family="Noto Sans CJK KR" font-weight="800" font-size="42" fill="#2A2A2A" text-anchor="start">소비전력</text><rect x="300" y="410" rx="12" width="380" height="56" fill="#E9E2D8"/><rect x="300" y="410" rx="12" width="133" height="56" fill="#E8722C"/><text x="270" y="448" font-family="Noto Sans CJK KR" font-weight="800" font-size="30" fill="#E8722C" text-anchor="end">B</text><text x="700" y="448" font-family="Noto Sans CJK KR" font-weight="800" font-size="34" fill="#2A2A2A" text-anchor="start">20~35W</text><rect x="300" y="482" rx="12" width="380" height="56" fill="#E9E2D8"/><rect x="300" y="482" rx="12" width="361" height="56" fill="#9AA0A6"/><text x="270" y="520" font-family="Noto Sans CJK KR" font-weight="800" font-size="30" fill="#6b6b6b" text-anchor="end">A</text><text x="700" y="520" font-family="Noto Sans CJK KR" font-weight="800" font-size="34" fill="#2A2A2A" text-anchor="start">70~80W</text><text x="60" y="622" font-family="Noto Sans CJK KR" font-weight="800" font-size="42" fill="#2A2A2A" text-anchor="start">풍량 조절</text><rect x="300" y="662" rx="12" width="380" height="56" fill="#E9E2D8"/><rect x="300" y="662" rx="12" width="361" height="56" fill="#E8722C"/><text x="270" y="700" font-family="Noto Sans CJK KR" font-weight="800" font-size="30" fill="#E8722C" text-anchor="end">B</text><text x="700" y="700" font-family="Noto Sans CJK KR" font-weight="800" font-size="34" fill="#2A2A2A" text-anchor="start">8~20단 이상</text><rect x="300" y="734" rx="12" width="380" height="56" fill="#E9E2D8"/><rect x="300" y="734" rx="12" width="114" height="56" fill="#9AA0A6"/><text x="270" y="772" font-family="Noto Sans CJK KR" font-weight="800" font-size="30" fill="#6b6b6b" text-anchor="end">A</text><text x="700" y="772" font-family="Noto Sans CJK KR" font-weight="800" font-size="34" fill="#2A2A2A" text-anchor="start">3~4단</text><text x="60" y="874" font-family="Noto Sans CJK KR" font-weight="800" font-size="42" fill="#2A2A2A" text-anchor="start">가격</text><rect x="300" y="914" rx="12" width="380" height="56" fill="#E9E2D8"/><rect x="300" y="914" rx="12" width="323" height="56" fill="#E8722C"/><text x="270" y="952" font-family="Noto Sans CJK KR" font-weight="800" font-size="30" fill="#E8722C" text-anchor="end">B</text><text x="700" y="952" font-family="Noto Sans CJK KR" font-weight="800" font-size="34" fill="#2A2A2A" text-anchor="start">AC 대비 30~50%↑</text><rect x="300" y="986" rx="12" width="380" height="56" fill="#E9E2D8"/><rect x="300" y="986" rx="12" width="152" height="56" fill="#9AA0A6"/><text x="270" y="1024" font-family="Noto Sans CJK KR" font-weight="800" font-size="30" fill="#6b6b6b" text-anchor="end">A</text><text x="700" y="1024" font-family="Noto Sans CJK KR" font-weight="800" font-size="34" fill="#2A2A2A" text-anchor="start">저렴</text><rect x="60" y="1096" rx="18" width="960" height="150" fill="#FFF3E9"/><text x="90" y="1154" font-family="Noto Sans CJK KR" font-weight="900" font-size="40" fill="#C75C1E" text-anchor="start">오해 주의: BLDC = 초저소음 아님</text><text x="90" y="1214" font-family="Noto Sans CJK KR" font-weight="700" font-size="36" fill="#2A2A2A" text-anchor="start">실측 소음 감소 AC 대비 약 10% 수준</text><rect x="0" y="1270" width="1080" height="80" fill="#FFF3E9"/><text x="60" y="1310" font-family="Noto Sans CJK KR" font-weight="600" font-size="30" fill="#6B5A4E" text-anchor="start">출처/주: BLDC 전력효율 약 90% / AC 약 40%</text>
</svg>
