<svg xmlns="http://www.w3.org/2000/svg" width="1080" height="1080" viewBox="0 0 1080 1080">
<rect width="1080" height="1350" fill="#F6F1EB"/><rect width="1080" height="190" fill="#E8722C"/><rect y="190" width="1080" height="10" fill="#C75C1E"/><rect x="60" y="46" rx="26" ry="26" width="148" height="52" fill="#FFD23F"/><text x="134" y="82" font-family="Noto Sans CJK KR" font-weight="800" font-size="30" fill="#1a1a1a" text-anchor="middle">추천템</text><text x="60" y="162" font-family="Noto Sans CJK KR" font-weight="900" font-size="60" fill="#ffffff" text-anchor="start">침실용 저소음 + 타이머</text><rect x="60" y="760" rx="16" width="960" height="240" fill="#EAD9C7" stroke="#E7D7C8" stroke-width="3"/><rect x="60" y="700" rx="12" width="960" height="70" fill="#DCC8B2"/><rect x="100" y="720" rx="14" width="260" height="80" fill="#ffffff" stroke="#E7D7C8" stroke-width="3"/><rect x="640" y="610" rx="14" width="360" height="150" fill="#F3E7D8" stroke="#E7D7C8" stroke-width="3"/><text x="820" y="700" font-family="Noto Sans CJK KR" font-weight="700" font-size="30" fill="#6B5A4E" text-anchor="middle">협탁</text><circle cx="820" cy="560" r="72" fill="#E8722C"/><circle cx="820" cy="560" r="48" fill="#ffffff"/><circle cx="820" cy="560" r="18" fill="#E8722C"/><path d="M 820 455 A 105 105 0 0 0 820 665" fill="none" stroke="#E8722C" stroke-width="7" opacity="0.5"/><path d="M 820 420 A 140 140 0 0 0 820 700" fill="none" stroke="#E8722C" stroke-width="7" opacity="0.32"/><path d="M 820 385 A 175 175 0 0 0 820 735" fill="none" stroke="#E8722C" stroke-width="7" opacity="0.18"/><text x="560" y="572" font-family="Noto Sans CJK KR" font-weight="800" font-size="34" fill="#6B5A4E" text-anchor="middle">약풍·저소음</text><rect x="60" y="290" rx="18" width="500" height="110" fill="#E8722C"/><text x="310" y="360" font-family="Noto Sans CJK KR" font-weight="900" font-size="44" fill="#ffffff" text-anchor="middle">최소단 20~35dB</text><rect x="60" y="420" rx="18" width="500" height="110" fill="#FFD23F"/><text x="310" y="490" font-family="Noto Sans CJK KR" font-weight="900" font-size="44" fill="#1a1a1a" text-anchor="middle">타이머 필수</text><rect x="0" y="1000" width="1080" height="80" fill="#FFF3E9"/><text x="60" y="1040" font-family="Noto Sans CJK KR" font-weight="600" font-size="30" fill="#6B5A4E" text-anchor="start">출처/주: &quot;조용한 강풍은 없다&quot; — 약풍 위주 사용 권장</text>
</svg>
