<svg xmlns="http://www.w3.org/2000/svg" width="1080" height="1080" viewBox="0 0 1080 1080">
<rect width="1080" height="1350" fill="#F6F1EB"/><rect width="1080" height="190" fill="#E8722C"/><rect y="190" width="1080" height="10" fill="#C75C1E"/><rect x="60" y="46" rx="26" ry="26" width="148" height="52" fill="#FFD23F"/><text x="134" y="82" font-family="Noto Sans CJK KR" font-weight="800" font-size="30" fill="#1a1a1a" text-anchor="middle">추천템</text><text x="60" y="162" font-family="Noto Sans CJK KR" font-weight="900" font-size="60" fill="#ffffff" text-anchor="start">배치 실수 vs 올바른 배치</text><rect x="60" y="250" rx="18" width="460" height="610" fill="#ffffff" stroke="#E7D7C8" stroke-width="3"/><rect x="90" y="280" rx="26" width="100" height="52" fill="#D94B3B"/><text x="140" y="317" font-family="Noto Sans CJK KR" font-weight="800" font-size="30" fill="#ffffff" text-anchor="middle">실수</text><rect x="120" y="460" width="50" height="200" fill="#D8CABA"/><circle cx="290" cy="560" r="55" fill="none" stroke="#9AA0A6" stroke-width="20"/><line x1="235" y1="560" x2="180" y2="560" stroke="#9AA0A6" stroke-width="7"/><text x="290" y="720" font-family="Noto Sans CJK KR" font-weight="700" font-size="32" fill="#2A2A2A" text-anchor="middle">벽·구석 향해</text><text x="290" y="762" font-family="Noto Sans CJK KR" font-weight="700" font-size="32" fill="#2A2A2A" text-anchor="middle">가까이 배치</text><rect x="560" y="250" rx="18" width="460" height="610" fill="#ffffff" stroke="#E7D7C8" stroke-width="3"/><rect x="590" y="280" rx="26" width="100" height="52" fill="#FFD23F"/><text x="640" y="317" font-family="Noto Sans CJK KR" font-weight="800" font-size="30" fill="#1a1a1a" text-anchor="middle">정답</text><circle cx="640" cy="560" r="55" fill="none" stroke="#E8722C" stroke-width="20"/><line x1="700" y1="540" x2="940" y2="440" stroke="#E8722C" stroke-width="8"/><line x1="700" y1="560" x2="960" y2="560" stroke="#E8722C" stroke-width="8"/><line x1="700" y1="580" x2="940" y2="680" stroke="#E8722C" stroke-width="8"/><text x="790" y="730" font-family="Noto Sans CJK KR" font-weight="700" font-size="32" fill="#2A2A2A" text-anchor="middle">에어컨 맞은편 /</text><text x="790" y="772" font-family="Noto Sans CJK KR" font-weight="800" font-size="32" fill="#C75C1E" text-anchor="middle">방문 앞 송풍</text><rect x="0" y="1000" width="1080" height="80" fill="#FFF3E9"/><text x="60" y="1040" font-family="Noto Sans CJK KR" font-weight="600" font-size="30" fill="#6B5A4E" text-anchor="start">출처/주: 에어컨 맞은편·천장 방향·방문 앞(거실→방)이 효과적</text>
</svg>
