<svg xmlns="http://www.w3.org/2000/svg" width="1080" height="720" viewBox="0 0 1080 720" font-family="Noto Sans CJK KR">
  <rect width="1080" height="720" fill="#F4F7FB"/>
  <rect width="1080" height="170" fill="#1B5FA6"/>
  <text x="60" y="92" font-weight="bold" font-size="56" fill="#ffffff">중복수급 불가</text>
  <text x="60" y="150" font-weight="bold" font-size="34" fill="#FFD23F">둘 중 하나만 골라 신청</text>
  <rect x="888" y="64" rx="22" width="132" height="44" fill="#FFD23F"/>
  <text x="954" y="93" font-weight="bold" font-size="22" fill="#1a1a1a" text-anchor="middle">정부지원금</text>

  <rect x="70" y="250" width="380" height="230" rx="20" fill="#fff" stroke="#1B5FA6" stroke-width="4"/>
  <text x="260" y="335" font-weight="bold" font-size="38" fill="#124275" text-anchor="middle">국토부 사업</text>
  <text x="260" y="392" font-size="28" fill="#1a1a1a" text-anchor="middle">청년월세 특별지원</text>
  <text x="260" y="437" font-size="26" fill="#5B6B7C" text-anchor="middle">(복지로)</text>

  <rect x="630" y="250" width="380" height="230" rx="20" fill="#fff" stroke="#1B5FA6" stroke-width="4"/>
  <text x="820" y="335" font-weight="bold" font-size="38" fill="#124275" text-anchor="middle">지자체 사업</text>
  <text x="820" y="392" font-size="28" fill="#1a1a1a" text-anchor="middle">청년월세 지원</text>
  <text x="820" y="437" font-size="26" fill="#5B6B7C" text-anchor="middle">(지자체 포털)</text>

  <circle cx="540" cy="365" r="62" fill="#E23B3B"/>
  <line x1="514" y1="339" x2="566" y2="391" stroke="#fff" stroke-width="12"/>
  <line x1="514" y1="391" x2="566" y2="339" stroke="#fff" stroke-width="12"/>

  <rect x="70" y="520" width="940" height="110" rx="16" fill="#E8EEF5"/>
  <text x="540" y="568" font-weight="bold" font-size="30" fill="#124275" text-anchor="middle">국토부 사업과 지자체 지원은 동시에 받을 수 없습니다</text>
  <text x="540" y="608" font-size="27" fill="#5B6B7C" text-anchor="middle">동일 시점·동일 월세 중복 불가</text>

  <rect x="0" y="654" width="1080" height="66" fill="#E8EEF5"/>
  <text x="60" y="697" font-size="25" fill="#5B6B7C">출처: 본문 정리 · 어느 사업 대상인지 먼저 확인</text>
</svg>
