<svg xmlns="http://www.w3.org/2000/svg" width="1080" height="1350" viewBox="0 0 1080 1350">
  <rect width="1080" height="1350" fill="#F4F7FB"/>
  <rect width="1080" height="200" fill="#E8722C"/>
  <text x="60" y="110" font-family="Malgun Gothic" font-weight="bold" font-size="58" fill="#FFFFFF" text-anchor="start">이동식 에어컨 추천 BEST 5</text>
  <text x="60" y="165" font-family="Malgun Gothic" font-weight="bold" font-size="36" fill="#E8EEF5" text-anchor="start">평수·용도별 한눈에 보기</text>

  <rect x="60" y="300" width="960" height="158" rx="18" fill="#FFFFFF" stroke="#D6E0EC" stroke-width="2"/><rect x="60" y="300" width="14" height="158" rx="7" fill="#E8722C"/><circle cx="160" cy="379" r="50" fill="#E8722C"/><text x="160" y="396" font-family="Malgun Gothic" font-weight="bold" font-size="54" fill="#FFFFFF" text-anchor="middle">①</text><text x="250" y="356" font-family="Malgun Gothic" font-weight="bold" font-size="44" fill="#1A1A1A" text-anchor="start">초소형 정속형</text><text x="250" y="402" font-family="Malgun Gothic" font-weight="bold" font-size="30" fill="#5B6B7C" text-anchor="start">원룸·자취방 1인 가구</text><text x="250" y="442" font-family="Malgun Gothic" font-weight="bold" font-size="30" fill="#E8722C" text-anchor="start">4~6평형 · 30~40만 원대</text><rect x="60" y="478" width="960" height="158" rx="18" fill="#FFFFFF" stroke="#D6E0EC" stroke-width="2"/><rect x="60" y="478" width="14" height="158" rx="7" fill="#D85F1C"/><circle cx="160" cy="557" r="50" fill="#D85F1C"/><text x="160" y="574" font-family="Malgun Gothic" font-weight="bold" font-size="54" fill="#FFFFFF" text-anchor="middle">②</text><text x="250" y="534" font-family="Malgun Gothic" font-weight="bold" font-size="44" fill="#1A1A1A" text-anchor="start">가성비 6평형</text><text x="250" y="580" font-family="Malgun Gothic" font-weight="bold" font-size="30" fill="#5B6B7C" text-anchor="start">처음 사는 무난한 선택</text><text x="250" y="620" font-family="Malgun Gothic" font-weight="bold" font-size="30" fill="#D85F1C" text-anchor="start">6~8평형 · 30~40만 원대</text><rect x="60" y="656" width="960" height="158" rx="18" fill="#FFFFFF" stroke="#D6E0EC" stroke-width="2"/><rect x="60" y="656" width="14" height="158" rx="7" fill="#1F8A53"/><circle cx="160" cy="735" r="50" fill="#1F8A53"/><text x="160" y="752" font-family="Malgun Gothic" font-weight="bold" font-size="54" fill="#FFFFFF" text-anchor="middle">③</text><text x="250" y="712" font-family="Malgun Gothic" font-weight="bold" font-size="44" fill="#1A1A1A" text-anchor="start">듀얼호스 고효율형</text><text x="250" y="758" font-family="Malgun Gothic" font-weight="bold" font-size="30" fill="#5B6B7C" text-anchor="start">전기요금 줄이고 싶다면</text><text x="250" y="798" font-family="Malgun Gothic" font-weight="bold" font-size="30" fill="#1F8A53" text-anchor="start">듀얼호스 · 50~80만 원대</text><rect x="60" y="834" width="960" height="158" rx="18" fill="#FFFFFF" stroke="#D6E0EC" stroke-width="2"/><rect x="60" y="834" width="14" height="158" rx="7" fill="#243B6B"/><circle cx="160" cy="913" r="50" fill="#243B6B"/><text x="160" y="930" font-family="Malgun Gothic" font-weight="bold" font-size="54" fill="#FFFFFF" text-anchor="middle">④</text><text x="250" y="890" font-family="Malgun Gothic" font-weight="bold" font-size="44" fill="#1A1A1A" text-anchor="start">인버터 절전형</text><text x="250" y="936" font-family="Malgun Gothic" font-weight="bold" font-size="30" fill="#5B6B7C" text-anchor="start">거실·넓은 공간</text><text x="250" y="976" font-family="Malgun Gothic" font-weight="bold" font-size="30" fill="#243B6B" text-anchor="start">8~10평형·1등급 · 50~80만 원대</text><rect x="60" y="1012" width="960" height="158" rx="18" fill="#FFFFFF" stroke="#D6E0EC" stroke-width="2"/><rect x="60" y="1012" width="14" height="158" rx="7" fill="#2B2F36"/><circle cx="160" cy="1091" r="50" fill="#2B2F36"/><text x="160" y="1108" font-family="Malgun Gothic" font-weight="bold" font-size="54" fill="#FFFFFF" text-anchor="middle">⑤</text><text x="250" y="1068" font-family="Malgun Gothic" font-weight="bold" font-size="44" fill="#1A1A1A" text-anchor="start">캠핑·이동 특화 미니형</text><text x="250" y="1114" font-family="Malgun Gothic" font-weight="bold" font-size="30" fill="#5B6B7C" text-anchor="start">작업방·캠핑 이동</text><text x="250" y="1154" font-family="Malgun Gothic" font-weight="bold" font-size="30" fill="#2B2F36" text-anchor="start">미니형 · 30만 원대 초중반~</text>

  <rect x="0" y="1270" width="1080" height="80" fill="#E8EEF5"/>
  <text x="60" y="1322" font-family="Malgun Gothic" font-weight="normal" font-size="30" fill="#5B6B7C" text-anchor="start">브랜드 단정 없이 유형·스펙 기반 정리 · 가격은 일반 범위</text>
</svg>