<svg xmlns="http://www.w3.org/2000/svg" width="1080" height="1350" viewBox="0 0 1080 1350">
  <rect width="1080" height="1350" fill="#F4F7FB"/>
  <rect width="1080" height="200" fill="#E8722C"/>
  <text x="60" y="110" font-family="Malgun Gothic" font-weight="bold" font-size="54" fill="#FFFFFF" text-anchor="start">이동식 에어컨 구매 전 체크리스트</text>
  <text x="60" y="165" font-family="Malgun Gothic" font-weight="bold" font-size="36" fill="#E8EEF5" text-anchor="start">사기 전 이 6가지만 확인하세요</text>

  <rect x="60" y="300" width="960" height="132" rx="18" fill="#FFFFFF" stroke="#D6E0EC" stroke-width="2"/><rect x="100" y="336" width="60" height="60" rx="12" fill="#E8722C"/><path d="M114 366 L 128 382 L 150 350" stroke="#ffffff" stroke-width="9" fill="none" stroke-linecap="round" stroke-linejoin="round"/><text x="200" y="356" font-family="Malgun Gothic" font-weight="bold" font-size="40" fill="#1A1A1A" text-anchor="start">창문(배기 통로)</text><text x="200" y="402" font-family="Malgun Gothic" font-weight="bold" font-size="30" fill="#5B6B7C" text-anchor="start">배기 호스를 뺄 창문·문이 있는가</text><rect x="60" y="452" width="960" height="132" rx="18" fill="#FFFFFF" stroke="#D6E0EC" stroke-width="2"/><rect x="100" y="488" width="60" height="60" rx="12" fill="#E8722C"/><path d="M114 518 L 128 534 L 150 502" stroke="#ffffff" stroke-width="9" fill="none" stroke-linecap="round" stroke-linejoin="round"/><text x="200" y="508" font-family="Malgun Gothic" font-weight="bold" font-size="40" fill="#1A1A1A" text-anchor="start">평형 +1~2평 룰</text><text x="200" y="554" font-family="Malgun Gothic" font-weight="bold" font-size="30" fill="#5B6B7C" text-anchor="start">실면적보다 1~2평 큰 제품으로</text><rect x="60" y="604" width="960" height="132" rx="18" fill="#FFFFFF" stroke="#D6E0EC" stroke-width="2"/><rect x="100" y="640" width="60" height="60" rx="12" fill="#E8722C"/><path d="M114 670 L 128 686 L 150 654" stroke="#ffffff" stroke-width="9" fill="none" stroke-linecap="round" stroke-linejoin="round"/><text x="200" y="660" font-family="Malgun Gothic" font-weight="bold" font-size="40" fill="#1A1A1A" text-anchor="start">싱글 vs 듀얼호스</text><text x="200" y="706" font-family="Malgun Gothic" font-weight="bold" font-size="30" fill="#5B6B7C" text-anchor="start">전기요금 걱정이면 듀얼호스</text><rect x="60" y="756" width="960" height="132" rx="18" fill="#FFFFFF" stroke="#D6E0EC" stroke-width="2"/><rect x="100" y="792" width="60" height="60" rx="12" fill="#E8722C"/><path d="M114 822 L 128 838 L 150 806" stroke="#ffffff" stroke-width="9" fill="none" stroke-linecap="round" stroke-linejoin="round"/><text x="200" y="812" font-family="Malgun Gothic" font-weight="bold" font-size="40" fill="#1A1A1A" text-anchor="start">인버터·효율등급</text><text x="200" y="858" font-family="Malgun Gothic" font-weight="bold" font-size="30" fill="#5B6B7C" text-anchor="start">효율값 2.4~2.8↑, 1등급 우선</text><rect x="60" y="908" width="960" height="132" rx="18" fill="#FFFFFF" stroke="#D6E0EC" stroke-width="2"/><rect x="100" y="944" width="60" height="60" rx="12" fill="#E8722C"/><path d="M114 974 L 128 990 L 150 958" stroke="#ffffff" stroke-width="9" fill="none" stroke-linecap="round" stroke-linejoin="round"/><text x="200" y="964" font-family="Malgun Gothic" font-weight="bold" font-size="40" fill="#1A1A1A" text-anchor="start">소음(dB)</text><text x="200" y="1010" font-family="Malgun Gothic" font-weight="bold" font-size="30" fill="#5B6B7C" text-anchor="start">침실용이면 50dB 이하 저소음</text><rect x="60" y="1060" width="960" height="132" rx="18" fill="#FFFFFF" stroke="#D6E0EC" stroke-width="2"/><rect x="100" y="1096" width="60" height="60" rx="12" fill="#E8722C"/><path d="M114 1126 L 128 1142 L 150 1110" stroke="#ffffff" stroke-width="9" fill="none" stroke-linecap="round" stroke-linejoin="round"/><text x="200" y="1116" font-family="Malgun Gothic" font-weight="bold" font-size="40" fill="#1A1A1A" text-anchor="start">배수 방식</text><text x="200" y="1162" font-family="Malgun Gothic" font-weight="bold" font-size="30" fill="#5B6B7C" text-anchor="start">자가배수·연속배수 지원 확인</text>

  <rect x="0" y="1270" width="1080" height="80" fill="#E8EEF5"/>
  <text x="60" y="1322" font-family="Malgun Gothic" font-weight="normal" font-size="30" fill="#5B6B7C" text-anchor="start">스펙 표를 직접 확인하고 비교하는 게 후회를 줄이는 길</text>
</svg>