<svg xmlns="http://www.w3.org/2000/svg" width="1080" height="1350" viewBox="0 0 1080 1350">
  <rect width="1080" height="1350" fill="#F4F7FB"/>
  <rect width="1080" height="200" fill="#2B2F36"/>
  <rect x="60" y="62" rx="34" ry="34" width="200" height="68" fill="#E23B3B"/><text x="160.0" y="108" font-family="Malgun Gothic" font-weight="bold" font-size="36" fill="#ffffff" text-anchor="middle">오늘의 이슈</text>
  <text x="60" y="172" font-family="Malgun Gothic" font-weight="bold" font-size="60" fill="#ffffff">장마전선 북상 순서</text>
  
  <rect x="120" y="290" width="840" height="200" rx="24" fill="#ffffff" stroke="#D6E0EC" stroke-width="2"/>
  <circle cx="220" cy="390" r="56" fill="#2B2F36"/>
  <text x="220" y="408" font-family="Malgun Gothic" font-weight="bold" font-size="48" fill="#ffffff" text-anchor="middle">1</text>
  <text x="320" y="378" font-family="Malgun Gothic" font-weight="bold" font-size="58" fill="#1A2129">제주도</text>
  <text x="320" y="448" font-family="Malgun Gothic" font-weight="bold" font-size="46" fill="#E23B3B">6월 19~21일 전후</text>
  <path d="M540 540 l40 0 l0 -28 l46 50 l-46 50 l0 -28 l-40 0 Z" fill="#2B2F36" transform="rotate(-90 540 540)"/>
  
  <rect x="120" y="580" width="840" height="200" rx="24" fill="#ffffff" stroke="#D6E0EC" stroke-width="2"/>
  <circle cx="220" cy="680" r="56" fill="#2B2F36"/>
  <text x="220" y="698" font-family="Malgun Gothic" font-weight="bold" font-size="48" fill="#ffffff" text-anchor="middle">2</text>
  <text x="320" y="668" font-family="Malgun Gothic" font-weight="bold" font-size="58" fill="#1A2129">남부지방</text>
  <text x="320" y="738" font-family="Malgun Gothic" font-weight="bold" font-size="46" fill="#E23B3B">6월 23~25일 전후</text>
  <path d="M540 830 l40 0 l0 -28 l46 50 l-46 50 l0 -28 l-40 0 Z" fill="#2B2F36" transform="rotate(-90 540 830)"/>
  
  <rect x="120" y="870" width="840" height="200" rx="24" fill="#ffffff" stroke="#D6E0EC" stroke-width="2"/>
  <circle cx="220" cy="970" r="56" fill="#E23B3B"/>
  <text x="220" y="988" font-family="Malgun Gothic" font-weight="bold" font-size="48" fill="#ffffff" text-anchor="middle">3</text>
  <text x="320" y="958" font-family="Malgun Gothic" font-weight="bold" font-size="58" fill="#1A2129">중부(수도권)</text>
  <text x="320" y="1028" font-family="Malgun Gothic" font-weight="bold" font-size="46" fill="#E23B3B">6월 25~27일 전후</text>
  <rect x="0" y="1270" width="1080" height="80" fill="#E8EEF5"/>
  <text x="60" y="1322" font-family="Malgun Gothic" font-size="32" fill="#5B6B7C">평년값(1991~2020) 기반 전망 · 기상청 공식 시작일 예보 아님</text>
</svg>