<svg xmlns="http://www.w3.org/2000/svg" width="1080" height="1350" viewBox="0 0 1080 1350">
  <rect width="1080" height="1350" fill="#F4F7FB"/>
  <rect width="1080" height="200" fill="#2B2F36"/>
  <rect x="60" y="62" rx="34" ry="34" width="200" height="68" fill="#E23B3B"/><text x="160.0" y="108" font-family="Malgun Gothic" font-weight="bold" font-size="36" fill="#ffffff" text-anchor="middle">오늘의 이슈</text>
  <text x="60" y="172" font-family="Malgun Gothic" font-weight="bold" font-size="56" fill="#ffffff">2026 여름 강수량 전망</text>
  <text x="60" y="290" font-family="Malgun Gothic" font-weight="bold" font-size="40" fill="#1A2129">월별 강수량 확률 (적음 / 비슷 / 많음, %)</text>
  <line x1="120" y1="900" x2="980" y2="900" stroke="#D6E0EC" stroke-width="3"/>
  <text x="290" y="980" font-family="Malgun Gothic" font-weight="bold" font-size="44" fill="#1A2129" text-anchor="middle">6월</text><rect x="140" y="836" width="80" height="64" rx="8" fill="#A9B6C4"/><text x="180.0" y="820" font-family="Malgun Gothic" font-weight="bold" font-size="34" fill="#1A2129" text-anchor="middle">20</text><text x="180.0" y="938" font-family="Malgun Gothic" font-size="28" fill="#5B6B7C" text-anchor="middle">적음</text><rect x="240" y="772" width="80" height="128" rx="8" fill="#A9B6C4"/><text x="280.0" y="756" font-family="Malgun Gothic" font-weight="bold" font-size="34" fill="#1A2129" text-anchor="middle">40</text><text x="280.0" y="938" font-family="Malgun Gothic" font-size="28" fill="#5B6B7C" text-anchor="middle">비슷</text><rect x="340" y="772" width="80" height="128" rx="8" fill="#E23B3B"/><text x="380.0" y="756" font-family="Malgun Gothic" font-weight="bold" font-size="34" fill="#1A2129" text-anchor="middle">40</text><text x="380.0" y="938" font-family="Malgun Gothic" font-size="28" fill="#5B6B7C" text-anchor="middle">많음</text>
  <text x="600" y="980" font-family="Malgun Gothic" font-weight="bold" font-size="44" fill="#1A2129" text-anchor="middle">7월</text><rect x="450" y="836" width="80" height="64" rx="8" fill="#A9B6C4"/><text x="490.0" y="820" font-family="Malgun Gothic" font-weight="bold" font-size="34" fill="#1A2129" text-anchor="middle">20</text><text x="490.0" y="938" font-family="Malgun Gothic" font-size="28" fill="#5B6B7C" text-anchor="middle">적음</text><rect x="550" y="772" width="80" height="128" rx="8" fill="#A9B6C4"/><text x="590.0" y="756" font-family="Malgun Gothic" font-weight="bold" font-size="34" fill="#1A2129" text-anchor="middle">40</text><text x="590.0" y="938" font-family="Malgun Gothic" font-size="28" fill="#5B6B7C" text-anchor="middle">비슷</text><rect x="650" y="772" width="80" height="128" rx="8" fill="#E23B3B"/><text x="690.0" y="756" font-family="Malgun Gothic" font-weight="bold" font-size="34" fill="#1A2129" text-anchor="middle">40</text><text x="690.0" y="938" font-family="Malgun Gothic" font-size="28" fill="#5B6B7C" text-anchor="middle">많음</text>
  <text x="910" y="980" font-family="Malgun Gothic" font-weight="bold" font-size="44" fill="#1A2129" text-anchor="middle">8월</text><rect x="760" y="804" width="80" height="96" rx="8" fill="#A9B6C4"/><text x="800.0" y="788" font-family="Malgun Gothic" font-weight="bold" font-size="34" fill="#1A2129" text-anchor="middle">30</text><text x="800.0" y="938" font-family="Malgun Gothic" font-size="28" fill="#5B6B7C" text-anchor="middle">적음</text><rect x="860" y="740" width="80" height="160" rx="8" fill="#2B2F36"/><text x="900.0" y="724" font-family="Malgun Gothic" font-weight="bold" font-size="34" fill="#1A2129" text-anchor="middle">50</text><text x="900.0" y="938" font-family="Malgun Gothic" font-size="28" fill="#5B6B7C" text-anchor="middle">비슷</text><rect x="960" y="836" width="80" height="64" rx="8" fill="#A9B6C4"/><text x="1000.0" y="820" font-family="Malgun Gothic" font-weight="bold" font-size="34" fill="#1A2129" text-anchor="middle">20</text><text x="1000.0" y="938" font-family="Malgun Gothic" font-size="28" fill="#5B6B7C" text-anchor="middle">많음</text>
  <rect x="60" y="1040" width="960" height="170" rx="20" fill="#ffffff" stroke="#D6E0EC"/>
  <text x="90" y="1110" font-family="Malgun Gothic" font-weight="bold" font-size="40" fill="#E23B3B">6~7월 강수량 '평년보다 많음' 가능성 ↑</text>
  <text x="90" y="1170" font-family="Malgun Gothic" font-size="36" fill="#1A2129">기온도 평년보다 높을 확률 50~60% · 집중호우형</text>
  <rect x="0" y="1270" width="1080" height="80" fill="#E8EEF5"/>
  <text x="60" y="1322" font-family="Malgun Gothic" font-size="32" fill="#5B6B7C">출처: 기상청 「2026년 6~8월 기후전망」(2026-05-22)</text>
</svg>