<svg xmlns="http://www.w3.org/2000/svg" width="1080" height="720" viewBox="0 0 1080 720">
  <rect width="1080" height="720" fill="#F4F7FB"/>
  <rect width="1080" height="170" fill="#2B2F36"/>
  <rect x="60" y="52" rx="34" ry="34" width="200" height="68" fill="#E23B3B"/><text x="160.0" y="98" font-family="Malgun Gothic" font-weight="bold" font-size="36" fill="#ffffff" text-anchor="middle">오늘의 이슈</text>
  <text x="60" y="150" font-family="Malgun Gothic" font-weight="bold" font-size="54" fill="#ffffff">집안 습기 잡는 천연 소재</text>
  
  <rect x="45" y="240" width="300" height="320" rx="24" fill="#ffffff" stroke="#D6E0EC"/>
  <circle cx="195" cy="350" r="62" fill="#3A3F47"/>
  <text x="195" y="470" font-family="Malgun Gothic" font-weight="bold" font-size="44" fill="#1A2129" text-anchor="middle">숯</text>
  <text x="195" y="528" font-family="Malgun Gothic" font-size="30" fill="#5B6B7C" text-anchor="middle">습기 흡수·배출</text>
  
  <rect x="315" y="240" width="300" height="320" rx="24" fill="#ffffff" stroke="#D6E0EC"/>
  <circle cx="465" cy="350" r="62" fill="#8C97A4"/>
  <text x="465" y="470" font-family="Malgun Gothic" font-weight="bold" font-size="44" fill="#1A2129" text-anchor="middle">신문지</text>
  <text x="465" y="528" font-family="Malgun Gothic" font-size="30" fill="#5B6B7C" text-anchor="middle">옷장·신발장 방습</text>
  
  <rect x="585" y="240" width="300" height="320" rx="24" fill="#ffffff" stroke="#D6E0EC"/>
  <circle cx="735" cy="350" r="62" fill="#EAEFF5"/>
  <text x="735" y="470" font-family="Malgun Gothic" font-weight="bold" font-size="44" fill="#1A2129" text-anchor="middle">굵은 소금</text>
  <text x="735" y="528" font-family="Malgun Gothic" font-size="30" fill="#5B6B7C" text-anchor="middle">싱크대·건조대 밑</text>
  
  <rect x="735" y="240" width="300" height="320" rx="24" fill="#ffffff" stroke="#D6E0EC"/>
  <circle cx="885" cy="350" r="62" fill="#5AA9E6"/>
  <text x="885" y="470" font-family="Malgun Gothic" font-weight="bold" font-size="44" fill="#1A2129" text-anchor="middle">실리카겔</text>
  <text x="885" y="528" font-family="Malgun Gothic" font-size="30" fill="#5B6B7C" text-anchor="middle">밀폐공간 제습</text>
  <text x="60" y="660" font-family="Malgun Gothic" font-weight="bold" font-size="36" fill="#E23B3B">실내 습도 40~60% 유지 + 환기 병행이 핵심</text>
</svg>