<svg xmlns="http://www.w3.org/2000/svg" width="1080" height="1350" viewBox="0 0 1080 1350">
  <rect width="1080" height="1350" fill="#F4F7FB"/>
  <rect width="1080" height="200" fill="#1B5FA6"/>
  <rect x="60" y="60" rx="26" ry="26" width="160" height="56" fill="#FFD23F"/>
  <text x="140" y="99" font-family="'Noto Sans KR','Malgun Gothic'" font-weight="bold" font-size="30" fill="#1a1a1a" text-anchor="middle">정부지원금</text>
  <text x="60" y="175" font-family="'Noto Sans KR','Malgun Gothic'" font-weight="bold" font-size="62" fill="#ffffff">유형별 신청 자격</text>

  <text x="60" y="255" font-family="'Noto Sans KR','Malgun Gothic'" font-weight="bold" font-size="34" fill="#1B5FA6">공통 연령: 만 15~69세</text>

  <!-- 헤더 -->
  <g font-family="'Noto Sans KR','Malgun Gothic'">
    <rect x="60" y="280" width="430" height="76" rx="12" fill="#1B5FA6"/>
    <rect x="500" y="280" width="255" height="76" rx="12" fill="#243B6B"/>
    <rect x="765" y="280" width="255" height="76" rx="12" fill="#243B6B"/>
    <text x="275" y="330" font-weight="bold" font-size="34" fill="#ffffff" text-anchor="middle">유형 / 트랙</text>
    <text x="627" y="330" font-weight="bold" font-size="32" fill="#ffffff" text-anchor="middle">소득 기준</text>
    <text x="892" y="330" font-weight="bold" font-size="32" fill="#ffffff" text-anchor="middle">재산 기준</text>

    <!-- rows -->
    <!-- row helper height 120 -->
    <!-- r1 -->
    <rect x="60" y="364" width="430" height="120" rx="12" fill="#ffffff" stroke="#D6E0EC"/>
    <rect x="500" y="364" width="255" height="120" rx="12" fill="#ffffff" stroke="#D6E0EC"/>
    <rect x="765" y="364" width="255" height="120" rx="12" fill="#ffffff" stroke="#D6E0EC"/>
    <text x="85" y="415" font-weight="bold" font-size="31" fill="#1a1a1a">I유형</text>
    <text x="85" y="455" font-weight="bold" font-size="29" fill="#5B6B7C">요건심사형</text>
    <text x="627" y="436" font-weight="bold" font-size="32" fill="#1B5FA6" text-anchor="middle">중위 60% 이하</text>
    <text x="892" y="436" font-weight="bold" font-size="32" fill="#1B5FA6" text-anchor="middle">4억원 이하</text>

    <!-- r2 -->
    <rect x="60" y="492" width="430" height="120" rx="12" fill="#ffffff" stroke="#D6E0EC"/>
    <rect x="500" y="492" width="255" height="120" rx="12" fill="#ffffff" stroke="#D6E0EC"/>
    <rect x="765" y="492" width="255" height="120" rx="12" fill="#ffffff" stroke="#D6E0EC"/>
    <text x="85" y="543" font-weight="bold" font-size="31" fill="#1a1a1a">I유형 선발형</text>
    <text x="85" y="583" font-weight="bold" font-size="29" fill="#5B6B7C">비경제활동</text>
    <text x="627" y="564" font-weight="bold" font-size="32" fill="#1B5FA6" text-anchor="middle">중위 60% 이하</text>
    <text x="892" y="564" font-weight="bold" font-size="32" fill="#1B5FA6" text-anchor="middle">4억원 이하</text>

    <!-- r3 -->
    <rect x="60" y="620" width="430" height="120" rx="12" fill="#FFF7DA" stroke="#FFD23F" stroke-width="2"/>
    <rect x="500" y="620" width="255" height="120" rx="12" fill="#FFF7DA" stroke="#FFD23F" stroke-width="2"/>
    <rect x="765" y="620" width="255" height="120" rx="12" fill="#FFF7DA" stroke="#FFD23F" stroke-width="2"/>
    <text x="85" y="671" font-weight="bold" font-size="31" fill="#1a1a1a">I유형 청년특례</text>
    <text x="85" y="711" font-weight="bold" font-size="29" fill="#5B6B7C">15~34세</text>
    <text x="627" y="692" font-weight="bold" font-size="32" fill="#E8722C" text-anchor="middle">중위 120% 이하</text>
    <text x="892" y="692" font-weight="bold" font-size="32" fill="#E8722C" text-anchor="middle">5억원 이하</text>

    <!-- r4 -->
    <rect x="60" y="748" width="430" height="110" rx="12" fill="#ffffff" stroke="#D6E0EC"/>
    <rect x="500" y="748" width="255" height="110" rx="12" fill="#ffffff" stroke="#D6E0EC"/>
    <rect x="765" y="748" width="255" height="110" rx="12" fill="#ffffff" stroke="#D6E0EC"/>
    <text x="85" y="812" font-weight="bold" font-size="31" fill="#1a1a1a">II유형 특정계층</text>
    <text x="627" y="812" font-weight="bold" font-size="32" fill="#5B6B7C" text-anchor="middle">무관</text>
    <text x="892" y="812" font-weight="bold" font-size="32" fill="#5B6B7C" text-anchor="middle">무관</text>

    <!-- r5 -->
    <rect x="60" y="866" width="430" height="110" rx="12" fill="#ffffff" stroke="#D6E0EC"/>
    <rect x="500" y="866" width="255" height="110" rx="12" fill="#ffffff" stroke="#D6E0EC"/>
    <rect x="765" y="866" width="255" height="110" rx="12" fill="#ffffff" stroke="#D6E0EC"/>
    <text x="85" y="912" font-weight="bold" font-size="31" fill="#1a1a1a">II유형 청년</text>
    <text x="85" y="950" font-weight="bold" font-size="29" fill="#5B6B7C">15~34세</text>
    <text x="627" y="930" font-weight="bold" font-size="32" fill="#5B6B7C" text-anchor="middle">무관</text>
    <text x="892" y="930" font-weight="bold" font-size="32" fill="#5B6B7C" text-anchor="middle">무관</text>

    <!-- r6 -->
    <rect x="60" y="984" width="430" height="110" rx="12" fill="#ffffff" stroke="#D6E0EC"/>
    <rect x="500" y="984" width="255" height="110" rx="12" fill="#ffffff" stroke="#D6E0EC"/>
    <rect x="765" y="984" width="255" height="110" rx="12" fill="#ffffff" stroke="#D6E0EC"/>
    <text x="85" y="1030" font-weight="bold" font-size="31" fill="#1a1a1a">II유형 중장년</text>
    <text x="85" y="1068" font-weight="bold" font-size="29" fill="#5B6B7C">35~69세</text>
    <text x="627" y="1048" font-weight="bold" font-size="32" fill="#1B5FA6" text-anchor="middle">중위 100% 이하</text>
    <text x="892" y="1048" font-weight="bold" font-size="32" fill="#5B6B7C" text-anchor="middle">—</text>
  </g>

  <!-- 안내 -->
  <rect x="60" y="1118" width="960" height="120" rx="16" fill="#1B5FA6"/>
  <text x="540" y="1170" font-family="'Noto Sans KR','Malgun Gothic'" font-weight="bold" font-size="32" fill="#ffffff" text-anchor="middle">I유형 요건심사형: 최근 2년 내 취업경험</text>
  <text x="540" y="1212" font-family="'Noto Sans KR','Malgun Gothic'" font-weight="bold" font-size="34" fill="#FFD23F" text-anchor="middle">100일 또는 800시간 이상 필요</text>

  <rect x="0" y="1270" width="1080" height="80" fill="#E8EEF5"/>
  <text x="60" y="1320" font-family="'Noto Sans KR','Malgun Gothic'" font-size="32" fill="#5B6B7C">출처: 고용노동부 · 중위소득 금액은 매년 고시</text>
</svg>
