<svg xmlns="http://www.w3.org/2000/svg" width="1080" height="1350" viewBox="0 0 1080 1350">
  <rect width="1080" height="1350" fill="#FFF3E8"/>
  <rect width="1080" height="180" fill="#E8722C"/>
  <rect x="60" y="56" rx="26" ry="26" width="172" height="60" fill="#FFD23F"/>
  <text x="146" y="98" font-family="Malgun Gothic" font-weight="bold" font-size="32" fill="#2A2118" text-anchor="middle">생활꿀팁</text>
  <text x="252" y="120" font-family="Malgun Gothic" font-weight="bold" font-size="56" fill="#FFFFFF">실내 모기 퇴치 효과 비교</text>
  <rect x="50" y="250" width="980" height="160" rx="16" fill="#FFFFFF" stroke="#EAD9C8" stroke-width="3"/>
  <text x="80" y="312" font-family="Malgun Gothic" font-weight="bold" font-size="44" fill="#2A2118">방충망·모기장</text>
  <text x="80" y="376" font-family="Malgun Gothic" font-size="32" fill="#7A6E62">1차 차단의 기본 · 가장 권장</text>
  <text x="1000" y="322" font-family="Malgun Gothic" font-weight="bold" font-size="46" fill="#E8722C" text-anchor="end">★★★★★</text>
  <rect x="50" y="430" width="980" height="160" rx="16" fill="#FFFFFF" stroke="#EAD9C8" stroke-width="3"/>
  <text x="80" y="492" font-family="Malgun Gothic" font-weight="bold" font-size="44" fill="#2A2118">모기향/전자매트</text>
  <text x="80" y="556" font-family="Malgun Gothic" font-size="32" fill="#7A6E62">환기 필수 · 사용 후 전원 차단</text>
  <text x="1000" y="502" font-family="Malgun Gothic" font-weight="bold" font-size="46" fill="#E8722C" text-anchor="end">★★★☆☆</text>
  <rect x="50" y="610" width="980" height="160" rx="16" fill="#FFFFFF" stroke="#EAD9C8" stroke-width="3"/>
  <text x="80" y="672" font-family="Malgun Gothic" font-weight="bold" font-size="44" fill="#2A2118">포집기/살충램프</text>
  <text x="80" y="736" font-family="Malgun Gothic" font-size="32" fill="#7A6E62">실내선 효과 낮음(CO₂에 밀림)</text>
  <text x="1000" y="682" font-family="Malgun Gothic" font-weight="bold" font-size="46" fill="#E8722C" text-anchor="end">★★☆☆☆</text>
  <rect x="50" y="790" width="980" height="160" rx="16" fill="#FFFFFF" stroke="#EAD9C8" stroke-width="3"/>
  <text x="80" y="852" font-family="Malgun Gothic" font-weight="bold" font-size="44" fill="#2A2118">전기모기채</text>
  <text x="80" y="916" font-family="Malgun Gothic" font-size="32" fill="#7A6E62">몇 마리만 있을 때 실용적</text>
  <text x="1000" y="862" font-family="Malgun Gothic" font-weight="bold" font-size="46" fill="#E8722C" text-anchor="end">★★★☆☆</text>
  <rect x="50" y="970" width="980" height="160" rx="16" fill="#FFFFFF" stroke="#EAD9C8" stroke-width="3"/>
  <text x="80" y="1032" font-family="Malgun Gothic" font-weight="bold" font-size="44" fill="#2A2118">선풍기</text>
  <text x="80" y="1096" font-family="Malgun Gothic" font-size="32" fill="#7A6E62">보조 수단 · 단독 퇴치력 약함</text>
  <text x="1000" y="1042" font-family="Malgun Gothic" font-weight="bold" font-size="46" fill="#E8722C" text-anchor="end">★★☆☆☆</text>

  <rect x="50" y="1160" width="980" height="90" rx="16" fill="#E8722C"/>
  <text x="540" y="1218" font-family="Malgun Gothic" font-weight="bold" font-size="40" fill="#FFFFFF" text-anchor="middle">우선순위는 방충망·모기장 (물림의 약 80%가 잘 때)</text>
  <rect x="0" y="1278" width="1080" height="72" fill="#FFF3E8"/>
  <text x="60" y="1325" font-family="Malgun Gothic" font-size="30" fill="#7A6E62">질병관리청 권고 기반</text>
</svg>