<svg xmlns="http://www.w3.org/2000/svg" width="1080" height="1080" viewBox="0 0 1080 1080">
  <rect width="1080" height="1080" fill="#2B2F36"/>
  <circle cx="960" cy="150" r="240" fill="#ffffff" opacity="0.05"/>
  <circle cx="120" cy="980" r="200" fill="#E23B3B" opacity="0.10"/>

  <!-- 카테고리 뱃지 -->
  <rect x="64" y="80" rx="34" ry="34" width="220" height="68" fill="#E23B3B"/>
  <text x="174" y="126" font-family="'Noto Sans KR','Malgun Gothic',sans-serif" font-weight="bold"
        font-size="36" fill="#ffffff" text-anchor="middle">오늘의 이슈</text>

  <!-- 서브 카피 -->
  <text x="64" y="270" font-family="'Noto Sans KR','Malgun Gothic',sans-serif" font-weight="bold"
        font-size="58" fill="#E8EEF5">2026년 8월부터 달라지는 것</text>

  <!-- 메인 카피 -->
  <text x="64" y="380" font-family="'Noto Sans KR','Malgun Gothic',sans-serif" font-weight="bold"
        font-size="118" fill="#ffffff">날짜부터</text>
  <text x="64" y="500" font-family="'Noto Sans KR','Malgun Gothic',sans-serif" font-weight="bold"
        font-size="118" fill="#FFD23F">챙기세요</text>

  <!-- 날짜 카드 3개 -->
  <g font-family="'Noto Sans KR','Malgun Gothic',sans-serif">
    <rect x="64" y="580" rx="20" width="952" height="118" fill="#ffffff" opacity="0.10"/>
    <rect x="64" y="580" rx="20" width="200" height="118" fill="#E23B3B"/>
    <text x="164" y="640" font-weight="bold" font-size="46" fill="#ffffff" text-anchor="middle">8/12</text>
    <text x="164" y="682" font-weight="bold" font-size="26" fill="#FFD23F" text-anchor="middle">국가장학금</text>
    <text x="300" y="655" font-weight="bold" font-size="46" fill="#ffffff">국가장학금 2차 신청 시작</text>

    <rect x="64" y="716" rx="20" width="952" height="118" fill="#ffffff" opacity="0.10"/>
    <rect x="64" y="716" rx="20" width="200" height="118" fill="#E23B3B"/>
    <text x="164" y="776" font-weight="bold" font-size="46" fill="#ffffff" text-anchor="middle">8/20</text>
    <text x="164" y="818" font-weight="bold" font-size="26" fill="#FFD23F" text-anchor="middle">육아</text>
    <text x="300" y="791" font-weight="bold" font-size="46" fill="#ffffff">단기 육아휴직 신설</text>

    <rect x="64" y="852" rx="20" width="952" height="118" fill="#ffffff" opacity="0.10"/>
    <rect x="64" y="852" rx="20" width="200" height="118" fill="#E23B3B"/>
    <text x="164" y="912" font-weight="bold" font-size="46" fill="#ffffff" text-anchor="middle">8/28</text>
    <text x="164" y="954" font-weight="bold" font-size="26" fill="#FFD23F" text-anchor="middle">소비자보호</text>
    <text x="300" y="927" font-weight="bold" font-size="46" fill="#ffffff">암표(부정 재판매) 전면 금지</text>
  </g>

  <text x="64" y="1030" font-family="'Noto Sans KR','Malgun Gothic',sans-serif"
        font-size="32" fill="#E8EEF5" opacity="0.85">blog.naver.com/trip_chocho</text>
</svg>
