<svg xmlns="http://www.w3.org/2000/svg" width="1080" height="1350" viewBox="0 0 1080 1350">
<rect width="1080" height="1350" fill="#F4F7FB"/>
<rect width="1080" height="200" fill="#2B2F36"/>
<text x="60" y="95" font-family="'Noto Sans CJK KR','Malgun Gothic',sans-serif" font-weight="bold" font-size="60" fill="#ffffff">폭염특보 3단계 기준</text>
<text x="60" y="160" font-family="'Noto Sans CJK KR','Malgun Gothic',sans-serif" font-size="38" fill="#E8EEF5">2026년 6월 1일부터 개편 시행 (기상청)</text>
<g font-family="'Noto Sans CJK KR','Malgun Gothic',sans-serif">
<rect x="60" y="250" width="960" height="240" rx="20" fill="#ffffff" stroke="#D6DBE4" stroke-width="2"/>
<rect x="100" y="290" rx="26" ry="26" width="220" height="52" fill="#6B7684"/>
<text x="210" y="327" font-size="32" font-weight="bold" fill="#ffffff" text-anchor="middle">폭염주의보</text>
<text x="100" y="410" font-size="42" font-weight="bold" fill="#1a1a1a">체감 33℃ 이상, 2일 이상 지속 예상</text>
<text x="100" y="462" font-size="34" fill="#5B6B7C">더위 피해 주의 단계</text>
<rect x="60" y="520" width="960" height="240" rx="20" fill="#ffffff" stroke="#D6DBE4" stroke-width="2"/>
<rect x="100" y="560" rx="26" ry="26" width="220" height="52" fill="#E8722C"/>
<text x="210" y="597" font-size="32" font-weight="bold" fill="#ffffff" text-anchor="middle">폭염경보</text>
<text x="100" y="680" font-size="42" font-weight="bold" fill="#1a1a1a">체감 35℃ 이상, 2일 이상 지속 예상</text>
<text x="100" y="732" font-size="34" fill="#5B6B7C">더위 피해 경계 단계</text>
<rect x="60" y="790" width="960" height="310" rx="20" fill="#2B2F36"/>
<rect x="100" y="830" rx="26" ry="26" width="270" height="52" fill="#E23B3B"/>
<text x="235" y="867" font-size="32" font-weight="bold" fill="#ffffff" text-anchor="middle">폭염중대경보</text>
<text x="100" y="950" font-size="42" font-weight="bold" fill="#ffffff">체감 35℃ 2일 지속된 지역에서</text>
<text x="100" y="1010" font-size="42" font-weight="bold" fill="#FFD23F">체감 38℃ 또는 기온 39℃ 이상 예상</text>
<text x="100" y="1066" font-size="34" fill="#E8EEF5">전 국민 위험 — 야외활동 즉시 중단</text>
<text x="60" y="1180" font-size="36" font-weight="bold" fill="#E23B3B">7/12 경북 포항·경산에 사상 첫 발령</text>
</g>
<rect x="0" y="1270" width="1080" height="80" fill="#E8EEF5"/>
<text x="60" y="1322" font-family="'Noto Sans CJK KR','Malgun Gothic',sans-serif" font-size="34" fill="#5B6B7C">출처: 기상청·행정안전부 (2026.7.12 발표)</text>
</svg>