<svg xmlns="http://www.w3.org/2000/svg" width="1080" height="1080" viewBox="0 0 1080 1080">
<rect width="1080" height="1080" fill="#243B6B"/>
<circle cx="950" cy="180" r="260" fill="#1A2B50"/>
<circle cx="110" cy="990" r="210" fill="#2C467C"/>
<circle cx="945" cy="185" r="245" fill="none" stroke="#FFD23F" stroke-width="4"/>
<rect x="64" y="80" rx="30" ry="30" width="190" height="60" fill="#FFD23F"/>
<text x="159.0" y="122" font-family="Noto Sans CJK KR" font-weight="800" font-size="34" fill="#1a1a1a" text-anchor="middle">금융/재테크</text>
<text x="300" y="124" font-family="Noto Sans CJK KR" font-weight="600" font-size="34" fill="#E8EEF5" text-anchor="start">2026년 기준</text>
<text x="64" y="272" font-family="Noto Sans CJK KR" font-weight="700" font-size="56" fill="#E8EEF5" text-anchor="start">청약통장, 이제 월 얼마 넣어야 할까?</text>
<text x="64" y="470" font-family="Noto Sans CJK KR" font-weight="900" font-size="150" fill="#ffffff" text-anchor="start">월 25만원</text>
<text x="64" y="650" font-family="Noto Sans CJK KR" font-weight="900" font-size="150" fill="#FFD23F" text-anchor="start">이 기준!</text>
<rect x="64" y="720" rx="20" ry="20" width="304" height="150" fill="#ffffff"/>
<text x="216" y="760" font-family="Noto Sans CJK KR" font-weight="700" font-size="32" fill="#243B6B" text-anchor="middle">월 인정액</text>
<text x="216" y="830" font-family="Noto Sans CJK KR" font-weight="900" font-size="44" fill="#1A2B50" text-anchor="middle">25만원</text>
<rect x="390" y="720" rx="20" ry="20" width="304" height="150" fill="#ffffff"/>
<text x="542" y="760" font-family="Noto Sans CJK KR" font-weight="700" font-size="32" fill="#243B6B" text-anchor="middle">최고 금리</text>
<text x="542" y="830" font-family="Noto Sans CJK KR" font-weight="900" font-size="44" fill="#1A2B50" text-anchor="middle">연 3.1%</text>
<rect x="716" y="720" rx="20" ry="20" width="304" height="150" fill="#ffffff"/>
<text x="868" y="760" font-family="Noto Sans CJK KR" font-weight="700" font-size="32" fill="#243B6B" text-anchor="middle">소득공제</text>
<text x="868" y="830" font-family="Noto Sans CJK KR" font-weight="900" font-size="44" fill="#1A2B50" text-anchor="middle">최대 120만원</text>
<rect x="64" y="905" rx="18" ry="18" width="952" height="95" fill="#ffffff"/>
<text x="540" y="962" font-family="Noto Sans CJK KR" font-weight="700" font-size="40" fill="#243B6B" text-anchor="middle">납입금액·금리·소득공제·1순위 조건 총정리</text>
</svg>
