<svg xmlns="http://www.w3.org/2000/svg" width="1080" height="1350" viewBox="0 0 1080 1350">
<rect width="1080" height="1350" fill="#F4F7FB"/>
<rect x="0" y="0" width="1080" height="200" fill="#243B6B"/>
<rect x="0" y="200" width="1080" height="8" fill="#FFD23F"/>
<rect x="60" y="46" rx="30" ry="30" width="190" height="60" fill="#FFD23F"/>
<text x="155.0" y="88" font-family="Noto Sans CJK KR" font-weight="800" font-size="34" fill="#1a1a1a" text-anchor="middle">금융/재테크</text>
<text x="60" y="165" font-family="Noto Sans CJK KR" font-weight="800" font-size="58" fill="#ffffff" text-anchor="start">가입 조건 &amp; 취급 은행</text>
<rect x="60" y="270" rx="18" ry="18" width="960" height="130" fill="#ffffff" stroke="#D6E0EC" stroke-width="2"/>
<rect x="60" y="270" rx="18" ry="18" width="260" height="130" fill="#E9EEF7"/>
<text x="190" y="352" font-family="Noto Sans CJK KR" font-weight="800" font-size="40" fill="#243B6B" text-anchor="middle">가입 대상</text>
<text x="350" y="352" font-family="Noto Sans CJK KR" font-weight="600" font-size="36" fill="#1a1a1a" text-anchor="start">국내 거주자 누구나 (미성년자 포함)</text>
<rect x="60" y="420" rx="18" ry="18" width="960" height="130" fill="#ffffff" stroke="#D6E0EC" stroke-width="2"/>
<rect x="60" y="420" rx="18" ry="18" width="260" height="130" fill="#E9EEF7"/>
<text x="190" y="502" font-family="Noto Sans CJK KR" font-weight="800" font-size="40" fill="#243B6B" text-anchor="middle">계좌 수</text>
<text x="350" y="502" font-family="Noto Sans CJK KR" font-weight="600" font-size="36" fill="#1a1a1a" text-anchor="start">전 금융기관 통틀어 1인 1계좌</text>
<rect x="60" y="570" rx="18" ry="18" width="960" height="130" fill="#ffffff" stroke="#D6E0EC" stroke-width="2"/>
<rect x="60" y="570" rx="18" ry="18" width="260" height="130" fill="#E9EEF7"/>
<text x="190" y="652" font-family="Noto Sans CJK KR" font-weight="800" font-size="40" fill="#243B6B" text-anchor="middle">월 납입액</text>
<text x="350" y="652" font-family="Noto Sans CJK KR" font-weight="600" font-size="36" fill="#1a1a1a" text-anchor="start">매월 2만원 ~ 50만원 자유납입</text>
<rect x="60" y="720" rx="18" ry="18" width="960" height="130" fill="#ffffff" stroke="#D6E0EC" stroke-width="2"/>
<rect x="60" y="720" rx="18" ry="18" width="260" height="130" fill="#E9EEF7"/>
<text x="190" y="802" font-family="Noto Sans CJK KR" font-weight="800" font-size="40" fill="#243B6B" text-anchor="middle">청약 가능</text>
<text x="350" y="802" font-family="Noto Sans CJK KR" font-weight="600" font-size="36" fill="#1a1a1a" text-anchor="start">국민주택 + 민영주택 모두</text>
<rect x="60" y="890" rx="18" ry="18" width="960" height="280" fill="#243B6B"/>
<text x="540" y="960" font-family="Noto Sans CJK KR" font-weight="800" font-size="38" fill="#FFD23F" text-anchor="middle">취급 은행 9곳 (주택도시기금 수탁은행)</text>
<rect x="67.0" y="1000" rx="14" ry="14" width="170" height="80" fill="#ffffff"/>
<text x="152.0" y="1056" font-family="Noto Sans CJK KR" font-weight="800" font-size="40" fill="#1A2B50" text-anchor="middle">우리</text>
<rect x="261.0" y="1000" rx="14" ry="14" width="170" height="80" fill="#ffffff"/>
<text x="346.0" y="1056" font-family="Noto Sans CJK KR" font-weight="800" font-size="40" fill="#1A2B50" text-anchor="middle">국민</text>
<rect x="455.0" y="1000" rx="14" ry="14" width="170" height="80" fill="#ffffff"/>
<text x="540.0" y="1056" font-family="Noto Sans CJK KR" font-weight="800" font-size="40" fill="#1A2B50" text-anchor="middle">신한</text>
<rect x="649.0" y="1000" rx="14" ry="14" width="170" height="80" fill="#ffffff"/>
<text x="734.0" y="1056" font-family="Noto Sans CJK KR" font-weight="800" font-size="40" fill="#1A2B50" text-anchor="middle">하나</text>
<rect x="843.0" y="1000" rx="14" ry="14" width="170" height="80" fill="#ffffff"/>
<text x="928.0" y="1056" font-family="Noto Sans CJK KR" font-weight="800" font-size="40" fill="#1A2B50" text-anchor="middle">농협</text>
<rect x="67.0" y="1104" rx="14" ry="14" width="170" height="80" fill="#ffffff"/>
<text x="152.0" y="1160" font-family="Noto Sans CJK KR" font-weight="800" font-size="40" fill="#1A2B50" text-anchor="middle">기업</text>
<rect x="261.0" y="1104" rx="14" ry="14" width="170" height="80" fill="#ffffff"/>
<text x="346.0" y="1160" font-family="Noto Sans CJK KR" font-weight="800" font-size="40" fill="#1A2B50" text-anchor="middle">대구</text>
<rect x="455.0" y="1104" rx="14" ry="14" width="170" height="80" fill="#ffffff"/>
<text x="540.0" y="1160" font-family="Noto Sans CJK KR" font-weight="800" font-size="40" fill="#1A2B50" text-anchor="middle">부산</text>
<rect x="649.0" y="1104" rx="14" ry="14" width="170" height="80" fill="#ffffff"/>
<text x="734.0" y="1160" font-family="Noto Sans CJK KR" font-weight="800" font-size="40" fill="#1A2B50" text-anchor="middle">경남</text>
<rect x="0" y="1280" width="1080" height="70" fill="#E8EEF5"/>
<text x="60" y="1328" font-family="Noto Sans CJK KR" font-weight="500" font-size="30" fill="#5B6B7C" text-anchor="start">출처: 주택도시기금</text>
<text x="1020" y="1326" font-family="Noto Sans CJK KR" font-weight="500" font-size="28" fill="#5B6B7C" text-anchor="end">blog.naver.com/trip_chocho</text>
</svg>
