<svg xmlns="http://www.w3.org/2000/svg" width="1080" height="1350" viewBox="0 0 1080 1350">
  <rect width="1080" height="1350" fill="#F4F7FB"/>
  <rect width="1080" height="200" fill="#1F8A53"/>
  <text x="60" y="90" font-family="'Noto Sans CJK KR', sans-serif" font-weight="bold" font-size="60" fill="#FFFFFF">7월 사업자 세무 캘린더</text>
  <text x="60" y="165" font-family="'Noto Sans CJK KR', sans-serif" font-weight="bold" font-size="48" fill="#FFD23F">이 4개만 챙기세요</text>
  <rect x="60" y="310" width="960" height="170" rx="16" fill="#ffffff" stroke="#D6E0EC"/>
    <text x="100" y="385" font-family="'Noto Sans CJK KR', sans-serif" font-size="48" font-weight="bold" fill="#1F8A53">7/10 (금)</text>
    <text x="100" y="445" font-family="'Noto Sans CJK KR', sans-serif" font-size="44" font-weight="bold" fill="#1a1a1a">원천세 신고·납부</text>
    <rect x="810" y="365" width="170" height="64" rx="32" fill="#FFD23F"/>
    <text x="895" y="409" font-family="'Noto Sans CJK KR', sans-serif" font-size="34" font-weight="bold" fill="#1a1a1a" text-anchor="middle">홈택스</text><rect x="60" y="510" width="960" height="170" rx="16" fill="#ffffff" stroke="#D6E0EC"/>
    <text x="100" y="585" font-family="'Noto Sans CJK KR', sans-serif" font-size="48" font-weight="bold" fill="#1F8A53">7/10 (금)</text>
    <text x="100" y="645" font-family="'Noto Sans CJK KR', sans-serif" font-size="44" font-weight="bold" fill="#1a1a1a">지방소득세 특별징수분</text>
    <rect x="810" y="565" width="170" height="64" rx="32" fill="#FFD23F"/>
    <text x="895" y="609" font-family="'Noto Sans CJK KR', sans-serif" font-size="34" font-weight="bold" fill="#1a1a1a" text-anchor="middle">위택스</text><rect x="60" y="710" width="960" height="170" rx="16" fill="#ffffff" stroke="#D6E0EC"/>
    <text x="100" y="785" font-family="'Noto Sans CJK KR', sans-serif" font-size="48" font-weight="bold" fill="#1F8A53">7/27 (월)</text>
    <text x="100" y="845" font-family="'Noto Sans CJK KR', sans-serif" font-size="44" font-weight="bold" fill="#1a1a1a">부가세 1기 확정신고</text>
    <rect x="810" y="765" width="170" height="64" rx="32" fill="#FFD23F"/>
    <text x="895" y="809" font-family="'Noto Sans CJK KR', sans-serif" font-size="34" font-weight="bold" fill="#1a1a1a" text-anchor="middle">홈택스</text><rect x="60" y="910" width="960" height="170" rx="16" fill="#ffffff" stroke="#D6E0EC"/>
    <text x="100" y="985" font-family="'Noto Sans CJK KR', sans-serif" font-size="48" font-weight="bold" fill="#1F8A53">7/31 (금)</text>
    <text x="100" y="1045" font-family="'Noto Sans CJK KR', sans-serif" font-size="44" font-weight="bold" fill="#1a1a1a">간이지급명세서 제출</text>
    <rect x="810" y="965" width="170" height="64" rx="32" fill="#FFD23F"/>
    <text x="895" y="1009" font-family="'Noto Sans CJK KR', sans-serif" font-size="34" font-weight="bold" fill="#1a1a1a" text-anchor="middle">홈택스</text>
  <text x="60" y="1165" font-family="'Noto Sans CJK KR', sans-serif" font-size="38" fill="#5B6B7C">간이지급명세서 매월 제출은 2027년 1월분부터</text>
  <rect x="0" y="1270" width="1080" height="80" fill="#E8EEF5"/>
  <text x="60" y="1322" font-family="'Noto Sans CJK KR', sans-serif" font-size="34" fill="#5B6B7C">출처: 국세청(nts.go.kr)</text>
</svg>