<svg xmlns="http://www.w3.org/2000/svg" width="1080" height="1080" viewBox="0 0 1080 1080">
<rect width="1080" height="1080" fill="#FFF5F7"/>
<rect width="1080" height="200" fill="#E0556E"/><text x="60" y="125" font-family="Malgun Gothic" font-weight="bold" font-size="58" fill="#FFFFFF">여름철 온열질환 예방수칙</text>
<rect x="60" y="290" width="960" height="130" rx="16" fill="#ffffff" stroke="#F3CAD3"/><rect x="60" y="290" width="14" height="130" rx="7" fill="#E0556E"/><text x="100" y="348" font-family="Malgun Gothic" font-weight="bold" font-size="40" fill="#B83E55">수분 섭취</text><text x="100" y="396" font-family="Malgun Gothic" font-size="34" fill="#2a2a2a">목 마르지 않아도 물 자주 · 카페인·술 자제</text><rect x="60" y="442" width="960" height="130" rx="16" fill="#ffffff" stroke="#F3CAD3"/><rect x="60" y="442" width="14" height="130" rx="7" fill="#E0556E"/><text x="100" y="500" font-family="Malgun Gothic" font-weight="bold" font-size="40" fill="#B83E55">활동 자제</text><text x="100" y="548" font-family="Malgun Gothic" font-size="34" fill="#2a2a2a">낮 12~17시 야외활동·운동 피하기</text><rect x="60" y="594" width="960" height="130" rx="16" fill="#ffffff" stroke="#F3CAD3"/><rect x="60" y="594" width="14" height="130" rx="7" fill="#E0556E"/><text x="100" y="652" font-family="Malgun Gothic" font-weight="bold" font-size="40" fill="#B83E55">시원한 복장</text><text x="100" y="700" font-family="Malgun Gothic" font-size="34" fill="#2a2a2a">밝은색 헐렁한 면 옷 · 챙 넓은 모자</text><rect x="60" y="746" width="960" height="130" rx="16" fill="#ffffff" stroke="#F3CAD3"/><rect x="60" y="746" width="14" height="130" rx="7" fill="#E0556E"/><text x="100" y="804" font-family="Malgun Gothic" font-weight="bold" font-size="40" fill="#B83E55">기상정보 확인</text><text x="100" y="852" font-family="Malgun Gothic" font-size="34" fill="#2a2a2a">폭염특보 등 수시 확인</text>
<rect x="0" y="1000" width="1080" height="80" fill="#FDE8EC"/><text x="60" y="1052" font-family="Malgun Gothic" font-size="32" fill="#9A5563">질병관리청·기상청 안내</text>
</svg>