<svg xmlns="http://www.w3.org/2000/svg" width="1080" height="1350" viewBox="0 0 1080 1350">
<rect width="1080" height="1350" fill="#F2F8FB"/>
<rect width="1080" height="170" fill="#0E6E99"/>
<text x="60" y="112" font-family="Noto Sans CJK KR" font-weight="900" font-size="58" fill="#ffffff">이동식 에어컨 고르는 법 5</text>
<rect x="60" y="270" width="960" height="150" rx="18" fill="#ffffff" stroke="#CFE3EC" stroke-width="2"/>
<circle cx="140" cy="345" r="44" fill="#0E6E99"/>
<text x="140" y="362" font-family="Noto Sans CJK KR" font-weight="900" font-size="48" fill="#ffffff" text-anchor="middle">①</text>
<text x="215" y="332" font-family="Noto Sans CJK KR" font-weight="900" font-size="44" fill="#13303f">냉방능력</text>
<text x="215" y="388" font-family="Noto Sans CJK KR" font-weight="bold" font-size="34" fill="#4a6575">실평수보다 1~2평 크게 (1평=400W)</text><rect x="60" y="440" width="960" height="150" rx="18" fill="#ffffff" stroke="#CFE3EC" stroke-width="2"/>
<circle cx="140" cy="515" r="44" fill="#0E6E99"/>
<text x="140" y="532" font-family="Noto Sans CJK KR" font-weight="900" font-size="48" fill="#ffffff" text-anchor="middle">②</text>
<text x="215" y="502" font-family="Noto Sans CJK KR" font-weight="900" font-size="44" fill="#13303f">덕트 방식</text>
<text x="215" y="558" font-family="Noto Sans CJK KR" font-weight="bold" font-size="34" fill="#4a6575">효율·체감은 듀얼덕트가 유리</text><rect x="60" y="610" width="960" height="150" rx="18" fill="#ffffff" stroke="#CFE3EC" stroke-width="2"/>
<circle cx="140" cy="685" r="44" fill="#0E6E99"/>
<text x="140" y="702" font-family="Noto Sans CJK KR" font-weight="900" font-size="48" fill="#ffffff" text-anchor="middle">③</text>
<text x="215" y="672" font-family="Noto Sans CJK KR" font-weight="900" font-size="44" fill="#13303f">배수</text>
<text x="215" y="728" font-family="Noto Sans CJK KR" font-weight="bold" font-size="34" fill="#4a6575">연속배수·자동증발 여부 확인</text><rect x="60" y="780" width="960" height="150" rx="18" fill="#ffffff" stroke="#CFE3EC" stroke-width="2"/>
<circle cx="140" cy="855" r="44" fill="#0E6E99"/>
<text x="140" y="872" font-family="Noto Sans CJK KR" font-weight="900" font-size="48" fill="#ffffff" text-anchor="middle">④</text>
<text x="215" y="842" font-family="Noto Sans CJK KR" font-weight="900" font-size="44" fill="#13303f">배기호스</text>
<text x="215" y="898" font-family="Noto Sans CJK KR" font-weight="bold" font-size="34" fill="#4a6575">길게·꺾임 X (냉방 체감 저하)</text><rect x="60" y="950" width="960" height="150" rx="18" fill="#ffffff" stroke="#CFE3EC" stroke-width="2"/>
<circle cx="140" cy="1025" r="44" fill="#0E6E99"/>
<text x="140" y="1042" font-family="Noto Sans CJK KR" font-weight="900" font-size="48" fill="#ffffff" text-anchor="middle">⑤</text>
<text x="215" y="1012" font-family="Noto Sans CJK KR" font-weight="900" font-size="44" fill="#13303f">소음·효율</text>
<text x="215" y="1068" font-family="Noto Sans CJK KR" font-weight="bold" font-size="34" fill="#4a6575">침실은 30dB대 저소음 우선</text>
<rect x="0" y="1270" width="1080" height="80" fill="#D7EEF5"/>
<text x="60" y="1320" font-family="Noto Sans CJK KR" font-size="30" fill="#4a6575">구매 전 체크리스트 · 정보 정리</text>
</svg>