<svg xmlns="http://www.w3.org/2000/svg" width="1080" height="1350" viewBox="0 0 1080 1350"><rect width="1080" height="1350" fill="#F4F7FB"/><rect x="0" y="0" width="1080" height="188" rx="0" ry="0" fill="#E8722C"/><rect x="60" y="54" width="208" height="62" rx="31" ry="31" fill="#FFD23F"/><text x="164.0" y="98" font-family="Noto Sans CJK KR" font-weight="800" font-size="34" fill="#1A1A1A" text-anchor="middle">생활꿀팁</text><text x="60" y="168" font-family="Noto Sans CJK KR" font-weight="800" font-size="60" fill="#FFFFFF" text-anchor="start">2026 장마 예상 시기 (북상 흐름)</text><line x1="120" y1="1010" x2="120" y2="420" stroke="#E8722C" stroke-width="10"/><polygon points="92,432 148,432 120,372" fill="#E8722C"/><text x="120" y="1070" font-family="Noto Sans CJK KR" font-weight="800" font-size="32" fill="#E8722C" text-anchor="middle">남 → 북</text><rect x="200" y="374" width="820" height="196" rx="22" ry="22" fill="#FFFFFF" stroke="#E2D6CC" stroke-width="2"/><rect x="200" y="374" width="160" height="196" rx="22" ry="22" fill="#FBE9DD"/><text x="280" y="486" font-family="Noto Sans CJK KR" font-weight="800" font-size="46" fill="#C75A18" text-anchor="middle">중부지방</text><text x="400" y="446" font-family="Noto Sans CJK KR" font-weight="700" font-size="42" fill="#1A1A1A" text-anchor="start">6/25~27 시작</text><text x="400" y="526" font-family="Noto Sans CJK KR" font-weight="700" font-size="42" fill="#1A1A1A" text-anchor="start">7/26~7월 말</text><text x="1000" y="486" font-family="Noto Sans CJK KR" font-weight="900" font-size="48" fill="#E8722C" text-anchor="end">약 31~32일</text><rect x="200" y="622" width="820" height="196" rx="22" ry="22" fill="#FFFFFF" stroke="#E2D6CC" stroke-width="2"/><rect x="200" y="622" width="160" height="196" rx="22" ry="22" fill="#FBE9DD"/><text x="280" y="734" font-family="Noto Sans CJK KR" font-weight="800" font-size="46" fill="#C75A18" text-anchor="middle">남부지방</text><text x="400" y="694" font-family="Noto Sans CJK KR" font-weight="700" font-size="42" fill="#1A1A1A" text-anchor="start">6/23~25 시작</text><text x="400" y="774" font-family="Noto Sans CJK KR" font-weight="700" font-size="42" fill="#1A1A1A" text-anchor="start">7/24~25 종료</text><text x="1000" y="734" font-family="Noto Sans CJK KR" font-weight="900" font-size="48" fill="#E8722C" text-anchor="end">약 31일</text><rect x="200" y="870" width="820" height="196" rx="22" ry="22" fill="#FFFFFF" stroke="#E2D6CC" stroke-width="2"/><rect x="200" y="870" width="160" height="196" rx="22" ry="22" fill="#FBE9DD"/><text x="280" y="982" font-family="Noto Sans CJK KR" font-weight="800" font-size="46" fill="#C75A18" text-anchor="middle">제주도</text><text x="400" y="942" font-family="Noto Sans CJK KR" font-weight="700" font-size="42" fill="#1A1A1A" text-anchor="start">6/19~21 시작</text><text x="400" y="1022" font-family="Noto Sans CJK KR" font-weight="700" font-size="42" fill="#1A1A1A" text-anchor="start">7/20~21 종료</text><text x="1000" y="982" font-family="Noto Sans CJK KR" font-weight="900" font-size="48" fill="#E8722C" text-anchor="end">약 32일</text><text x="60" y="1172" font-family="Noto Sans CJK KR" font-weight="500" font-size="34" fill="#6B5B4E" text-anchor="start">※ 기상청 전망을 인용한 보도 기준(전후)</text><text x="60" y="1222" font-family="Noto Sans CJK KR" font-weight="500" font-size="34" fill="#6B5B4E" text-anchor="start">   실제 시작·종료일은 변동될 수 있음</text><rect x="0" y="1272" width="1080" height="78" rx="0" ry="0" fill="#F1E3D8"/><text x="60" y="1320" font-family="Noto Sans CJK KR" font-weight="500" font-size="30" fill="#6B5B4E" text-anchor="start">출처: 기상청 전망 인용 보도</text></svg>