<svg xmlns="http://www.w3.org/2000/svg" width="1080" height="1350" viewBox="0 0 1080 1350"><rect width="1080" height="1350" fill="#F4F7FB"/><rect x="0" y="0" width="1080" height="188" rx="0" ry="0" fill="#E8722C"/><rect x="60" y="54" width="208" height="62" rx="31" ry="31" fill="#FFD23F"/><text x="164.0" y="98" font-family="Noto Sans CJK KR" font-weight="800" font-size="34" fill="#1A1A1A" text-anchor="middle">생활꿀팁</text><text x="60" y="168" font-family="Noto Sans CJK KR" font-weight="800" font-size="60" fill="#FFFFFF" text-anchor="start">곰팡이 노출이 건강에 미치는 영향</text><rect x="60" y="250" width="480" height="280" rx="22" ry="22" fill="#FFFFFF" stroke="#E2D6CC" stroke-width="2"/><text x="300" y="328" font-family="Noto Sans CJK KR" font-weight="800" font-size="48" fill="#E8722C" text-anchor="middle">만성 노출</text><text x="100" y="406" font-family="Noto Sans CJK KR" font-weight="500" font-size="38" fill="#1A1A1A" text-anchor="start">· 콧물·눈 가려움</text><text x="100" y="464" font-family="Noto Sans CJK KR" font-weight="500" font-size="38" fill="#1A1A1A" text-anchor="start">· 기침</text><text x="100" y="522" font-family="Noto Sans CJK KR" font-weight="500" font-size="38" fill="#1A1A1A" text-anchor="start">· 천식 증상 악화</text><rect x="540" y="250" width="480" height="280" rx="22" ry="22" fill="#FFFFFF" stroke="#E2D6CC" stroke-width="2"/><text x="780" y="328" font-family="Noto Sans CJK KR" font-weight="800" font-size="48" fill="#E23B3B" text-anchor="middle">급성 노출</text><text x="580" y="406" font-family="Noto Sans CJK KR" font-weight="500" font-size="38" fill="#1A1A1A" text-anchor="start">· 면역 약화</text><text x="580" y="464" font-family="Noto Sans CJK KR" font-weight="500" font-size="38" fill="#1A1A1A" text-anchor="start">· 천식·아토피·비염</text><text x="580" y="522" font-family="Noto Sans CJK KR" font-weight="500" font-size="38" fill="#1A1A1A" text-anchor="start">· 호흡기 감염</text><rect x="60" y="560" width="960" height="200" rx="22" ry="22" fill="#FBE9DD"/><text x="100" y="640" font-family="Noto Sans CJK KR" font-weight="800" font-size="44" fill="#C75A18" text-anchor="start">더 민감한 취약 계층</text><text x="100" y="716" font-family="Noto Sans CJK KR" font-weight="700" font-size="40" fill="#1A1A1A" text-anchor="start">어린이 · 노인 · 임산부 · 만성폐질환 보유자</text><rect x="60" y="790" width="960" height="170" rx="22" ry="22" fill="#FFFFFF" stroke="#E23B3B" stroke-width="3"/><text x="100" y="868" font-family="Noto Sans CJK KR" font-weight="800" font-size="42" fill="#E23B3B" text-anchor="start">곰팡이 알레르기가 있는 천식 환자</text><text x="100" y="932" font-family="Noto Sans CJK KR" font-weight="500" font-size="38" fill="#1A1A1A" text-anchor="start">노출 시 천식 발작이 나타날 수 있음</text><text x="60" y="1048" font-family="Noto Sans CJK KR" font-weight="700" font-size="38" fill="#6B5B4E" text-anchor="start">보이는 즉시 제거하고 재발을 막는 것이 관건</text><rect x="0" y="1272" width="1080" height="78" rx="0" ry="0" fill="#F1E3D8"/><text x="60" y="1320" font-family="Noto Sans CJK KR" font-weight="500" font-size="30" fill="#6B5B4E" text-anchor="start">출처: 질병관리청 국가건강정보포털 등</text></svg>