<svg xmlns="http://www.w3.org/2000/svg" width="1080" height="1350" viewBox="0 0 1080 1350"><rect width="1080" height="1350" fill="#F4F7FB"/><rect x="0" y="0" width="1080" height="188" rx="0" ry="0" fill="#E8722C"/><rect x="60" y="54" width="208" height="62" rx="31" ry="31" fill="#FFD23F"/><text x="164.0" y="98" font-family="Noto Sans CJK KR" font-weight="800" font-size="34" fill="#1A1A1A" text-anchor="middle">생활꿀팁</text><text x="60" y="168" font-family="Noto Sans CJK KR" font-weight="800" font-size="60" fill="#FFFFFF" text-anchor="start">제습기 전기요금 &amp; 절약법</text><rect x="60" y="250" width="960" height="120" rx="16" ry="16" fill="#FFFFFF" stroke="#E2D6CC" stroke-width="2"/><text x="100" y="326" font-family="Noto Sans CJK KR" font-weight="700" font-size="44" fill="#1A1A1A" text-anchor="start">제습기 소비전력</text><text x="1000" y="326" font-family="Noto Sans CJK KR" font-weight="800" font-size="44" fill="#E8722C" text-anchor="end">보통 200~400W</text><rect x="60" y="386" width="960" height="120" rx="16" ry="16" fill="#FFFFFF" stroke="#E2D6CC" stroke-width="2"/><text x="100" y="462" font-family="Noto Sans CJK KR" font-weight="700" font-size="44" fill="#1A1A1A" text-anchor="start">300W·하루 6시간</text><text x="1000" y="462" font-family="Noto Sans CJK KR" font-weight="800" font-size="44" fill="#E8722C" text-anchor="end">하루 약 1.8kWh</text><rect x="60" y="522" width="960" height="120" rx="16" ry="16" fill="#FFFFFF" stroke="#E2D6CC" stroke-width="2"/><text x="100" y="598" font-family="Noto Sans CJK KR" font-weight="700" font-size="44" fill="#1A1A1A" text-anchor="start">한 달 사용량</text><text x="1000" y="598" font-family="Noto Sans CJK KR" font-weight="800" font-size="44" fill="#E8722C" text-anchor="end">약 54kWh</text><rect x="60" y="666" width="960" height="188" rx="22" ry="22" fill="#FBE9DD"/><text x="540" y="734" font-family="Noto Sans CJK KR" font-weight="700" font-size="42" fill="#C75A18" text-anchor="middle">장마철 한 달 비용</text><text x="540" y="816" font-family="Noto Sans CJK KR" font-weight="900" font-size="56" fill="#E8722C" text-anchor="middle">수천 원 ~ 1만 원대 수준</text><text x="60" y="940" font-family="Noto Sans CJK KR" font-weight="800" font-size="44" fill="#1A1A1A" text-anchor="start">더 아끼는 법</text><circle cx="80" cy="1008" r="8" fill="#E8722C" opacity="1"/><text x="110" y="1020" font-family="Noto Sans CJK KR" font-weight="500" font-size="37" fill="#1A1A1A" text-anchor="start">습도 60% 초과 시 가동 → 50~55% 도달 시 정지</text><circle cx="80" cy="1078" r="8" fill="#E8722C" opacity="1"/><text x="110" y="1090" font-family="Noto Sans CJK KR" font-weight="500" font-size="37" fill="#1A1A1A" text-anchor="start">장마철 하루 4~8시간 / 비 안 오는 날 1~2시간</text><circle cx="80" cy="1148" r="8" fill="#E8722C" opacity="1"/><text x="110" y="1160" font-family="Noto Sans CJK KR" font-weight="500" font-size="37" fill="#1A1A1A" text-anchor="start">환기·숯·신문지로 가동 시간 자체 줄이기</text><rect x="0" y="1272" width="1080" height="78" rx="0" ry="0" fill="#F1E3D8"/><text x="60" y="1320" font-family="Noto Sans CJK KR" font-weight="500" font-size="30" fill="#6B5B4E" text-anchor="start">출처: 본문 계산 예시 기준</text></svg>