<svg xmlns="http://www.w3.org/2000/svg" width="1080" height="1350" viewBox="0 0 1080 1350">
<rect width="1080" height="1350" fill="#F4F7FB"/>
<rect width="1080" height="210" fill="#243B6B"/>
<rect x="0" y="210" width="1080" height="10" fill="#FFD23F"/>
<text x="60" y="135" font-family="Noto Sans CJK KR" font-weight="bold" font-size="66" fill="#ffffff">2026년 달라진 점</text>
<rect x="60" y="300" width="960" height="150" rx="18" fill="#ffffff" stroke="#D6E0EC" stroke-width="2"/>
<circle cx="120" cy="375" r="34" fill="#243B6B"/>
<text x="120" y="390" font-family="Noto Sans CJK KR" font-weight="bold" font-size="42" fill="#ffffff" text-anchor="middle">1</text>
<text x="185" y="391" font-family="Noto Sans CJK KR" font-weight="bold" font-size="44" fill="#1a1a1a">3년물 신규 도입(4월)</text>
<rect x="60" y="472" width="960" height="150" rx="18" fill="#ffffff" stroke="#D6E0EC" stroke-width="2"/>
<circle cx="120" cy="547" r="34" fill="#243B6B"/>
<text x="120" y="562" font-family="Noto Sans CJK KR" font-weight="bold" font-size="42" fill="#ffffff" text-anchor="middle">2</text>
<text x="185" y="563" font-family="Noto Sans CJK KR" font-weight="bold" font-size="44" fill="#1a1a1a">10·20년물 가산금리 확대</text>
<rect x="60" y="644" width="960" height="150" rx="18" fill="#ffffff" stroke="#D6E0EC" stroke-width="2"/>
<circle cx="120" cy="719" r="34" fill="#243B6B"/>
<text x="120" y="734" font-family="Noto Sans CJK KR" font-weight="bold" font-size="42" fill="#ffffff" text-anchor="middle">3</text>
<text x="185" y="735" font-family="Noto Sans CJK KR" font-weight="bold" font-size="44" fill="#1a1a1a">퇴직연금 IRP 편입(하반기)</text>
<rect x="60" y="816" width="960" height="150" rx="18" fill="#ffffff" stroke="#D6E0EC" stroke-width="2"/>
<circle cx="120" cy="891" r="34" fill="#243B6B"/>
<text x="120" y="906" font-family="Noto Sans CJK KR" font-weight="bold" font-size="42" fill="#ffffff" text-anchor="middle">4</text>
<text x="185" y="907" font-family="Noto Sans CJK KR" font-weight="bold" font-size="44" fill="#1a1a1a">이표채 전환(연 1회 이자)</text>
<rect x="60" y="988" width="960" height="150" rx="18" fill="#ffffff" stroke="#D6E0EC" stroke-width="2"/>
<circle cx="120" cy="1063" r="34" fill="#243B6B"/>
<text x="120" y="1078" font-family="Noto Sans CJK KR" font-weight="bold" font-size="42" fill="#ffffff" text-anchor="middle">5</text>
<text x="185" y="1079" font-family="Noto Sans CJK KR" font-weight="bold" font-size="44" fill="#1a1a1a">청약 계좌 변경</text>
<rect x="0" y="1270" width="1080" height="80" fill="#E8EEF5"/>
<text x="60" y="1320" font-family="Noto Sans CJK KR" font-size="34" fill="#5B6B7C">출처: 기획재정부(2025-12 발표)</text>
</svg>