<svg xmlns="http://www.w3.org/2000/svg" width="1080" height="1350" viewBox="0 0 1080 1350">
  <rect width="1080" height="1350" fill="#FFF5F7"/>
  <rect width="1080" height="210" fill="#E0556E"/>
  <text x="60" y="100" font-family="Malgun Gothic" font-weight="bold" font-size="60" fill="#ffffff">🍉 7월 제철 과일 6</text>
  <text x="60" y="165" font-family="Malgun Gothic" font-size="40" fill="#FFE2E8">지금이 가장 맛있고 저렴한 타이밍</text>
  <rect x="60" y="300" width="960" height="145" rx="22" fill="#ffffff" stroke="#F2C9D2"/><g transform="translate(155,372)">
      <path d="M0,0 L95,-4.75 A95 95 0 0 0 -95,-4.75 Z" fill="#E63946"/>
      <path d="M0,0 L102.60000000000001,-4.75 A102.60000000000001 102.60000000000001 0 0 0 -102.60000000000001,-4.75 Z" fill="none"/>
      <path d="M0,0 L95,-4.75 A95 95 0 0 0 -95,-4.75 Z" fill="#E63946"/>
      <path d="M-95,-4.75 A95 95 0 0 1 95,-4.75" fill="none" stroke="#2E7D32" stroke-width="15.200000000000001"/>
      <path d="M-95,-4.75 A95 95 0 0 1 95,-4.75" fill="none" stroke="#A5D66A" stroke-width="5.7"/>
      <circle cx="-33.25" cy="-42.75" r="4.75" fill="#222"/>
      <circle cx="9.5" cy="-57.0" r="4.75" fill="#222"/>
      <circle cx="42.75" cy="-38.0" r="4.75" fill="#222"/>
      <circle cx="-4.75" cy="-28.5" r="4.75" fill="#222"/>
    </g><text x="270" y="362" font-family="Malgun Gothic" font-weight="bold" font-size="52" fill="#1a1a1a">수박</text><text x="270" y="412" font-family="Malgun Gothic" font-size="36" fill="#7a6b70">6~8월 절정 · 줄무늬·배꼽으로</text><rect x="60" y="465" width="960" height="145" rx="22" fill="#ffffff" stroke="#F2C9D2"/><g><circle cx="155" cy="537" r="78" fill="#FF8FA3"/>
      <path d="M155,459 Q135.5,537 155,615" stroke="#E05673" stroke-width="7.800000000000001" fill="none"/>
      <ellipse cx="131.6" cy="509.7" rx="19.5" ry="10.920000000000002" fill="#FFC2CE" opacity="0.8"/>
      <path d="M162.8,459 q23.4,-19.5 39.0,-3.9000000000000004" stroke="#4CAF50" stroke-width="9.36" fill="none"/></g><text x="270" y="527" font-family="Malgun Gothic" font-weight="bold" font-size="52" fill="#1a1a1a">복숭아</text><text x="270" y="577" font-family="Malgun Gothic" font-size="36" fill="#7a6b70">6월 말~8월 · 실온 후숙</text><rect x="60" y="630" width="960" height="145" rx="22" fill="#ffffff" stroke="#F2C9D2"/><g><circle cx="155" cy="702" r="70" fill="#7B2D8E"/>
      <path d="M155,632 Q141.0,702 155,772" stroke="#4A1657" stroke-width="8.4" fill="none"/>
      <ellipse cx="130.5" cy="674.0" rx="15.4" ry="8.4" fill="#C77DD6" opacity="0.7"/></g><text x="270" y="692" font-family="Malgun Gothic" font-weight="bold" font-size="52" fill="#1a1a1a">자두</text><text x="270" y="742" font-family="Malgun Gothic" font-size="36" fill="#7a6b70">7~8월 · 껍질째 OK</text><rect x="60" y="795" width="960" height="145" rx="22" fill="#ffffff" stroke="#F2C9D2"/><g><ellipse cx="155" cy="867" rx="80" ry="62.400000000000006" fill="#F2C200"/><line x1="75.0" y1="804.6" x2="75.0" y2="929.4" stroke="#FFFFFF" stroke-width="7.199999999999999"/><line x1="115.0" y1="804.6" x2="115.0" y2="929.4" stroke="#FFFFFF" stroke-width="7.199999999999999"/><line x1="155.0" y1="804.6" x2="155.0" y2="929.4" stroke="#FFFFFF" stroke-width="7.199999999999999"/><line x1="195.0" y1="804.6" x2="195.0" y2="929.4" stroke="#FFFFFF" stroke-width="7.199999999999999"/><line x1="235.0" y1="804.6" x2="235.0" y2="929.4" stroke="#FFFFFF" stroke-width="7.199999999999999"/></g><text x="270" y="857" font-family="Malgun Gothic" font-weight="bold" font-size="52" fill="#1a1a1a">참외</text><text x="270" y="907" font-family="Malgun Gothic" font-size="36" fill="#7a6b70">5월 말~8월 · 한국 여름 대표</text><rect x="60" y="960" width="960" height="145" rx="22" fill="#ffffff" stroke="#F2C9D2"/><g><circle cx="155.0" cy="1032.0" r="33.0" fill="#6A4C93"/><circle cx="104.0" cy="1047.3" r="33.0" fill="#6A4C93"/><circle cx="206.0" cy="1047.3" r="33.0" fill="#6A4C93"/><circle cx="129.5" cy="1088.1" r="33.0" fill="#6A4C93"/><circle cx="180.5" cy="1088.1" r="33.0" fill="#6A4C93"/><circle cx="155.0" cy="1134.0" r="33.0" fill="#6A4C93"/><circle cx="78.5" cy="1083.0" r="33.0" fill="#6A4C93"/><circle cx="231.5" cy="1083.0" r="33.0" fill="#6A4C93"/><rect x="150.2" y="960.0" width="9.6" height="36.0" fill="#5D4037"/></g><text x="270" y="1022" font-family="Malgun Gothic" font-weight="bold" font-size="52" fill="#1a1a1a">포도</text><text x="270" y="1072" font-family="Malgun Gothic" font-size="36" fill="#7a6b70">델라웨어 7월부터</text><rect x="60" y="1125" width="960" height="145" rx="22" fill="#ffffff" stroke="#F2C9D2"/><g><circle cx="114.4" cy="1197.0" r="31.900000000000002" fill="#3F51B5"/><circle cx="114.4" cy="1197.0" r="10.44" fill="#283593"/><circle cx="195.6" cy="1197.0" r="31.900000000000002" fill="#3F51B5"/><circle cx="195.6" cy="1197.0" r="10.44" fill="#283593"/><circle cx="155.0" cy="1164.52" r="31.900000000000002" fill="#3F51B5"/><circle cx="155.0" cy="1164.52" r="10.44" fill="#283593"/><circle cx="134.7" cy="1233.54" r="31.900000000000002" fill="#3F51B5"/><circle cx="134.7" cy="1233.54" r="10.44" fill="#283593"/><circle cx="179.35999999999999" cy="1233.54" r="31.900000000000002" fill="#3F51B5"/><circle cx="179.35999999999999" cy="1233.54" r="10.44" fill="#283593"/></g><text x="270" y="1187" font-family="Malgun Gothic" font-weight="bold" font-size="52" fill="#1a1a1a">블루베리</text><text x="270" y="1237" font-family="Malgun Gothic" font-size="36" fill="#7a6b70">7월 가장 달고 신선</text>
  <rect x="0" y="1290" width="1080" height="60" fill="#F6DDE3"/>
  <text x="60" y="1330" font-family="Malgun Gothic" font-size="32" fill="#A05060">blog.naver.com/trip_chocho</text>
</svg>