<svg xmlns="http://www.w3.org/2000/svg" width="1080" height="720" viewBox="0 0 1080 720">
  <rect width="1080" height="720" fill="#F3F9EE"/>
  <rect width="1080" height="150" fill="#558B2F"/>
  <text x="60" y="95" font-family="Malgun Gothic" font-weight="bold" font-size="56" fill="#ffffff">🥬 7월 제철 채소 5</text>
  <g>
      <path d="M162.675,246.25 Q151.65,280 167.4,313.75" fill="#7CB342"/>
      <path d="M197.325,246.25 Q208.35,280 192.6,313.75" fill="#8BC34A"/>
      <rect x="164.25" y="242.5" width="31.5" height="75.0" rx="15.75" fill="#F9D648"/>
      <circle cx="169.92" cy="251.5" r="2.6775" fill="#F4C430"/><circle cx="176.85" cy="251.5" r="2.6775" fill="#F4C430"/><circle cx="183.77999999999997" cy="251.5" r="2.6775" fill="#F4C430"/><circle cx="190.70999999999998" cy="251.5" r="2.6775" fill="#F4C430"/><circle cx="169.92" cy="261.25" r="2.6775" fill="#F4C430"/><circle cx="176.85" cy="261.25" r="2.6775" fill="#F4C430"/><circle cx="183.77999999999997" cy="261.25" r="2.6775" fill="#F4C430"/><circle cx="190.70999999999998" cy="261.25" r="2.6775" fill="#F4C430"/><circle cx="169.92" cy="271.0" r="2.6775" fill="#F4C430"/><circle cx="176.85" cy="271.0" r="2.6775" fill="#F4C430"/><circle cx="183.77999999999997" cy="271.0" r="2.6775" fill="#F4C430"/><circle cx="190.70999999999998" cy="271.0" r="2.6775" fill="#F4C430"/><circle cx="169.92" cy="280.75" r="2.6775" fill="#F4C430"/><circle cx="176.85" cy="280.75" r="2.6775" fill="#F4C430"/><circle cx="183.77999999999997" cy="280.75" r="2.6775" fill="#F4C430"/><circle cx="190.70999999999998" cy="280.75" r="2.6775" fill="#F4C430"/><circle cx="169.92" cy="290.5" r="2.6775" fill="#F4C430"/><circle cx="176.85" cy="290.5" r="2.6775" fill="#F4C430"/><circle cx="183.77999999999997" cy="290.5" r="2.6775" fill="#F4C430"/><circle cx="190.70999999999998" cy="290.5" r="2.6775" fill="#F4C430"/><circle cx="169.92" cy="300.25" r="2.6775" fill="#F4C430"/><circle cx="176.85" cy="300.25" r="2.6775" fill="#F4C430"/><circle cx="183.77999999999997" cy="300.25" r="2.6775" fill="#F4C430"/><circle cx="190.70999999999998" cy="300.25" r="2.6775" fill="#F4C430"/>
    </g><text x="180.0" y="395" font-family="Malgun Gothic" font-weight="bold" font-size="42" fill="#2e5a1e" text-anchor="middle">초당옥수수</text><g><ellipse cx="540.0" cy="280" rx="21.000000000000004" ry="37.5" fill="#6A1B9A"/>
      <path d="M531.0,246.25 l18.0,0 l0,-9.0 l-9.0,-6.0 l-9.0,6.0 Z" fill="#4CAF50"/></g><text x="540.0" y="395" font-family="Malgun Gothic" font-weight="bold" font-size="42" fill="#2e5a1e" text-anchor="middle">가지</text><g><rect x="825.0" y="253.0" width="150" height="54.0" rx="27.0" fill="#6FBF44"/>
      <rect x="963.0" y="271.0" width="21.000000000000004" height="18.0" fill="#4E8B2A"/></g><text x="900.0" y="395" font-family="Malgun Gothic" font-weight="bold" font-size="42" fill="#2e5a1e" text-anchor="middle">애호박</text><g><rect x="100.0" y="489.2" width="160" height="41.6" rx="20.8" fill="#4CAF50"/><circle cx="116.0" cy="494.0" r="4.0" fill="#2E7D32"/><circle cx="144.8" cy="494.0" r="4.0" fill="#2E7D32"/><circle cx="173.6" cy="494.0" r="4.0" fill="#2E7D32"/><circle cx="202.39999999999998" cy="494.0" r="4.0" fill="#2E7D32"/><circle cx="231.2" cy="494.0" r="4.0" fill="#2E7D32"/></g><text x="180.0" y="625" font-family="Malgun Gothic" font-weight="bold" font-size="42" fill="#2e5a1e" text-anchor="middle">오이</text><g><path d="M540.0,478.0 q14.399999999999999,16.0 4.0,56.0 q-10.4,12.0 -17.6,0 q-8.0,-32.0 9.6,-56.0 Z" fill="#558B2F"/>
      <path d="M540.0,478.0 l0,-9.6" stroke="#33691E" stroke-width="4.8"/></g><text x="540.0" y="625" font-family="Malgun Gothic" font-weight="bold" font-size="42" fill="#2e5a1e" text-anchor="middle">풋고추</text>
  <text x="60" y="690" font-family="Malgun Gothic" font-size="30" fill="#6a8a4e">보관법이 맛의 절반 · blog.naver.com/trip_chocho</text>
</svg>