<svg xmlns="http://www.w3.org/2000/svg" width="1080" height="1350" viewBox="0 0 1080 1350" font-family="Malgun Gothic">
<rect width="1080" height="1350" fill="#F2F8FC"/>
<rect width="1080" height="200" fill="#1B7BB5"/>
<text x="60" y="128" font-weight="bold" font-size="62" fill="#FFFFFF">제습기 고르는 5대 기준</text>
<rect x="60" y="270" rx="20" width="960" height="180" fill="#FFFFFF" stroke="#D3E4F0"/>
<circle cx="160" cy="360" r="58" fill="#1B7BB5"/>
<text x="160" y="378" font-weight="bold" font-size="50" fill="#FFFFFF" text-anchor="middle">01</text>
<text x="260" y="348" font-weight="bold" font-size="50" fill="#1A2A35">제습량(L/일)</text>
<text x="260" y="405" font-size="36" fill="#5B6B7C">표기는 30℃·80% 최대 이론치</text>
<rect x="60" y="470" rx="20" width="960" height="180" fill="#FFFFFF" stroke="#D3E4F0"/>
<circle cx="160" cy="560" r="58" fill="#1B7BB5"/>
<text x="160" y="578" font-weight="bold" font-size="50" fill="#FFFFFF" text-anchor="middle">02</text>
<text x="260" y="548" font-weight="bold" font-size="50" fill="#1A2A35">적정 평수 매칭</text>
<text x="260" y="605" font-size="36" fill="#5B6B7C">빨래·습한 환경이면 한 단계 위</text>
<rect x="60" y="670" rx="20" width="960" height="180" fill="#FFFFFF" stroke="#D3E4F0"/>
<circle cx="160" cy="760" r="58" fill="#1B7BB5"/>
<text x="160" y="778" font-weight="bold" font-size="50" fill="#FFFFFF" text-anchor="middle">03</text>
<text x="260" y="748" font-weight="bold" font-size="50" fill="#1A2A35">물통 용량 & 연속배수</text>
<text x="260" y="805" font-size="36" fill="#5B6B7C">호스 규격 보통 10~12mm</text>
<rect x="60" y="870" rx="20" width="960" height="180" fill="#FFFFFF" stroke="#D3E4F0"/>
<circle cx="160" cy="960" r="58" fill="#1B7BB5"/>
<text x="160" y="978" font-weight="bold" font-size="50" fill="#FFFFFF" text-anchor="middle">04</text>
<text x="260" y="948" font-weight="bold" font-size="50" fill="#1A2A35">인버터 vs 정속형</text>
<text x="260" y="1005" font-size="36" fill="#5B6B7C">소음·장시간 사용엔 인버터</text>
<rect x="60" y="1070" rx="20" width="960" height="180" fill="#FFFFFF" stroke="#D3E4F0"/>
<circle cx="160" cy="1160" r="58" fill="#1B7BB5"/>
<text x="160" y="1178" font-weight="bold" font-size="50" fill="#FFFFFF" text-anchor="middle">05</text>
<text x="260" y="1148" font-weight="bold" font-size="50" fill="#1A2A35">소음(dB)</text>
<text x="260" y="1205" font-size="36" fill="#5B6B7C">침실용은 저소음·인버터</text>
<rect x="0" y="1270" width="1080" height="80" fill="#E3EEF6"/>
<text x="60" y="1322" font-size="34" fill="#5B6B7C">출처: 본문 정리 · blog.naver.com/trip_chocho</text>
</svg>
