<svg xmlns="http://www.w3.org/2000/svg" width="1080" height="1350" viewBox="0 0 1080 1350" font-family="Malgun Gothic">
<rect width="1080" height="1350" fill="#F2F8FC"/>
<rect width="1080" height="200" fill="#1B7BB5"/>
<text x="60" y="128" font-weight="bold" font-size="62" fill="#FFFFFF">인버터형 vs 정속형</text>
<rect x="60" y="260" width="960" height="100" rx="16" fill="#125A86"/>
<text x="200" y="322" font-weight="bold" font-size="44" fill="#FFFFFF" text-anchor="middle">항목</text>
<text x="615" y="322" font-weight="bold" font-size="44" fill="#FFD23F" text-anchor="middle">인버터형</text>
<text x="895" y="322" font-weight="bold" font-size="44" fill="#FFFFFF" text-anchor="middle">정속형</text>
<rect x="60" y="380" width="960" height="130" rx="14" fill="#FFFFFF" stroke="#D3E4F0"/>
<text x="200" y="462" font-weight="bold" font-size="42" fill="#1A2A35" text-anchor="middle">제습효율</text>
<text x="615" y="462" font-weight="bold" font-size="40" fill="#1B7BB5" text-anchor="middle">3L/kWh 이상</text>
<text x="895" y="462" font-size="40" fill="#1A2A35" text-anchor="middle">2L/kWh 초반</text>
<rect x="60" y="525" width="960" height="130" rx="14" fill="#FFFFFF" stroke="#D3E4F0"/>
<text x="200" y="607" font-weight="bold" font-size="42" fill="#1A2A35" text-anchor="middle">소음</text>
<text x="615" y="607" font-weight="bold" font-size="40" fill="#1B7BB5" text-anchor="middle">조용함</text>
<text x="895" y="607" font-size="40" fill="#1A2A35" text-anchor="middle">강풍 약 50dB</text>
<rect x="60" y="670" width="960" height="130" rx="14" fill="#FFFFFF" stroke="#D3E4F0"/>
<text x="615" y="752" font-weight="bold" font-size="40" fill="#1B7BB5" text-anchor="middle"></text>
<text x="895" y="752" font-size="40" fill="#1A2A35" text-anchor="middle">약풍 약 40dB</text>
<rect x="60" y="815" width="960" height="130" rx="14" fill="#FFFFFF" stroke="#D3E4F0"/>
<text x="200" y="897" font-weight="bold" font-size="42" fill="#1A2A35" text-anchor="middle">가격</text>
<text x="615" y="897" font-weight="bold" font-size="40" fill="#1B7BB5" text-anchor="middle">10~20만원↑ 비쌈</text>
<text x="895" y="897" font-size="40" fill="#1A2A35" text-anchor="middle">저렴</text>
<rect x="60" y="970" width="960" height="240" rx="20" fill="#FFF4E0" stroke="#F2D58A"/>
<text x="100" y="1045" font-weight="bold" font-size="42" fill="#9A6A00">1등급+인버터, 月 약 4~5천원</text>
<text x="100" y="1110" font-size="38" fill="#1A2A35">(매일 5시간 · 한 달 기준)</text>
<text x="100" y="1165" font-size="38" fill="#1A2A35">소음·장시간 사용 측면의 이점</text>
<rect x="0" y="1270" width="1080" height="80" fill="#E3EEF6"/>
<text x="60" y="1322" font-size="34" fill="#5B6B7C">출처: 본문 정리 · blog.naver.com/trip_chocho</text>
</svg>
