<svg xmlns="http://www.w3.org/2000/svg" width="1080" height="720" viewBox="0 0 1080 720" font-family="Malgun Gothic">
<rect width="1080" height="720" fill="#F2F8FC"/>
<rect width="1080" height="720" fill="url(#rg)"/>
<defs><linearGradient id="rg" x1="0" y1="0" x2="0" y2="1"><stop offset="0" stop-color="#21A7B5" stop-opacity="0.10"/><stop offset="1" stop-color="#1B7BB5" stop-opacity="0.20"/></linearGradient></defs>
<rect x="0" y="600" width="1080" height="120" fill="#E3D7C4"/>
<rect x="180" y="180" width="360" height="20" rx="6" fill="#9AA7B0"/>
<line x1="220" y1="200" x2="220" y2="600" stroke="#9AA7B0" stroke-width="14"/>
<line x1="500" y1="200" x2="500" y2="600" stroke="#9AA7B0" stroke-width="14"/>
<rect x="234" y="205" width="52" height="170" rx="10" fill="#7FB3D5" stroke="#C9D2D9"/>
<rect x="304" y="205" width="52" height="170" rx="10" fill="#F5F5F5" stroke="#C9D2D9"/>
<rect x="374" y="205" width="52" height="170" rx="10" fill="#88C9A1" stroke="#C9D2D9"/>
<rect x="444" y="205" width="52" height="170" rx="10" fill="#F5F5F5" stroke="#C9D2D9"/>
<rect x="640" y="320" width="220" height="290" rx="28" fill="#FFFFFF" stroke="#1B7BB5" stroke-width="6"/>
<rect x="672" y="360" width="156" height="120" rx="12" fill="#1B7BB5" opacity="0.18"/>
<rect x="672" y="500" width="156" height="80" rx="10" fill="#CFE7F5" stroke="#1B7BB5"/>
<rect x="672" y="540" width="156" height="40" rx="0" fill="#1B7BB5" opacity="0.55"/>
<circle cx="750" cy="345" r="14" fill="#21A7B5"/>
<path d="M 640 400 Q 580 400 560 360" fill="none" stroke="#21A7B5" stroke-width="8" stroke-dasharray="14 10"/>
<rect x="0" y="620" width="1080" height="100" fill="#125A86"/>
<text x="60" y="685" font-weight="bold" font-size="52" fill="#FFFFFF">빨래 옆에서 의류건조, 건조 시간 절반 가까이 단축</text>
</svg>
