<svg xmlns="http://www.w3.org/2000/svg" width="1080" height="1350" viewBox="0 0 1080 1350">
<rect x="0" y="0" width="1080" height="1350" rx="0" fill="#F4F7FB"/>
<rect x="0" y="0" width="1080" height="200" rx="0" fill="#1B5FA6"/><rect x="60" y="58" width="84" height="84" rx="20" fill="#FFD23F"/><text x="102" y="120" font-family="Noto Sans CJK KR, Noto Sans KR, sans-serif" font-weight="bold" font-size="56" fill="#15497F" text-anchor="middle">3</text><text x="176" y="86" font-family="Noto Sans CJK KR, Noto Sans KR, sans-serif" font-weight="bold" font-size="32" fill="#BBD2EA" text-anchor="start">먼 바다로 빠르게 되돌아가는 좁은 해류</text><text x="176" y="150" font-family="Noto Sans CJK KR, Noto Sans KR, sans-serif" font-weight="bold" font-size="54" fill="#FFFFFF" text-anchor="start">이안류란?</text>
<rect x="0" y="230" width="1080" height="330" rx="0" fill="#2E86C1"/>
<rect x="0" y="560" width="1080" height="90" rx="0" fill="#EAD9A0"/>
<polygon points="470,560 510,250 570,250 610,560" fill="#15497F"/>
<line x1="540" y1="510" x2="540" y2="420" stroke="#FFD23F" stroke-width="10"/>
<polygon points="520,432 560,432 540,400" fill="#FFD23F"/>
<text x="540" y="290" font-family="Noto Sans CJK KR, Noto Sans KR, sans-serif" font-weight="bold" font-size="38" fill="#FFFFFF" text-anchor="middle">이안류</text>
<rect x="60" y="690" width="960" height="96" rx="18" fill="#FFFFFF" stroke="#D6E0EC" stroke-width="2"/>
<rect x="60" y="690" width="12" height="96" rx="0" fill="#E23B3B"/>
<text x="100" y="750" font-family="Noto Sans CJK KR, Noto Sans KR, sans-serif" font-weight="bold" font-size="40" fill="#1A2733" text-anchor="start">유속</text>
<text x="980" y="750" font-family="Noto Sans CJK KR, Noto Sans KR, sans-serif" font-weight="bold" font-size="46" fill="#E23B3B" text-anchor="end">초속 2m 이상</text>
<rect x="60" y="801" width="960" height="96" rx="18" fill="#FFFFFF" stroke="#D6E0EC" stroke-width="2"/>
<text x="100" y="861" font-family="Noto Sans CJK KR, Noto Sans KR, sans-serif" font-weight="bold" font-size="40" fill="#1A2733" text-anchor="start">폭</text>
<text x="980" y="861" font-family="Noto Sans CJK KR, Noto Sans KR, sans-serif" font-weight="bold" font-size="46" fill="#1B5FA6" text-anchor="end">10~30m</text>
<rect x="60" y="912" width="960" height="96" rx="18" fill="#FFFFFF" stroke="#D6E0EC" stroke-width="2"/>
<text x="100" y="972" font-family="Noto Sans CJK KR, Noto Sans KR, sans-serif" font-weight="bold" font-size="40" fill="#1A2733" text-anchor="start">길이</text>
<text x="980" y="972" font-family="Noto Sans CJK KR, Noto Sans KR, sans-serif" font-weight="bold" font-size="46" fill="#1B5FA6" text-anchor="end">약 200m</text>
<rect x="60" y="1023" width="960" height="96" rx="18" fill="#FFFFFF" stroke="#D6E0EC" stroke-width="2"/>
<rect x="60" y="1023" width="12" height="96" rx="0" fill="#E23B3B"/>
<text x="100" y="1083" font-family="Noto Sans CJK KR, Noto Sans KR, sans-serif" font-weight="bold" font-size="40" fill="#1A2733" text-anchor="start">위험성</text>
<text x="980" y="1083" font-family="Noto Sans CJK KR, Noto Sans KR, sans-serif" font-weight="bold" font-size="46" fill="#E23B3B" text-anchor="end">능숙자도 거슬러 탈출 어려움</text>
<rect x="60" y="1138" width="960" height="120" rx="18" fill="#FFF3D6"/>
<text x="540.0" y="1206" font-family="Noto Sans CJK KR, Noto Sans KR, sans-serif" font-weight="bold" font-size="31" fill="#15497F" text-anchor="middle">징후: 물빛 짙은 곳·파도 끊겨 거품 이는 곳</text>
<rect x="0" y="1286" width="1080" height="64" rx="0" fill="#E8EEF5"/><text x="60" y="1326" font-family="Noto Sans CJK KR, Noto Sans KR, sans-serif" font-weight="normal" font-size="26" fill="#5B6B7C" text-anchor="start">출처: 기상청·국립해양조사원</text>
</svg>