<svg xmlns="http://www.w3.org/2000/svg" width="1080" height="1350" viewBox="0 0 1080 1350">
<rect x="0" y="0" width="1080" height="1350" rx="0" ry="0" fill="#F4F7FB"/>
<rect x="0" y="0" width="1080" height="230" rx="0" ry="0" fill="#243B6B"/>
<rect x="60" y="40" width="216" height="60" rx="28" ry="28" fill="#FFD23F"/>
<text x="168.0" y="82" font-family="Noto Sans CJK KR" font-weight="bold" font-size="28" fill="#1a1a1a" text-anchor="middle">금융/재테크</text>
<text x="60" y="165" font-family="Noto Sans CJK KR" font-weight="bold" font-size="50" fill="#ffffff" text-anchor="start">2026년 대출 규제 타임라인</text>
<text x="60" y="210" font-family="Noto Sans CJK KR" font-weight="500" font-size="30" fill="#E8EEF5" text-anchor="start">갈아타기 한도·DSR 재산정에 직결</text>
<line x1="150" y1="369.0" x2="150" y2="993.0" stroke="#3A5696" stroke-width="6" stroke-linecap="round"/>
<rect x="230" y="280" width="790" height="178" rx="20" ry="20" fill="#ffffff" stroke="#D6E0EC" stroke-width="2"/>
<text x="270" y="342" font-family="Noto Sans CJK KR" font-weight="900" font-size="36" fill="#243B6B" text-anchor="start">2025.01.13</text>
<text x="270" y="394" font-family="Noto Sans CJK KR" font-weight="bold" font-size="38" fill="#1a1a1a" text-anchor="start">중도상환수수료 개편</text>
<text x="270" y="442" font-family="Noto Sans CJK KR" font-weight="500" font-size="28" fill="#5B6B7C" text-anchor="start">고정 1.4%→0.65% / 변동 1.2%→0.65%</text>
<circle cx="150" cy="369.0" r="28" fill="#FFD23F" stroke="#243B6B" stroke-width="5"/>
<rect x="230" y="488" width="790" height="178" rx="20" ry="20" fill="#ffffff" stroke="#D6E0EC" stroke-width="2"/>
<text x="270" y="550" font-family="Noto Sans CJK KR" font-weight="900" font-size="36" fill="#243B6B" text-anchor="start">2025.07.01</text>
<text x="270" y="602" font-family="Noto Sans CJK KR" font-weight="bold" font-size="38" fill="#1a1a1a" text-anchor="start">스트레스 DSR 3단계</text>
<text x="270" y="650" font-family="Noto Sans CJK KR" font-weight="500" font-size="28" fill="#5B6B7C" text-anchor="start">적용비율 100% · 수도권 금리 1.5%</text>
<circle cx="150" cy="577.0" r="28" fill="#FFD23F" stroke="#243B6B" stroke-width="5"/>
<rect x="230" y="696" width="790" height="178" rx="20" ry="20" fill="#ffffff" stroke="#D6E0EC" stroke-width="2"/>
<text x="270" y="758" font-family="Noto Sans CJK KR" font-weight="900" font-size="36" fill="#243B6B" text-anchor="start">2025.10.20</text>
<text x="270" y="810" font-family="Noto Sans CJK KR" font-weight="bold" font-size="38" fill="#1a1a1a" text-anchor="start">10·15 부동산 대책</text>
<text x="270" y="858" font-family="Noto Sans CJK KR" font-weight="500" font-size="28" fill="#5B6B7C" text-anchor="start">수도권 스트레스 금리 1.5%→3%</text>
<circle cx="150" cy="785.0" r="28" fill="#FFD23F" stroke="#243B6B" stroke-width="5"/>
<rect x="230" y="904" width="790" height="178" rx="20" ry="20" fill="#ffffff" stroke="#D6E0EC" stroke-width="2"/>
<text x="270" y="966" font-family="Noto Sans CJK KR" font-weight="900" font-size="36" fill="#243B6B" text-anchor="start">~2026.12.31</text>
<text x="270" y="1018" font-family="Noto Sans CJK KR" font-weight="bold" font-size="38" fill="#1a1a1a" text-anchor="start">대책 적용 기간</text>
<text x="270" y="1066" font-family="Noto Sans CJK KR" font-weight="500" font-size="28" fill="#5B6B7C" text-anchor="start">주담대 한도 차등(6억/4억/2억)</text>
<circle cx="150" cy="993.0" r="28" fill="#FFD23F" stroke="#243B6B" stroke-width="5"/>
<rect x="60" y="1170" width="960" height="95" rx="18" ry="18" fill="#FFD23F"/>
<text x="540" y="1230" font-family="Noto Sans CJK KR" font-weight="bold" font-size="34" fill="#1a1a1a" text-anchor="middle">규제 강화로 금리는 낮아도 한도 부족 부결 주의</text>
<rect x="0" y="1270" width="1080" height="80" rx="0" ry="0" fill="#E8EEF5"/>
<text x="60" y="1320" font-family="Noto Sans CJK KR" font-weight="500" font-size="30" fill="#5B6B7C" text-anchor="start">출처: 금융위원회·정부 부동산 대책 발표자료</text>
</svg>
