<svg xmlns="http://www.w3.org/2000/svg" width="1080" height="1080" viewBox="0 0 1080 1080">
<rect x="0" y="0" width="1080" height="230" fill="#243B6B"/>
<rect x="60" y="36" width="168" height="60" rx="30" ry="30" fill="#FFD23F"/>
<text x="143.8" y="77.0" font-family="Noto Sans CJK KR" font-weight="800" font-size="30" fill="#1A1A1A" text-anchor="middle">금융/재테크</text>
<text x="60" y="168" font-family="Noto Sans CJK KR" font-weight="800" font-size="54" fill="#FFFFFF" text-anchor="start">청년미래적금 신청 일정</text>
<text x="60" y="209" font-family="Noto Sans CJK KR" font-weight="500" font-size="29" fill="#E8EEF5" text-anchor="start">2026년 6월 22일 출시 · 첫 모집</text>
<line x1="220" y1="430" x2="860" y2="430" stroke="#9FB2D0" stroke-width="6" stroke-linecap="round"/>
<circle cx="220" cy="430" r="70" fill="#243B6B"/>
<text x="220" y="452" font-family="Noto Sans CJK KR" font-weight="800" font-size="56" fill="#FFFFFF" text-anchor="middle">1</text>
<text x="220" y="292" font-family="Noto Sans CJK KR" font-weight="800" font-size="40" fill="#1A1A1A" text-anchor="middle">첫 신청</text>
<rect x="90" y="540" width="260" height="76" rx="18" ry="18" fill="#FFD23F"/>
<text x="220" y="592" font-family="Noto Sans CJK KR" font-weight="800" font-size="36" fill="#1A2C52" text-anchor="middle">6.22 ~ 7.3</text>
<text x="220" y="672" font-family="Noto Sans CJK KR" font-weight="600" font-size="28" fill="#5B6B7C" text-anchor="middle">출생연도 5부제</text>
<text x="220" y="714" font-family="Noto Sans CJK KR" font-weight="600" font-size="28" fill="#5B6B7C" text-anchor="middle">→ 6.29~7.3 전체</text>
<circle cx="540" cy="430" r="70" fill="#243B6B"/>
<text x="540" y="452" font-family="Noto Sans CJK KR" font-weight="800" font-size="56" fill="#FFFFFF" text-anchor="middle">2</text>
<text x="540" y="292" font-family="Noto Sans CJK KR" font-weight="800" font-size="40" fill="#1A1A1A" text-anchor="middle">심사</text>
<rect x="410" y="540" width="260" height="76" rx="18" ry="18" fill="#FFD23F"/>
<text x="540" y="592" font-family="Noto Sans CJK KR" font-weight="800" font-size="36" fill="#1A2C52" text-anchor="middle">7.6 ~ 7.24</text>
<circle cx="860" cy="430" r="70" fill="#243B6B"/>
<text x="860" y="452" font-family="Noto Sans CJK KR" font-weight="800" font-size="56" fill="#FFFFFF" text-anchor="middle">3</text>
<text x="860" y="292" font-family="Noto Sans CJK KR" font-weight="800" font-size="40" fill="#1A1A1A" text-anchor="middle">계좌개설</text>
<rect x="730" y="540" width="260" height="76" rx="18" ry="18" fill="#FFD23F"/>
<text x="860" y="592" font-family="Noto Sans CJK KR" font-weight="800" font-size="36" fill="#1A2C52" text-anchor="middle">7.27 ~ 8.7</text>
<rect x="60" y="800" width="220" height="130" rx="18" ry="18" fill="#FFFFFF" stroke="#D6E0EC" stroke-width="2"/>
<text x="170.0" y="858" font-family="Noto Sans CJK KR" font-weight="600" font-size="30" fill="#5B6B7C" text-anchor="middle">모집 주기</text>
<text x="170.0" y="906" font-family="Noto Sans CJK KR" font-weight="800" font-size="32" fill="#243B6B" text-anchor="middle">연 2회 (6·12월)</text>
<rect x="300" y="800" width="220" height="130" rx="18" ry="18" fill="#FFFFFF" stroke="#D6E0EC" stroke-width="2"/>
<text x="410.0" y="858" font-family="Noto Sans CJK KR" font-weight="600" font-size="30" fill="#5B6B7C" text-anchor="middle">월 납입한도</text>
<text x="410.0" y="906" font-family="Noto Sans CJK KR" font-weight="800" font-size="32" fill="#243B6B" text-anchor="middle">50만원</text>
<rect x="540" y="800" width="220" height="130" rx="18" ry="18" fill="#FFFFFF" stroke="#D6E0EC" stroke-width="2"/>
<text x="650.0" y="858" font-family="Noto Sans CJK KR" font-weight="600" font-size="30" fill="#5B6B7C" text-anchor="middle">만기</text>
<text x="650.0" y="906" font-family="Noto Sans CJK KR" font-weight="800" font-size="32" fill="#243B6B" text-anchor="middle">3년</text>
<rect x="780" y="800" width="220" height="130" rx="18" ry="18" fill="#FFFFFF" stroke="#D6E0EC" stroke-width="2"/>
<text x="890.0" y="858" font-family="Noto Sans CJK KR" font-weight="600" font-size="30" fill="#5B6B7C" text-anchor="middle">정부지원</text>
<text x="890.0" y="906" font-family="Noto Sans CJK KR" font-weight="800" font-size="32" fill="#243B6B" text-anchor="middle">납입액 6%/우대 12%</text>
<rect x="0" y="1000" width="1080" height="80" fill="#E8EEF5"/>
<text x="60" y="1048" font-family="Noto Sans CJK KR" font-weight="500" font-size="28" fill="#5B6B7C" text-anchor="start">출처: 청년미래적금 공식 안내 (가구소득 요건 등 확인)</text>
</svg>
