<svg xmlns="http://www.w3.org/2000/svg" width="1080" height="1080" viewBox="0 0 1080 1080">
  <defs>
    <linearGradient id="bg" x1="0" y1="0" x2="1" y2="1">
      <stop offset="0" stop-color="#0E7C86"/><stop offset="1" stop-color="#0A5A62"/>
    </linearGradient>
  </defs>
  <rect width="1080" height="1080" fill="url(#bg)"/>
  <circle cx="930" cy="200" r="280" fill="#2BD4D9" opacity="0.12"/>
  <circle cx="120" cy="980" r="220" fill="#ffffff" opacity="0.05"/>
  <g opacity="0.28"><rect x="715" y="960" width="210" height="59" rx="25" fill="#ffffff"/><rect x="795" y="865" width="50" height="126" fill="#ffffff"/><circle cx="820" cy="760" r="210" fill="none" stroke="#ffffff" stroke-width="25.2"/><circle cx="820" cy="760" r="151" fill="none" stroke="#ffffff" stroke-width="10.5" opacity="0.7"/><circle cx="820" cy="760" r="92" fill="none" stroke="#ffffff" stroke-width="10.5" opacity="0.7"/><circle cx="820" cy="760" r="34" fill="#ffffff"/><line x1="820" y1="760" x2="1001" y2="760" stroke="#ffffff" stroke-width="6.3" opacity="0.55"/><line x1="820" y1="760" x2="948" y2="888" stroke="#ffffff" stroke-width="6.3" opacity="0.55"/><line x1="820" y1="760" x2="820" y2="941" stroke="#ffffff" stroke-width="6.3" opacity="0.55"/><line x1="820" y1="760" x2="692" y2="888" stroke="#ffffff" stroke-width="6.3" opacity="0.55"/><line x1="820" y1="760" x2="639" y2="760" stroke="#ffffff" stroke-width="6.3" opacity="0.55"/><line x1="820" y1="760" x2="692" y2="632" stroke="#ffffff" stroke-width="6.3" opacity="0.55"/><line x1="820" y1="760" x2="820" y2="579" stroke="#ffffff" stroke-width="6.3" opacity="0.55"/><line x1="820" y1="760" x2="948" y2="632" stroke="#ffffff" stroke-width="6.3" opacity="0.55"/></g>
  <!-- 뱃지 -->
  <rect x="80" y="92" rx="34" ry="34" width="250" height="68" fill="#FFD23F"/>
  <text x="205" y="138" font-family="Malgun Gothic" font-weight="bold" font-size="36" fill="#1a1a1a" text-anchor="middle">여름가전 추천</text>
  <!-- 서브 후크 -->
  <text x="80" y="300" font-family="Malgun Gothic" font-weight="bold" font-size="58" fill="#E8FBFC">에어컨 틀어도 안 시원하다면?</text>
  <!-- 메인 카피 -->
  <text x="80" y="470" font-family="Malgun Gothic" font-weight="bold" font-size="150" fill="#ffffff">서큘레이터</text>
  <text x="80" y="640" font-family="Malgun Gothic" font-weight="bold" font-size="170" fill="#FFD23F">BEST 5</text>
  <!-- 디테일 -->
  <rect x="80" y="730" rx="20" ry="20" width="780" height="110" fill="#ffffff" opacity="0.16"/>
  <text x="110" y="802" font-family="Malgun Gothic" font-weight="bold" font-size="46" fill="#ffffff">용도별 5유형 · 가격대까지 한눈에</text>
  <text x="80" y="1012" font-family="Malgun Gothic" font-size="34" fill="#CDEFF1" opacity="0.9">blog.naver.com/trip_chocho</text>
</svg>