<svg xmlns="http://www.w3.org/2000/svg" width="1080" height="1350" viewBox="0 0 1080 1350">
  <rect width="1080" height="1350" fill="#F2F8F9"/>
  <rect width="1080" height="210" fill="#0E7C86"/>
  <rect x="60" y="78" width="12" height="62" rx="6" fill="#FFD23F"/>
  <text x="92" y="128" font-family="Malgun Gothic" font-weight="bold" font-size="60" fill="#ffffff">선풍기 vs 서큘레이터</text>
  <text x="92" y="178" font-family="Malgun Gothic" font-size="34" fill="#CDEFF1">생긴 건 비슷해도 '목적'이 다릅니다</text>
  <!-- 선풍기 박스 -->
  <rect x="60" y="280" width="960" height="460" rx="22" fill="#ffffff" stroke="#D6E6E8"/>
  <rect x="60" y="280" width="280" height="460" rx="22" fill="#E8F4F5"/>
  <text x="200" y="380" font-family="Malgun Gothic" font-weight="bold" font-size="52" fill="#0A5A62" text-anchor="middle">선풍기</text>
  <g opacity="0.9"><rect x="152" y="650" width="95" height="27" rx="11" fill="#9CC6CA"/><rect x="189" y="608" width="23" height="57" fill="#9CC6CA"/><circle cx="200" cy="560" r="95" fill="none" stroke="#7FB3B8" stroke-width="11.4"/><circle cx="200" cy="560" r="68" fill="none" stroke="#7FB3B8" stroke-width="4.8" opacity="0.7"/><circle cx="200" cy="560" r="42" fill="none" stroke="#7FB3B8" stroke-width="4.8" opacity="0.7"/><circle cx="200" cy="560" r="15" fill="#7FB3B8"/><line x1="200" y1="560" x2="282" y2="560" stroke="#7FB3B8" stroke-width="2.9" opacity="0.55"/><line x1="200" y1="560" x2="258" y2="618" stroke="#7FB3B8" stroke-width="2.9" opacity="0.55"/><line x1="200" y1="560" x2="200" y2="642" stroke="#7FB3B8" stroke-width="2.9" opacity="0.55"/><line x1="200" y1="560" x2="142" y2="618" stroke="#7FB3B8" stroke-width="2.9" opacity="0.55"/><line x1="200" y1="560" x2="118" y2="560" stroke="#7FB3B8" stroke-width="2.9" opacity="0.55"/><line x1="200" y1="560" x2="142" y2="502" stroke="#7FB3B8" stroke-width="2.9" opacity="0.55"/><line x1="200" y1="560" x2="200" y2="478" stroke="#7FB3B8" stroke-width="2.9" opacity="0.55"/><line x1="200" y1="560" x2="258" y2="502" stroke="#7FB3B8" stroke-width="2.9" opacity="0.55"/></g>
  <path d="M330 440 q70 -18 150 -38" fill="none" stroke="#0E7C86" stroke-width="9" opacity="0.65" stroke-linecap="round"/><path d="M330 475 q70 -9 150 -19" fill="none" stroke="#0E7C86" stroke-width="9" opacity="0.65" stroke-linecap="round"/><path d="M330 510 q70 0 150 0" fill="none" stroke="#0E7C86" stroke-width="9" opacity="0.65" stroke-linecap="round"/><path d="M330 545 q70 9 150 19" fill="none" stroke="#0E7C86" stroke-width="9" opacity="0.65" stroke-linecap="round"/><path d="M330 580 q70 18 150 38" fill="none" stroke="#0E7C86" stroke-width="9" opacity="0.65" stroke-linecap="round"/>
  <text x="600" y="430" font-family="Malgun Gothic" font-weight="bold" font-size="44" fill="#1A2B2E">넓고 부드러운 바람</text>
  <text x="600" y="500" font-family="Malgun Gothic" font-size="40" fill="#4A6B6F">사람 피부에 직접</text>
  <text x="600" y="600" font-family="Malgun Gothic" font-size="38" fill="#4A6B6F">→ 직접 시원함이 목적</text>
  <!-- 서큘레이터 박스 -->
  <rect x="60" y="770" width="960" height="460" rx="22" fill="#ffffff" stroke="#D6E6E8"/>
  <rect x="60" y="770" width="280" height="460" rx="22" fill="#E8F4F5"/>
  <text x="200" y="858" font-family="Malgun Gothic" font-weight="bold" font-size="44" fill="#0A5A62" text-anchor="middle">서큘레이터</text>
  <g opacity="0.9"><rect x="152" y="1130" width="95" height="27" rx="11" fill="#9CC6CA"/><rect x="189" y="1088" width="23" height="57" fill="#9CC6CA"/><circle cx="200" cy="1040" r="95" fill="none" stroke="#7FB3B8" stroke-width="11.4"/><circle cx="200" cy="1040" r="68" fill="none" stroke="#7FB3B8" stroke-width="4.8" opacity="0.7"/><circle cx="200" cy="1040" r="42" fill="none" stroke="#7FB3B8" stroke-width="4.8" opacity="0.7"/><circle cx="200" cy="1040" r="15" fill="#7FB3B8"/><line x1="200" y1="1040" x2="282" y2="1040" stroke="#7FB3B8" stroke-width="2.9" opacity="0.55"/><line x1="200" y1="1040" x2="258" y2="1098" stroke="#7FB3B8" stroke-width="2.9" opacity="0.55"/><line x1="200" y1="1040" x2="200" y2="1122" stroke="#7FB3B8" stroke-width="2.9" opacity="0.55"/><line x1="200" y1="1040" x2="142" y2="1098" stroke="#7FB3B8" stroke-width="2.9" opacity="0.55"/><line x1="200" y1="1040" x2="118" y2="1040" stroke="#7FB3B8" stroke-width="2.9" opacity="0.55"/><line x1="200" y1="1040" x2="142" y2="982" stroke="#7FB3B8" stroke-width="2.9" opacity="0.55"/><line x1="200" y1="1040" x2="200" y2="958" stroke="#7FB3B8" stroke-width="2.9" opacity="0.55"/><line x1="200" y1="1040" x2="258" y2="982" stroke="#7FB3B8" stroke-width="2.9" opacity="0.55"/></g>
  <line x1="330" y1="988" x2="500" y2="988" stroke="#0A5A62" stroke-width="14" stroke-linecap="round"/><line x1="330" y1="1010" x2="500" y2="1010" stroke="#0A5A62" stroke-width="14" stroke-linecap="round"/><line x1="330" y1="1032" x2="500" y2="1032" stroke="#0A5A62" stroke-width="14" stroke-linecap="round"/><path d="M500 980 L555 1010 L500 1040 Z" fill="#0A5A62"/>
  <text x="600" y="920" font-family="Malgun Gothic" font-weight="bold" font-size="44" fill="#1A2B2E">좁고 강한 직진풍</text>
  <text x="600" y="990" font-family="Malgun Gothic" font-size="40" fill="#4A6B6F">실내 공기 전체 순환</text>
  <text x="600" y="1090" font-family="Malgun Gothic" font-size="34" fill="#4A6B6F">→ 도달 약 10~25m</text>
  <rect x="0" y="1270" width="1080" height="80" fill="#DCEBED"/>
  <text x="60" y="1322" font-family="Malgun Gothic" font-size="32" fill="#4A6B6F">출처: 전자신문 등 (research.md)</text>
</svg>