<svg xmlns="http://www.w3.org/2000/svg" width="1080" height="1350" viewBox="0 0 1080 1350">
  <rect width="1080" height="1350" fill="#F2F8F9"/>
  <rect width="1080" height="210" fill="#0E7C86"/>
  <rect x="60" y="78" width="12" height="62" rx="6" fill="#FFD23F"/>
  <text x="92" y="128" font-family="Malgun Gothic" font-weight="bold" font-size="60" fill="#ffffff">청소는 '날개 분해'가 핵심</text>
  <text x="92" y="178" font-family="Malgun Gothic" font-size="34" fill="#CDEFF1">먼지가 쌓이면 성능이 떨어집니다</text>
  <rect x="120" y="300" width="840" height="96" rx="16" fill="#ffffff" stroke="#D6E6E8"/><text x="540" y="360" font-family="Malgun Gothic" font-weight="bold" font-size="40" fill="#1A2B2E" text-anchor="middle">먼지가 쌓이면</text>
  <text x="540" y="430" font-family="Malgun Gothic" font-weight="bold" font-size="50" fill="#0E7C86" text-anchor="middle">▼</text>
  <rect x="120" y="460" width="840" height="96" rx="16" fill="#ffffff" stroke="#D6E6E8"/><text x="540" y="520" font-family="Malgun Gothic" font-weight="bold" font-size="40" fill="#1A2B2E" text-anchor="middle">발열 ↑</text>
  <text x="540" y="590" font-family="Malgun Gothic" font-weight="bold" font-size="50" fill="#0E7C86" text-anchor="middle">▼</text>
  <rect x="120" y="620" width="840" height="96" rx="16" fill="#ffffff" stroke="#D6E6E8"/><text x="540" y="680" font-family="Malgun Gothic" font-weight="bold" font-size="40" fill="#1A2B2E" text-anchor="middle">소음 ↑</text>
  <text x="540" y="750" font-family="Malgun Gothic" font-weight="bold" font-size="50" fill="#0E7C86" text-anchor="middle">▼</text>
  <rect x="120" y="780" width="840" height="96" rx="16" fill="#FFF2CC" stroke="#D6E6E8"/><text x="540" y="840" font-family="Malgun Gothic" font-weight="bold" font-size="40" fill="#8A6D00" text-anchor="middle">풍량 ↓</text>
  <!-- 핵심 강조 박스 -->
  <rect x="120" y="940" width="840" height="240" rx="22" fill="#0E7C86"/>
  <text x="540" y="1030" font-family="Malgun Gothic" font-weight="bold" font-size="46" fill="#FFD23F" text-anchor="middle">구매 전 체크!</text>
  <text x="540" y="1100" font-family="Malgun Gothic" font-weight="bold" font-size="42" fill="#ffffff" text-anchor="middle">커버 분리보다 '팬(날개) 분해'</text>
  <text x="540" y="1155" font-family="Malgun Gothic" font-size="38" fill="#CDEFF1" text-anchor="middle">분리 세척 가능 여부를 꼭 확인하세요</text>
  <rect x="0" y="1270" width="1080" height="80" fill="#DCEBED"/>
  <text x="60" y="1322" font-family="Malgun Gothic" font-size="32" fill="#4A6B6F">출처: research.md (서큘레이터 구매가이드)</text>
</svg>