<svg xmlns="http://www.w3.org/2000/svg" width="1080" height="1350" viewBox="0 0 1080 1350">
  <rect width="1080" height="1350" fill="#F2F8F9"/>
  <rect width="1080" height="210" fill="#0E7C86"/>
  <rect x="60" y="78" width="12" height="62" rx="6" fill="#FFD23F"/>
  <text x="92" y="128" font-family="Malgun Gothic" font-weight="bold" font-size="60" fill="#ffffff">1 가성비형</text>
  <g opacity="0.35"><rect x="895" y="172" width="70" height="20" rx="8" fill="#ffffff"/><rect x="922" y="140" width="17" height="42" fill="#ffffff"/><circle cx="930" cy="105" r="70" fill="none" stroke="#ffffff" stroke-width="8.4"/><circle cx="930" cy="105" r="50" fill="none" stroke="#ffffff" stroke-width="3.5" opacity="0.7"/><circle cx="930" cy="105" r="31" fill="none" stroke="#ffffff" stroke-width="3.5" opacity="0.7"/><circle cx="930" cy="105" r="11" fill="#ffffff"/><line x1="930" y1="105" x2="990" y2="105" stroke="#ffffff" stroke-width="2.1" opacity="0.55"/><line x1="930" y1="105" x2="973" y2="148" stroke="#ffffff" stroke-width="2.1" opacity="0.55"/><line x1="930" y1="105" x2="930" y2="165" stroke="#ffffff" stroke-width="2.1" opacity="0.55"/><line x1="930" y1="105" x2="887" y2="148" stroke="#ffffff" stroke-width="2.1" opacity="0.55"/><line x1="930" y1="105" x2="870" y2="105" stroke="#ffffff" stroke-width="2.1" opacity="0.55"/><line x1="930" y1="105" x2="887" y2="62" stroke="#ffffff" stroke-width="2.1" opacity="0.55"/><line x1="930" y1="105" x2="930" y2="45" stroke="#ffffff" stroke-width="2.1" opacity="0.55"/><line x1="930" y1="105" x2="973" y2="62" stroke="#ffffff" stroke-width="2.1" opacity="0.55"/></g>
  <rect x="60" y="360" width="960" height="120" rx="16" fill="#ffffff" stroke="#D6E6E8"/><text x="100" y="434" font-family="Malgun Gothic" font-weight="bold" font-size="44" fill="#4A6B6F">가격대</text><text x="980" y="434" font-family="Malgun Gothic" font-weight="bold" font-size="46" fill="#0A5A62" text-anchor="end">대략 3만 원대</text><rect x="60" y="500" width="960" height="120" rx="16" fill="#ffffff" stroke="#D6E6E8"/><text x="100" y="574" font-family="Malgun Gothic" font-weight="bold" font-size="44" fill="#4A6B6F">소비전력</text><text x="980" y="574" font-family="Malgun Gothic" font-weight="bold" font-size="46" fill="#0A5A62" text-anchor="end">약 45W (AC)</text><rect x="60" y="640" width="960" height="120" rx="16" fill="#ffffff" stroke="#D6E6E8"/><text x="100" y="714" font-family="Malgun Gothic" font-weight="bold" font-size="44" fill="#4A6B6F">기능</text><text x="980" y="714" font-family="Malgun Gothic" font-weight="bold" font-size="46" fill="#0A5A62" text-anchor="end">좌우회전·리모컨·타이머</text>
  <rect x="60" y="790" width="960" height="150" rx="20" fill="#E8F4F5"/>
  <text x="100" y="858" font-family="Malgun Gothic" font-weight="bold" font-size="40" fill="#0E7C86">이런 분께 추천</text>
  <text x="100" y="908" font-family="Malgun Gothic" font-size="40" fill="#1A2B2E">자취·원룸, 첫 서큘레이터 입문, 예산 우선</text>
  <rect x="0" y="1270" width="1080" height="80" fill="#DCEBED"/>
  <text x="60" y="1322" font-family="Malgun Gothic" font-size="32" fill="#4A6B6F">출처: research.md (용도별 추천 5유형)</text>
</svg>