<svg xmlns="http://www.w3.org/2000/svg" width="1080" height="1080" viewBox="0 0 1080 1080">
  <rect width="1080" height="1080" fill="#1F8A53"/>
  <circle cx="950" cy="180" r="260" fill="#ffffff" opacity="0.08"/>
  <circle cx="120" cy="980" r="200" fill="#ffffff" opacity="0.06"/>

  <!-- 카테고리 뱃지 -->
  <rect x="80" y="90" rx="34" ry="34" width="200" height="68" fill="#FFD23F"/>
  <text x="180" y="136" font-family="Noto Sans KR" font-weight="bold"
        font-size="36" fill="#1a1a1a" text-anchor="middle">세금·환급</text>

  <!-- 서브 카피 -->
  <text x="80" y="300" font-family="Noto Sans KR" font-weight="bold"
        font-size="58" fill="#E8EEF5">2026 종합소득세 환급금</text>

  <!-- 메인 카피 -->
  <text x="80" y="450" font-family="Noto Sans KR" font-weight="bold"
        font-size="100" fill="#ffffff">언제 들어오나?</text>
  <text x="80" y="600" font-family="Noto Sans KR" font-weight="bold"
        font-size="132" fill="#FFD23F">6월말~7월초</text>

  <!-- 디테일 박스 -->
  <rect x="80" y="690" rx="20" ry="20" width="920" height="130" fill="#ffffff" opacity="0.14"/>
  <text x="112" y="748" font-family="Noto Sans KR" font-weight="bold"
        font-size="46" fill="#ffffff">소득세 먼저, 지방소득세는 약 4주 뒤</text>
  <text x="112" y="800" font-family="Noto Sans KR" font-weight="normal"
        font-size="40" fill="#E8EEF5">조회 · 홈택스 / 손택스 / ARS 1544-9944</text>

  <!-- 조회 채널 알약 -->
  <rect x="80" y="860" rx="26" ry="26" width="270" height="76" fill="#ffffff"/>
  <text x="215" y="912" font-family="Noto Sans KR" font-weight="bold"
        font-size="40" fill="#1F8A53" text-anchor="middle">홈택스 PC</text>
  <rect x="370" y="860" rx="26" ry="26" width="270" height="76" fill="#ffffff"/>
  <text x="505" y="912" font-family="Noto Sans KR" font-weight="bold"
        font-size="40" fill="#1F8A53" text-anchor="middle">손택스 앱</text>
  <rect x="660" y="860" rx="26" ry="26" width="340" height="76" fill="#ffffff"/>
  <text x="830" y="912" font-family="Noto Sans KR" font-weight="bold"
        font-size="40" fill="#1F8A53" text-anchor="middle">ARS 전화조회</text>

  <text x="80" y="1010" font-family="Noto Sans KR" font-weight="normal"
        font-size="34" fill="#E8EEF5" opacity="0.9">blog.naver.com/trip_chocho</text>
</svg>
