<svg xmlns="http://www.w3.org/2000/svg" width="1080" height="1350" viewBox="0 0 1080 1350">
  <rect width="1080" height="1350" fill="#F4F9F6"/>
  <rect width="1080" height="170" fill="#1F8A53"/>
  <rect x="60" y="64" width="10" height="46" rx="5" fill="#FFD23F"/>
  <text x="92" y="118" font-family="Malgun Gothic" font-weight="bold" font-size="58" fill="#ffffff">놓치기 쉬운 환급 대상 공제</text>
  <text x="60" y="240" font-family="Malgun Gothic" font-size="34" fill="#5B6B62">연말정산 · 종합소득세 때 빠뜨린 공제를 소급</text>
  <rect x="60" y="280" width="960" height="150" rx="20" fill="#ffffff" stroke="#CFE3D7" stroke-width="3"/>
  <circle cx="140" cy="355" r="46" fill="#E8F3EC"/>
  <rect x="132" y="329.0" width="16" height="52" rx="4" fill="#1F8A53"/>
  <rect x="114" y="347.0" width="52" height="16" rx="4" fill="#1F8A53"/>
  <text x="220" y="349" font-family="Malgun Gothic" font-weight="bold" font-size="42" fill="#176B40">의료비 세액공제</text>
  <text x="220" y="401" font-family="Malgun Gothic" font-size="30" fill="#5B6B62">간소화 누락 병원비 · 비급여 · 한방치료비</text>
  <rect x="60" y="450" width="960" height="150" rx="20" fill="#ffffff" stroke="#CFE3D7" stroke-width="3"/>
  <circle cx="140" cy="525" r="46" fill="#E8F3EC"/>
  <rect x="116" y="501.0" width="48" height="48" rx="6" fill="#1F8A53"/>
  <rect x="136" y="501.0" width="8" height="48" fill="#ffffff"/>
  <text x="220" y="519" font-family="Malgun Gothic" font-weight="bold" font-size="42" fill="#176B40">교육비 세액공제</text>
  <text x="220" y="571" font-family="Malgun Gothic" font-size="30" fill="#5B6B62">학원비 · 등록금 · 어학원비 등</text>
  <rect x="60" y="620" width="960" height="150" rx="20" fill="#ffffff" stroke="#CFE3D7" stroke-width="3"/>
  <circle cx="140" cy="695" r="46" fill="#E8F3EC"/>
  <polygon points="140,669.0 112,693.0 168,693.0" fill="#1F8A53"/>
  <rect x="120" y="693.0" width="40" height="28" fill="#1F8A53"/>
  <text x="220" y="689" font-family="Malgun Gothic" font-weight="bold" font-size="42" fill="#176B40">월세액 세액공제</text>
  <text x="220" y="741" font-family="Malgun Gothic" font-size="30" fill="#5B6B62">퇴사 등으로 못 낸 월세 납입내역</text>
  <rect x="60" y="790" width="960" height="150" rx="20" fill="#ffffff" stroke="#CFE3D7" stroke-width="3"/>
  <circle cx="140" cy="865" r="46" fill="#E8F3EC"/>
  <path d="M 140 887.0 C 100 853.0, 124 831.0, 140 853.0 C 156 831.0, 180 853.0, 140 887.0 Z" fill="#1F8A53"/>
  <text x="220" y="859" font-family="Malgun Gothic" font-weight="bold" font-size="42" fill="#176B40">기부금 세액공제</text>
  <text x="220" y="911" font-family="Malgun Gothic" font-size="30" fill="#5B6B62">누락한 종교 · 사회복지단체 기부분</text>
  <rect x="60" y="960" width="960" height="150" rx="20" fill="#ffffff" stroke="#CFE3D7" stroke-width="3"/>
  <circle cx="140" cy="1035" r="46" fill="#E8F3EC"/>
  <circle cx="128" cy="1025.0" r="12" fill="#1F8A53"/>
  <circle cx="152" cy="1025.0" r="12" fill="#1F8A53"/>
  <rect x="114" y="1039.0" width="28" height="20" rx="10" fill="#1F8A53"/>
  <rect x="138" y="1039.0" width="28" height="20" rx="10" fill="#1F8A53"/>
  <text x="220" y="1029" font-family="Malgun Gothic" font-weight="bold" font-size="42" fill="#176B40">부양가족 인적공제</text>
  <text x="220" y="1081" font-family="Malgun Gothic" font-size="30" fill="#5B6B62">부양가족과 그 가족 의료비 등</text>
  <rect x="60" y="1130" width="960" height="150" rx="20" fill="#ffffff" stroke="#CFE3D7" stroke-width="3"/>
  <circle cx="140" cy="1205" r="46" fill="#E8F3EC"/>
  <circle cx="140" cy="1205.0" r="24" fill="#1F8A53"/>
  <text x="140" y="1216.0" font-family="Malgun Gothic" font-weight="bold" font-size="30" fill="#ffffff" text-anchor="middle">₩</text>
  <text x="220" y="1199" font-family="Malgun Gothic" font-weight="bold" font-size="42" fill="#176B40">연금계좌 세액공제</text>
  <text x="220" y="1251" font-family="Malgun Gothic" font-size="30" fill="#5B6B62">연금저축 · 퇴직연금(IRP) 납입액</text>

  <rect x="0" y="1280" width="1080" height="70" fill="#E8F3EC"/>
  <text x="60" y="1326" font-family="Malgun Gothic" font-size="30" fill="#5B6B62">출처: 국세청 안내 · 매체 공통 항목 기준</text>
</svg>