<svg xmlns="http://www.w3.org/2000/svg" width="1080" height="720" viewBox="0 0 1080 720">
  <rect width="1080" height="720" fill="#F4F7FB"/>
  <rect width="1080" height="150" fill="#1B5FA6"/>
  <text x="60" y="98" font-family="Malgun Gothic" font-weight="bold" font-size="52" fill="#ffffff">으뜸효율 환급 신청 필요서류 4종</text>
  <text x="60" y="138" font-family="Malgun Gothic" font-size="30" fill="#E8EEF5">※ 예년(2025 회차) 기준 · 재공고 시 변동 가능</text>

  <g font-family="Malgun Gothic">
    <rect x="60" y="200" width="465" height="150" rx="20" fill="#ffffff" stroke="#D6E0EC"/>
    <circle cx="135" cy="275" r="34" fill="#1B5FA6"/>
    <text x="135" y="290" font-weight="bold" font-size="40" fill="#ffffff" text-anchor="middle">1</text>
    <text x="200" y="290" font-weight="bold" font-size="42" fill="#1a1a1a">등급라벨 사진</text>

    <rect x="555" y="200" width="465" height="150" rx="20" fill="#ffffff" stroke="#D6E0EC"/>
    <circle cx="630" cy="275" r="34" fill="#1B5FA6"/>
    <text x="630" y="290" font-weight="bold" font-size="40" fill="#ffffff" text-anchor="middle">2</text>
    <text x="695" y="290" font-weight="bold" font-size="42" fill="#1a1a1a">명판 사진</text>

    <rect x="60" y="375" width="465" height="150" rx="20" fill="#ffffff" stroke="#D6E0EC"/>
    <circle cx="135" cy="450" r="34" fill="#1B5FA6"/>
    <text x="135" y="465" font-weight="bold" font-size="40" fill="#ffffff" text-anchor="middle">3</text>
    <text x="200" y="465" font-weight="bold" font-size="42" fill="#1a1a1a">거래내역서</text>

    <rect x="555" y="375" width="465" height="150" rx="20" fill="#ffffff" stroke="#D6E0EC"/>
    <circle cx="630" cy="450" r="34" fill="#1B5FA6"/>
    <text x="630" y="465" font-weight="bold" font-size="40" fill="#ffffff" text-anchor="middle">4</text>
    <text x="695" y="465" font-weight="bold" font-size="42" fill="#1a1a1a">영수증</text>
  </g>

  <rect x="60" y="560" width="960" height="120" rx="20" fill="#ffffff" stroke="#D6E0EC"/>
  <text x="540" y="615" font-family="Malgun Gothic" font-weight="bold" font-size="36" fill="#33485f" text-anchor="middle">신청처: 공식 누리집 www.으뜸효율.kr</text>
  <text x="540" y="660" font-family="Malgun Gothic" font-size="34" fill="#5B6B7C" text-anchor="middle">고객센터 1566-4984</text>
</svg>