<svg xmlns="http://www.w3.org/2000/svg" width="1080" height="1350" viewBox="0 0 1080 1350">
<rect width="1080" height="1350" fill="#F4F7FB"/>
<rect width="1080" height="200" fill="#243B6B"/>
<text x="60" y="125" font-family="Noto Sans CJK KR" font-weight="bold" font-size="60" fill="#ffffff" text-anchor="start">어디까지 보호되나</text>
<rect x="60" y="250" width="960" height="330" rx="24" fill="#ffffff" stroke="#D6E0EC" stroke-width="2"/>
<rect x="60" y="250" width="18" height="330" rx="9" fill="#243B6B"/>
<text x="110" y="325" font-family="Noto Sans CJK KR" font-weight="bold" font-size="46" fill="#1a1a1a" text-anchor="start">예금보험공사(KDIC)</text>
<rect x="850" y="285" width="150" height="60" rx="30" fill="#243B6B"/>
<text x="925" y="325" font-family="Noto Sans CJK KR" font-weight="bold" font-size="38" fill="#ffffff" text-anchor="middle">1억원</text>
<circle cx="123" cy="397" r="8" fill="#243B6B"/>
<text x="150" y="405" font-family="Noto Sans CJK KR" font-weight="normal" font-size="36" fill="#3c3c3c" text-anchor="start">은행 · 저축은행</text>
<circle cx="123" cy="445" r="8" fill="#243B6B"/>
<text x="150" y="453" font-family="Noto Sans CJK KR" font-weight="normal" font-size="36" fill="#3c3c3c" text-anchor="start">보험회사</text>
<circle cx="123" cy="493" r="8" fill="#243B6B"/>
<text x="150" y="501" font-family="Noto Sans CJK KR" font-weight="normal" font-size="36" fill="#3c3c3c" text-anchor="start">금융투자업자(증권사 등)</text>
<circle cx="123" cy="541" r="8" fill="#243B6B"/>
<text x="150" y="549" font-family="Noto Sans CJK KR" font-weight="normal" font-size="36" fill="#3c3c3c" text-anchor="start">종합금융회사</text>
<rect x="60" y="610" width="960" height="330" rx="24" fill="#ffffff" stroke="#D6E0EC" stroke-width="2"/>
<rect x="60" y="610" width="18" height="330" rx="9" fill="#1F8A53"/>
<text x="110" y="685" font-family="Noto Sans CJK KR" font-weight="bold" font-size="46" fill="#1a1a1a" text-anchor="start">상호금융 (자체기금)</text>
<rect x="850" y="645" width="150" height="60" rx="30" fill="#1F8A53"/>
<text x="925" y="685" font-family="Noto Sans CJK KR" font-weight="bold" font-size="38" fill="#ffffff" text-anchor="middle">1억원</text>
<circle cx="123" cy="757" r="8" fill="#1F8A53"/>
<text x="150" y="765" font-family="Noto Sans CJK KR" font-weight="normal" font-size="36" fill="#3c3c3c" text-anchor="start">새마을금고 · 신협</text>
<circle cx="123" cy="805" r="8" fill="#1F8A53"/>
<text x="150" y="813" font-family="Noto Sans CJK KR" font-weight="normal" font-size="36" fill="#3c3c3c" text-anchor="start">농협 · 수협 · 산림조합</text>
<circle cx="123" cy="853" r="8" fill="#1F8A53"/>
<text x="150" y="861" font-family="Noto Sans CJK KR" font-weight="normal" font-size="36" fill="#3c3c3c" text-anchor="start">각 중앙회 자체기금으로 보호</text>
<circle cx="123" cy="901" r="8" fill="#1F8A53"/>
<text x="150" y="909" font-family="Noto Sans CJK KR" font-weight="normal" font-size="36" fill="#3c3c3c" text-anchor="start">한도는 동일 1억원</text>
<rect x="60" y="970" width="960" height="330" rx="24" fill="#ffffff" stroke="#D6E0EC" stroke-width="2"/>
<rect x="60" y="970" width="18" height="330" rx="9" fill="#D24646"/>
<text x="110" y="1045" font-family="Noto Sans CJK KR" font-weight="bold" font-size="46" fill="#1a1a1a" text-anchor="start">우체국</text>
<rect x="850" y="1005" width="150" height="60" rx="30" fill="#D24646"/>
<text x="925" y="1045" font-family="Noto Sans CJK KR" font-weight="bold" font-size="38" fill="#ffffff" text-anchor="middle">전액보장</text>
<circle cx="123" cy="1117" r="8" fill="#D24646"/>
<text x="150" y="1125" font-family="Noto Sans CJK KR" font-weight="normal" font-size="36" fill="#3c3c3c" text-anchor="start">국가가 전액 지급 보장</text>
<circle cx="123" cy="1165" r="8" fill="#D24646"/>
<text x="150" y="1173" font-family="Noto Sans CJK KR" font-weight="normal" font-size="36" fill="#3c3c3c" text-anchor="start">한도 제한 없음</text>
<circle cx="123" cy="1213" r="8" fill="#D24646"/>
<text x="150" y="1221" font-family="Noto Sans CJK KR" font-weight="normal" font-size="36" fill="#3c3c3c" text-anchor="start">1억원 초과해도 전액</text>
<circle cx="123" cy="1261" r="8" fill="#D24646"/>
<text x="150" y="1269" font-family="Noto Sans CJK KR" font-weight="normal" font-size="36" fill="#3c3c3c" text-anchor="start">우체국예금·보험법 근거</text>
<rect x="0" y="1290" width="1080" height="60" fill="#E8EEF5"/>
<text x="60" y="1328" font-family="Noto Sans CJK KR" font-weight="normal" font-size="30" fill="#5B6B7C" text-anchor="start">출처: 예금보험공사 · 우체국예금·보험에 관한 법률</text>
</svg>