<svg xmlns="http://www.w3.org/2000/svg" width="1080" height="720" viewBox="0 0 1080 720">
<rect width="1080" height="720" fill="#F4F7FB"/>
<rect width="1080" height="170" fill="#243B6B"/>
<text x="60" y="105" font-family="Noto Sans CJK KR" font-weight="bold" font-size="56" fill="#ffffff" text-anchor="start">금리 비교는 공식 채널에서</text>
<rect x="60" y="215" width="960" height="115" rx="18" fill="#ffffff" stroke="#D6E0EC" stroke-width="2"/>
<rect x="60" y="215" width="16" height="115" rx="8" fill="#243B6B"/>
<text x="110" y="272" font-family="Noto Sans CJK KR" font-weight="bold" font-size="40" fill="#1a1a1a" text-anchor="start">전국은행연합회 소비자포털</text>
<text x="110" y="313" font-family="Noto Sans CJK KR" font-weight="normal" font-size="30" fill="#5B6B7C" text-anchor="start">정기예금 금리 비교</text>
<rect x="60" y="348" width="960" height="115" rx="18" fill="#ffffff" stroke="#D6E0EC" stroke-width="2"/>
<rect x="60" y="348" width="16" height="115" rx="8" fill="#243B6B"/>
<text x="110" y="405" font-family="Noto Sans CJK KR" font-weight="bold" font-size="40" fill="#1a1a1a" text-anchor="start">금융감독원 파인 (fine.fss.or.kr)</text>
<text x="110" y="446" font-family="Noto Sans CJK KR" font-weight="normal" font-size="30" fill="#5B6B7C" text-anchor="start">금융상품 한눈에 · 기간/적립방식별</text>
<rect x="60" y="481" width="960" height="115" rx="18" fill="#ffffff" stroke="#D6E0EC" stroke-width="2"/>
<rect x="60" y="481" width="16" height="115" rx="8" fill="#243B6B"/>
<text x="110" y="538" font-family="Noto Sans CJK KR" font-weight="bold" font-size="40" fill="#1a1a1a" text-anchor="start">저축은행중앙회 (fsb.or.kr)</text>
<text x="110" y="579" font-family="Noto Sans CJK KR" font-weight="normal" font-size="30" fill="#5B6B7C" text-anchor="start">저축은행 상품 금리</text>
<rect x="60" y="600" width="960" height="60" rx="12" fill="#FFD23F"/>
<text x="90" y="640" font-family="Noto Sans CJK KR" font-weight="bold" font-size="32" fill="#1a1a1a" text-anchor="start">금리는 수시로 변동! 가입 시점에 반드시 직접 확인하세요</text>
<rect x="0" y="660" width="1080" height="60" fill="#E8EEF5"/>
<text x="60" y="698" font-family="Noto Sans CJK KR" font-weight="normal" font-size="30" fill="#5B6B7C" text-anchor="start">출처: 전국은행연합회 · 금융감독원 파인 · 저축은행중앙회</text>
</svg>