<svg xmlns="http://www.w3.org/2000/svg" width="1080" height="1350" viewBox="0 0 1080 1350">
<rect width="1080" height="1350" fill="#F4F7FB"/>
<rect width="1080" height="200" fill="#1F8A53"/><text x="60" y="125" font-family="Malgun Gothic" font-weight="bold" font-size="60" fill="#FFFFFF">자동차세 조회·납부 방법</text>
<circle cx="120" cy="340" r="44" fill="#1F8A53"/><text x="120" y="356" font-family="Malgun Gothic" font-weight="bold" font-size="44" fill="#FFFFFF" text-anchor="middle">1</text><rect x="190" y="290" width="830" height="100" rx="16" fill="#ffffff" stroke="#D6E0EC"/><text x="220" y="352" font-family="Malgun Gothic" font-weight="bold" font-size="38" fill="#1a1a1a">위택스(wetax.go.kr) 접속 / 앱 실행</text><circle cx="120" cy="470" r="44" fill="#1F8A53"/><text x="120" y="486" font-family="Malgun Gothic" font-weight="bold" font-size="44" fill="#FFFFFF" text-anchor="middle">2</text><rect x="190" y="420" width="830" height="100" rx="16" fill="#ffffff" stroke="#D6E0EC"/><text x="220" y="482" font-family="Malgun Gothic" font-weight="bold" font-size="38" fill="#1a1a1a">상단 ‘납부’ → 납부대상 확인</text><circle cx="120" cy="600" r="44" fill="#1F8A53"/><text x="120" y="616" font-family="Malgun Gothic" font-weight="bold" font-size="44" fill="#FFFFFF" text-anchor="middle">3</text><rect x="190" y="550" width="830" height="100" rx="16" fill="#ffffff" stroke="#D6E0EC"/><text x="220" y="612" font-family="Malgun Gothic" font-weight="bold" font-size="38" fill="#1a1a1a">자동차세 세목 선택</text><circle cx="120" cy="730" r="44" fill="#1F8A53"/><text x="120" y="746" font-family="Malgun Gothic" font-weight="bold" font-size="44" fill="#FFFFFF" text-anchor="middle">4</text><rect x="190" y="680" width="830" height="100" rx="16" fill="#ffffff" stroke="#D6E0EC"/><text x="220" y="742" font-family="Malgun Gothic" font-weight="bold" font-size="38" fill="#1a1a1a">결제수단 선택(계좌이체·카드·간편결제)</text><circle cx="120" cy="860" r="44" fill="#1F8A53"/><text x="120" y="876" font-family="Malgun Gothic" font-weight="bold" font-size="44" fill="#FFFFFF" text-anchor="middle">5</text><rect x="190" y="810" width="830" height="100" rx="16" fill="#ffffff" stroke="#D6E0EC"/><text x="220" y="872" font-family="Malgun Gothic" font-weight="bold" font-size="38" fill="#1a1a1a">납부 완료 · 영수증 확인</text>
<rect x="60" y="965" width="960" height="210" rx="16" fill="#EAF4EE" stroke="#BFE0CC"/>
<text x="100" y="1035" font-family="Malgun Gothic" font-weight="bold" font-size="38" fill="#176B41">이 밖에도</text>
<text x="100" y="1095" font-family="Malgun Gothic" font-size="36" fill="#1a1a1a">서울 이택스/STAX · 인터넷지로 · ARS</text>
<text x="100" y="1145" font-family="Malgun Gothic" font-size="36" fill="#1a1a1a">은행 창구 · 가상계좌 · 주민센터</text>
<rect x="0" y="1270" width="1080" height="80" fill="#E8EEF5"/><text x="60" y="1322" font-family="Malgun Gothic" font-size="32" fill="#5B6B7C">위택스·서울 이택스 등 공식 납부 채널</text>
</svg>