<svg xmlns="http://www.w3.org/2000/svg" width="1080" height="1350" viewBox="0 0 1080 1350">
<rect width="1080" height="1350" fill="#F4F7FB"/>
<rect width="1080" height="200" fill="#1F8A53"/><text x="60" y="125" font-family="Malgun Gothic" font-weight="bold" font-size="60" fill="#FFFFFF">연납 신청시기별 실질 공제율</text>
<text x="60" y="362" font-family="Malgun Gothic" font-weight="bold" font-size="40" fill="#1a1a1a">1월 신청</text><rect x="300" y="310" width="760" height="90" rx="12" fill="#1F8A53"/><text x="1040" y="370" font-family="Malgun Gothic" font-weight="bold" font-size="42" fill="#FFFFFF" text-anchor="end">4.58%</text><text x="60" y="512" font-family="Malgun Gothic" font-weight="bold" font-size="40" fill="#1a1a1a">3월 신청</text><rect x="300" y="460" width="623" height="90" rx="12" fill="#1F8A53"/><text x="903" y="520" font-family="Malgun Gothic" font-weight="bold" font-size="42" fill="#FFFFFF" text-anchor="end">3.76%</text><text x="60" y="662" font-family="Malgun Gothic" font-weight="bold" font-size="40" fill="#1a1a1a">6월 신청</text><rect x="300" y="610" width="416" height="90" rx="12" fill="#FFD23F"/><text x="696" y="670" font-family="Malgun Gothic" font-weight="bold" font-size="42" fill="#1a1a1a" text-anchor="end">2.51%</text><text x="60" y="812" font-family="Malgun Gothic" font-weight="bold" font-size="40" fill="#1a1a1a">9월 신청</text><rect x="300" y="760" width="207" height="90" rx="12" fill="#1F8A53"/><text x="487" y="820" font-family="Malgun Gothic" font-weight="bold" font-size="42" fill="#FFFFFF" text-anchor="end">1.25%</text>
<rect x="60" y="940" width="960" height="230" rx="16" fill="#FFF7DA" stroke="#E9D27A"/>
<text x="100" y="1010" font-family="Malgun Gothic" font-weight="bold" font-size="40" fill="#176B41">법정 공제율 5% 유지 (2026년)</text>
<text x="100" y="1070" font-family="Malgun Gothic" font-size="38" fill="#1a1a1a">6월 연납 = 하반기분 미리 납부, 실질 약 2.51%</text>
<text x="100" y="1130" font-family="Malgun Gothic" font-size="38" fill="#1a1a1a">2026년 6월 연납 신청도 7/3까지 연장</text>
<rect x="0" y="1270" width="1080" height="80" fill="#E8EEF5"/><text x="60" y="1322" font-family="Malgun Gothic" font-size="32" fill="#5B6B7C">행정안전부 연납 공제율 5% 유지 보도자료</text>
</svg>