<svg xmlns="http://www.w3.org/2000/svg" width="1080" height="1350" viewBox="0 0 1080 1350">
  <rect width="1080" height="1350" fill="#F4F7FB"/>
  <rect width="1080" height="200" fill="#1B5FA6"/>
  <text x="60" y="90" font-family="Noto Sans CJK KR, sans-serif" font-weight="bold" font-size="40" fill="#FFD23F">일손부족 동행 인센티브</text>
  <text x="60" y="160" font-family="Noto Sans CJK KR, sans-serif" font-weight="bold" font-size="64" fill="#ffffff">자격 요건 한눈에</text>
  <g font-family="Noto Sans CJK KR, sans-serif" font-size="44">
    <rect x="60" y="260" width="960" height="120" rx="16" fill="#ffffff" stroke="#D6E0EC"/>
    <text x="100" y="335" font-weight="bold" fill="#1a1a1a">나이</text>
    <text x="980" y="335" font-weight="bold" fill="#1B5FA6" text-anchor="end">취업일 기준 만 50~64세</text>
    <rect x="60" y="400" width="960" height="120" rx="16" fill="#ffffff" stroke="#D6E0EC"/>
    <text x="100" y="475" font-weight="bold" fill="#1a1a1a">사전 요건</text>
    <text x="980" y="475" font-weight="bold" fill="#1B5FA6" text-anchor="end">정부 지정 훈련·일경험 수료</text>
    <rect x="60" y="540" width="960" height="120" rx="16" fill="#ffffff" stroke="#D6E0EC"/>
    <text x="100" y="615" font-weight="bold" fill="#1a1a1a">업종</text>
    <text x="980" y="615" font-weight="bold" fill="#1B5FA6" text-anchor="end">제조업 · 운수 · 창고업 등</text>
    <rect x="60" y="680" width="960" height="120" rx="16" fill="#ffffff" stroke="#D6E0EC"/>
    <text x="100" y="755" font-weight="bold" fill="#1a1a1a">기업</text>
    <text x="980" y="755" font-weight="bold" fill="#1B5FA6" text-anchor="end">5인 이상 우선지원대상기업</text>
    <rect x="60" y="820" width="960" height="120" rx="16" fill="#ffffff" stroke="#D6E0EC"/>
    <text x="100" y="895" font-weight="bold" fill="#1a1a1a">근로계약</text>
    <text x="980" y="895" font-weight="bold" fill="#1B5FA6" text-anchor="end">1년 이상 · 주 30시간 이상</text>
    <rect x="60" y="960" width="960" height="120" rx="16" fill="#ffffff" stroke="#D6E0EC"/>
    <text x="100" y="1035" font-weight="bold" fill="#1a1a1a">임금</text>
    <text x="980" y="1035" font-weight="bold" fill="#1B5FA6" text-anchor="end">최저임금 이상</text>
  </g>
  <rect x="60" y="1130" width="960" height="110" rx="16" fill="#FFD23F"/>
  <text x="540" y="1200" font-family="Noto Sans CJK KR, sans-serif" font-weight="bold" font-size="44" fill="#1a1a1a" text-anchor="middle">신청 7월 1일부터 · 고용센터 취업지원총괄과</text>
  <text x="60" y="1310" font-family="Noto Sans CJK KR, sans-serif" font-size="30" fill="#7a8699">출처: 고용노동부 발표 · 고용24(work24.go.kr) · 문의 1350</text>
</svg>
