<svg xmlns="http://www.w3.org/2000/svg" width="1080" height="1350" viewBox="0 0 1080 1350">
  <rect width="1080" height="1350" fill="#F4F7FB"/>
  <rect width="1080" height="180" fill="#1B5FA6"/>
  <rect x="60" y="70" width="10" height="60" fill="#FFD23F"/>
  <text x="90" y="122" font-family="Malgun Gothic" font-weight="bold" font-size="60" fill="#ffffff">신청부터 사용까지</text>
  <rect x="60" y="250" width="960" height="200" rx="20" fill="#ffffff" stroke="#D6E0EC" stroke-width="2"/>
  <circle cx="150" cy="350" r="52" fill="#1B5FA6"/>
  <text x="150" y="366" font-family="Malgun Gothic" font-weight="bold" font-size="52" fill="#ffffff" text-anchor="middle">1</text>
  <text x="250" y="328" font-family="Malgun Gothic" font-weight="bold" font-size="34" fill="#1B5FA6">STEP 1</text>
  <text x="250" y="382" font-family="Malgun Gothic" font-weight="bold" font-size="48" fill="#1a2b3c">대상 확인</text>
  <text x="250" y="430" font-family="Malgun Gothic" font-size="34" fill="#5B6B7C">소득기준 + 세대원 특성 둘 다 충족</text>
  <text x="540" y="480" font-family="Malgun Gothic" font-weight="bold" font-size="40" fill="#1B5FA6" text-anchor="middle">▼</text>
  <rect x="60" y="508" width="960" height="200" rx="20" fill="#ffffff" stroke="#D6E0EC" stroke-width="2"/>
  <circle cx="150" cy="608" r="52" fill="#1B5FA6"/>
  <text x="150" y="624" font-family="Malgun Gothic" font-weight="bold" font-size="52" fill="#ffffff" text-anchor="middle">2</text>
  <text x="250" y="586" font-family="Malgun Gothic" font-weight="bold" font-size="34" fill="#1B5FA6">STEP 2</text>
  <text x="250" y="640" font-family="Malgun Gothic" font-weight="bold" font-size="48" fill="#1a2b3c">신청</text>
  <text x="250" y="688" font-family="Malgun Gothic" font-size="34" fill="#5B6B7C">복지로 또는 주민센터 (6/15~12/31)</text>
  <text x="540" y="738" font-family="Malgun Gothic" font-weight="bold" font-size="40" fill="#1B5FA6" text-anchor="middle">▼</text>
  <rect x="60" y="766" width="960" height="200" rx="20" fill="#ffffff" stroke="#D6E0EC" stroke-width="2"/>
  <circle cx="150" cy="866" r="52" fill="#1B5FA6"/>
  <text x="150" y="882" font-family="Malgun Gothic" font-weight="bold" font-size="52" fill="#ffffff" text-anchor="middle">3</text>
  <text x="250" y="844" font-family="Malgun Gothic" font-weight="bold" font-size="34" fill="#1B5FA6">STEP 3</text>
  <text x="250" y="898" font-family="Malgun Gothic" font-weight="bold" font-size="48" fill="#1a2b3c">요금차감 등록</text>
  <text x="250" y="946" font-family="Malgun Gothic" font-size="34" fill="#5B6B7C">'전기' 선택 + 요금고지서 지참</text>
  <text x="540" y="996" font-family="Malgun Gothic" font-weight="bold" font-size="40" fill="#1B5FA6" text-anchor="middle">▼</text>
  <rect x="60" y="1024" width="960" height="200" rx="20" fill="#ffffff" stroke="#D6E0EC" stroke-width="2"/>
  <circle cx="150" cy="1124" r="52" fill="#1B5FA6"/>
  <text x="150" y="1140" font-family="Malgun Gothic" font-weight="bold" font-size="52" fill="#ffffff" text-anchor="middle">4</text>
  <text x="250" y="1102" font-family="Malgun Gothic" font-weight="bold" font-size="34" fill="#1B5FA6">STEP 4</text>
  <text x="250" y="1156" font-family="Malgun Gothic" font-weight="bold" font-size="48" fill="#1a2b3c">자동 차감</text>
  <text x="250" y="1204" font-family="Malgun Gothic" font-size="34" fill="#5B6B7C">다음 달부터 전기요금에서 차감</text><rect x="0" y="1270" width="1080" height="80" fill="#E8EEF5"/>
  <text x="60" y="1322" font-family="Malgun Gothic" font-size="32" fill="#5B6B7C">출처: 에너지바우처 공식(energyv.or.kr)</text>
</svg>