<svg xmlns="http://www.w3.org/2000/svg" width="1080" height="1350" viewBox="0 0 1080 1350">
  <rect width="1080" height="1350" fill="#F4F7FB"/>
  <rect width="1080" height="180" fill="#1B5FA6"/>
  <rect x="60" y="70" width="10" height="60" fill="#FFD23F"/>
  <text x="90" y="122" font-family="Malgun Gothic" font-weight="bold" font-size="60" fill="#ffffff">신청 · 사용 기간</text>
  <rect x="60" y="270" width="960" height="150" rx="18" fill="#ffffff" stroke="#D6E0EC" stroke-width="2"/>
  <rect x="60" y="270" width="300" height="150" rx="18" fill="#1B5FA6"/>
  <text x="210" y="362" font-family="Malgun Gothic" font-weight="bold" font-size="44" fill="#ffffff" text-anchor="middle">신청기간</text>
  <text x="400" y="362" font-family="Malgun Gothic" font-weight="bold" font-size="46" fill="#1a2b3c">2026. 6. 15 ~ 12. 31</text>
  <rect x="60" y="450" width="960" height="150" rx="18" fill="#ffffff" stroke="#D6E0EC" stroke-width="2"/>
  <rect x="60" y="450" width="300" height="150" rx="18" fill="#1B5FA6"/>
  <text x="210" y="542" font-family="Malgun Gothic" font-weight="bold" font-size="44" fill="#ffffff" text-anchor="middle">여름 사용</text>
  <text x="400" y="542" font-family="Malgun Gothic" font-weight="bold" font-size="46" fill="#1a2b3c">2026. 7. 1 ~ 9. 30</text>
  <rect x="60" y="630" width="960" height="150" rx="18" fill="#ffffff" stroke="#D6E0EC" stroke-width="2"/>
  <rect x="60" y="630" width="300" height="150" rx="18" fill="#1B5FA6"/>
  <text x="210" y="722" font-family="Malgun Gothic" font-weight="bold" font-size="44" fill="#ffffff" text-anchor="middle">전체 사용</text>
  <text x="400" y="722" font-family="Malgun Gothic" font-weight="bold" font-size="46" fill="#1a2b3c">2026. 7. 1 ~ 2027. 5. 31</text>
  <rect x="60" y="830" width="960" height="160" rx="20" fill="#FFF6D6" stroke="#FFD23F" stroke-width="3"/>
  <text x="100" y="905" font-family="Malgun Gothic" font-weight="bold" font-size="40" fill="#8a6d00">TIP  폭염 전 6월~7월 초 신청이 유리</text>
  <text x="100" y="960" font-family="Malgun Gothic" font-size="34" fill="#8a6d00">신청 다음 달부터 요금 차감 시작</text>
<rect x="0" y="1270" width="1080" height="80" fill="#E8EEF5"/>
  <text x="60" y="1322" font-family="Malgun Gothic" font-size="32" fill="#5B6B7C">출처: 에너지바우처 공식(energyv.or.kr)</text>
</svg>