<svg xmlns="http://www.w3.org/2000/svg" width="1080" height="720" viewBox="0 0 1080 720">
  <rect width="1080" height="720" fill="#F4F7FB"/>
  <rect width="1080" height="160" fill="#243B6B"/>
  <text x="60" y="102" font-family="Malgun Gothic" font-weight="bold" font-size="56" fill="#ffffff">내 신용점수 무료 조회처</text>
  <g font-family="Malgun Gothic">
    <rect x="60" y="230" width="300" height="410" rx="24" fill="#ffffff" stroke="#D6E0EC" stroke-width="2"/>
    <rect x="60" y="230" width="300" height="150" rx="24" fill="#FEE500"/>
    <rect x="60" y="300" width="300" height="80" fill="#FEE500"/>
    <text x="210.0" y="330" font-family="Malgun Gothic" font-size="42" font-weight="bold" fill="#3A2929" text-anchor="middle">카카오</text>
    <circle cx="210.0" cy="460" r="6" fill="#243B6B"/>
    <text x="210.0" y="470" font-size="34" fill="#333" text-anchor="middle">카카오뱅크</text><text x="210.0" y="516" font-size="34" fill="#333" text-anchor="middle">카카오페이</text>
    <text x="210.0" y="596" font-size="28" fill="#1F8A53" font-weight="bold" text-anchor="middle">무료 조회</text>
    <rect x="390" y="230" width="300" height="410" rx="24" fill="#ffffff" stroke="#D6E0EC" stroke-width="2"/>
    <rect x="390" y="230" width="300" height="150" rx="24" fill="#03C75A"/>
    <rect x="390" y="300" width="300" height="80" fill="#03C75A"/>
    <text x="540.0" y="330" font-family="Malgun Gothic" font-size="42" font-weight="bold" fill="#ffffff" text-anchor="middle">네이버페이</text>
    <circle cx="540.0" cy="460" r="6" fill="#243B6B"/>
    <text x="540.0" y="470" font-size="34" fill="#333" text-anchor="middle">네이버페이</text><text x="540.0" y="516" font-size="34" fill="#333" text-anchor="middle">앱 · 웹</text>
    <text x="540.0" y="596" font-size="28" fill="#1F8A53" font-weight="bold" text-anchor="middle">무료 조회</text>
    <rect x="720" y="230" width="300" height="410" rx="24" fill="#ffffff" stroke="#D6E0EC" stroke-width="2"/>
    <rect x="720" y="230" width="300" height="150" rx="24" fill="#0064FF"/>
    <rect x="720" y="300" width="300" height="80" fill="#0064FF"/>
    <text x="870.0" y="330" font-family="Malgun Gothic" font-size="42" font-weight="bold" fill="#ffffff" text-anchor="middle">토스</text>
    <circle cx="870.0" cy="460" r="6" fill="#243B6B"/>
    <text x="870.0" y="470" font-size="34" fill="#333" text-anchor="middle">토스</text><text x="870.0" y="516" font-size="34" fill="#333" text-anchor="middle">신용조회</text>
    <text x="870.0" y="596" font-size="28" fill="#1F8A53" font-weight="bold" text-anchor="middle">무료 조회</text></g>
  <text x="540" y="690" font-family="Malgun Gothic" font-size="30" fill="#5B6B7C" text-anchor="middle">공식: 나이스지키미(NICE) · 올크레딧(KCB)</text>
</svg>