<svg xmlns="http://www.w3.org/2000/svg" width="1080" height="1350" viewBox="0 0 1080 1350">
  <rect width="1080" height="1350" fill="#F4F7FB"/>
  <rect width="1080" height="200" fill="#1B5FA6"/>
  <rect x="60" y="52" rx="26" ry="26" width="150" height="52" fill="#FFD23F"/>
  <text x="135" y="88" font-family="Noto Sans KR, Malgun Gothic, sans-serif" font-weight="bold" font-size="30" fill="#1a1a1a" text-anchor="middle">정부지원금</text>
  <text x="60" y="165" font-family="Noto Sans KR, Malgun Gothic, sans-serif" font-weight="bold" font-size="60" fill="#ffffff">세대원 수별 지원 금액</text>

  <text x="60" y="290" font-family="Noto Sans KR, Malgun Gothic, sans-serif" font-weight="bold" font-size="40" fill="#5B6B7C">2026년 · 사용기간 내 총액</text>

  <g font-family="Noto Sans KR, Malgun Gothic, sans-serif" fill="#1a1a1a">
    <rect x="60" y="330" width="960" height="150" rx="16" fill="#ffffff" stroke="#D6E0EC" stroke-width="2"/>
    <text x="110" y="425" font-weight="bold" font-size="50">1인 세대</text>
    <text x="990" y="425" font-weight="bold" font-size="54" fill="#1B5FA6" text-anchor="end">295,200원</text>

    <rect x="60" y="500" width="960" height="150" rx="16" fill="#ffffff" stroke="#D6E0EC" stroke-width="2"/>
    <text x="110" y="595" font-weight="bold" font-size="50">2인 세대</text>
    <text x="990" y="595" font-weight="bold" font-size="54" fill="#1B5FA6" text-anchor="end">407,500원</text>

    <rect x="60" y="670" width="960" height="150" rx="16" fill="#ffffff" stroke="#D6E0EC" stroke-width="2"/>
    <text x="110" y="765" font-weight="bold" font-size="50">3인 세대</text>
    <text x="990" y="765" font-weight="bold" font-size="54" fill="#1B5FA6" text-anchor="end">532,700원</text>

    <rect x="60" y="840" width="960" height="170" rx="16" fill="#1B5FA6"/>
    <text x="110" y="945" font-weight="bold" font-size="52" fill="#ffffff">4인 이상 세대</text>
    <text x="990" y="945" font-weight="bold" font-size="62" fill="#FFD23F" text-anchor="end">701,300원</text>
  </g>

  <rect x="60" y="1050" width="960" height="180" rx="16" fill="#FFF3D6"/>
  <text x="90" y="1120" font-family="Noto Sans KR, Malgun Gothic, sans-serif" font-weight="bold" font-size="38" fill="#9A6B00">매월 지급 아님!</text>
  <text x="90" y="1175" font-family="Noto Sans KR, Malgun Gothic, sans-serif" font-size="36" fill="#7A5500">사용기간(2026.7.1~2027.5.31) 동안 쓰는 총액</text>

  <rect x="0" y="1270" width="1080" height="80" fill="#E8EEF5"/>
  <text x="60" y="1322" font-family="Noto Sans KR, Malgun Gothic, sans-serif" font-size="34" fill="#5B6B7C">출처: 에너지바우처(energyv.or.kr)</text>
</svg>
