<svg xmlns="http://www.w3.org/2000/svg" width="1080" height="1080" viewBox="0 0 1080 1080">
  <defs>
    <linearGradient id="bg" x1="0" y1="0" x2="0" y2="1">
      <stop offset="0" stop-color="#0E4E80"/>
      <stop offset="1" stop-color="#1E6FB0"/>
    </linearGradient>
  </defs>
  <rect width="1080" height="1080" fill="url(#bg)"/>
  <circle cx="950" cy="170" r="270" fill="#ffffff" opacity="0.08"/>
  <circle cx="120" cy="980" r="210" fill="#ffffff" opacity="0.06"/>

  <!-- 얼음 조각 장식 -->
  <g opacity="0.9">
    <rect x="800" y="640" width="70" height="70" rx="10" fill="#CDE8F7" opacity="0.85" transform="rotate(12 835 675)"/>
    <rect x="890" y="700" width="50" height="50" rx="8" fill="#FFFFFF" opacity="0.8" transform="rotate(-8 915 725)"/>
    <rect x="760" y="730" width="44" height="44" rx="8" fill="#CDE8F7" opacity="0.7" transform="rotate(20 782 752)"/>
  </g>

  <rect x="80" y="88" rx="34" ry="34" width="200" height="68" fill="#FFD23F"/><text x="180.0" y="135" font-family="Malgun Gothic" font-weight="bold" font-size="36" fill="#1a1a1a" text-anchor="middle">생활꿀팁</text>
  <!-- 보조 뱃지: 여름 캠핑 -->
  <rect x="300" y="88" rx="34" ry="34" width="250" height="68" fill="#ffffff"/><text x="425.0" y="135" font-family="Malgun Gothic" font-weight="bold" font-size="34" fill="#C85A18" text-anchor="middle">여름캠핑 필수</text>

  <!-- 서브 카피 -->
  <text x="80" y="330" font-family="Malgun Gothic" font-weight="bold"
        font-size="50" fill="#CDE8F7">둘째 날 점심, 얼음 다 녹아 고생했다면</text>

  <!-- 메인 카피 (강한 대비) -->
  <text x="80" y="490" font-family="Malgun Gothic" font-weight="bold"
        font-size="132" fill="#FFFFFF">둘째 날에도</text>
  <text x="80" y="640" font-family="Malgun Gothic" font-weight="bold"
        font-size="138" fill="#FFD23F">얼음이 남는</text>
  <text x="80" y="788" font-family="Malgun Gothic" font-weight="bold"
        font-size="138" fill="#FFD23F">아이스박스</text>

  <!-- 디테일 박스 -->
  <rect x="80" y="858" rx="22" ry="22" width="920" height="120" fill="#E8722C"/>
  <text x="540" y="935" font-family="Malgun Gothic" font-weight="bold"
        font-size="56" fill="#FFFFFF" text-anchor="middle">용도별 추천 BEST 5</text>

  <text x="80" y="1035" font-family="Malgun Gothic" font-weight="normal"
        font-size="32" fill="#CDE8F7" opacity="0.9">blog.naver.com/trip_chocho</text>
</svg>