<svg xmlns="http://www.w3.org/2000/svg" width="1080" height="1080" viewBox="0 0 1080 1080">
<rect x="0" y="0" width="1080" height="1080" rx="0" ry="0" fill="#E0556E"/>
<circle cx="925" cy="155" r="235" fill="#e86c82"/>
<circle cx="70" cy="1010" r="190" fill="#B23850"/>
<rect x="80" y="90" width="312.0" height="68" rx="34.0" ry="34.0" fill="#FFD23F"/><text x="236.0" y="136.6" font-family="Noto Sans CJK KR" font-weight="bold" font-size="36" fill="#1a1a1a" text-anchor="middle">여름안전·시즌</text>
<text x="80" y="300" font-family="Noto Sans CJK KR" font-weight="bold" font-size="58" fill="#E8EEF5" text-anchor="start">2026 여름철 물놀이 안전수칙</text>
<text x="80" y="376" font-family="Noto Sans CJK KR" font-weight="bold" font-size="58" fill="#ffffff" text-anchor="start">이것만은 꼭 — 핵심 3가지</text>
<rect x="80" y="430" width="920" height="180" rx="28" ry="28" fill="#ffffff"/>
<circle cx="172" cy="520" r="62" fill="#E0556E"/>
<text x="280" y="530" font-family="Noto Sans CJK KR" font-weight="bold" font-size="64" fill="#B23850" text-anchor="start">구명조끼</text>
<text x="280" y="588" font-family="Noto Sans CJK KR" font-weight="bold" font-size="44" fill="#1a1a1a" text-anchor="start">반드시 착용</text>
<rect x="80" y="628" width="920" height="180" rx="28" ry="28" fill="#ffffff"/>
<circle cx="172" cy="718" r="62" fill="#E0556E"/>
<text x="280" y="728" font-family="Noto Sans CJK KR" font-weight="bold" font-size="64" fill="#B23850" text-anchor="start">보호자</text>
<text x="280" y="786" font-family="Noto Sans CJK KR" font-weight="bold" font-size="44" fill="#1a1a1a" text-anchor="start">팔 닿는 거리 감시</text>
<rect x="80" y="826" width="920" height="180" rx="28" ry="28" fill="#ffffff"/>
<circle cx="172" cy="916" r="62" fill="#E0556E"/>
<text x="280" y="926" font-family="Noto Sans CJK KR" font-weight="bold" font-size="64" fill="#B23850" text-anchor="start">비 오면</text>
<text x="280" y="984" font-family="Noto Sans CJK KR" font-weight="bold" font-size="44" fill="#1a1a1a" text-anchor="start">즉시 대피·기상확인</text>
<text x="80" y="1052" font-family="Noto Sans CJK KR" font-weight="normal" font-size="32" fill="#E8EEF5" text-anchor="start">blog.naver.com/trip_chocho</text>
</svg>
