<svg xmlns="http://www.w3.org/2000/svg" width="1080" height="1350" viewBox="0 0 1080 1350">
<rect x="0" y="0" width="1080" height="1350" rx="0" ry="0" fill="#F4F7FB"/>
<rect x="0" y="0" width="1080" height="210" rx="0" ry="0" fill="#E0556E"/>
<rect x="60" y="46" width="258.0" height="56" rx="28.0" ry="28.0" fill="#FFD23F"/><text x="189.0" y="84.5" font-family="Noto Sans CJK KR" font-weight="bold" font-size="30" fill="#1a1a1a" text-anchor="middle">여름안전·시즌</text>
<text x="60" y="150" font-family="Noto Sans CJK KR" font-weight="bold" font-size="60" fill="#ffffff" text-anchor="start">여름철 물놀이 사고 통계</text>
<text x="64" y="262" font-family="Noto Sans CJK KR" font-weight="normal" font-size="34" fill="#5B6B7C" text-anchor="start">최근 5년(2020~2024) · 물놀이 한정 · 사망 112명</text>
<text x="60" y="344" font-family="Noto Sans CJK KR" font-weight="bold" font-size="40" fill="#B23850" text-anchor="start">장소별 사망자</text>
<text x="60" y="425.0" font-family="Noto Sans CJK KR" font-weight="bold" font-size="36" fill="#1a1a1a" text-anchor="start">하천(강)</text>
<rect x="300" y="380" width="620" height="66" rx="10" ry="10" fill="#e4e4e8"/>
<rect x="300" y="380" width="620.0" height="66" rx="10" ry="10" fill="#E0556E"/>
<text x="936.0" y="423.0" font-family="Noto Sans CJK KR" font-weight="bold" font-size="32" fill="#B23850" text-anchor="start">39명 (35%)</text>
<text x="60" y="515.0" font-family="Noto Sans CJK KR" font-weight="bold" font-size="36" fill="#1a1a1a" text-anchor="start">계곡</text>
<rect x="300" y="470" width="620" height="66" rx="10" ry="10" fill="#e4e4e8"/>
<rect x="300" y="470" width="524.6153846153846" height="66" rx="10" ry="10" fill="#E0556E"/>
<text x="840.6153846153846" y="513.0" font-family="Noto Sans CJK KR" font-weight="bold" font-size="32" fill="#B23850" text-anchor="start">33명 (30%)</text>
<text x="60" y="605.0" font-family="Noto Sans CJK KR" font-weight="bold" font-size="36" fill="#1a1a1a" text-anchor="start">해수욕장</text>
<rect x="300" y="560" width="620" height="66" rx="10" ry="10" fill="#e4e4e8"/>
<rect x="300" y="560" width="397.43589743589746" height="66" rx="10" ry="10" fill="#E0556E"/>
<text x="713.4358974358975" y="603.0" font-family="Noto Sans CJK KR" font-weight="bold" font-size="32" fill="#B23850" text-anchor="start">25명 (22%)</text>
<text x="60" y="695.0" font-family="Noto Sans CJK KR" font-weight="bold" font-size="36" fill="#1a1a1a" text-anchor="start">바닷가</text>
<rect x="300" y="650" width="620" height="66" rx="10" ry="10" fill="#e4e4e8"/>
<rect x="300" y="650" width="238.46153846153845" height="66" rx="10" ry="10" fill="#E0556E"/>
<text x="554.4615384615385" y="693.0" font-family="Noto Sans CJK KR" font-weight="bold" font-size="32" fill="#B23850" text-anchor="start">15명 (13%)</text>
<line x1="60" y1="760" x2="1020" y2="760" stroke="#D6E0EC" stroke-width="2"/>
<text x="60" y="820" font-family="Noto Sans CJK KR" font-weight="bold" font-size="40" fill="#B23850" text-anchor="start">가장 위험한 시기·시간대</text>
<rect x="60" y="870" width="960" height="96" rx="16" ry="16" fill="#ffffff" stroke="#D6E0EC" stroke-width="2"/>
<rect x="80" y="892" width="180" height="52" rx="26" ry="26" fill="#E0556E"/>
<text x="170" y="930" font-family="Noto Sans CJK KR" font-weight="bold" font-size="36" fill="#ffffff" text-anchor="middle">8월</text>
<text x="290" y="930" font-family="Noto Sans CJK KR" font-weight="bold" font-size="38" fill="#1a1a1a" text-anchor="start">사망 48%(54명) 집중</text>
<rect x="60" y="986" width="960" height="96" rx="16" ry="16" fill="#ffffff" stroke="#D6E0EC" stroke-width="2"/>
<rect x="80" y="1008" width="180" height="52" rx="26" ry="26" fill="#E0556E"/>
<text x="170" y="1046" font-family="Noto Sans CJK KR" font-weight="bold" font-size="36" fill="#ffffff" text-anchor="middle">7월 하순</text>
<text x="290" y="1046" font-family="Noto Sans CJK KR" font-weight="bold" font-size="38" fill="#1a1a1a" text-anchor="start">31명으로 최다</text>
<rect x="60" y="1102" width="960" height="96" rx="16" ry="16" fill="#ffffff" stroke="#D6E0EC" stroke-width="2"/>
<rect x="80" y="1124" width="180" height="52" rx="26" ry="26" fill="#E0556E"/>
<text x="170" y="1162" font-family="Noto Sans CJK KR" font-weight="bold" font-size="36" fill="#ffffff" text-anchor="middle">12~18시</text>
<text x="290" y="1162" font-family="Noto Sans CJK KR" font-weight="bold" font-size="38" fill="#1a1a1a" text-anchor="start">38.4% 발생</text>
<rect x="0" y="1270" width="1080" height="80" rx="0" ry="0" fill="#E8EEF5"/><text x="60" y="1318" font-family="Noto Sans CJK KR" font-weight="normal" font-size="30" fill="#5B6B7C" text-anchor="start">출처: 행정안전부 (최근 5년 여름철 물놀이 사고 통계)</text>
</svg>
