<svg xmlns="http://www.w3.org/2000/svg" width="1080" height="1350" viewBox="0 0 1080 1350">
<rect x="0" y="0" width="1080" height="1350" rx="0" ry="0" fill="#F4F7FB"/>
<rect x="0" y="0" width="1080" height="210" rx="0" ry="0" fill="#E0556E"/>
<rect x="60" y="46" width="258.0" height="56" rx="28.0" ry="28.0" fill="#FFD23F"/><text x="189.0" y="84.5" font-family="Noto Sans CJK KR" font-weight="bold" font-size="30" fill="#1a1a1a" text-anchor="middle">여름안전·시즌</text>
<text x="60" y="150" font-family="Noto Sans CJK KR" font-weight="bold" font-size="60" fill="#ffffff" text-anchor="start">익수 사고 응급 대처</text>
<rect x="60" y="250" width="960" height="110" rx="18" ry="18" fill="#E0556E"/>
<text x="90" y="318" font-family="Noto Sans CJK KR" font-weight="bold" font-size="44" fill="#ffffff" text-anchor="start">골든타임 4분 — 4분 내 CPR 시 소생률↑</text>
<text x="60" y="440" font-family="Noto Sans CJK KR" font-weight="bold" font-size="40" fill="#B23850" text-anchor="start">구조 순서 (직접 뛰어들지 마세요)</text>
<rect x="60" y="480" width="960" height="92" rx="14" ry="14" fill="#ffffff" stroke="#D6E0EC" stroke-width="2"/>
<rect x="60" y="480" width="12" height="92" rx="0" ry="0" fill="#E0556E"/>
<text x="100" y="538" font-family="Noto Sans CJK KR" font-weight="bold" font-size="38" fill="#1a1a1a" text-anchor="start">1  큰 소리로 도움 요청 + 119 신고</text>
<polygon points="524,576 556,576 540,590" fill="#E0556E"/>
<rect x="60" y="592" width="960" height="92" rx="14" ry="14" fill="#ffffff" stroke="#D6E0EC" stroke-width="2"/>
<rect x="60" y="592" width="12" height="92" rx="0" ry="0" fill="#E0556E"/>
<text x="100" y="650" font-family="Noto Sans CJK KR" font-weight="bold" font-size="38" fill="#1a1a1a" text-anchor="start">2  물에 뜨는 물체 던지기</text>
<polygon points="524,688 556,688 540,702" fill="#E0556E"/>
<rect x="60" y="704" width="960" height="92" rx="14" ry="14" fill="#ffffff" stroke="#D6E0EC" stroke-width="2"/>
<rect x="60" y="704" width="12" height="92" rx="0" ry="0" fill="#E0556E"/>
<text x="100" y="762" font-family="Noto Sans CJK KR" font-weight="bold" font-size="38" fill="#1a1a1a" text-anchor="start">3  막대·로프로 끌어당기기</text>
<polygon points="524,800 556,800 540,814" fill="#E0556E"/>
<rect x="60" y="816" width="960" height="92" rx="14" ry="14" fill="#ffffff" stroke="#D6E0EC" stroke-width="2"/>
<rect x="60" y="816" width="12" height="92" rx="0" ry="0" fill="#E0556E"/>
<text x="100" y="874" font-family="Noto Sans CJK KR" font-weight="bold" font-size="38" fill="#1a1a1a" text-anchor="start">4  거리 멀면 보트 이용</text>
<text x="60" y="984" font-family="Noto Sans CJK KR" font-weight="bold" font-size="40" fill="#B23850" text-anchor="start">구조 후 처치</text>
<rect x="60" y="1026" width="960" height="96" rx="14" ry="14" fill="#e8f3ec" stroke="#b4d2be" stroke-width="2"/>
<text x="96" y="1086" font-family="Noto Sans CJK KR" font-weight="bold" font-size="36" fill="#1f8a53" text-anchor="start">호흡 없으면 즉시 인공호흡·심폐소생술(CPR)</text>
<rect x="60" y="1142" width="960" height="96" rx="14" ry="14" fill="#fce8e8" stroke="#dc9696" stroke-width="2"/>
<circle cx="122" cy="1190" r="26" fill="none" stroke="#c82828" stroke-width="6"/>
<line x1="104" y1="1172" x2="140" y2="1208" stroke="#c82828" stroke-width="6"/>
<text x="170" y="1202" font-family="Noto Sans CJK KR" font-weight="bold" font-size="36" fill="#c82828" text-anchor="start">배·등 누르기 금지 (기도 막힐 수 있음)</text>
<rect x="0" y="1270" width="1080" height="80" rx="0" ry="0" fill="#E8EEF5"/><text x="60" y="1318" font-family="Noto Sans CJK KR" font-weight="normal" font-size="30" fill="#5B6B7C" text-anchor="start">출처: 행정안전부 등 공공기관 응급처치 안내</text>
</svg>
