<svg xmlns="http://www.w3.org/2000/svg" width="1080" height="720" viewBox="0 0 1080 720">
  <rect width="1080" height="720" fill="#F4F7FB"/>
  <rect width="1080" height="160" fill="#1B5FA6"/>
  <rect x="60" y="40" rx="26" ry="26" width="180" height="56" fill="#FFD23F"/>
  <text x="150" y="78" font-family="Noto Sans KR, Malgun Gothic, sans-serif" font-weight="bold"
        font-size="30" fill="#1a1a1a" text-anchor="middle">정부지원금</text>
  <text x="60" y="135" font-family="Noto Sans KR, Malgun Gothic, sans-serif" font-weight="bold"
        font-size="52" fill="#ffffff">자취 초기 세팅 필수템</text>

  <g font-family="Noto Sans KR, Malgun Gothic, sans-serif">
    <!-- 6개 아이템 그리드 -->
    <rect x="60" y="210" width="300" height="140" rx="18" fill="#ffffff" stroke="#D6E0EC" stroke-width="2"/>
    <text x="210" y="285" font-size="40" fill="#1B5FA6" font-weight="bold" text-anchor="middle">공유기</text>

    <rect x="390" y="210" width="300" height="140" rx="18" fill="#ffffff" stroke="#D6E0EC" stroke-width="2"/>
    <text x="540" y="285" font-size="40" fill="#1B5FA6" font-weight="bold" text-anchor="middle">멀티탭</text>

    <rect x="720" y="210" width="300" height="140" rx="18" fill="#ffffff" stroke="#D6E0EC" stroke-width="2"/>
    <text x="870" y="285" font-size="40" fill="#1B5FA6" font-weight="bold" text-anchor="middle">전자레인지</text>

    <rect x="60" y="370" width="300" height="140" rx="18" fill="#ffffff" stroke="#D6E0EC" stroke-width="2"/>
    <text x="210" y="445" font-size="40" fill="#1B5FA6" font-weight="bold" text-anchor="middle">청소기</text>

    <rect x="390" y="370" width="300" height="140" rx="18" fill="#ffffff" stroke="#D6E0EC" stroke-width="2"/>
    <text x="540" y="445" font-size="40" fill="#1B5FA6" font-weight="bold" text-anchor="middle">제습기</text>

    <rect x="720" y="370" width="300" height="140" rx="18" fill="#ffffff" stroke="#D6E0EC" stroke-width="2"/>
    <text x="870" y="445" font-size="40" fill="#1B5FA6" font-weight="bold" text-anchor="middle">선풍기</text>
  </g>

  <rect x="60" y="545" rx="18" ry="18" width="960" height="100" fill="#FFF6D6" stroke="#FFD23F" stroke-width="2"/>
  <text x="90" y="600" font-family="Noto Sans KR, Malgun Gothic, sans-serif" font-weight="bold"
        font-size="34" fill="#1a1a1a">브랜드보다 내 방 평수·용량에 맞는지부터 확인</text>
  <text x="90" y="632" font-family="Noto Sans KR, Malgun Gothic, sans-serif" font-weight="normal"
        font-size="28" fill="#5B6B7C">가격·구성은 시점마다 바뀌니 최신가·후기 함께 확인</text>

  <rect x="0" y="660" width="1080" height="60" fill="#E8EEF5"/>
  <text x="60" y="700" font-family="Noto Sans KR, Malgun Gothic, sans-serif" font-size="28" fill="#5B6B7C">자취 1인가구 초기 세팅 참고 · blog.naver.com/trip_chocho</text>
</svg>
