<svg xmlns="http://www.w3.org/2000/svg" width="1080" height="1350" viewBox="0 0 1080 1350">
  <rect width="1080" height="1350" fill="#F2FAFD"/>
  <rect width="1080" height="230" fill="#0F86B8"/>
  <rect x="60" y="52" rx="26" ry="26" width="190" height="56" fill="#FFD23F"/>
  <text x="155" y="91" font-family="Malgun Gothic" font-weight="bold" font-size="30" fill="#14323F" text-anchor="middle">추천아이템</text>
  <text x="60" y="170" font-family="Malgun Gothic" font-weight="bold" font-size="62" fill="#FFFFFF">① 가성비 냉감원단 패드</text>
  <text x="60" y="212" font-family="Malgun Gothic" font-weight="normal" font-size="34" fill="#DFF3FA">자취생·1인가구라면 여기부터</text>
  <g>
    <rect x="60" y="300" width="960" height="112" rx="18" fill="#FFFFFF" stroke="#CDE7F1"/>
    <text x="96" y="352" font-family="Malgun Gothic" font-weight="bold" font-size="42" fill="#14323F">이런 분께</text>
    <text x="96" y="396" font-family="Malgun Gothic" font-weight="normal" font-size="34" fill="#4A6675">전월세·1인가구, 에어컨/선풍기와 병행</text>
    <rect x="60" y="428" width="960" height="112" rx="18" fill="#FFFFFF" stroke="#CDE7F1"/>
    <text x="96" y="480" font-family="Malgun Gothic" font-weight="bold" font-size="42" fill="#14323F">장점</text>
    <text x="96" y="524" font-family="Malgun Gothic" font-weight="normal" font-size="34" fill="#4A6675">세탁기 사용 가능, 곰팡이 위험 낮음, 전기료 0원</text>
    <rect x="60" y="556" width="960" height="112" rx="18" fill="#FFFFFF" stroke="#CDE7F1"/>
    <text x="96" y="608" font-family="Malgun Gothic" font-weight="bold" font-size="42" fill="#14323F">단점</text>
    <text x="96" y="652" font-family="Malgun Gothic" font-weight="normal" font-size="34" fill="#4A6675">젤·금속류보다 은은한 시원함</text>
    <rect x="60" y="684" width="960" height="112" rx="18" fill="#FFFFFF" stroke="#CDE7F1"/>
    <text x="96" y="736" font-family="Malgun Gothic" font-weight="bold" font-size="42" fill="#14323F">소재</text>
    <text x="96" y="780" font-family="Malgun Gothic" font-weight="normal" font-size="34" fill="#4A6675">아이스실크·인견·메시</text>
    <rect x="60" y="812" width="960" height="112" rx="18" fill="#FFFFFF" stroke="#CDE7F1"/>
    <text x="96" y="864" font-family="Malgun Gothic" font-weight="bold" font-size="42" fill="#14323F">대략 가격대</text>
    <text x="96" y="908" font-family="Malgun Gothic" font-weight="normal" font-size="34" fill="#4A6675">약 2만9,900~3만9,900원대 (고급형 약 9만원대)</text>
  </g>
  
  <rect x="0" y="1270" width="1080" height="80" fill="#DCEEF5"/>
  <text x="60" y="1320" font-family="Malgun Gothic" font-size="28" fill="#5B7280">출처: 한국소비자원·업계 자료 정리 / blog.naver.com/trip_chocho</text>
</svg>