<svg xmlns="http://www.w3.org/2000/svg" width="1080" height="1350" viewBox="0 0 1080 1350">
  <rect width="1080" height="1350" fill="#F2FAFD"/>
  <rect width="1080" height="230" fill="#0F86B8"/>
  <rect x="60" y="52" rx="26" ry="26" width="190" height="56" fill="#FFD23F"/>
  <text x="155" y="91" font-family="Malgun Gothic" font-weight="bold" font-size="30" fill="#14323F" text-anchor="middle">추천아이템</text>
  <text x="60" y="170" font-family="Malgun Gothic" font-weight="bold" font-size="62" fill="#FFFFFF">③ 유아·아기용</text>
  <text x="60" y="212" font-family="Malgun Gothic" font-weight="normal" font-size="34" fill="#DFF3FA">안전성이 가격보다 우선</text>
  <g>
    <rect x="60" y="300" width="960" height="112" rx="18" fill="#FFFFFF" stroke="#CDE7F1"/>
    <text x="96" y="352" font-family="Malgun Gothic" font-weight="bold" font-size="42" fill="#14323F">먼저 알 것</text>
    <text x="96" y="396" font-family="Malgun Gothic" font-weight="normal" font-size="34" fill="#4A6675">2025 소비자원 시험: 유아용 냉감침구 11종 중 일부</text>
    <rect x="60" y="428" width="960" height="112" rx="18" fill="#FFFFFF" stroke="#CDE7F1"/>
    <text x="96" y="480" font-family="Malgun Gothic" font-weight="bold" font-size="42" fill="#14323F">적발 사례</text>
    <text x="96" y="524" font-family="Malgun Gothic" font-weight="normal" font-size="34" fill="#4A6675">노닐페놀·프탈레이트·pH 기준 초과 부적합 사례 있음</text>
    <rect x="60" y="556" width="960" height="112" rx="18" fill="#FFFFFF" stroke="#CDE7F1"/>
    <text x="96" y="608" font-family="Malgun Gothic" font-weight="bold" font-size="42" fill="#14323F">꼭 확인</text>
    <text x="96" y="652" font-family="Malgun Gothic" font-weight="normal" font-size="34" fill="#4A6675">KC 인증·표시사항, '소비자24' 안전정보 확인</text>
    <rect x="60" y="684" width="960" height="112" rx="18" fill="#FFFFFF" stroke="#CDE7F1"/>
    <text x="96" y="736" font-family="Malgun Gothic" font-weight="bold" font-size="42" fill="#14323F">사용 습관</text>
    <text x="96" y="780" font-family="Malgun Gothic" font-weight="normal" font-size="34" fill="#4A6675">첫 사용 전 세탁, 미끄럼 방지 기능</text>
    <rect x="60" y="812" width="960" height="112" rx="18" fill="#FFFFFF" stroke="#CDE7F1"/>
    <text x="96" y="864" font-family="Malgun Gothic" font-weight="bold" font-size="42" fill="#14323F">대략 가격대</text>
    <text x="96" y="908" font-family="Malgun Gothic" font-weight="normal" font-size="34" fill="#4A6675">가성비 예시 약 6만9,900~8만9,000원대(2025 기준)</text>
  </g>
  <text x="60" y="1218" font-family="Malgun Gothic" font-weight="bold" font-size="32" fill="#0A5C80">※ 특정 제품 비방 아님 — 인증·성분 표시 확인이 핵심</text>
  <rect x="0" y="1270" width="1080" height="80" fill="#DCEEF5"/>
  <text x="60" y="1320" font-family="Malgun Gothic" font-size="28" fill="#5B7280">출처: 한국소비자원·업계 자료 정리 / blog.naver.com/trip_chocho</text>
</svg>