<svg xmlns="http://www.w3.org/2000/svg" width="1080" height="1080" viewBox="0 0 1080 1080"><rect width="1080" height="1080" fill="#F4F7FB"/><rect width="1080" height="200" fill="#2B2F36"/><rect x="0" y="200" width="1080" height="8" fill="#E23B3B"/><text x="60" y="125" font-family="Malgun Gothic, 맑은 고딕, sans-serif" font-weight="bold" font-size="60" fill="#FFFFFF" text-anchor="start">2024년 원인균 1위는?</text><path d="M 380.0 360.0 A 200 200 0 0 1 561.0 645.2" fill="none" stroke="#E23B3B" stroke-width="90"/><path d="M 561.0 645.2 A 200 200 0 0 1 354.9 758.4" fill="none" stroke="#5B6B7C" stroke-width="90"/><path d="M 354.9 758.4 A 200 200 0 0 1 218.2 677.6" fill="none" stroke="#9AA4AF" stroke-width="90"/><path d="M 218.2 677.6 A 200 200 0 0 1 380.0 360.0" fill="none" stroke="#CDD6DF" stroke-width="90"/><text x="380" y="554" font-family="Malgun Gothic, 맑은 고딕, sans-serif" font-weight="bold" font-size="52" fill="#2B2F36" text-anchor="middle">살모넬라</text><text x="380" y="620" font-family="Malgun Gothic, 맑은 고딕, sans-serif" font-weight="bold" font-size="72" fill="#E23B3B" text-anchor="middle">32%</text><rect x="690" y="286" width="40" height="40" rx="8" fill="#E23B3B"/><text x="746" y="320" font-family="Malgun Gothic, 맑은 고딕, sans-serif" font-weight="bold" font-size="35" fill="#E23B3B" text-anchor="start">살모넬라 32%</text><rect x="690" y="378" width="40" height="40" rx="8" fill="#5B6B7C"/><text x="746" y="412" font-family="Malgun Gothic, 맑은 고딕, sans-serif" font-weight="bold" font-size="35" fill="#2B2F36" text-anchor="start">노로바이러스 20%</text><rect x="690" y="470" width="40" height="40" rx="8" fill="#9AA4AF"/><text x="746" y="504" font-family="Malgun Gothic, 맑은 고딕, sans-serif" font-weight="bold" font-size="35" fill="#2B2F36" text-anchor="start">병원성대장균 13%</text><rect x="690" y="562" width="40" height="40" rx="8" fill="#CDD6DF"/><text x="746" y="596" font-family="Malgun Gothic, 맑은 고딕, sans-serif" font-weight="bold" font-size="35" fill="#2B2F36" text-anchor="start">기타 35%</text><rect x="0" y="1000" width="1080" height="80" fill="#E8EEF5"/><text x="60" y="1052" font-family="Malgun Gothic, 맑은 고딕, sans-serif" font-weight="normal" font-size="32" fill="#5B6B7C" text-anchor="start">출처: 식약처 2024 식중독 통계</text></svg>