<svg xmlns="http://www.w3.org/2000/svg" width="1080" height="1350" viewBox="0 0 1080 1350"><rect width="1080" height="1350" fill="#F4F7FB"/><rect width="1080" height="200" fill="#2B2F36"/><rect x="0" y="200" width="1080" height="8" fill="#E23B3B"/><text x="60" y="125" font-family="Malgun Gothic, 맑은 고딕, sans-serif" font-weight="bold" font-size="60" fill="#FFFFFF" text-anchor="start">식중독 예방 6대 수칙</text><rect x="60" y="290" width="960" height="140" rx="16" fill="#FFFFFF" stroke="#D6E0EC"/><circle cx="140" cy="360" r="44" fill="#2B2F36"/><text x="140" y="376" font-family="Malgun Gothic, 맑은 고딕, sans-serif" font-weight="bold" font-size="50" fill="#FFD23F" text-anchor="middle">1</text><text x="220" y="378" font-family="Malgun Gothic, 맑은 고딕, sans-serif" font-weight="bold" font-size="48" fill="#2B2F36" text-anchor="start">손 씻기 (비누 30초)</text><rect x="60" y="455" width="960" height="140" rx="16" fill="#FFFFFF" stroke="#D6E0EC"/><circle cx="140" cy="525" r="44" fill="#2B2F36"/><text x="140" y="541" font-family="Malgun Gothic, 맑은 고딕, sans-serif" font-weight="bold" font-size="50" fill="#FFD23F" text-anchor="middle">2</text><text x="220" y="543" font-family="Malgun Gothic, 맑은 고딕, sans-serif" font-weight="bold" font-size="48" fill="#2B2F36" text-anchor="start">익혀 먹기 (75℃·1분)</text><rect x="60" y="620" width="960" height="140" rx="16" fill="#FFFFFF" stroke="#D6E0EC"/><circle cx="140" cy="690" r="44" fill="#2B2F36"/><text x="140" y="706" font-family="Malgun Gothic, 맑은 고딕, sans-serif" font-weight="bold" font-size="50" fill="#FFD23F" text-anchor="middle">3</text><text x="220" y="708" font-family="Malgun Gothic, 맑은 고딕, sans-serif" font-weight="bold" font-size="48" fill="#2B2F36" text-anchor="start">끓여 먹기 (물)</text><rect x="60" y="785" width="960" height="140" rx="16" fill="#FFFFFF" stroke="#D6E0EC"/><circle cx="140" cy="855" r="44" fill="#2B2F36"/><text x="140" y="871" font-family="Malgun Gothic, 맑은 고딕, sans-serif" font-weight="bold" font-size="50" fill="#FFD23F" text-anchor="middle">4</text><text x="220" y="873" font-family="Malgun Gothic, 맑은 고딕, sans-serif" font-weight="bold" font-size="48" fill="#2B2F36" text-anchor="start">구분 사용 (칼·도마)</text><rect x="60" y="950" width="960" height="140" rx="16" fill="#FFFFFF" stroke="#D6E0EC"/><circle cx="140" cy="1020" r="44" fill="#2B2F36"/><text x="140" y="1036" font-family="Malgun Gothic, 맑은 고딕, sans-serif" font-weight="bold" font-size="50" fill="#FFD23F" text-anchor="middle">5</text><text x="220" y="1038" font-family="Malgun Gothic, 맑은 고딕, sans-serif" font-weight="bold" font-size="48" fill="#2B2F36" text-anchor="start">세척·소독 (생닭 주의)</text><rect x="60" y="1115" width="960" height="140" rx="16" fill="#FFFFFF" stroke="#D6E0EC"/><circle cx="140" cy="1185" r="44" fill="#2B2F36"/><text x="140" y="1201" font-family="Malgun Gothic, 맑은 고딕, sans-serif" font-weight="bold" font-size="50" fill="#FFD23F" text-anchor="middle">6</text><text x="220" y="1203" font-family="Malgun Gothic, 맑은 고딕, sans-serif" font-weight="bold" font-size="48" fill="#2B2F36" text-anchor="start">보관온도 (냉장5℃·냉동-18℃)</text><rect x="0" y="1270" width="1080" height="80" fill="#E8EEF5"/><text x="60" y="1322" font-family="Malgun Gothic, 맑은 고딕, sans-serif" font-weight="normal" font-size="32" fill="#5B6B7C" text-anchor="start">출처: 식약처 식중독 예방 6대 수칙</text></svg>