<svg xmlns="http://www.w3.org/2000/svg" width="1080" height="1080" viewBox="0 0 1080 1080">
<rect x="0" y="0" width="1080" height="1080" rx="0" fill="#E0556E"/>
<circle cx="950" cy="175" r="270" fill="#E66B81" opacity="1.0"/>
<circle cx="120" cy="980" r="210" fill="#D44C66" opacity="1.0"/>
<rect x="80" y="86" width="295.4" height="64" rx="32.0" fill="#FFD23F"/><text x="227.7" y="130.96" font-family="Noto Sans CJK KR" font-weight="bold" font-size="36" fill="#1A1A1A" text-anchor="middle">여름휴가 꿀팁</text>
<text x="80" y="272" font-family="Noto Sans CJK KR" font-weight="bold" font-size="56" fill="#FFE3EA" text-anchor="start">2026 여름 휴가비, 이렇게 아낀다</text>
<text x="80" y="400" font-family="Noto Sans CJK KR" font-weight="bold" font-size="96" fill="#FFFFFF" text-anchor="start">정부·공공 할인</text>
<text x="80" y="540" font-family="Noto Sans CJK KR" font-weight="bold" font-size="116" fill="#FFD23F" text-anchor="start">4가지 총정리</text>
<rect x="80" y="615" width="445" height="150" rx="24" fill="#FFFFFF"/>
<rect x="80" y="615" width="18" height="150" rx="0" fill="#FFD23F"/>
<text x="124" y="673" font-family="Noto Sans CJK KR" font-weight="bold" font-size="36" fill="#5B6B7C" text-anchor="start">휴가샵 적립</text>
<text x="124" y="733" font-family="Noto Sans CJK KR" font-weight="bold" font-size="50" fill="#B83C56" text-anchor="start">최대 40만 원</text>
<rect x="555" y="615" width="445" height="150" rx="24" fill="#FFFFFF"/>
<rect x="555" y="615" width="18" height="150" rx="0" fill="#FFD23F"/>
<text x="599" y="673" font-family="Noto Sans CJK KR" font-weight="bold" font-size="36" fill="#5B6B7C" text-anchor="start">숙박세일페스타</text>
<text x="599" y="733" font-family="Noto Sans CJK KR" font-weight="bold" font-size="50" fill="#B83C56" text-anchor="start">최대 7만 원</text>
<rect x="80" y="795" width="445" height="150" rx="24" fill="#FFFFFF"/>
<rect x="80" y="795" width="18" height="150" rx="0" fill="#FFD23F"/>
<text x="124" y="853" font-family="Noto Sans CJK KR" font-weight="bold" font-size="36" fill="#5B6B7C" text-anchor="start">반값여행</text>
<text x="124" y="913" font-family="Noto Sans CJK KR" font-weight="bold" font-size="50" fill="#B83C56" text-anchor="start">50% 환급</text>
<rect x="555" y="795" width="445" height="150" rx="24" fill="#FFFFFF"/>
<rect x="555" y="795" width="18" height="150" rx="0" fill="#FFD23F"/>
<text x="599" y="853" font-family="Noto Sans CJK KR" font-weight="bold" font-size="36" fill="#5B6B7C" text-anchor="start">관광주민증</text>
<text x="599" y="913" font-family="Noto Sans CJK KR" font-weight="bold" font-size="50" fill="#B83C56" text-anchor="start">무료 발급</text>
<text x="80" y="1038" font-family="Noto Sans CJK KR" font-weight="normal" font-size="32" fill="#FFE3EA" text-anchor="start">blog.naver.com/trip_chocho</text>
</svg>
