<svg xmlns="http://www.w3.org/2000/svg" width="1080" height="720" viewBox="0 0 1080 720">
<rect x="0" y="0" width="1080" height="720" rx="0" fill="#FFF5F7"/>
<rect x="0" y="0" width="1080" height="170" rx="0" fill="#E0556E"/>
<rect x="60" y="28" width="162.39999999999998" height="56" rx="28.0" fill="#FFD23F"/><text x="141.2" y="66.08" font-family="Noto Sans CJK KR" font-weight="bold" font-size="28" fill="#1A1A1A" text-anchor="middle">반값여행</text>
<text x="60" y="145" font-family="Noto Sans CJK KR" font-weight="bold" font-size="46" fill="#FFFFFF" text-anchor="start">선지급 아님! 신청 흐름 3단계</text>
<rect x="60" y="230" width="300" height="280" rx="24" fill="#FFFFFF" stroke="#F2C6D0" stroke-width="2"/>
<rect x="60" y="230" width="300" height="78" rx="24" fill="#E0556E"/>
<rect x="60" y="286" width="300" height="22" rx="0" fill="#E0556E"/>
<text x="210.0" y="282" font-family="Noto Sans CJK KR" font-weight="bold" font-size="34" fill="#FFD23F" text-anchor="middle">STEP 1</text>
<text x="210.0" y="372" font-family="Noto Sans CJK KR" font-weight="bold" font-size="44" fill="#B83C56" text-anchor="middle">여행 전</text>
<text x="210.0" y="434" font-family="Noto Sans CJK KR" font-weight="normal" font-size="32" fill="#1A1A1A" text-anchor="middle">지자체에 여행계획</text>
<text x="210.0" y="480" font-family="Noto Sans CJK KR" font-weight="normal" font-size="32" fill="#1A1A1A" text-anchor="middle">승인 신청</text>
<text x="375.0" y="390.0" font-family="Noto Sans CJK KR" font-weight="bold" font-size="56" fill="#E0556E" text-anchor="middle">→</text>
<rect x="390" y="230" width="300" height="280" rx="24" fill="#FFFFFF" stroke="#F2C6D0" stroke-width="2"/>
<rect x="390" y="230" width="300" height="78" rx="24" fill="#E0556E"/>
<rect x="390" y="286" width="300" height="22" rx="0" fill="#E0556E"/>
<text x="540.0" y="282" font-family="Noto Sans CJK KR" font-weight="bold" font-size="34" fill="#FFD23F" text-anchor="middle">STEP 2</text>
<text x="540.0" y="372" font-family="Noto Sans CJK KR" font-weight="bold" font-size="44" fill="#B83C56" text-anchor="middle">여행 후</text>
<text x="540.0" y="434" font-family="Noto Sans CJK KR" font-weight="normal" font-size="32" fill="#1A1A1A" text-anchor="middle">영수증·방문 인증</text>
<text x="540.0" y="480" font-family="Noto Sans CJK KR" font-weight="normal" font-size="32" fill="#1A1A1A" text-anchor="middle">증빙 제출</text>
<text x="705.0" y="390.0" font-family="Noto Sans CJK KR" font-weight="bold" font-size="56" fill="#E0556E" text-anchor="middle">→</text>
<rect x="720" y="230" width="300" height="280" rx="24" fill="#FFFFFF" stroke="#F2C6D0" stroke-width="2"/>
<rect x="720" y="230" width="300" height="78" rx="24" fill="#E0556E"/>
<rect x="720" y="286" width="300" height="22" rx="0" fill="#E0556E"/>
<text x="870.0" y="282" font-family="Noto Sans CJK KR" font-weight="bold" font-size="34" fill="#FFD23F" text-anchor="middle">STEP 3</text>
<text x="870.0" y="372" font-family="Noto Sans CJK KR" font-weight="bold" font-size="44" fill="#B83C56" text-anchor="middle">사후 환급</text>
<text x="870.0" y="434" font-family="Noto Sans CJK KR" font-weight="normal" font-size="32" fill="#1A1A1A" text-anchor="middle">지역사랑상품권</text>
<text x="870.0" y="480" font-family="Noto Sans CJK KR" font-weight="normal" font-size="32" fill="#1A1A1A" text-anchor="middle">으로 환급</text>
<rect x="60" y="560" width="960" height="80" rx="18" fill="#FFF0D6"/>
<text x="90" y="612" font-family="Noto Sans CJK KR" font-weight="bold" font-size="32" fill="#B83C56" text-anchor="start">환급률 50% · 1인 최대 10만 원 (단체·청년 우대는 지역·차수별 상이)</text>
<rect x="0" y="650" width="1080" height="70" rx="0" fill="#E8EEF5"/><text x="60" y="690" font-family="Noto Sans CJK KR" font-weight="normal" font-size="30" fill="#5B6B7C" text-anchor="start">출처: 한국관광공사 · 각 지자체 안내</text>
</svg>
