<svg xmlns="http://www.w3.org/2000/svg" width="1080" height="780" viewBox="0 0 1080 780">
<rect x="0" y="0" width="1080" height="780" rx="0" fill="#FFF5F7"/>
<rect x="0" y="0" width="1080" height="170" rx="0" fill="#E0556E"/>
<rect x="60" y="28" width="189.0" height="56" rx="28.0" fill="#FFD23F"/><text x="154.5" y="66.08" font-family="Noto Sans CJK KR" font-weight="bold" font-size="28" fill="#1A1A1A" text-anchor="middle">예약 꿀팁</text>
<text x="60" y="145" font-family="Noto Sans CJK KR" font-weight="bold" font-size="46" fill="#FFFFFF" text-anchor="start">6월 얼리 휴가 vs 7~8월 극성수기</text>
<text x="255.0" y="234" font-family="Noto Sans CJK KR" font-weight="bold" font-size="38" fill="#3E8C66" text-anchor="middle">6월 얼리 휴가</text>
<rect x="150.0" y="252" width="210" height="52" rx="14" fill="#E6F4EC"/>
<text x="255.0" y="288" font-family="Noto Sans CJK KR" font-weight="bold" font-size="28" fill="#3E8C66" text-anchor="middle">부담 낮음</text>
<rect x="120" y="450.8" width="110" height="109.2" rx="10" fill="#7AC29A"/>
<text x="175.0" y="604" font-family="Noto Sans CJK KR" font-weight="normal" font-size="28" fill="#5B6B7C" text-anchor="middle">숙박비</text>
<rect x="280" y="430.0" width="110" height="130.0" rx="10" fill="#7AC29A"/>
<text x="335.0" y="604" font-family="Noto Sans CJK KR" font-weight="normal" font-size="28" fill="#5B6B7C" text-anchor="middle">교통비</text>
<text x="735.0" y="234" font-family="Noto Sans CJK KR" font-weight="bold" font-size="38" fill="#E0556E" text-anchor="middle">7~8월 극성수기</text>
<rect x="630.0" y="252" width="210" height="52" rx="14" fill="#FFE3EA"/>
<text x="735.0" y="288" font-family="Noto Sans CJK KR" font-weight="bold" font-size="28" fill="#B83C56" text-anchor="middle">부담 높음</text>
<rect x="600" y="320.79999999999995" width="110" height="239.20000000000002" rx="10" fill="#E0556E"/>
<text x="655.0" y="604" font-family="Noto Sans CJK KR" font-weight="normal" font-size="28" fill="#5B6B7C" text-anchor="middle">숙박비</text>
<rect x="760" y="346.8" width="110" height="213.2" rx="10" fill="#E0556E"/>
<text x="815.0" y="604" font-family="Noto Sans CJK KR" font-weight="normal" font-size="28" fill="#5B6B7C" text-anchor="middle">교통비</text>
<line x1="90" y1="560" x2="990" y2="560" stroke="#D6E0EC" stroke-width="3" stroke-linecap="round"/>
<text x="60" y="700" font-family="Noto Sans CJK KR" font-weight="normal" font-size="28" fill="#5B6B7C" text-anchor="start">※ 상대 비교 도식 · 7~8월은 극성수기로 숙박·교통비 부담이 큽니다</text>
</svg>
