<svg xmlns="http://www.w3.org/2000/svg" width="1080" height="720" viewBox="0 0 1080 720">
  <rect width="1080" height="720" fill="#F4F9F6"/>
  <rect width="1080" height="170" fill="#1F8A53"/>
  <rect x="60" y="64" width="10" height="46" rx="5" fill="#FFD23F"/>
  <text x="92" y="118" font-family="Malgun Gothic" font-weight="bold" font-size="58" fill="#ffffff">일반과세자 1년 부가세 흐름</text>
  <text x="60" y="232" font-family="Malgun Gothic" font-size="34" fill="#5B6B62">예정고지 납부와 확정신고가 번갈아 돌아갑니다</text>

    <rect x="75" y="310" width="210" height="200" rx="20" fill="#FFFFFF" stroke="#CFE3D7" stroke-width="3"/>
  <text x="180" y="356" font-family="Malgun Gothic" font-weight="bold" font-size="34" fill="#176B40" text-anchor="middle">4월</text>
  <text x="180" y="412" font-family="Malgun Gothic" font-weight="bold" font-size="40" fill="#1A2A22" text-anchor="middle">예정고지</text>
  <text x="180" y="462" font-family="Malgun Gothic" font-size="27" fill="#5B6B62" text-anchor="middle">납부</text>
    <line x1="290" y1="400" x2="382" y2="400" stroke="#1F8A53" stroke-width="6"/>
  <polygon points="382,388 400,400 382,412" fill="#1F8A53"/>
    <rect x="405" y="310" width="210" height="200" rx="20" fill="#FFD23F" stroke="#1F8A53" stroke-width="3"/>
  <text x="510" y="356" font-family="Malgun Gothic" font-weight="bold" font-size="34" fill="#176B40" text-anchor="middle">7월</text>
  <text x="510" y="412" font-family="Malgun Gothic" font-weight="bold" font-size="40" fill="#1A2A22" text-anchor="middle">제1기</text>
  <text x="510" y="462" font-family="Malgun Gothic" font-size="27" fill="#5B6B62" text-anchor="middle">확정신고</text>
    <line x1="620" y1="400" x2="712" y2="400" stroke="#1F8A53" stroke-width="6"/>
  <polygon points="712,388 730,400 712,412" fill="#1F8A53"/>
    <rect x="735" y="310" width="210" height="200" rx="20" fill="#FFFFFF" stroke="#CFE3D7" stroke-width="3"/>
  <text x="840" y="356" font-family="Malgun Gothic" font-weight="bold" font-size="34" fill="#176B40" text-anchor="middle">10월</text>
  <text x="840" y="412" font-family="Malgun Gothic" font-weight="bold" font-size="40" fill="#1A2A22" text-anchor="middle">예정고지</text>
  <text x="840" y="462" font-family="Malgun Gothic" font-size="27" fill="#5B6B62" text-anchor="middle">납부</text>

  <rect x="345" y="540" width="730" height="92" rx="18" fill="#E8F3EC"/>
  <text x="375" y="598" font-family="Malgun Gothic" font-weight="bold" font-size="36" fill="#176B40">→ 다음해 1월: 제2기 확정신고</text>

  <rect x="0" y="650" width="1080" height="70" fill="#E8F3EC"/>
  <text x="60" y="696" font-family="Malgun Gothic" font-size="30" fill="#5B6B62">blog.naver.com/trip_chocho</text>
</svg>