<svg xmlns="http://www.w3.org/2000/svg" width="1080" height="1160" viewBox="0 0 1080 1160">
<rect x="0" y="0" width="1080" height="1160" rx="0" fill="#F4F1EC"/><rect x="0" y="0" width="1080" height="210" rx="0" fill="#E8722C"/><text x="60" y="118" font-family="Noto Sans CJK KR" font-weight="900" font-size="58" fill="#FFFFFF" text-anchor="start">실내 적정 습도 한눈에</text><text x="60" y="166" font-family="Noto Sans CJK KR" font-weight="600" font-size="34" fill="#FFE7D2" text-anchor="start">사람이 쾌적한 습도 40~60%</text><rect x="80" y="360" width="920" height="150" rx="20" fill="#FFFFFF" stroke="#D9CFC0" stroke-width="2"/><rect x="94" y="374" width="294" height="122" rx="10" fill="#BFD8E8"/><rect x="388" y="374" width="259" height="122" rx="10" fill="#1F8A53"/><rect x="647" y="374" width="143" height="122" rx="10" fill="#F2B23A"/><rect x="790" y="374" width="196" height="122" rx="10" fill="#E23B3B"/><text x="504.32" y="548" font-family="Noto Sans CJK KR" font-weight="800" font-size="40" fill="#1F8A53" text-anchor="middle">40~60% 쾌적</text><text x="887.88" y="548" font-family="Noto Sans CJK KR" font-weight="800" font-size="40" fill="#E23B3B" text-anchor="middle">70%↑ 위험</text><rect x="80" y="600" width="920" height="96" rx="16" fill="#FFFFFF" stroke="#E3DACB" stroke-width="2"/><rect x="80" y="600" width="12" height="96" rx="6" fill="#1F8A53"/><text x="120" y="662" font-family="Noto Sans CJK KR" font-weight="800" font-size="42" fill="#2B2113" text-anchor="start">쾌적 구간</text><text x="980" y="665" font-family="Noto Sans CJK KR" font-weight="600" font-size="36" fill="#5B6B7C" text-anchor="end">온도 12~22℃ · 습도 40~60%</text><rect x="80" y="712" width="920" height="96" rx="16" fill="#FFFFFF" stroke="#E3DACB" stroke-width="2"/><rect x="80" y="712" width="12" height="96" rx="6" fill="#E23B3B"/><text x="120" y="774" font-family="Noto Sans CJK KR" font-weight="800" font-size="42" fill="#2B2113" text-anchor="start">70% 이상 장시간</text><text x="980" y="777" font-family="Noto Sans CJK KR" font-weight="600" font-size="36" fill="#5B6B7C" text-anchor="end">곰팡이 발생 가능성 급증</text><rect x="80" y="824" width="920" height="96" rx="16" fill="#FFFFFF" stroke="#E3DACB" stroke-width="2"/><rect x="80" y="824" width="12" height="96" rx="6" fill="#E23B3B"/><text x="120" y="886" font-family="Noto Sans CJK KR" font-weight="800" font-size="42" fill="#2B2113" text-anchor="start">집먼지진드기</text><text x="980" y="889" font-family="Noto Sans CJK KR" font-weight="600" font-size="36" fill="#5B6B7C" text-anchor="end">온도 25℃·습도 70%↑ 선호</text><rect x="80" y="936" width="920" height="96" rx="16" fill="#FFFFFF" stroke="#E3DACB" stroke-width="2"/><rect x="80" y="936" width="12" height="96" rx="6" fill="#E8722C"/><text x="120" y="998" font-family="Noto Sans CJK KR" font-weight="800" font-size="42" fill="#2B2113" text-anchor="start">권장 관리</text><text x="980" y="1001" font-family="Noto Sans CJK KR" font-weight="600" font-size="36" fill="#5B6B7C" text-anchor="end">맑은 날 환기 + 비 오는 날 제습</text><rect x="0" y="1080" width="1080" height="80" rx="0" fill="#E8EEF5"/><text x="60" y="1124" font-family="Noto Sans CJK KR" font-weight="600" font-size="32" fill="#5B6B7C" text-anchor="start">출처: 본문 정리(쾌적 습도·곰팡이/진드기 기준)</text>
</svg>
