<svg xmlns="http://www.w3.org/2000/svg" width="1080" height="880" viewBox="0 0 1080 880">
<rect x="0" y="0" width="1080" height="880" rx="0" fill="#F4F1EC"/><rect x="0" y="0" width="1080" height="210" rx="0" fill="#E8722C"/><text x="60" y="118" font-family="Noto Sans CJK KR" font-weight="900" font-size="58" fill="#FFFFFF" text-anchor="start">에어컨 제습 모드 활용법</text><text x="60" y="166" font-family="Noto Sans CJK KR" font-weight="600" font-size="34" fill="#FFE7D2" text-anchor="start">냉방보다 전력 적게 · 습도만 쏙</text><rect x="80" y="270" width="920" height="108" rx="18" fill="#FFFFFF" stroke="#E3DACB" stroke-width="2"/><circle cx="128" cy="324" r="16" fill="#E8722C"/><text x="170" y="342" font-family="Noto Sans CJK KR" font-weight="800" font-size="40" fill="#2B2113" text-anchor="start">설정 온도</text><text x="980" y="342" font-family="Noto Sans CJK KR" font-weight="600" font-size="36" fill="#5B6B7C" text-anchor="end">26℃ 면 충분 (권장 26~28℃)</text><rect x="80" y="396" width="920" height="108" rx="18" fill="#FFFFFF" stroke="#E3DACB" stroke-width="2"/><circle cx="128" cy="450" r="16" fill="#E8722C"/><text x="170" y="468" font-family="Noto Sans CJK KR" font-weight="800" font-size="40" fill="#2B2113" text-anchor="start">가동 타이밍</text><text x="980" y="468" font-family="Noto Sans CJK KR" font-weight="600" font-size="36" fill="#5B6B7C" text-anchor="end">창문 환기 후 1~2시간</text><rect x="80" y="522" width="920" height="108" rx="18" fill="#FFFFFF" stroke="#E3DACB" stroke-width="2"/><circle cx="128" cy="576" r="16" fill="#E8722C"/><text x="170" y="594" font-family="Noto Sans CJK KR" font-weight="800" font-size="40" fill="#2B2113" text-anchor="start">같이 쓰면 좋은 것</text><text x="980" y="594" font-family="Noto Sans CJK KR" font-weight="600" font-size="36" fill="#5B6B7C" text-anchor="end">선풍기 병행 → 전력 절약</text><rect x="80" y="648" width="920" height="108" rx="18" fill="#FFFFFF" stroke="#E3DACB" stroke-width="2"/><circle cx="128" cy="702" r="16" fill="#E8722C"/><text x="170" y="720" font-family="Noto Sans CJK KR" font-weight="800" font-size="40" fill="#2B2113" text-anchor="start">필터 관리</text><text x="980" y="720" font-family="Noto Sans CJK KR" font-weight="600" font-size="36" fill="#5B6B7C" text-anchor="end">2주마다 청소 · 배수관 점검</text><rect x="0" y="800" width="1080" height="80" rx="0" fill="#E8EEF5"/><text x="60" y="844" font-family="Noto Sans CJK KR" font-weight="600" font-size="32" fill="#5B6B7C" text-anchor="start">출처: 본문 정리(에어컨 제습 활용)</text>
</svg>
