<svg xmlns="http://www.w3.org/2000/svg" width="1080" height="1160" viewBox="0 0 1080 1160">
<rect x="0" y="0" width="1080" height="1160" rx="0" fill="#F4F1EC"/><rect x="0" y="0" width="1080" height="210" rx="0" fill="#E8722C"/><text x="60" y="118" font-family="Noto Sans CJK KR" font-weight="900" font-size="58" fill="#FFFFFF" text-anchor="start">욕실세정제, 비싼 게 정답?</text><text x="60" y="166" font-family="Noto Sans CJK KR" font-weight="600" font-size="34" fill="#FFE7D2" text-anchor="start">한국소비자원 8개 제품 시험</text><rect x="80" y="300" width="440" height="220" rx="24" fill="#FFFFFF" stroke="#E3DACB" stroke-width="2"/><text x="300" y="376" font-family="Noto Sans CJK KR" font-weight="700" font-size="34" fill="#5B6B7C" text-anchor="middle">항곰팡이 완전 사멸</text><text x="300" y="462" font-family="Noto Sans CJK KR" font-weight="900" font-size="78" fill="#1F8A53" text-anchor="middle">6개</text><rect x="560" y="300" width="440" height="220" rx="24" fill="#FFFFFF" stroke="#E3DACB" stroke-width="2"/><text x="780" y="376" font-family="Noto Sans CJK KR" font-weight="700" font-size="34" fill="#5B6B7C" text-anchor="middle">가격 차이 (최대)</text><text x="780" y="462" font-family="Noto Sans CJK KR" font-weight="900" font-size="78" fill="#E23B3B" text-anchor="middle">16.7배</text><rect x="80" y="580" width="920" height="108" rx="16" fill="#FFFFFF" stroke="#E3DACB" stroke-width="2"/><rect x="80" y="580" width="12" height="108" rx="6" fill="#E8722C"/><text x="120" y="652" font-family="Noto Sans CJK KR" font-weight="800" font-size="40" fill="#2B2113" text-anchor="start">100mL당 가격</text><text x="980" y="652" font-family="Noto Sans CJK KR" font-weight="600" font-size="34" fill="#5B6B7C" text-anchor="end">최저 217원 ~ 최고 3,633원</text><rect x="80" y="706" width="920" height="108" rx="16" fill="#FFFFFF" stroke="#E3DACB" stroke-width="2"/><rect x="80" y="706" width="12" height="108" rx="6" fill="#E8722C"/><text x="120" y="778" font-family="Noto Sans CJK KR" font-weight="800" font-size="40" fill="#2B2113" text-anchor="start">세척 성능</text><text x="980" y="778" font-family="Noto Sans CJK KR" font-weight="600" font-size="34" fill="#5B6B7C" text-anchor="end">6개 양호 · 우수 제품 없음</text><rect x="80" y="832" width="920" height="108" rx="16" fill="#FFFFFF" stroke="#E3DACB" stroke-width="2"/><rect x="80" y="832" width="12" height="108" rx="6" fill="#E8722C"/><text x="120" y="904" font-family="Noto Sans CJK KR" font-weight="800" font-size="40" fill="#2B2113" text-anchor="start">구매 팁</text><text x="980" y="904" font-family="Noto Sans CJK KR" font-weight="600" font-size="34" fill="#5B6B7C" text-anchor="end">환경부 안전기준 확인 마크 체크</text><rect x="80" y="964" width="920" height="86" rx="16" fill="#FBE9DB"/><text x="540" y="1020" font-family="Noto Sans CJK KR" font-weight="800" font-size="38" fill="#C85D1C" text-anchor="middle">비싼 제품이 꼭 성능 좋은 건 아니에요</text><rect x="0" y="1080" width="1080" height="80" rx="0" fill="#E8EEF5"/><text x="60" y="1124" font-family="Noto Sans CJK KR" font-weight="600" font-size="32" fill="#5B6B7C" text-anchor="start">출처: 한국소비자원 욕실세정제 시험</text>
</svg>
