<svg xmlns="http://www.w3.org/2000/svg" width="1080" height="1080" viewBox="0 0 1080 1080">
<rect x="0" y="0" width="1080" height="1080" rx="0" fill="#2B2113"/><rect x="0" y="0" width="1080" height="210" rx="0" fill="#E23B3B"/><text x="540" y="128" font-family="Noto Sans CJK KR" font-weight="900" font-size="62" fill="#FFFFFF" text-anchor="middle">절대 섞지 마세요</text><rect x="195" y="420" width="190" height="220" rx="26" fill="#7FB5D6"/><rect x="255" y="360" width="70" height="72" rx="10" fill="#7FB5D6"/><rect x="220" y="470" width="140" height="90" rx="10" fill="#FFFFFF"/><text x="290" y="512" font-family="Noto Sans CJK KR" font-weight="900" font-size="40" fill="#2B2113" text-anchor="middle">락스</text><rect x="695" y="420" width="190" height="220" rx="26" fill="#E6C84B"/><rect x="755" y="360" width="70" height="72" rx="10" fill="#E6C84B"/><rect x="720" y="470" width="140" height="90" rx="10" fill="#FFFFFF"/><text x="790" y="512" font-family="Noto Sans CJK KR" font-weight="900" font-size="40" fill="#2B2113" text-anchor="middle">식초</text><text x="540" y="500" font-family="Noto Sans CJK KR" font-weight="900" font-size="90" fill="#FFFFFF" text-anchor="middle">+</text><circle cx="540" cy="520" r="150" fill="none" stroke="#E23B3B" stroke-width="18"/><line x1="440" y1="420" x2="640" y2="620" stroke="#E23B3B" stroke-width="18"/><rect x="70" y="720" width="940" height="220" rx="24" fill="#3a2e1c"/><text x="540" y="810" font-family="Noto Sans CJK KR" font-weight="900" font-size="58" fill="#FFD23F" text-anchor="middle">염소가스 발생 위험</text><text x="540" y="884" font-family="Noto Sans CJK KR" font-weight="600" font-size="36" fill="#FFFFFF" text-anchor="middle">락스 + 식초·구연산 등 산성 세정제를</text><text x="540" y="930" font-family="Noto Sans CJK KR" font-weight="600" font-size="36" fill="#FFFFFF" text-anchor="middle">함께 쓰면 인체에 치명적입니다</text><text x="540" y="1010" font-family="Noto Sans CJK KR" font-weight="700" font-size="34" fill="#FFE7D2" text-anchor="middle">장갑·마스크 착용 · 환기 유지</text>
</svg>
