<svg xmlns="http://www.w3.org/2000/svg" width="1080" height="1080" viewBox="0 0 1080 1080">
<rect x="0" y="0" width="1080" height="1080" rx="0" fill="#F4F1EC"/><rect x="0" y="0" width="1080" height="210" rx="0" fill="#E8722C"/><text x="60" y="118" font-family="Noto Sans CJK KR" font-weight="900" font-size="58" fill="#FFFFFF" text-anchor="start">식중독 예방 6대 수칙</text><text x="60" y="166" font-family="Noto Sans CJK KR" font-weight="600" font-size="34" fill="#FFE7D2" text-anchor="start">식약처 기준</text><rect x="80" y="290" width="460" height="200" rx="20" fill="#FFFFFF" stroke="#E3DACB" stroke-width="2"/><circle cx="150" cy="360" r="42" fill="#E8722C"/><text x="150" y="374" font-family="Noto Sans CJK KR" font-weight="900" font-size="44" fill="#FFFFFF" text-anchor="middle">1</text><text x="215" y="340" font-family="Noto Sans CJK KR" font-weight="900" font-size="42" fill="#2B2113" text-anchor="start">손 씻기</text><text x="215" y="402" font-family="Noto Sans CJK KR" font-weight="600" font-size="30" fill="#5B6B7C" text-anchor="start">흐르는 물·비누 30초 이상</text><rect x="560" y="290" width="460" height="200" rx="20" fill="#FFFFFF" stroke="#E3DACB" stroke-width="2"/><circle cx="630" cy="360" r="42" fill="#E8722C"/><text x="630" y="374" font-family="Noto Sans CJK KR" font-weight="900" font-size="44" fill="#FFFFFF" text-anchor="middle">2</text><text x="695" y="340" font-family="Noto Sans CJK KR" font-weight="900" font-size="42" fill="#2B2113" text-anchor="start">구분 사용</text><text x="695" y="402" font-family="Noto Sans CJK KR" font-weight="600" font-size="30" fill="#5B6B7C" text-anchor="start">칼·도마 / 날·조리 구분</text><rect x="80" y="514" width="460" height="200" rx="20" fill="#FFFFFF" stroke="#E3DACB" stroke-width="2"/><circle cx="150" cy="584" r="42" fill="#E8722C"/><text x="150" y="598" font-family="Noto Sans CJK KR" font-weight="900" font-size="44" fill="#FFFFFF" text-anchor="middle">3</text><text x="215" y="564" font-family="Noto Sans CJK KR" font-weight="900" font-size="42" fill="#2B2113" text-anchor="start">익혀 먹기</text><text x="215" y="626" font-family="Noto Sans CJK KR" font-weight="600" font-size="30" fill="#5B6B7C" text-anchor="start">육류 75℃·어패류 85℃</text><rect x="560" y="514" width="460" height="200" rx="20" fill="#FFFFFF" stroke="#E3DACB" stroke-width="2"/><circle cx="630" cy="584" r="42" fill="#E8722C"/><text x="630" y="598" font-family="Noto Sans CJK KR" font-weight="900" font-size="44" fill="#FFFFFF" text-anchor="middle">4</text><text x="695" y="564" font-family="Noto Sans CJK KR" font-weight="900" font-size="42" fill="#2B2113" text-anchor="start">세척·소독</text><text x="695" y="626" font-family="Noto Sans CJK KR" font-weight="600" font-size="30" fill="#5B6B7C" text-anchor="start">식재료·기구 깨끗이</text><rect x="80" y="738" width="460" height="200" rx="20" fill="#FFFFFF" stroke="#E3DACB" stroke-width="2"/><circle cx="150" cy="808" r="42" fill="#E8722C"/><text x="150" y="822" font-family="Noto Sans CJK KR" font-weight="900" font-size="44" fill="#FFFFFF" text-anchor="middle">5</text><text x="215" y="788" font-family="Noto Sans CJK KR" font-weight="900" font-size="42" fill="#2B2113" text-anchor="start">끓여 먹기</text><text x="215" y="850" font-family="Noto Sans CJK KR" font-weight="600" font-size="30" fill="#5B6B7C" text-anchor="start">물은 끓여서</text><rect x="560" y="738" width="460" height="200" rx="20" fill="#FFFFFF" stroke="#E3DACB" stroke-width="2"/><circle cx="630" cy="808" r="42" fill="#E8722C"/><text x="630" y="822" font-family="Noto Sans CJK KR" font-weight="900" font-size="44" fill="#FFFFFF" text-anchor="middle">6</text><text x="695" y="788" font-family="Noto Sans CJK KR" font-weight="900" font-size="42" fill="#2B2113" text-anchor="start">보관온도</text><text x="695" y="850" font-family="Noto Sans CJK KR" font-weight="600" font-size="30" fill="#5B6B7C" text-anchor="start">냉장 5℃·냉동 -18℃ 이하</text><rect x="0" y="1000" width="1080" height="80" rx="0" fill="#E8EEF5"/><text x="60" y="1044" font-family="Noto Sans CJK KR" font-weight="600" font-size="32" fill="#5B6B7C" text-anchor="start">출처: 식품의약품안전처(식약처)</text>
</svg>
