<svg xmlns="http://www.w3.org/2000/svg" width="1080" height="1080" viewBox="0 0 1080 1080">
  <defs>
    <linearGradient id="bg" x1="0" y1="0" x2="0" y2="1">
      <stop offset="0" stop-color="#EF8236"/>
      <stop offset="1" stop-color="#D9631E"/>
    </linearGradient>
  </defs>
  <rect width="1080" height="1080" fill="url(#bg)"/>

  <!-- 장식 물방울 -->
  <circle cx="945" cy="200" r="250" fill="#ffffff" opacity="0.08"/>
  <circle cx="130" cy="960" r="200" fill="#ffffff" opacity="0.06"/>
  <path d="M905 660 C905 610 955 585 955 585 C955 585 1005 610 1005 660 A50 50 0 1 1 905 660 Z" fill="#ffffff" opacity="0.10"/>
  <path d="M120 300 C120 262 158 243 158 243 C158 243 196 262 196 300 A38 38 0 1 1 120 300 Z" fill="#ffffff" opacity="0.10"/>

  <!-- 카테고리 뱃지 -->
  <rect x="80" y="88" rx="34" ry="34" width="200" height="68" fill="#FFD23F"/>
  <text x="180" y="134" font-family="Noto Sans KR, Malgun Gothic, sans-serif" font-weight="bold"
        font-size="36" fill="#7A3B0E" text-anchor="middle">생활꿀팁</text>
  <text x="300" y="134" font-family="Noto Sans KR, Malgun Gothic, sans-serif" font-weight="bold"
        font-size="34" fill="#FFE8CF">2026 장마·여름</text>

  <!-- 서브 카피 -->
  <text x="80" y="330" font-family="Noto Sans KR, Malgun Gothic, sans-serif" font-weight="bold"
        font-size="58" fill="#FFE8CF">사놓고 후회 안 하는</text>

  <!-- 메인 카피 -->
  <text x="80" y="470" font-family="Noto Sans KR, Malgun Gothic, sans-serif" font-weight="bold"
        font-size="128" fill="#ffffff">제습기 추천</text>
  <text x="80" y="618" font-family="Noto Sans KR, Malgun Gothic, sans-serif" font-weight="bold"
        font-size="128" fill="#FFD23F">BEST 5</text>

  <!-- 핵심 기준 알약 3개 -->
  <g font-family="Noto Sans KR, Malgun Gothic, sans-serif" font-weight="bold" font-size="40">
    <rect x="80" y="690" rx="24" width="300" height="76" fill="#ffffff" opacity="0.16"/>
    <text x="230" y="742" fill="#ffffff" text-anchor="middle">실평수 × 용량</text>
    <rect x="400" y="690" rx="24" width="230" height="76" fill="#ffffff" opacity="0.16"/>
    <text x="515" y="742" fill="#ffffff" text-anchor="middle">방식·전기료</text>
    <rect x="650" y="690" rx="24" width="200" height="76" fill="#ffffff" opacity="0.16"/>
    <text x="750" y="742" fill="#ffffff" text-anchor="middle">소음·배수</text>
  </g>

  <!-- 디테일 띠 -->
  <rect x="80" y="812" rx="20" ry="20" width="920" height="118" fill="#ffffff" opacity="0.14"/>
  <text x="112" y="888" font-family="Noto Sans KR, Malgun Gothic, sans-serif" font-weight="bold"
        font-size="46" fill="#ffffff">실평수별 고르는 법 · 검증된 수치만 정리</text>

  <!-- 채널 표시 -->
  <text x="80" y="1008" font-family="Noto Sans KR, Malgun Gothic, sans-serif" font-weight="normal"
        font-size="34" fill="#FFE8CF" opacity="0.9">blog.naver.com/trip_chocho</text>
</svg>
