<svg xmlns="http://www.w3.org/2000/svg" width="1080" height="1350" viewBox="0 0 1080 1350">
<rect width="1080" height="1350" fill="#FBF1F3"/>
<rect width="1080" height="200" fill="#E0556E"/><rect x="60" y="52" rx="34" ry="34" width="300" height="68" fill="#FFD23F"/><text x="210.0" y="98" font-family="Noto Sans CJK KR" font-weight="bold" font-size="36" fill="#1a1a1a" text-anchor="middle">가정의달·시즌</text><text x="60" y="168" font-family="Noto Sans CJK KR" font-weight="bold" font-size="58" fill="#ffffff">보령머드축제 체험존</text>
<text x="60" y="262" font-family="Noto Sans CJK KR" font-weight="bold" font-size="40" fill="#B23A52">7/24(금)~8/9(일) · 대천해수욕장</text>
<rect x="50" y="300" width="980" height="150" rx="16" fill="#ffffff" stroke="#E6D0D6"/><rect x="50" y="300" width="14" height="150" rx="7" fill="#E0556E"/><text x="92" y="362" font-family="Noto Sans CJK KR" font-weight="bold" font-size="44" fill="#B23A52">일반존</text><text x="92" y="418" font-family="Noto Sans CJK KR" font-size="34" fill="#4a4a4a">머드 슬라이드·풀 등 기본 체험</text><rect x="50" y="470" width="980" height="150" rx="16" fill="#ffffff" stroke="#E6D0D6"/><rect x="50" y="470" width="14" height="150" rx="7" fill="#E0556E"/><text x="92" y="532" font-family="Noto Sans CJK KR" font-weight="bold" font-size="44" fill="#B23A52">패밀리존(키즈존)</text><text x="92" y="588" font-family="Noto Sans CJK KR" font-size="34" fill="#4a4a4a">아이 동반 가족 중심존</text><rect x="50" y="640" width="980" height="150" rx="16" fill="#ffffff" stroke="#E6D0D6"/><rect x="50" y="640" width="14" height="150" rx="7" fill="#E0556E"/><text x="92" y="702" font-family="Noto Sans CJK KR" font-weight="bold" font-size="44" fill="#B23A52">워터파크존</text><text x="92" y="758" font-family="Noto Sans CJK KR" font-size="34" fill="#4a4a4a">물놀이 시설</text><rect x="50" y="810" width="980" height="150" rx="16" fill="#ffffff" stroke="#E6D0D6"/><rect x="50" y="810" width="14" height="150" rx="7" fill="#E0556E"/><text x="92" y="872" font-family="Noto Sans CJK KR" font-weight="bold" font-size="44" fill="#B23A52">머드캐스크존</text><text x="92" y="928" font-family="Noto Sans CJK KR" font-size="34" fill="#4a4a4a">머드 체험 광장</text><rect x="50" y="980" width="980" height="150" rx="16" fill="#ffffff" stroke="#E6D0D6"/><rect x="50" y="980" width="14" height="150" rx="7" fill="#E0556E"/><text x="92" y="1042" font-family="Noto Sans CJK KR" font-weight="bold" font-size="44" fill="#B23A52">반려견존(멍!드존)</text><text x="92" y="1098" font-family="Noto Sans CJK KR" font-size="34" fill="#4a4a4a">반려견 동반</text>
<rect x="0" y="1270" width="1080" height="80" fill="#E8EEF5"/><text x="60" y="1322" font-family="Noto Sans CJK KR" font-size="32" fill="#5B6B7C">출처: 보령머드축제 공식 홈페이지</text>
</svg>