<svg xmlns="http://www.w3.org/2000/svg" width="1080" height="1350" viewBox="0 0 1080 1350">
<rect width="1080" height="1350" fill="#FBF1F3"/>
<rect width="1080" height="200" fill="#E0556E"/><rect x="60" y="52" rx="34" ry="34" width="300" height="68" fill="#FFD23F"/><text x="210.0" y="98" font-family="Noto Sans CJK KR" font-weight="bold" font-size="36" fill="#1a1a1a" text-anchor="middle">가정의달·시즌</text><text x="60" y="168" font-family="Noto Sans CJK KR" font-weight="bold" font-size="58" fill="#ffffff">보령 입장료 (얼리버드)</text>
<rect x="50" y="300" width="980" height="134" rx="14" fill="#E0556E" stroke="#E6D0D6"/><text x="80" y="386" font-family="Noto Sans CJK KR" font-weight="bold" font-size="40" fill="#ffffff">구분</text><text x="560" y="386" font-family="Noto Sans CJK KR" font-weight="bold" font-size="40" fill="#ffffff" text-anchor="middle">주중</text><text x="880" y="386" font-family="Noto Sans CJK KR" font-weight="bold" font-size="40" fill="#ffffff" text-anchor="middle">주말</text><rect x="50" y="450" width="980" height="134" rx="14" fill="#ffffff" stroke="#E6D0D6"/><text x="80" y="536" font-family="Noto Sans CJK KR" font-weight="bold" font-size="40" fill="#1a1a1a">일반존 성인</text><text x="560" y="536" font-family="Noto Sans CJK KR" font-weight="bold" font-size="40" fill="#1a1a1a" text-anchor="middle">1만800원</text><text x="880" y="536" font-family="Noto Sans CJK KR" font-weight="bold" font-size="40" fill="#1a1a1a" text-anchor="middle">1만4,400원</text><rect x="50" y="600" width="980" height="134" rx="14" fill="#ffffff" stroke="#E6D0D6"/><text x="80" y="686" font-family="Noto Sans CJK KR" font-weight="bold" font-size="40" fill="#1a1a1a">일반존 청소년</text><text x="560" y="686" font-family="Noto Sans CJK KR" font-weight="bold" font-size="40" fill="#1a1a1a" text-anchor="middle">9,900원</text><text x="880" y="686" font-family="Noto Sans CJK KR" font-weight="bold" font-size="40" fill="#1a1a1a" text-anchor="middle">1만2,600원</text><rect x="50" y="750" width="980" height="134" rx="14" fill="#ffffff" stroke="#E6D0D6"/><text x="80" y="836" font-family="Noto Sans CJK KR" font-weight="bold" font-size="40" fill="#1a1a1a">패밀리존</text><text x="560" y="836" font-family="Noto Sans CJK KR" font-weight="bold" font-size="40" fill="#1a1a1a" text-anchor="middle">9,900원</text><text x="880" y="836" font-family="Noto Sans CJK KR" font-weight="bold" font-size="40" fill="#1a1a1a" text-anchor="middle">1만1,700원</text>
<rect x="50" y="950" width="980" height="150" rx="16" fill="#FFD23F"/>
<text x="80" y="1012" font-family="Noto Sans CJK KR" font-weight="bold" font-size="40" fill="#1a1a1a">얼리버드(10%↓)는 6/15 종료</text>
<text x="80" y="1066" font-family="Noto Sans CJK KR" font-size="34" fill="#3a3a3a">정가·현장가는 더 높음 · 공식 홈페이지 확인</text>
<rect x="0" y="1270" width="1080" height="80" fill="#E8EEF5"/><text x="60" y="1322" font-family="Noto Sans CJK KR" font-size="32" fill="#5B6B7C">출처: 뉴시스 2026-05-26</text>
</svg>