<svg xmlns="http://www.w3.org/2000/svg" width="1080" height="1350" viewBox="0 0 1080 1350">
<rect width="1080" height="1350" fill="#FBF1F3"/>
<rect width="1080" height="200" fill="#E0556E"/><rect x="60" y="52" rx="34" ry="34" width="300" height="68" fill="#FFD23F"/><text x="210.0" y="98" font-family="Noto Sans CJK KR" font-weight="bold" font-size="36" fill="#1a1a1a" text-anchor="middle">가정의달·시즌</text><text x="60" y="168" font-family="Noto Sans CJK KR" font-weight="bold" font-size="58" fill="#ffffff">정남진 장흥 물축제</text>
<text x="60" y="262" font-family="Noto Sans CJK KR" font-weight="bold" font-size="40" fill="#B23A52">7/25(토)~8/2(일) · 장흥 탐진강</text>
<rect x="50" y="300" width="980" height="120" rx="16" fill="#FFD23F"/>
<text x="80" y="376" font-family="Noto Sans CJK KR" font-weight="bold" font-size="46" fill="#1a1a1a">입장 무료 (일부 체험 2,000~7,000원)</text>
<rect x="50" y="470" width="980" height="150" rx="16" fill="#ffffff" stroke="#E6D0D6"/><rect x="50" y="470" width="14" height="150" rx="7" fill="#E0556E"/><text x="92" y="532" font-family="Noto Sans CJK KR" font-weight="bold" font-size="42" fill="#B23A52">살수대첩 거리 퍼레이드</text><text x="92" y="586" font-family="Noto Sans CJK KR" font-size="32" fill="#4a4a4a">온 가족 물 맞으며 즐기는 대표 콘텐츠</text><rect x="50" y="640" width="980" height="150" rx="16" fill="#ffffff" stroke="#E6D0D6"/><rect x="50" y="640" width="14" height="150" rx="7" fill="#E0556E"/><text x="92" y="702" font-family="Noto Sans CJK KR" font-weight="bold" font-size="42" fill="#B23A52">지상 최대의 물싸움</text><text x="92" y="756" font-family="Noto Sans CJK KR" font-size="32" fill="#4a4a4a">참여형 물놀이</text><rect x="50" y="810" width="980" height="150" rx="16" fill="#ffffff" stroke="#E6D0D6"/><rect x="50" y="810" width="14" height="150" rx="7" fill="#E0556E"/><text x="92" y="872" font-family="Noto Sans CJK KR" font-weight="bold" font-size="42" fill="#B23A52">황금물고기 잡기</text><text x="92" y="926" font-family="Noto Sans CJK KR" font-size="32" fill="#4a4a4a">대왕장어 잡기 체험</text><rect x="50" y="980" width="980" height="150" rx="16" fill="#ffffff" stroke="#E6D0D6"/><rect x="50" y="980" width="14" height="150" rx="7" fill="#E0556E"/><text x="92" y="1042" font-family="Noto Sans CJK KR" font-weight="bold" font-size="42" fill="#B23A52">수상 체험</text><text x="92" y="1096" font-family="Noto Sans CJK KR" font-size="32" fill="#4a4a4a">수상자전거·바나나보트·디스코팡팡</text>
<rect x="0" y="1270" width="1080" height="80" fill="#E8EEF5"/><text x="60" y="1322" font-family="Noto Sans CJK KR" font-size="32" fill="#5B6B7C">출처: 한국관광공사 대한민국 구석구석</text>
</svg>