<svg xmlns="http://www.w3.org/2000/svg" width="1080" height="1350" viewBox="0 0 1080 1350">
<rect width="1080" height="1350" fill="#FBF1F3"/>
<rect width="1080" height="200" fill="#E0556E"/><rect x="60" y="52" rx="34" ry="34" width="300" height="68" fill="#FFD23F"/><text x="210.0" y="98" font-family="Noto Sans CJK KR" font-weight="bold" font-size="36" fill="#1a1a1a" text-anchor="middle">가정의달·시즌</text><text x="60" y="168" font-family="Noto Sans CJK KR" font-weight="bold" font-size="58" fill="#ffffff">물축제 준비물 체크</text>
<rect x="50" y="300" width="980" height="138" rx="16" fill="#ffffff" stroke="#E6D0D6"/><circle cx="100" cy="369" r="22" fill="#E0556E"/><text x="100" y="381" font-family="Noto Sans CJK KR" font-weight="bold" font-size="34" fill="#fff" text-anchor="middle">✓</text><text x="150" y="383" font-family="Noto Sans CJK KR" font-weight="bold" font-size="40" fill="#2a2a2a">여벌 옷·수건·방수백</text><rect x="50" y="458" width="980" height="138" rx="16" fill="#ffffff" stroke="#E6D0D6"/><circle cx="100" cy="527" r="22" fill="#E0556E"/><text x="100" y="539" font-family="Noto Sans CJK KR" font-weight="bold" font-size="34" fill="#fff" text-anchor="middle">✓</text><text x="150" y="541" font-family="Noto Sans CJK KR" font-weight="bold" font-size="40" fill="#2a2a2a">아쿠아슈즈·모자·자외선차단제</text><rect x="50" y="616" width="980" height="138" rx="16" fill="#ffffff" stroke="#E6D0D6"/><circle cx="100" cy="685" r="22" fill="#E0556E"/><text x="100" y="697" font-family="Noto Sans CJK KR" font-weight="bold" font-size="34" fill="#fff" text-anchor="middle">✓</text><text x="150" y="699" font-family="Noto Sans CJK KR" font-weight="bold" font-size="40" fill="#2a2a2a">수분 보충 · 낮 시간 그늘 휴식</text><rect x="50" y="774" width="980" height="138" rx="16" fill="#ffffff" stroke="#E6D0D6"/><circle cx="100" cy="843" r="22" fill="#E0556E"/><text x="100" y="855" font-family="Noto Sans CJK KR" font-weight="bold" font-size="34" fill="#fff" text-anchor="middle">✓</text><text x="150" y="857" font-family="Noto Sans CJK KR" font-weight="bold" font-size="40" fill="#2a2a2a">어린이 보호자 동반 (안전 우선)</text><rect x="50" y="932" width="980" height="138" rx="16" fill="#ffffff" stroke="#E6D0D6"/><circle cx="100" cy="1001" r="22" fill="#E0556E"/><text x="100" y="1013" font-family="Noto Sans CJK KR" font-weight="bold" font-size="34" fill="#fff" text-anchor="middle">✓</text><text x="150" y="1015" font-family="Noto Sans CJK KR" font-weight="bold" font-size="40" fill="#2a2a2a">방문 전·당일 날씨 확인 (장마 변수)</text><rect x="50" y="1090" width="980" height="138" rx="16" fill="#ffffff" stroke="#E6D0D6"/><circle cx="100" cy="1159" r="22" fill="#E0556E"/><text x="100" y="1171" font-family="Noto Sans CJK KR" font-weight="bold" font-size="34" fill="#fff" text-anchor="middle">✓</text><text x="150" y="1173" font-family="Noto Sans CJK KR" font-weight="bold" font-size="40" fill="#2a2a2a">숙소·교통 조기 예약</text>
<rect x="0" y="1270" width="1080" height="80" fill="#E8EEF5"/><text x="60" y="1322" font-family="Noto Sans CJK KR" font-size="32" fill="#5B6B7C">출처: 디블리의 하루 금융 한잔</text>
</svg>