<svg xmlns="http://www.w3.org/2000/svg" width="1080" height="1350" viewBox="0 0 1080 1350">
<rect width="1080" height="1350" fill="#F1F8FA"/>
<rect width="1080" height="200" fill="#1E6B7A"/>
<text x="60" y="105" font-family="Malgun Gothic" font-weight="bold" font-size="60" fill="#ffffff">용도별 손풍기 추천</text>
<text x="60" y="165" font-family="Malgun Gothic" font-size="38" fill="#DFF3F7">어디서 쓰느냐에 따라 정답이 달라집니다</text>
<rect x="60" y="300" width="960" height="120" rx="16" fill="#ffffff" stroke="#D6E4E8"/><text x="96" y="374" font-family="Malgun Gothic" font-weight="bold" font-size="42" fill="#3B5560">출퇴근·이동</text><text x="984" y="374" font-family="Malgun Gothic" font-weight="bold" font-size="40" fill="#1E6B7A" text-anchor="end">경량 핸디형 (200g 이하)</text><rect x="60" y="438" width="960" height="120" rx="16" fill="#ffffff" stroke="#D6E4E8"/><text x="96" y="512" font-family="Malgun Gothic" font-weight="bold" font-size="42" fill="#3B5560">육아·조용한 공간</text><text x="984" y="512" font-family="Malgun Gothic" font-weight="bold" font-size="40" fill="#1E6B7A" text-anchor="end">클립·거치형 + BLDC 저소음</text><rect x="60" y="576" width="960" height="120" rx="16" fill="#ffffff" stroke="#D6E4E8"/><text x="96" y="650" font-family="Malgun Gothic" font-weight="bold" font-size="42" fill="#3B5560">사무실·탁상</text><text x="984" y="650" font-family="Malgun Gothic" font-weight="bold" font-size="40" fill="#1E6B7A" text-anchor="end">대용량 탁상 겸용 (4000mAh)</text><rect x="60" y="714" width="960" height="120" rx="16" fill="#ffffff" stroke="#D6E4E8"/><text x="96" y="788" font-family="Malgun Gothic" font-weight="bold" font-size="42" fill="#3B5560">캠핑·야외</text><text x="984" y="788" font-family="Malgun Gothic" font-weight="bold" font-size="40" fill="#1E6B7A" text-anchor="end">대용량·강풍형 (8000mAh급)</text><rect x="60" y="852" width="960" height="120" rx="16" fill="#ffffff" stroke="#D6E4E8"/><text x="96" y="926" font-family="Malgun Gothic" font-weight="bold" font-size="42" fill="#3B5560">이동 중 양손 자유</text><text x="984" y="926" font-family="Malgun Gothic" font-weight="bold" font-size="40" fill="#1E6B7A" text-anchor="end">목걸이형(넥밴드)</text>
<rect x="0" y="1270" width="1080" height="80" fill="#E3EEF1"/>
<text x="60" y="1322" font-family="Malgun Gothic" font-size="34" fill="#5B6B7C">내 상황에 맞는 유형부터 고르기</text>
</svg>