<svg xmlns="http://www.w3.org/2000/svg" width="1080" height="1350" viewBox="0 0 1080 1350"><rect width="1080" height="1350" fill="#F4FAFB"/><rect x="0" y="0" width="1080" height="200" rx="0" ry="0" fill="#0F7691"/><rect x="0" y="200" width="1080" height="10" rx="0" ry="0" fill="#FFD23F"/><rect x="60" y="44" width="172" height="58" rx="29" ry="29" fill="#FFD23F"/><text x="146.0" y="82" font-family="Noto Sans CJK KR" font-weight="bold" font-size="30" fill="#1A262B" text-anchor="middle">생활꿀팁</text><text x="60" y="150" font-family="Noto Sans CJK KR" font-weight="bold" font-size="58" fill="#FFFFFF" text-anchor="start">용도별 제습기 추천 BEST 5</text><text x="60" y="190" font-family="Noto Sans CJK KR" font-weight="normal" font-size="30" fill="#E8F5F8" text-anchor="start">공간 유형에 맞는 용량·방식 한눈에 보기</text><rect x="60" y="282" width="960" height="186" rx="20" ry="20" fill="#FFFFFF" stroke="#C8E0E6" stroke-width="2"/><circle cx="137" cy="375" r="47" fill="#0F7691"/><text x="137" y="392" font-family="Noto Sans CJK KR" font-weight="bold" font-size="58" fill="#FFFFFF" text-anchor="middle">1</text><text x="214" y="346" font-family="Noto Sans CJK KR" font-weight="bold" font-size="52" fill="#1A262B" text-anchor="start">원룸·자취방</text><text x="214" y="408" font-family="Noto Sans CJK KR" font-weight="normal" font-size="34" fill="#5B6B7C" text-anchor="start">8~13L 가성비형 (빨래 겸하면 15L)</text><rect x="60" y="488" width="960" height="186" rx="20" ry="20" fill="#FFFFFF" stroke="#C8E0E6" stroke-width="2"/><circle cx="137" cy="581" r="47" fill="#0F7691"/><text x="137" y="598" font-family="Noto Sans CJK KR" font-weight="bold" font-size="58" fill="#FFFFFF" text-anchor="middle">2</text><text x="214" y="552" font-family="Noto Sans CJK KR" font-weight="bold" font-size="52" fill="#1A262B" text-anchor="start">거실·아파트 전체</text><text x="214" y="614" font-family="Noto Sans CJK KR" font-weight="normal" font-size="34" fill="#5B6B7C" text-anchor="start">15~18L 메인형 (넓으면 20L 이상)</text><rect x="60" y="694" width="960" height="186" rx="20" ry="20" fill="#FFFFFF" stroke="#C8E0E6" stroke-width="2"/><circle cx="137" cy="787" r="47" fill="#0F7691"/><text x="137" y="804" font-family="Noto Sans CJK KR" font-weight="bold" font-size="58" fill="#FFFFFF" text-anchor="middle">3</text><text x="214" y="758" font-family="Noto Sans CJK KR" font-weight="bold" font-size="52" fill="#1A262B" text-anchor="start">옷방·드레스룸</text><text x="214" y="820" font-family="Noto Sans CJK KR" font-weight="normal" font-size="34" fill="#5B6B7C" text-anchor="start">닫힌 옷장=미니 / 워크인=컴프레서 8~10L</text><rect x="60" y="900" width="960" height="186" rx="20" ry="20" fill="#FFFFFF" stroke="#C8E0E6" stroke-width="2"/><circle cx="137" cy="993" r="47" fill="#0F7691"/><text x="137" y="1010" font-family="Noto Sans CJK KR" font-weight="bold" font-size="58" fill="#FFFFFF" text-anchor="middle">4</text><text x="214" y="964" font-family="Noto Sans CJK KR" font-weight="bold" font-size="52" fill="#1A262B" text-anchor="start">신발장·욕실</text><text x="214" y="1026" font-family="Noto Sans CJK KR" font-weight="normal" font-size="34" fill="#5B6B7C" text-anchor="start">펠티어 미니 (무소음·초저전력)</text><rect x="60" y="1106" width="960" height="186" rx="20" ry="20" fill="#FFFFFF" stroke="#C8E0E6" stroke-width="2"/><circle cx="137" cy="1199" r="47" fill="#0F7691"/><text x="137" y="1216" font-family="Noto Sans CJK KR" font-weight="bold" font-size="58" fill="#FFFFFF" text-anchor="middle">5</text><text x="214" y="1170" font-family="Noto Sans CJK KR" font-weight="bold" font-size="52" fill="#1A262B" text-anchor="start">의류건조 겸용</text><text x="214" y="1232" font-family="Noto Sans CJK KR" font-weight="normal" font-size="34" fill="#5B6B7C" text-anchor="start">15L 이상 + 연속배수 + 선풍기 병행</text><rect x="0" y="1278" width="1080" height="72" rx="0" ry="0" fill="#E8F5F8"/><text x="60" y="1310" font-family="Noto Sans CJK KR" font-weight="normal" font-size="30" fill="#5B6B7C" text-anchor="start">출처: 본문 '용도별 추천 BEST 5'</text><text x="1020" y="1310" font-family="Noto Sans CJK KR" font-weight="normal" font-size="28" fill="#5B6B7C" text-anchor="end">blog.naver.com/trip_chocho</text></svg>