<svg xmlns="http://www.w3.org/2000/svg" width="1080" height="1350" viewBox="0 0 1080 1350"><rect width="1080" height="1350" fill="#F4FAFB"/><rect x="0" y="0" width="1080" height="200" rx="0" ry="0" fill="#0F7691"/><rect x="0" y="200" width="1080" height="10" rx="0" ry="0" fill="#FFD23F"/><rect x="60" y="44" width="172" height="58" rx="29" ry="29" fill="#FFD23F"/><text x="146.0" y="82" font-family="Noto Sans CJK KR" font-weight="bold" font-size="30" fill="#1A262B" text-anchor="middle">생활꿀팁</text><text x="60" y="150" font-family="Noto Sans CJK KR" font-weight="bold" font-size="58" fill="#FFFFFF" text-anchor="start">거실용 메인 제습기 비교</text><text x="60" y="190" font-family="Noto Sans CJK KR" font-weight="normal" font-size="30" fill="#E8F5F8" text-anchor="start">가성비 16L급 vs 프리미엄 13L 인버터</text><rect x="60" y="290" width="460" height="760" rx="24" ry="24" fill="#FFFFFF" stroke="#C8E0E6" stroke-width="2"/><rect x="60" y="290" width="460" height="96" rx="24" ry="24" fill="#1AA2B8"/><text x="290.0" y="352" font-family="Noto Sans CJK KR" font-weight="bold" font-size="40" fill="#FFFFFF" text-anchor="middle">가성비 대표</text><rect x="560" y="290" width="460" height="760" rx="24" ry="24" fill="#FFFFFF" stroke="#C8E0E6" stroke-width="2"/><rect x="560" y="290" width="460" height="96" rx="24" ry="24" fill="#0A4F63"/><text x="790.0" y="352" font-family="Noto Sans CJK KR" font-weight="bold" font-size="40" fill="#FFD23F" text-anchor="middle">프리미엄</text><text x="290.0" y="476" font-family="Noto Sans CJK KR" font-weight="bold" font-size="40" fill="#1A262B" text-anchor="middle">캐리어 16L급</text><text x="290.0" y="572" font-family="Noto Sans CJK KR" font-weight="bold" font-size="58" fill="#0F7691" text-anchor="middle">18~22만원</text><text x="94" y="664" font-family="Noto Sans CJK KR" font-weight="normal" font-size="30" fill="#5B6B7C" text-anchor="start">방식</text><text x="486" y="664" font-family="Noto Sans CJK KR" font-weight="bold" font-size="32" fill="#1A262B" text-anchor="end">정속형</text><line x1="94" y1="684" x2="486" y2="684" stroke="#C8E0E6" stroke-width="2"/><text x="94" y="752" font-family="Noto Sans CJK KR" font-weight="normal" font-size="30" fill="#5B6B7C" text-anchor="start">효율등급</text><text x="486" y="752" font-family="Noto Sans CJK KR" font-weight="bold" font-size="32" fill="#1A262B" text-anchor="end">2등급</text><line x1="94" y1="772" x2="486" y2="772" stroke="#C8E0E6" stroke-width="2"/><text x="94" y="840" font-family="Noto Sans CJK KR" font-weight="normal" font-size="30" fill="#5B6B7C" text-anchor="start">배수</text><text x="486" y="840" font-family="Noto Sans CJK KR" font-weight="bold" font-size="32" fill="#1A262B" text-anchor="end">연속배수</text><line x1="94" y1="860" x2="486" y2="860" stroke="#C8E0E6" stroke-width="2"/><text x="94" y="928" font-family="Noto Sans CJK KR" font-weight="normal" font-size="30" fill="#5B6B7C" text-anchor="start">특징</text><text x="486" y="928" font-family="Noto Sans CJK KR" font-weight="bold" font-size="32" fill="#1A262B" text-anchor="end">거실 가성비</text><line x1="94" y1="948" x2="486" y2="948" stroke="#C8E0E6" stroke-width="2"/><text x="790.0" y="476" font-family="Noto Sans CJK KR" font-weight="bold" font-size="40" fill="#1A262B" text-anchor="middle">LG 오브제 13L</text><text x="790.0" y="572" font-family="Noto Sans CJK KR" font-weight="bold" font-size="58" fill="#0F7691" text-anchor="middle">36~43만원</text><text x="594" y="664" font-family="Noto Sans CJK KR" font-weight="normal" font-size="30" fill="#5B6B7C" text-anchor="start">방식</text><text x="986" y="664" font-family="Noto Sans CJK KR" font-weight="bold" font-size="32" fill="#1A262B" text-anchor="end">인버터</text><line x1="594" y1="684" x2="986" y2="684" stroke="#C8E0E6" stroke-width="2"/><text x="594" y="752" font-family="Noto Sans CJK KR" font-weight="normal" font-size="30" fill="#5B6B7C" text-anchor="start">효율등급</text><text x="986" y="752" font-family="Noto Sans CJK KR" font-weight="bold" font-size="32" fill="#1A262B" text-anchor="end">1등급</text><line x1="594" y1="772" x2="986" y2="772" stroke="#C8E0E6" stroke-width="2"/><text x="594" y="840" font-family="Noto Sans CJK KR" font-weight="normal" font-size="30" fill="#5B6B7C" text-anchor="start">전기료</text><text x="986" y="840" font-family="Noto Sans CJK KR" font-weight="bold" font-size="32" fill="#1A262B" text-anchor="end">월 약 5,000원</text><line x1="594" y1="860" x2="986" y2="860" stroke="#C8E0E6" stroke-width="2"/><text x="594" y="928" font-family="Noto Sans CJK KR" font-weight="normal" font-size="30" fill="#5B6B7C" text-anchor="start">특징</text><text x="986" y="928" font-family="Noto Sans CJK KR" font-weight="bold" font-size="32" fill="#1A262B" text-anchor="end">저소음·앱제어</text><line x1="594" y1="948" x2="986" y2="948" stroke="#C8E0E6" stroke-width="2"/><rect x="60" y="1080" width="960" height="140" rx="20" ry="20" fill="#0A4F63"/><text x="100" y="1144" font-family="Noto Sans CJK KR" font-weight="bold" font-size="38" fill="#FFFFFF" text-anchor="start">가성비=16L 정속형 / 소음·저전력=13L 인버터</text><text x="100" y="1196" font-family="Noto Sans CJK KR" font-weight="normal" font-size="32" fill="#E8F5F8" text-anchor="start">전기료 차이는 월 약 2~3천원 수준</text><rect x="0" y="1278" width="1080" height="72" rx="0" ry="0" fill="#E8F5F8"/><text x="60" y="1310" font-family="Noto Sans CJK KR" font-weight="normal" font-size="30" fill="#5B6B7C" text-anchor="start">출처: 본문 가격·스펙(제조사 표시 기준)</text><text x="1020" y="1310" font-family="Noto Sans CJK KR" font-weight="normal" font-size="28" fill="#5B6B7C" text-anchor="end">blog.naver.com/trip_chocho</text></svg>