<svg xmlns="http://www.w3.org/2000/svg" width="1080" height="1350" viewBox="0 0 1080 1350"><rect width="1080" height="1350" fill="#F4FAFB"/><rect x="0" y="0" width="1080" height="200" rx="0" ry="0" fill="#0F7691"/><rect x="0" y="200" width="1080" height="10" rx="0" ry="0" fill="#FFD23F"/><rect x="60" y="44" width="172" height="58" rx="29" ry="29" fill="#FFD23F"/><text x="146.0" y="82" font-family="Noto Sans CJK KR" font-weight="bold" font-size="30" fill="#1A262B" text-anchor="middle">생활꿀팁</text><text x="60" y="150" font-family="Noto Sans CJK KR" font-weight="bold" font-size="58" fill="#FFFFFF" text-anchor="start">제습기 vs 에어컨 제습모드</text><text x="60" y="190" font-family="Noto Sans CJK KR" font-weight="normal" font-size="30" fill="#E8F5F8" text-anchor="start">작동 기준·전기료 비교 (소스 기준, 단정 아님)</text><rect x="60" y="300" width="460" height="720" rx="24" ry="24" fill="#FFFFFF" stroke="#C8E0E6" stroke-width="2"/><rect x="60" y="300" width="460" height="100" rx="24" ry="24" fill="#0F7691"/><text x="290.0" y="366" font-family="Noto Sans CJK KR" font-weight="bold" font-size="46" fill="#FFFFFF" text-anchor="middle">제습기</text><rect x="560" y="300" width="460" height="720" rx="24" ry="24" fill="#FFFFFF" stroke="#C8E0E6" stroke-width="2"/><rect x="560" y="300" width="460" height="100" rx="24" ry="24" fill="#0A4F63"/><text x="790.0" y="366" font-family="Noto Sans CJK KR" font-weight="bold" font-size="46" fill="#FFD23F" text-anchor="middle">에어컨 제습</text><text x="94" y="470" font-family="Noto Sans CJK KR" font-weight="normal" font-size="28" fill="#5B6B7C" text-anchor="start">기준</text><text x="94" y="514" font-family="Noto Sans CJK KR" font-weight="bold" font-size="34" fill="#1A262B" text-anchor="start">희망 습도</text><line x1="94" y1="536" x2="486" y2="536" stroke="#C8E0E6" stroke-width="2"/><text x="94" y="600" font-family="Noto Sans CJK KR" font-weight="normal" font-size="28" fill="#5B6B7C" text-anchor="start">실외기</text><text x="94" y="644" font-family="Noto Sans CJK KR" font-weight="bold" font-size="34" fill="#1A262B" text-anchor="start">없음 (실내온도↑)</text><line x1="94" y1="666" x2="486" y2="666" stroke="#C8E0E6" stroke-width="2"/><text x="94" y="730" font-family="Noto Sans CJK KR" font-weight="normal" font-size="28" fill="#5B6B7C" text-anchor="start">바람</text><text x="94" y="774" font-family="Noto Sans CJK KR" font-weight="bold" font-size="34" fill="#1A262B" text-anchor="start">뜨겁고 건조</text><line x1="94" y1="796" x2="486" y2="796" stroke="#C8E0E6" stroke-width="2"/><text x="290.0" y="900" font-family="Noto Sans CJK KR" font-weight="normal" font-size="30" fill="#5B6B7C" text-anchor="middle">소비전력 약 300W</text><text x="290.0" y="968" font-family="Noto Sans CJK KR" font-weight="bold" font-size="56" fill="#0F7691" text-anchor="middle">월 약 1만원</text><text x="594" y="470" font-family="Noto Sans CJK KR" font-weight="normal" font-size="28" fill="#5B6B7C" text-anchor="start">기준</text><text x="594" y="514" font-family="Noto Sans CJK KR" font-weight="bold" font-size="34" fill="#1A262B" text-anchor="start">희망 온도</text><line x1="594" y1="536" x2="986" y2="536" stroke="#C8E0E6" stroke-width="2"/><text x="594" y="600" font-family="Noto Sans CJK KR" font-weight="normal" font-size="28" fill="#5B6B7C" text-anchor="start">실외기</text><text x="594" y="644" font-family="Noto Sans CJK KR" font-weight="bold" font-size="34" fill="#1A262B" text-anchor="start">있음 (열 배출)</text><line x1="594" y1="666" x2="986" y2="666" stroke="#C8E0E6" stroke-width="2"/><text x="594" y="730" font-family="Noto Sans CJK KR" font-weight="normal" font-size="28" fill="#5B6B7C" text-anchor="start">바람</text><text x="594" y="774" font-family="Noto Sans CJK KR" font-weight="bold" font-size="34" fill="#1A262B" text-anchor="start">시원함</text><line x1="594" y1="796" x2="986" y2="796" stroke="#C8E0E6" stroke-width="2"/><text x="790.0" y="900" font-family="Noto Sans CJK KR" font-weight="normal" font-size="30" fill="#5B6B7C" text-anchor="middle">소비전력 700W↑</text><text x="790.0" y="968" font-family="Noto Sans CJK KR" font-weight="bold" font-size="56" fill="#0F7691" text-anchor="middle">월 약 2만원</text><rect x="60" y="1050" width="960" height="140" rx="20" ry="20" fill="#0A4F63"/><text x="100" y="1114" font-family="Noto Sans CJK KR" font-weight="bold" font-size="36" fill="#FFFFFF" text-anchor="start">냉방+제습 동시 → 에어컨</text><text x="100" y="1166" font-family="Noto Sans CJK KR" font-weight="bold" font-size="34" fill="#FFD23F" text-anchor="start">좁은 공간 집중제습·빨래·전기료 절약 → 제습기</text><rect x="0" y="1278" width="1080" height="72" rx="0" ry="0" fill="#E8F5F8"/><text x="60" y="1310" font-family="Noto Sans CJK KR" font-weight="normal" font-size="30" fill="#5B6B7C" text-anchor="start">출처: 본문 FAQ(소스 기준)</text><text x="1020" y="1310" font-family="Noto Sans CJK KR" font-weight="normal" font-size="28" fill="#5B6B7C" text-anchor="end">blog.naver.com/trip_chocho</text></svg>