<svg xmlns="http://www.w3.org/2000/svg" width="1080" height="1350" viewBox="0 0 1080 1350"><rect width="1080" height="1350" fill="#F4FAFB"/><rect x="0" y="0" width="1080" height="200" rx="0" ry="0" fill="#0F7691"/><rect x="0" y="200" width="1080" height="10" rx="0" ry="0" fill="#FFD23F"/><rect x="60" y="44" width="172" height="58" rx="29" ry="29" fill="#FFD23F"/><text x="146.0" y="82" font-family="Noto Sans CJK KR" font-weight="bold" font-size="30" fill="#1A262B" text-anchor="middle">생활꿀팁</text><text x="60" y="150" font-family="Noto Sans CJK KR" font-weight="bold" font-size="58" fill="#FFFFFF" text-anchor="start">제습기 구매 전 체크리스트</text><text x="60" y="190" font-family="Noto Sans CJK KR" font-weight="normal" font-size="30" fill="#E8F5F8" text-anchor="start">사기 전 이 5가지만 확인하세요</text><rect x="60" y="290" width="960" height="180" rx="20" ry="20" fill="#FFFFFF" stroke="#C8E0E6" stroke-width="2"/><rect x="100" y="340" width="78" height="78" rx="16" ry="16" fill="#0F7691"/><path d="M120 382 L134 398 L160 362" stroke="#FFFFFF" stroke-width="8" fill="none" stroke-linecap="round" stroke-linejoin="round"/><text x="214" y="354" font-family="Noto Sans CJK KR" font-weight="bold" font-size="50" fill="#1A262B" text-anchor="start">용량(L/일)</text><text x="214" y="418" font-family="Noto Sans CJK KR" font-weight="normal" font-size="32" fill="#5B6B7C" text-anchor="start">내 평수+빨래 여부에 맞게, 한 단계 여유 있게</text><rect x="60" y="490" width="960" height="180" rx="20" ry="20" fill="#FFFFFF" stroke="#C8E0E6" stroke-width="2"/><rect x="100" y="540" width="78" height="78" rx="16" ry="16" fill="#0F7691"/><path d="M120 582 L134 598 L160 562" stroke="#FFFFFF" stroke-width="8" fill="none" stroke-linecap="round" stroke-linejoin="round"/><text x="214" y="554" font-family="Noto Sans CJK KR" font-weight="bold" font-size="50" fill="#1A262B" text-anchor="start">연속배수</text><text x="214" y="618" font-family="Noto Sans CJK KR" font-weight="normal" font-size="32" fill="#5B6B7C" text-anchor="start">호스 별도 구매 여부·배수구 위치 확인</text><rect x="60" y="690" width="960" height="180" rx="20" ry="20" fill="#FFFFFF" stroke="#C8E0E6" stroke-width="2"/><rect x="100" y="740" width="78" height="78" rx="16" ry="16" fill="#0F7691"/><path d="M120 782 L134 798 L160 762" stroke="#FFFFFF" stroke-width="8" fill="none" stroke-linecap="round" stroke-linejoin="round"/><text x="214" y="754" font-family="Noto Sans CJK KR" font-weight="bold" font-size="50" fill="#1A262B" text-anchor="start">소음(dB)</text><text x="214" y="818" font-family="Noto Sans CJK KR" font-weight="normal" font-size="32" fill="#5B6B7C" text-anchor="start">야간·수면 사용은 인버터 30~35dB대</text><rect x="60" y="890" width="960" height="180" rx="20" ry="20" fill="#FFFFFF" stroke="#C8E0E6" stroke-width="2"/><rect x="100" y="940" width="78" height="78" rx="16" ry="16" fill="#0F7691"/><path d="M120 982 L134 998 L160 962" stroke="#FFFFFF" stroke-width="8" fill="none" stroke-linecap="round" stroke-linejoin="round"/><text x="214" y="954" font-family="Noto Sans CJK KR" font-weight="bold" font-size="50" fill="#1A262B" text-anchor="start">에너지효율등급</text><text x="214" y="1018" font-family="Noto Sans CJK KR" font-weight="normal" font-size="32" fill="#5B6B7C" text-anchor="start">라벨에서 소비전력·제습효율 직접 확인</text><rect x="60" y="1090" width="960" height="180" rx="20" ry="20" fill="#FFFFFF" stroke="#C8E0E6" stroke-width="2"/><rect x="100" y="1140" width="78" height="78" rx="16" ry="16" fill="#0F7691"/><path d="M120 1182 L134 1198 L160 1162" stroke="#FFFFFF" stroke-width="8" fill="none" stroke-linecap="round" stroke-linejoin="round"/><text x="214" y="1154" font-family="Noto Sans CJK KR" font-weight="bold" font-size="50" fill="#1A262B" text-anchor="start">물통 크기</text><text x="214" y="1218" font-family="Noto Sans CJK KR" font-weight="normal" font-size="32" fill="#5B6B7C" text-anchor="start">시험 기준 최소 3.8L ~ 최대 5.7L</text><rect x="0" y="1278" width="1080" height="72" rx="0" ry="0" fill="#E8F5F8"/><text x="60" y="1310" font-family="Noto Sans CJK KR" font-weight="normal" font-size="30" fill="#5B6B7C" text-anchor="start">출처: 본문 '구매 전 체크할 주의점'</text><text x="1020" y="1310" font-family="Noto Sans CJK KR" font-weight="normal" font-size="28" fill="#5B6B7C" text-anchor="end">blog.naver.com/trip_chocho</text></svg>